<svg id="svg" version="1.1" xmlns="http://www.w3.org/2000/svg" xmlns:xlink="http://www.w3.org/1999/xlink" width="400" height="139.20704845814976" viewBox="0, 0, 400,139.20704845814976"><g id="svgg"><path id="path0" d="M282.088 0.319 C 281.818 1.170,277.186 3.025,273.963 3.574 C 271.541 3.987,271.793 6.109,274.290 6.331 C 276.176 6.498,277.086 6.951,277.548 7.952 L 277.917 8.750 277.969 32.083 C 278.008 49.659,277.972 55.705,277.822 56.583 C 277.484 58.555,276.727 59.040,273.145 59.583 C 271.801 59.786,271.173 61.225,272.067 62.054 L 272.468 62.425 281.442 62.418 C 286.997 62.413,290.519 62.348,290.684 62.247 C 291.853 61.533,291.245 59.830,289.733 59.586 C 284.710 58.773,285.000 59.633,285.000 45.571 C 285.000 31.714,284.966 31.909,287.859 29.005 C 292.148 24.698,299.149 24.436,302.822 28.445 C 304.893 30.704,304.994 31.516,304.993 45.750 C 304.992 59.632,305.243 58.734,301.167 59.412 C 299.155 59.747,298.483 60.295,298.755 61.379 C 299.026 62.458,298.594 62.413,308.614 62.422 L 317.697 62.430 318.015 62.026 C 318.760 61.079,318.170 59.793,316.894 59.583 C 313.598 59.041,313.242 58.888,312.549 57.710 L 312.083 56.917 311.991 44.333 L 311.899 31.750 311.301 29.890 C 310.007 25.863,308.066 23.790,304.417 22.538 C 302.617 21.921,299.311 21.501,297.762 21.693 C 297.206 21.762,296.096 21.894,295.296 21.986 C 292.912 22.261,290.445 23.412,287.948 25.417 C 285.502 27.379,285.746 27.246,285.346 26.846 C 285.002 26.502,285.000 26.414,284.980 13.792 C 284.969 6.802,284.913 0.858,284.854 0.583 C 284.714 -0.077,282.287 -0.308,282.088 0.319 M179.483 5.800 C 178.985 6.245,178.810 6.594,177.919 8.917 C 177.708 9.467,177.298 10.517,177.007 11.250 C 176.716 11.983,176.341 12.958,176.174 13.417 C 176.006 13.875,175.630 14.850,175.339 15.583 C 175.048 16.317,174.654 17.367,174.465 17.917 C 174.275 18.467,174.055 19.000,173.976 19.101 C 173.897 19.203,173.690 19.690,173.516 20.185 C 172.655 22.637,172.343 23.458,172.100 23.917 C 171.955 24.192,171.835 24.524,171.834 24.656 C 171.834 24.787,171.686 25.200,171.505 25.573 C 171.324 25.946,171.032 26.663,170.856 27.167 C 170.680 27.671,170.297 28.683,170.007 29.417 C 169.716 30.150,169.338 31.125,169.167 31.583 C 168.996 32.042,168.618 33.017,168.327 33.750 C 168.036 34.483,167.657 35.496,167.486 36.000 C 167.314 36.504,167.091 37.057,166.990 37.227 C 166.889 37.398,166.635 38.036,166.424 38.644 C 166.070 39.667,165.839 40.281,164.733 43.124 C 163.814 45.486,163.445 46.464,163.144 47.333 C 162.969 47.837,162.725 48.438,162.601 48.667 C 162.477 48.896,162.281 49.383,162.164 49.750 C 161.977 50.340,161.463 51.648,160.591 53.750 C 158.753 58.184,157.957 58.955,154.986 59.175 C 152.445 59.363,151.500 59.895,151.500 61.137 C 151.500 62.478,152.200 62.643,157.083 62.455 C 158.917 62.384,162.873 62.373,165.875 62.430 L 171.334 62.534 171.834 62.000 C 173.250 60.483,171.996 59.356,168.667 59.154 C 164.089 58.877,163.451 57.412,165.550 52.000 C 165.781 51.404,166.195 50.354,166.469 49.667 C 166.743 48.979,167.129 48.004,167.325 47.500 C 167.522 46.996,167.784 46.358,167.906 46.083 C 168.029 45.808,168.185 45.396,168.253 45.167 C 169.092 42.340,168.808 42.426,177.500 42.363 C 186.833 42.296,187.102 42.342,187.678 44.133 C 187.787 44.472,187.942 44.833,188.023 44.935 C 188.103 45.036,188.312 45.524,188.488 46.018 C 188.663 46.512,189.083 47.554,189.420 48.333 C 189.757 49.112,190.168 50.087,190.333 50.500 C 190.499 50.913,190.911 51.887,191.251 52.667 C 193.467 57.758,193.030 58.956,188.879 59.159 C 185.659 59.316,184.379 59.998,184.724 61.372 C 185.006 62.497,184.021 62.412,196.935 62.420 L 208.567 62.426 208.983 62.068 C 210.301 60.935,208.988 59.483,206.379 59.191 C 203.955 58.920,201.829 56.771,200.832 53.583 C 200.717 53.217,200.558 52.834,200.478 52.732 C 200.397 52.631,200.190 52.143,200.017 51.649 C 199.844 51.154,199.476 50.188,199.200 49.500 C 198.925 48.813,198.541 47.837,198.348 47.333 C 198.154 46.829,197.914 46.273,197.813 46.098 C 197.712 45.923,197.494 45.398,197.328 44.931 C 197.162 44.465,196.752 43.446,196.417 42.667 C 196.082 41.887,195.672 40.875,195.506 40.417 C 194.963 38.921,194.499 37.756,194.327 37.453 C 194.164 37.168,193.643 35.848,192.997 34.083 C 192.829 33.625,192.418 32.612,192.083 31.833 C 191.749 31.054,191.339 30.042,191.174 29.583 C 191.008 29.125,190.596 28.113,190.257 27.333 C 189.918 26.554,189.502 25.542,189.334 25.083 C 189.165 24.625,188.826 23.762,188.579 23.167 C 188.108 22.030,187.655 20.897,186.513 18.000 C 186.134 17.037,185.704 15.987,185.558 15.667 C 185.412 15.346,185.157 14.708,184.991 14.250 C 184.825 13.792,184.467 12.892,184.195 12.250 C 182.837 9.045,182.627 8.523,182.392 7.766 C 181.708 5.562,180.593 4.808,179.483 5.800 M7.059 6.829 C 6.570 7.030,6.167 7.648,6.167 8.196 C 6.167 9.496,7.020 9.976,9.667 10.167 C 13.123 10.415,13.557 11.574,12.660 18.167 C 12.566 18.854,12.375 21.442,12.235 23.917 C 12.096 26.392,11.912 29.167,11.828 30.083 C 11.744 31.000,11.556 33.700,11.410 36.083 C 11.265 38.467,11.084 41.092,11.007 41.917 C 10.931 42.742,10.786 44.692,10.686 46.250 C 9.880 58.771,9.859 58.828,5.973 59.174 C 3.101 59.429,2.159 60.202,2.856 61.733 C 3.154 62.388,3.113 62.385,12.582 62.411 L 21.580 62.435 21.957 62.058 C 22.361 61.655,22.466 60.727,22.172 60.176 C 21.905 59.678,20.691 59.312,18.834 59.169 C 14.130 58.806,13.459 56.696,14.415 45.250 C 14.561 43.508,14.822 39.833,14.997 37.083 C 15.171 34.333,15.396 31.183,15.496 30.083 C 15.597 28.983,15.791 26.283,15.928 24.083 C 16.264 18.674,16.380 17.553,16.630 17.304 C 16.951 16.982,17.365 17.325,17.691 18.184 C 17.845 18.587,18.208 19.517,18.500 20.250 C 18.791 20.983,19.217 22.071,19.446 22.667 C 19.675 23.262,20.045 24.218,20.267 24.791 C 20.490 25.363,20.852 26.301,21.071 26.874 C 21.291 27.448,21.709 28.517,22.000 29.250 C 22.834 31.349,23.340 32.675,23.686 33.667 C 23.861 34.171,24.081 34.717,24.174 34.880 C 24.267 35.043,24.534 35.681,24.767 36.297 C 25.320 37.753,25.923 39.326,26.428 40.625 C 26.651 41.198,27.015 42.135,27.237 42.708 C 28.222 45.246,28.515 45.997,29.013 47.250 C 29.304 47.983,29.721 49.101,29.939 49.735 C 30.158 50.368,30.400 50.968,30.478 51.068 C 30.556 51.168,30.737 51.587,30.881 52.000 C 31.025 52.413,31.380 53.350,31.670 54.083 C 32.413 55.966,32.899 57.236,33.391 58.583 C 34.096 60.513,35.206 61.043,36.230 59.940 C 36.719 59.413,37.077 58.685,38.329 55.667 C 38.614 54.979,39.029 54.004,39.250 53.500 C 39.471 52.996,39.888 52.021,40.176 51.333 C 40.464 50.646,40.868 49.708,41.075 49.250 C 41.282 48.792,41.607 48.042,41.799 47.583 C 42.608 45.647,43.382 43.860,43.761 43.052 C 43.984 42.577,44.167 42.141,44.167 42.085 C 44.167 42.028,44.308 41.667,44.480 41.283 C 44.768 40.641,45.367 39.236,46.163 37.333 C 46.537 36.439,47.620 33.916,49.777 28.917 C 50.489 27.268,50.840 26.434,51.498 24.833 C 51.780 24.146,52.196 23.201,52.422 22.733 C 52.648 22.266,52.833 21.828,52.833 21.761 C 52.833 21.616,53.739 19.498,54.156 18.667 C 54.317 18.346,54.541 17.802,54.654 17.457 C 54.882 16.763,55.301 16.441,55.676 16.672 C 55.991 16.867,56.136 54.034,55.828 55.833 C 55.418 58.228,54.469 58.950,51.461 59.157 C 48.346 59.371,47.054 60.586,48.458 61.981 L 48.917 62.437 59.561 62.423 L 70.205 62.409 70.602 61.913 C 71.773 60.449,70.608 59.375,67.637 59.179 C 65.631 59.047,65.193 58.851,64.583 57.816 C 64.256 57.261,64.248 56.849,64.142 36.500 C 64.082 25.087,63.982 15.375,63.920 14.917 C 63.791 13.965,64.201 11.278,64.537 10.872 C 64.917 10.414,65.796 10.167,67.048 10.167 C 69.983 10.167,71.581 8.574,70.070 7.154 L 69.640 6.750 63.550 6.702 C 55.354 6.638,55.718 6.521,54.347 9.667 C 53.967 10.537,53.514 11.550,53.341 11.917 C 52.870 12.908,52.000 14.958,52.000 15.074 C 52.000 15.130,51.732 15.755,51.404 16.463 C 50.471 18.480,50.382 18.678,49.855 19.917 C 48.689 22.652,47.469 25.464,47.178 26.083 C 47.006 26.450,46.627 27.313,46.336 28.000 C 46.045 28.688,45.670 29.550,45.503 29.917 C 45.336 30.283,44.972 31.108,44.695 31.750 C 44.418 32.392,43.730 33.967,43.167 35.250 C 42.603 36.533,41.916 38.108,41.639 38.750 C 41.361 39.392,40.998 40.217,40.830 40.583 C 40.663 40.950,40.290 41.813,40.002 42.500 C 39.713 43.188,39.374 43.942,39.248 44.176 C 39.123 44.410,38.866 45.010,38.678 45.509 C 37.686 48.141,37.306 47.880,35.592 43.390 C 35.271 42.550,34.898 41.613,34.762 41.307 C 34.479 40.668,32.803 36.414,32.441 35.417 C 32.308 35.050,31.960 34.150,31.667 33.417 C 31.374 32.683,31.026 31.793,30.894 31.438 C 30.762 31.084,30.539 30.570,30.397 30.296 C 30.256 30.023,30.040 29.488,29.917 29.108 C 29.671 28.345,28.945 26.530,28.575 25.750 C 28.444 25.475,28.072 24.537,27.747 23.667 C 27.423 22.796,27.013 21.746,26.836 21.333 C 25.725 18.734,25.500 18.174,25.500 18.007 C 25.500 17.904,25.343 17.513,25.152 17.138 C 24.961 16.763,24.706 16.147,24.585 15.770 C 24.464 15.392,24.090 14.446,23.753 13.667 C 23.417 12.887,23.005 11.875,22.839 11.417 C 21.662 8.172,21.260 7.420,20.504 7.043 C 19.849 6.716,7.799 6.524,7.059 6.829 M254.968 13.341 C 254.813 13.432,254.228 14.265,253.667 15.193 C 251.850 18.200,250.809 19.278,246.964 22.133 C 245.240 23.412,245.000 23.697,245.000 24.463 C 245.000 25.308,245.487 25.564,247.305 25.675 C 250.095 25.845,249.833 24.284,249.833 40.777 C 249.833 55.982,249.870 56.640,250.846 58.724 C 253.601 64.612,262.502 64.771,267.873 59.029 C 268.715 58.129,269.006 57.261,268.693 56.575 C 268.286 55.681,267.310 55.901,265.335 57.333 C 262.159 59.635,259.318 59.256,257.837 56.333 C 256.909 54.500,256.807 52.675,256.865 38.805 L 256.917 26.527 257.321 26.097 L 257.725 25.667 262.186 25.667 L 266.648 25.667 267.116 25.264 C 267.540 24.900,267.583 24.760,267.583 23.770 C 267.583 22.019,267.827 22.099,262.203 21.991 C 259.570 21.941,257.401 21.884,257.381 21.866 C 257.007 21.522,256.909 20.736,256.833 17.475 C 256.735 13.228,256.407 12.502,254.968 13.341 M178.284 20.918 C 178.481 21.055,178.753 21.524,178.889 21.959 C 179.025 22.394,179.378 23.313,179.673 24.000 C 180.299 25.460,181.100 27.468,181.434 28.417 C 181.563 28.783,181.746 29.217,181.839 29.380 C 181.998 29.657,182.305 30.432,183.241 32.917 C 183.449 33.467,183.732 34.179,183.872 34.500 C 185.863 39.077,186.305 38.750,178.122 38.750 C 169.995 38.750,170.528 38.978,171.686 36.000 C 172.427 34.095,172.964 32.680,173.582 31.000 C 174.001 29.862,174.472 28.633,175.337 26.417 C 175.624 25.683,176.031 24.596,176.244 24.000 C 177.429 20.674,177.590 20.431,178.284 20.918 M92.901 21.839 C 90.417 22.131,88.682 22.574,86.646 23.436 C 86.130 23.655,85.662 23.833,85.606 23.833 C 85.036 23.833,81.140 26.329,79.466 27.767 C 76.550 30.272,74.864 34.049,76.049 35.426 C 77.341 36.928,83.667 34.311,83.667 32.274 C 83.667 31.441,85.620 28.347,87.020 26.964 C 88.879 25.128,90.529 24.500,93.500 24.500 C 97.705 24.500,98.488 25.723,98.622 32.500 C 98.715 37.190,98.621 37.931,97.845 38.655 C 97.441 39.031,94.415 40.667,94.122 40.667 C 93.907 40.667,85.721 44.659,84.037 45.585 C 77.195 49.348,74.273 54.284,76.323 58.617 C 79.301 64.912,88.797 64.693,96.701 58.148 C 98.357 56.776,98.639 56.852,99.670 58.944 C 100.435 60.494,101.325 61.593,102.312 62.207 C 105.623 64.266,114.961 58.993,112.821 56.272 C 112.370 55.699,111.867 55.717,111.066 56.335 C 108.328 58.450,107.176 58.313,106.150 55.750 L 105.750 54.750 105.667 40.750 L 105.583 26.750 105.140 25.820 C 104.117 23.677,101.763 22.322,98.352 21.912 C 97.196 21.774,96.063 21.634,95.833 21.601 C 95.604 21.569,94.284 21.676,92.901 21.839 M137.167 21.765 C 130.206 22.588,125.071 25.287,120.713 30.417 C 119.817 31.472,118.278 33.874,118.080 34.529 C 118.015 34.742,117.821 35.150,117.649 35.435 C 117.476 35.720,117.095 36.695,116.801 37.602 L 116.267 39.250 116.264 43.250 L 116.261 47.250 116.816 48.917 C 120.274 59.287,130.103 64.965,140.769 62.756 C 146.517 61.566,152.822 56.991,151.673 54.845 C 151.180 53.925,150.273 54.075,148.949 55.298 C 146.194 57.840,143.348 58.918,139.417 58.909 C 137.016 58.904,136.867 58.876,134.079 57.902 C 130.432 56.628,126.687 52.583,124.837 47.917 C 120.798 37.735,127.519 25.313,137.558 24.403 C 140.806 24.109,142.880 25.569,146.058 30.392 C 148.527 34.137,149.955 34.786,151.041 32.655 C 151.450 31.853,151.471 26.683,151.069 25.679 C 150.137 23.349,142.338 21.154,137.167 21.765 M223.324 22.875 C 221.640 24.357,220.706 25.082,219.928 25.513 C 218.069 26.541,216.813 27.144,216.308 27.249 C 213.154 27.908,213.177 30.412,216.339 30.654 C 219.504 30.895,219.240 29.638,219.296 44.761 L 219.341 57.272 218.962 57.829 C 218.260 58.861,217.752 59.066,214.606 59.583 C 213.292 59.799,212.687 61.204,213.542 62.055 L 213.917 62.429 223.056 62.421 C 233.445 62.413,232.733 62.517,232.632 61.017 C 232.567 60.036,232.130 59.735,230.314 59.421 C 228.109 59.040,227.667 58.849,227.091 58.027 L 226.583 57.304 226.583 46.027 L 226.583 34.750 226.979 33.583 C 227.986 30.609,230.664 27.678,232.382 27.668 C 232.949 27.665,233.921 28.302,234.625 29.137 C 238.302 33.497,244.791 28.792,241.366 24.248 C 238.752 20.779,233.483 21.605,228.974 26.191 C 226.401 28.808,226.537 28.874,226.463 24.976 C 226.394 21.345,225.638 20.840,223.324 22.875 M379.167 21.956 C 379.029 22.008,378.384 22.546,377.733 23.151 C 375.654 25.081,372.683 26.890,370.879 27.322 C 367.797 28.062,367.915 30.455,371.044 30.667 C 374.379 30.892,374.369 30.847,374.292 45.864 C 374.220 59.718,374.564 58.746,369.440 59.584 C 368.125 59.798,367.520 61.204,368.375 62.055 L 368.750 62.429 377.788 62.422 L 386.826 62.415 387.196 62.044 C 388.066 61.175,387.422 59.803,386.041 59.581 C 383.018 59.095,382.468 58.883,381.760 57.936 C 381.365 57.406,381.130 37.006,381.493 34.650 C 381.895 32.034,383.995 28.969,386.055 27.989 C 387.316 27.390,387.624 27.495,389.360 29.118 C 390.921 30.579,391.450 30.833,392.917 30.833 C 397.540 30.833,398.479 24.794,394.167 22.791 C 390.940 21.292,387.252 22.484,383.655 26.190 C 381.391 28.522,381.368 28.508,381.295 24.777 C 381.241 21.995,380.752 21.347,379.167 21.956 M318.000 23.167 C 317.073 24.094,318.119 25.500,319.735 25.500 C 320.858 25.500,322.147 25.796,322.683 26.178 C 323.793 26.969,323.740 26.370,323.843 39.250 C 323.951 52.732,324.162 54.824,325.581 56.500 C 325.698 56.637,325.917 56.995,326.069 57.295 C 326.790 58.717,329.490 61.109,331.360 61.981 C 333.686 63.066,338.006 63.569,340.167 63.007 C 340.487 62.924,341.200 62.743,341.750 62.605 C 343.675 62.124,346.430 60.585,348.583 58.789 C 350.606 57.102,350.721 57.184,350.833 60.400 C 350.950 63.742,351.351 64.041,353.695 62.542 C 355.694 61.262,357.124 60.639,360.089 59.755 C 363.470 58.747,364.274 58.134,363.659 57.037 C 363.343 56.474,362.941 56.370,360.995 56.350 C 357.917 56.318,358.167 57.803,358.167 39.500 C 358.167 22.973,358.188 23.357,357.247 22.999 C 356.460 22.700,345.645 22.784,345.204 23.093 C 344.686 23.456,344.710 24.287,345.255 24.875 C 345.734 25.391,345.907 25.440,347.750 25.583 C 349.596 25.726,350.361 26.179,350.778 27.374 C 351.245 28.714,351.248 51.004,350.781 52.649 C 349.102 58.564,338.031 60.650,333.414 55.921 C 331.106 53.557,330.943 52.253,330.905 35.804 C 330.875 22.837,330.911 23.229,329.741 22.978 C 328.297 22.668,318.338 22.828,318.000 23.167 M98.333 41.997 C 98.546 42.132,98.583 42.859,98.581 46.869 L 98.579 51.583 98.021 52.657 C 94.205 60.001,82.170 59.879,83.486 52.511 C 83.918 50.098,85.495 48.327,89.037 46.280 C 90.700 45.318,97.558 41.931,98.000 41.853 C 98.046 41.845,98.196 41.910,98.333 41.997 M210.676 75.786 C 210.452 75.829,209.852 76.146,209.343 76.490 C 207.551 77.700,206.161 78.243,202.667 79.096 C 199.515 79.865,199.438 81.804,202.546 82.152 C 204.334 82.353,205.099 82.817,205.420 83.896 C 205.747 84.999,205.790 98.810,205.467 99.133 C 205.184 99.416,204.410 99.382,203.787 99.060 C 203.496 98.909,202.862 98.684,202.379 98.560 C 201.896 98.435,201.069 98.222,200.542 98.087 C 193.041 96.156,186.105 98.107,180.451 103.738 C 178.101 106.078,175.333 110.360,175.333 111.656 C 175.333 111.758,175.179 112.271,174.990 112.796 C 174.785 113.365,174.554 114.691,174.416 116.083 C 173.393 126.474,179.410 136.024,188.538 138.495 C 188.972 138.612,189.413 138.811,189.517 138.937 C 189.622 139.064,189.905 139.164,190.145 139.161 L 190.583 139.156 190.203 138.839 C 189.994 138.664,189.397 138.433,188.876 138.325 C 182.849 137.074,177.036 131.129,175.323 124.463 C 175.128 123.704,174.886 122.783,174.786 122.417 C 174.426 121.094,174.554 114.905,174.967 113.667 C 175.166 113.071,175.333 112.471,175.338 112.333 C 175.352 111.930,176.377 109.489,176.913 108.583 C 180.796 102.011,187.720 97.622,194.250 97.593 C 197.052 97.580,202.123 98.457,203.591 99.208 C 204.490 99.668,205.073 99.712,205.514 99.355 L 205.917 99.029 205.917 91.723 C 205.917 82.362,205.852 82.180,202.424 81.891 C 200.318 81.713,199.850 79.989,201.784 79.535 C 205.801 78.594,207.707 77.881,209.460 76.664 C 210.683 75.815,211.898 75.709,212.171 76.428 C 212.274 76.699,212.333 86.859,212.333 104.266 C 212.333 133.780,212.297 132.535,213.168 133.001 C 213.773 133.325,214.309 133.044,215.564 131.743 C 216.857 130.402,217.250 130.250,217.854 130.854 C 218.555 131.555,217.863 134.132,216.868 134.525 C 216.620 134.623,216.079 134.843,215.667 135.014 C 215.254 135.184,214.204 135.590,213.333 135.916 C 212.463 136.241,210.925 136.882,209.917 137.339 C 208.908 137.796,207.993 138.169,207.883 138.168 C 206.943 138.161,206.343 137.122,206.317 135.455 C 206.292 133.924,206.164 133.592,205.577 133.538 C 205.045 133.490,205.005 133.512,202.581 135.235 C 200.833 136.476,197.791 138.066,196.811 138.250 C 196.009 138.400,194.964 139.039,195.375 139.128 C 195.535 139.163,195.864 139.036,196.105 138.846 C 196.346 138.656,196.852 138.418,197.230 138.317 C 198.772 137.903,201.941 136.092,204.500 134.163 C 205.697 133.260,206.088 133.641,206.216 135.833 C 206.356 138.225,207.208 138.847,209.092 137.934 C 210.274 137.361,211.684 136.769,213.500 136.082 C 217.843 134.439,218.328 134.017,218.332 131.875 C 218.335 129.874,217.119 129.762,215.392 131.604 C 213.811 133.291,213.029 133.327,212.658 131.732 C 212.572 131.361,212.506 119.423,212.504 103.810 C 212.500 78.081,212.483 76.517,212.208 76.192 C 211.889 75.815,211.311 75.662,210.676 75.786 M293.654 81.663 C 289.542 83.787,290.768 90.831,295.250 90.831 C 297.746 90.831,299.334 89.129,299.470 86.308 C 299.650 82.566,296.608 80.137,293.654 81.663 M296.996 81.834 C 300.303 83.536,299.937 89.514,296.464 90.510 C 293.816 91.270,291.787 89.650,291.411 86.476 C 291.007 83.070,294.216 80.403,296.996 81.834 M1.000 82.635 C 0.404 82.785,0.044 82.934,0.199 82.965 C 0.354 82.996,0.743 82.948,1.064 82.860 C 1.439 82.756,3.236 82.758,6.115 82.865 C 9.191 82.978,14.661 82.970,23.667 82.837 C 39.915 82.597,38.777 82.591,39.261 82.909 C 40.165 83.501,40.168 83.522,40.211 89.461 L 40.250 94.973 39.846 95.403 C 38.885 96.426,37.637 95.514,37.174 93.449 C 35.881 87.678,32.233 85.669,23.042 85.667 C 14.552 85.666,14.970 85.106,15.036 96.371 C 15.099 107.339,14.451 106.384,21.750 106.269 C 30.391 106.132,30.354 106.150,31.331 101.751 C 32.014 98.673,32.359 98.224,33.630 98.758 C 34.328 99.052,34.366 99.382,34.164 103.465 C 34.035 106.078,34.037 108.298,34.172 111.456 C 34.274 113.860,34.306 115.998,34.242 116.206 C 33.793 117.679,32.009 117.450,31.745 115.884 C 30.795 110.269,29.353 109.488,19.950 109.497 C 14.510 109.502,15.001 108.316,15.001 121.446 C 15.000 135.311,14.838 134.804,19.372 135.106 C 21.962 135.279,22.989 135.933,22.565 137.140 C 22.194 138.194,21.812 138.249,16.348 138.042 C 12.695 137.903,10.159 137.904,6.566 138.043 C 2.034 138.218,1.664 138.211,0.931 137.931 C 0.075 137.604,-0.345 137.693,0.435 138.036 C 0.758 138.178,1.742 138.245,3.417 138.239 C 6.829 138.228,16.366 138.229,19.389 138.240 L 21.861 138.250 22.347 137.706 C 23.745 136.141,22.503 135.057,19.052 134.831 C 15.046 134.569,15.171 134.996,15.169 121.536 C 15.166 108.556,14.669 109.750,20.076 109.750 C 29.151 109.751,30.050 110.147,31.225 114.660 C 31.917 117.320,32.419 117.877,33.611 117.305 C 34.517 116.871,34.554 116.593,34.353 111.607 C 34.225 108.414,34.223 105.964,34.345 103.277 C 34.535 99.118,34.498 98.887,33.587 98.471 C 32.269 97.871,31.635 98.858,30.913 102.629 C 30.296 105.853,29.636 106.083,20.992 106.083 C 14.701 106.083,15.250 107.040,15.250 96.083 C 15.250 85.940,15.095 86.542,17.809 86.170 C 21.850 85.617,29.530 86.012,31.750 86.888 C 34.008 87.778,37.000 91.539,37.000 93.488 C 37.000 95.610,39.531 96.878,40.241 95.112 C 40.528 94.396,40.461 84.211,40.165 83.495 C 39.833 82.694,38.761 82.286,37.294 82.401 C 32.047 82.812,3.520 82.850,2.333 82.446 C 2.196 82.400,1.596 82.485,1.000 82.635 M0.071 85.314 C 0.179 85.488,0.791 85.622,2.500 85.845 C 6.561 86.376,6.777 86.469,7.197 87.856 C 7.593 89.167,7.513 132.168,7.112 133.206 C 6.620 134.480,6.171 134.694,3.660 134.846 C 2.485 134.917,1.354 135.066,1.147 135.177 C 0.939 135.288,0.578 135.437,0.343 135.509 C -0.052 135.628,-0.056 135.639,0.288 135.652 C 0.493 135.660,0.943 135.560,1.288 135.430 C 1.634 135.300,2.704 135.147,3.667 135.090 C 6.060 134.948,6.775 134.601,7.287 133.333 L 7.656 132.417 7.660 110.583 C 7.663 87.460,7.676 87.886,6.926 86.741 C 6.644 86.310,4.248 85.667,2.917 85.664 C 2.458 85.664,1.671 85.552,1.167 85.417 C 0.095 85.129,-0.051 85.115,0.071 85.314 M269.543 89.036 C 269.338 89.135,268.858 89.786,268.477 90.483 C 266.984 93.213,264.524 95.908,261.644 97.967 C 260.095 99.074,260.000 99.200,260.000 100.154 C 260.000 101.136,260.424 101.406,262.059 101.464 C 264.749 101.560,264.498 99.976,264.499 116.860 L 264.500 130.804 264.908 132.527 C 265.619 135.524,266.804 137.084,269.255 138.247 C 269.922 138.564,270.497 138.909,270.532 139.014 C 270.567 139.119,270.738 139.177,270.911 139.144 C 271.418 139.046,270.819 138.558,269.834 138.266 C 268.423 137.847,266.796 136.466,265.938 134.960 C 264.783 132.933,264.765 132.671,264.670 116.559 C 264.570 99.711,264.773 101.333,262.765 101.333 C 259.353 101.333,259.137 100.065,262.167 97.831 C 265.259 95.551,267.343 93.144,268.994 89.944 C 269.439 89.082,270.411 88.872,270.950 89.523 C 271.072 89.671,271.160 91.030,271.203 93.417 C 271.290 98.361,270.652 97.826,276.528 97.883 C 281.542 97.932,281.500 97.919,281.500 99.433 C 281.500 100.125,281.413 100.415,281.097 100.782 L 280.695 101.250 276.338 101.264 C 272.084 101.278,271.972 101.287,271.616 101.644 L 271.250 102.009 271.250 115.963 L 271.250 129.917 271.815 131.396 C 273.276 135.221,276.553 135.836,279.948 132.924 C 281.459 131.627,282.667 131.666,282.667 133.011 C 282.667 134.389,278.556 137.787,276.333 138.246 C 275.668 138.383,275.000 138.763,275.000 139.004 C 275.000 139.228,275.458 139.210,275.534 138.983 C 275.567 138.881,276.192 138.561,276.922 138.270 C 281.035 136.634,284.265 132.721,282.258 131.807 C 281.677 131.542,281.197 131.721,279.903 132.683 C 275.956 135.619,273.261 135.053,271.896 131.000 L 271.418 129.583 271.418 115.880 L 271.417 102.176 271.781 101.812 C 272.136 101.456,272.254 101.447,276.485 101.432 L 280.825 101.417 281.287 100.955 C 281.919 100.323,281.966 98.726,281.371 98.130 C 280.998 97.757,280.915 97.749,276.704 97.705 C 274.346 97.681,272.251 97.624,272.049 97.579 C 271.472 97.451,271.335 96.568,271.334 92.951 C 271.333 88.985,271.029 88.320,269.543 89.036 M54.500 97.600 C 48.812 98.287,43.995 101.230,40.859 105.932 C 39.938 107.314,38.667 109.863,38.667 110.327 C 38.667 110.431,38.549 110.744,38.406 111.021 C 37.041 113.660,37.088 120.803,38.497 125.167 C 40.437 131.169,46.201 136.834,51.750 138.191 C 53.577 138.638,53.841 138.725,54.017 138.937 C 54.236 139.201,55.075 139.257,54.915 138.997 C 54.753 138.736,53.764 138.368,52.881 138.241 C 47.902 137.524,41.652 132.283,39.379 126.917 C 37.468 122.405,37.025 114.879,38.471 111.479 C 38.641 111.078,38.836 110.525,38.903 110.250 C 40.370 104.267,47.822 98.390,54.667 97.817 C 55.629 97.736,56.604 97.626,56.833 97.571 C 57.389 97.439,61.533 97.813,62.583 98.090 C 65.352 98.822,66.371 99.222,68.250 100.318 C 83.470 109.194,79.340 134.846,62.130 138.329 C 61.606 138.435,61.006 138.664,60.797 138.839 L 60.417 139.156 60.867 139.161 C 61.114 139.164,61.378 139.057,61.453 138.923 C 61.528 138.789,62.076 138.559,62.670 138.412 C 72.563 135.958,79.135 125.808,77.754 115.114 C 76.221 103.247,66.760 96.121,54.500 97.600 M151.042 97.598 C 148.146 98.084,145.160 99.744,141.862 102.703 C 140.309 104.096,140.197 103.950,140.128 100.443 C 140.059 96.907,139.124 96.485,136.683 98.889 C 134.932 100.614,131.880 102.539,130.012 103.096 C 126.952 104.010,127.515 106.500,130.783 106.500 C 131.874 106.500,132.448 106.758,132.804 107.407 C 133.096 107.940,133.344 130.994,133.078 132.823 C 132.882 134.169,131.821 134.882,129.667 135.114 C 127.541 135.343,126.552 136.600,127.569 137.782 L 127.971 138.250 130.110 138.239 C 132.900 138.225,140.860 138.225,143.441 138.239 C 145.895 138.252,146.167 138.110,146.167 136.811 C 146.167 135.753,145.838 135.542,143.434 135.053 C 139.941 134.343,140.128 135.140,140.201 121.250 L 140.257 110.583 140.718 109.437 C 144.029 101.211,156.237 100.279,158.750 108.061 C 159.458 110.252,159.515 111.419,159.465 122.512 L 159.417 132.941 158.959 133.633 C 158.296 134.635,157.918 134.787,154.933 135.256 C 153.548 135.473,152.906 136.818,153.730 137.776 C 154.230 138.358,155.074 138.418,159.667 138.204 C 161.738 138.107,164.445 138.114,167.129 138.222 C 171.902 138.415,172.083 138.378,172.402 137.120 C 172.695 135.965,171.872 135.386,169.378 134.994 C 166.261 134.503,166.436 135.334,166.315 120.500 L 166.214 108.083 165.796 106.667 C 163.805 99.924,158.096 96.414,151.042 97.598 M238.500 97.595 C 237.537 97.730,236.187 98.027,235.499 98.254 C 234.812 98.481,234.152 98.667,234.034 98.667 C 233.637 98.667,229.775 100.687,228.512 101.556 C 221.612 106.301,220.097 113.465,226.475 111.185 C 228.611 110.422,229.347 109.721,230.341 107.500 C 232.627 102.393,234.995 100.467,239.122 100.359 C 243.740 100.237,244.617 101.805,244.467 109.917 C 244.386 114.321,244.354 114.379,241.063 115.924 C 232.201 120.086,227.926 122.568,225.571 124.916 C 220.887 129.588,221.845 136.855,227.340 138.335 C 227.713 138.436,228.164 138.664,228.342 138.842 C 228.688 139.188,229.000 139.268,229.000 139.009 C 229.000 138.751,228.302 138.342,227.672 138.232 C 225.124 137.785,222.652 134.502,222.673 131.590 C 222.707 126.704,226.026 123.538,236.500 118.403 C 245.434 114.023,244.667 114.886,244.667 109.215 C 244.667 104.096,244.386 102.565,243.217 101.316 C 242.366 100.405,241.882 100.218,240.000 100.072 C 235.633 99.731,232.730 101.881,230.193 107.333 C 229.061 109.765,228.469 110.314,226.137 111.092 C 220.267 113.051,222.268 105.987,228.833 101.576 C 229.992 100.797,233.806 98.833,234.160 98.833 C 234.246 98.833,234.922 98.642,235.662 98.408 C 237.560 97.809,241.144 97.448,243.000 97.669 C 243.779 97.762,244.690 97.866,245.023 97.901 C 247.119 98.117,249.686 99.826,250.588 101.605 L 251.083 102.583 251.167 116.583 L 251.250 130.583 251.648 131.706 C 252.123 133.047,252.874 133.742,253.848 133.742 C 254.445 133.742,254.866 133.510,256.410 132.325 C 257.600 131.412,258.561 132.036,258.175 133.471 C 257.741 135.082,253.690 137.832,251.240 138.180 C 248.479 138.571,247.170 137.690,245.438 134.274 C 244.541 132.505,244.185 132.419,242.728 133.624 C 241.205 134.883,237.877 137.167,237.564 137.167 C 237.529 137.167,237.032 137.384,236.459 137.649 C 235.886 137.914,235.022 138.222,234.539 138.333 C 234.056 138.444,233.493 138.674,233.289 138.845 L 232.917 139.156 233.357 139.161 C 233.599 139.164,233.836 139.066,233.884 138.943 C 233.931 138.819,234.333 138.620,234.776 138.500 C 237.024 137.890,239.729 136.307,242.976 133.699 C 244.222 132.698,244.418 132.767,245.333 134.520 C 246.792 137.312,247.499 138.010,249.219 138.356 C 253.224 139.160,260.077 134.186,258.112 131.901 C 257.609 131.316,257.146 131.422,255.948 132.398 C 253.861 134.098,252.645 133.856,251.837 131.580 L 251.425 130.417 251.337 116.417 L 251.250 102.417 250.844 101.583 C 249.260 98.334,244.406 96.766,238.500 97.595 M325.333 97.436 C 325.104 97.467,324.204 97.580,323.333 97.687 C 309.345 99.402,301.794 117.420,309.958 129.601 C 310.210 129.978,310.632 130.610,310.896 131.006 C 312.070 132.771,314.831 135.131,317.667 136.794 C 318.438 137.247,321.242 138.333,321.638 138.333 C 322.080 138.333,323.035 138.673,323.346 138.940 C 323.491 139.065,323.791 139.164,324.013 139.161 L 324.417 139.156 324.055 138.853 C 323.856 138.687,323.218 138.458,322.638 138.345 C 317.041 137.253,311.904 133.159,309.044 127.514 C 308.653 126.742,308.333 126.007,308.333 125.880 C 308.333 125.754,308.222 125.434,308.085 125.171 C 306.632 122.360,306.612 113.628,308.053 110.883 C 308.207 110.590,308.333 110.233,308.333 110.090 C 308.333 109.947,308.769 108.987,309.301 107.957 C 313.208 100.389,320.704 96.719,330.064 97.791 C 337.908 98.689,344.307 104.304,346.350 112.083 C 347.001 114.561,347.042 114.911,347.047 118.000 C 347.064 128.149,340.705 136.305,331.136 138.408 C 329.782 138.706,329.046 139.167,329.925 139.167 C 330.181 139.167,330.513 139.055,330.664 138.919 C 330.814 138.783,331.495 138.525,332.177 138.347 C 333.708 137.945,335.380 137.320,336.255 136.822 C 342.233 133.421,345.293 129.204,347.013 122.000 C 347.292 120.828,347.304 115.272,347.029 114.000 C 345.271 105.864,340.732 100.620,333.417 98.273 C 331.385 97.621,327.166 97.184,325.333 97.436 M373.250 97.644 C 370.474 98.178,368.246 99.344,365.167 101.877 C 362.869 103.766,362.777 103.731,362.658 100.905 C 362.495 97.048,361.540 96.486,359.097 98.809 C 356.828 100.965,354.216 102.630,352.417 103.066 C 351.012 103.406,350.110 104.557,350.503 105.506 C 350.794 106.211,351.163 106.359,352.955 106.495 C 355.730 106.705,355.648 106.266,355.671 120.899 C 355.693 135.029,355.821 134.459,352.500 134.996 C 350.259 135.357,349.667 135.753,349.667 136.887 C 349.667 138.319,350.249 138.448,355.667 138.210 C 357.536 138.128,360.695 138.133,363.103 138.220 C 367.842 138.392,368.109 138.348,368.437 137.336 C 368.857 136.040,368.066 135.374,365.672 135.011 C 364.104 134.773,363.514 134.435,363.042 133.503 L 362.667 132.763 362.667 122.059 C 362.667 110.243,362.698 109.813,363.679 108.142 C 368.335 100.213,380.140 101.120,381.510 109.511 C 381.812 111.364,381.934 131.235,381.652 132.582 C 381.346 134.037,380.792 134.538,379.082 134.907 C 376.230 135.522,375.833 135.749,375.833 136.772 C 375.833 137.968,376.369 138.251,378.610 138.241 C 381.435 138.229,389.553 138.228,391.973 138.240 C 394.366 138.252,394.667 138.086,394.667 136.757 C 394.667 135.668,394.491 135.568,391.417 134.907 C 388.605 134.303,388.693 134.757,388.673 120.760 C 388.665 114.623,388.621 109.565,388.575 109.519 C 388.529 109.473,388.512 114.769,388.537 121.287 L 388.583 133.138 389.088 133.861 C 389.650 134.664,390.409 135.001,392.622 135.427 C 394.256 135.743,394.500 135.916,394.500 136.764 C 394.500 138.161,393.912 138.290,388.770 138.024 C 386.436 137.904,384.261 137.908,381.412 138.037 C 376.775 138.248,376.449 138.197,376.179 137.217 C 375.881 136.137,376.330 135.672,377.917 135.419 C 382.190 134.737,382.167 134.808,382.167 122.470 C 382.167 117.417,382.096 113.028,382.006 112.510 C 381.917 112.000,381.768 110.814,381.674 109.874 C 380.798 101.110,368.959 99.672,363.742 107.696 C 362.357 109.826,362.333 110.068,362.335 122.138 L 362.337 132.583 362.738 133.446 C 363.291 134.634,364.229 135.082,367.204 135.577 C 368.332 135.765,368.713 136.969,367.900 137.782 L 367.467 138.215 365.108 138.089 C 362.112 137.930,358.358 137.901,353.945 138.003 L 350.474 138.083 350.154 137.690 C 349.231 136.556,349.893 135.772,352.152 135.324 C 356.158 134.530,356.035 135.016,355.967 120.250 C 355.901 106.013,355.941 106.171,352.375 106.168 C 349.973 106.165,350.117 103.768,352.551 103.240 C 354.199 102.883,357.068 101.036,359.434 98.809 C 361.611 96.761,362.333 97.330,362.333 101.091 C 362.333 104.172,362.563 104.237,365.404 101.952 C 370.391 97.939,373.776 96.978,379.333 97.997 C 383.911 98.836,387.326 102.915,388.406 108.833 C 388.448 109.063,388.456 108.834,388.423 108.325 C 387.972 101.231,380.810 96.190,373.250 97.644 M155.250 97.739 C 159.007 98.183,161.919 99.923,163.914 102.917 C 166.025 106.083,166.166 107.208,166.166 120.867 C 166.167 135.367,166.005 134.792,170.248 135.411 C 171.714 135.625,172.167 136.000,172.167 137.002 C 172.167 138.097,171.666 138.224,168.000 138.061 C 163.896 137.879,161.907 137.879,157.802 138.065 L 154.521 138.213 154.010 137.703 C 152.962 136.655,153.570 135.772,155.583 135.417 C 157.673 135.049,158.421 134.732,159.039 133.950 L 159.583 133.263 159.583 121.507 L 159.583 109.750 159.009 108.113 C 156.181 100.059,143.968 100.832,140.545 109.281 L 140.085 110.417 140.036 121.457 C 139.974 135.308,139.772 134.465,143.343 135.264 C 145.715 135.795,146.000 135.962,146.000 136.825 C 146.000 138.196,145.648 138.271,140.335 138.028 C 137.394 137.894,135.313 137.884,133.583 137.996 C 129.572 138.256,128.451 138.224,127.959 137.837 C 127.053 137.124,127.446 135.775,128.617 135.579 C 133.711 134.729,133.333 135.918,133.333 120.728 C 133.333 105.476,133.534 106.449,130.346 106.208 C 127.618 106.001,127.504 104.123,130.167 103.253 C 132.234 102.578,134.883 100.900,136.793 99.058 C 139.219 96.717,140.000 97.195,140.000 101.022 C 140.000 104.115,140.221 104.374,141.722 103.042 C 145.814 99.411,148.845 97.938,153.083 97.519 C 153.175 97.510,154.150 97.609,155.250 97.739 M296.417 97.815 C 296.142 97.987,295.542 98.520,295.083 98.998 C 293.666 100.478,290.596 102.460,288.880 103.004 C 285.567 104.054,285.759 106.209,289.190 106.493 C 290.846 106.631,291.204 106.833,291.531 107.817 C 291.806 108.643,291.933 131.466,291.670 132.736 C 291.368 134.187,289.851 135.167,287.904 135.167 C 286.523 135.167,285.419 136.333,285.840 137.349 C 286.252 138.344,286.643 138.407,291.286 138.221 C 294.006 138.112,296.751 138.111,299.302 138.219 C 304.350 138.431,304.833 138.297,304.833 136.685 C 304.833 135.836,304.198 135.460,302.087 135.059 C 300.262 134.712,299.826 134.498,299.249 133.665 L 298.750 132.945 298.667 115.480 C 298.585 98.259,298.579 98.011,298.250 97.762 C 297.793 97.417,297.016 97.439,296.417 97.815 M298.245 98.011 C 298.360 98.126,298.444 103.981,298.500 115.641 C 298.575 131.367,298.610 133.139,298.853 133.507 C 299.615 134.662,300.253 134.965,303.057 135.508 C 304.307 135.750,304.739 136.156,304.608 136.966 C 304.426 138.083,304.388 138.093,300.533 138.004 C 295.511 137.888,293.436 137.900,290.162 138.066 C 286.922 138.230,286.282 138.102,286.068 137.247 C 285.807 136.209,286.380 135.639,287.885 135.442 C 290.218 135.137,291.490 134.376,291.814 133.093 C 292.074 132.059,292.073 110.037,291.812 108.514 C 291.497 106.671,291.147 106.386,288.995 106.220 C 286.105 105.997,286.009 104.232,288.833 103.253 C 290.759 102.586,293.569 100.798,295.250 99.171 C 296.837 97.634,297.580 97.347,298.245 98.011 M79.333 98.833 C 78.273 99.894,79.462 101.332,81.400 101.334 C 85.006 101.338,84.995 101.297,84.998 115.368 C 85.000 127.475,85.073 128.575,86.030 130.966 C 87.414 134.422,90.264 137.208,93.562 138.326 C 94.100 138.509,94.630 138.781,94.740 138.931 C 94.849 139.080,95.078 139.176,95.249 139.143 C 95.743 139.048,95.145 138.548,94.284 138.336 C 91.605 137.674,88.576 135.280,87.037 132.609 C 85.307 129.607,85.168 128.283,85.160 114.722 C 85.152 102.404,85.180 102.685,83.874 101.768 C 83.293 101.359,82.987 101.274,81.885 101.214 C 80.231 101.124,79.754 100.937,79.428 100.251 C 79.090 99.539,79.098 99.402,79.500 99.000 C 79.874 98.626,89.246 98.482,90.500 98.831 C 91.640 99.148,91.573 98.339,91.678 113.167 L 91.772 126.583 92.205 128.174 C 93.125 131.555,95.007 133.356,98.471 134.169 C 103.225 135.285,108.193 133.455,110.469 129.750 L 111.083 128.750 111.083 115.833 C 111.083 103.462,111.070 102.897,110.770 102.454 C 110.154 101.547,109.631 101.322,107.804 101.180 C 105.582 101.008,104.442 99.759,105.734 98.912 C 106.431 98.455,116.862 98.621,117.337 99.096 C 117.682 99.441,117.683 99.497,117.717 115.013 C 117.755 132.865,117.693 132.217,119.364 132.152 C 119.671 132.140,119.638 132.104,119.202 131.979 C 117.926 131.611,118.001 132.662,118.001 115.197 C 118.000 98.449,118.039 99.138,117.075 98.736 C 116.041 98.304,106.008 98.398,105.439 98.845 C 104.123 99.881,105.484 101.243,107.983 101.390 C 109.476 101.477,109.908 101.673,110.573 102.564 C 110.913 103.020,110.917 103.157,110.917 115.804 L 110.917 128.583 110.359 129.541 C 106.851 135.570,96.101 135.907,93.103 130.082 C 92.865 129.618,92.487 128.330,92.253 127.184 L 91.833 125.121 91.833 112.602 C 91.833 98.556,91.881 99.132,90.667 98.718 C 89.528 98.329,79.737 98.429,79.333 98.833 M194.167 100.115 C 188.777 101.125,183.099 106.436,182.261 111.250 C 182.197 111.617,182.009 112.367,181.842 112.917 C 179.928 119.240,183.277 128.670,188.714 132.267 C 194.022 135.778,203.399 134.264,205.625 129.535 C 206.130 128.464,206.154 108.247,205.653 106.015 C 204.649 101.534,199.822 99.055,194.167 100.115 M55.083 100.261 C 43.488 102.545,40.370 123.263,50.156 133.006 C 53.676 136.511,59.043 137.491,62.500 135.261 C 62.821 135.054,63.458 134.652,63.917 134.368 C 65.389 133.455,67.301 131.114,68.400 128.882 C 68.752 128.168,69.133 127.396,69.247 127.167 C 71.076 123.506,71.390 116.066,69.923 111.167 C 67.525 103.156,61.788 98.941,55.083 100.261 M198.497 100.267 C 202.330 100.926,204.738 102.862,205.394 105.812 C 205.727 107.312,205.809 128.063,205.486 129.226 C 205.034 130.856,202.599 132.587,199.167 133.720 C 198.814 133.836,197.398 133.913,195.583 133.915 L 192.583 133.917 191.291 133.380 C 184.521 130.567,180.037 121.107,181.908 113.583 C 182.068 112.942,182.295 112.004,182.414 111.500 C 184.088 104.379,191.658 99.092,198.497 100.267 M324.583 100.249 C 321.819 100.767,319.201 102.535,317.228 105.214 C 316.152 106.676,314.634 109.974,314.413 111.331 C 314.346 111.742,314.187 112.373,314.060 112.731 C 312.767 116.399,313.897 124.020,316.446 128.814 C 322.275 139.777,334.115 138.703,338.752 126.790 C 340.220 123.021,340.686 115.974,339.693 112.583 C 338.747 109.355,338.265 108.153,337.229 106.440 C 334.242 101.504,329.714 99.287,324.583 100.249 M62.081 101.227 C 64.738 102.546,68.667 106.835,68.667 108.417 C 68.667 108.510,68.845 108.923,69.063 109.335 C 69.281 109.746,69.512 110.346,69.577 110.667 C 69.642 110.987,69.839 111.727,70.015 112.311 C 71.566 117.464,70.583 124.836,67.692 129.729 C 60.718 141.535,46.845 136.250,44.776 121.000 C 44.371 118.013,44.359 117.788,44.510 116.051 C 44.882 111.798,45.474 109.817,47.453 106.208 C 48.335 104.599,51.496 101.729,53.000 101.171 C 53.321 101.052,53.958 100.813,54.417 100.641 C 55.126 100.373,55.637 100.333,57.849 100.372 L 60.448 100.417 62.081 101.227 M331.000 100.988 C 333.037 101.896,335.673 104.125,336.520 105.656 C 336.701 105.983,337.115 106.700,337.440 107.250 C 338.161 108.469,338.717 109.907,339.277 112.000 C 340.529 116.683,340.268 122.307,338.602 126.583 C 333.951 138.516,322.385 139.593,316.604 128.632 C 314.044 123.778,313.061 117.250,314.237 112.917 C 314.361 112.458,314.511 111.821,314.569 111.500 C 315.307 107.435,318.753 102.841,322.268 101.235 C 324.776 100.089,328.731 99.977,331.000 100.988 M241.083 118.763 C 239.800 119.443,237.963 120.414,237.000 120.921 C 232.216 123.440,230.191 125.470,229.816 128.124 C 229.477 130.516,230.223 132.223,232.090 133.331 L 233.078 133.917 235.247 133.915 C 238.187 133.913,240.485 132.904,242.505 130.730 C 244.411 128.678,244.667 127.668,244.667 122.181 C 244.667 116.666,244.799 116.792,241.083 118.763 M244.345 118.473 C 244.625 119.409,244.455 126.471,244.125 127.600 C 242.839 132.002,236.321 135.217,232.527 133.321 C 229.276 131.696,228.975 127.634,231.886 124.661 C 233.331 123.185,234.222 122.602,238.250 120.494 C 239.350 119.918,240.925 119.089,241.750 118.650 C 243.659 117.636,244.085 117.607,244.345 118.473 M121.167 132.287 C 124.330 132.404,123.908 133.985,120.417 135.093 C 116.182 136.437,112.833 138.120,112.833 138.905 C 112.833 139.020,113.117 138.845,113.464 138.516 C 114.537 137.496,116.813 136.455,120.583 135.259 C 122.761 134.568,123.333 134.166,123.333 133.324 C 123.333 132.411,122.862 132.162,121.208 132.201 L 119.750 132.235 121.167 132.287 M108.065 134.837 C 105.799 136.599,103.595 137.821,101.881 138.265 C 100.817 138.540,99.942 139.167,100.621 139.167 C 100.820 139.167,101.043 139.062,101.117 138.933 C 101.190 138.805,101.700 138.549,102.250 138.366 C 104.480 137.622,105.958 136.777,108.350 134.876 C 110.934 132.822,110.932 132.822,110.875 135.870 C 110.853 137.087,110.890 138.331,110.959 138.633 C 111.030 138.949,111.082 137.992,111.081 136.383 C 111.078 132.451,111.111 132.468,108.065 134.837 " stroke="none" fill="#0067b2" fill-rule="evenodd"></path><path id="path1" d="M0.000 41.417 C 0.000 67.500,0.059 82.833,0.159 82.833 C 0.246 82.833,0.714 82.730,1.200 82.603 C 1.809 82.445,2.342 82.416,2.917 82.510 C 5.129 82.873,32.342 82.786,37.294 82.400 C 38.761 82.286,39.833 82.695,40.165 83.495 C 40.461 84.211,40.528 94.396,40.241 95.112 C 39.531 96.878,37.000 95.610,37.000 93.488 C 37.000 91.539,34.008 87.778,31.750 86.888 C 29.530 86.012,21.850 85.617,17.809 86.170 C 15.095 86.542,15.250 85.940,15.250 96.083 C 15.250 107.040,14.701 106.083,20.992 106.083 C 29.636 106.083,30.296 105.853,30.913 102.629 C 31.635 98.858,32.269 97.871,33.587 98.471 C 34.498 98.887,34.535 99.118,34.345 103.277 C 34.223 105.964,34.225 108.414,34.353 111.607 C 34.554 116.593,34.517 116.871,33.611 117.305 C 32.419 117.877,31.917 117.320,31.225 114.660 C 30.050 110.147,29.151 109.751,20.076 109.750 C 14.669 109.750,15.166 108.556,15.169 121.536 C 15.171 134.996,15.046 134.569,19.052 134.831 C 22.501 135.057,23.745 136.141,22.349 137.704 C 21.748 138.376,21.095 138.424,15.417 138.207 C 13.087 138.118,9.617 138.124,6.572 138.223 C 2.140 138.366,1.470 138.354,0.780 138.119 L 0.000 137.854 0.000 138.510 L 0.000 139.167 27.104 139.167 C 57.092 139.167,55.927 139.213,51.750 138.191 C 46.201 136.834,40.437 131.169,38.497 125.167 C 37.088 120.803,37.041 113.660,38.406 111.021 C 38.549 110.744,38.667 110.431,38.667 110.327 C 38.667 110.223,38.933 109.532,39.258 108.793 C 45.824 93.859,68.416 93.414,75.647 108.075 C 80.444 117.803,77.396 130.014,68.750 135.699 C 66.702 137.046,62.790 138.667,61.588 138.667 C 61.559 138.667,61.492 138.779,61.440 138.917 C 61.355 139.138,63.272 139.167,78.083 139.167 C 96.171 139.167,96.091 139.171,93.611 138.340 C 90.281 137.225,87.423 134.445,86.030 130.966 C 85.073 128.575,85.000 127.475,84.998 115.368 C 84.995 101.297,85.006 101.338,81.400 101.334 C 79.462 101.332,78.273 99.894,79.333 98.833 C 79.737 98.429,89.528 98.329,90.667 98.718 C 91.881 99.132,91.833 98.556,91.833 112.602 L 91.833 125.121 92.253 127.184 C 92.487 128.330,92.865 129.618,93.103 130.082 C 96.101 135.907,106.851 135.570,110.359 129.541 L 110.917 128.583 110.917 115.804 C 110.917 103.157,110.913 103.020,110.573 102.564 C 109.908 101.673,109.476 101.477,107.983 101.390 C 105.484 101.243,104.123 99.881,105.439 98.845 C 106.008 98.398,116.041 98.304,117.075 98.736 C 118.039 99.138,118.000 98.449,118.001 115.197 C 118.001 133.874,117.670 132.163,121.292 132.166 C 122.853 132.167,123.333 132.439,123.333 133.324 C 123.333 134.166,122.761 134.568,120.583 135.259 C 116.380 136.592,113.000 138.265,113.000 139.012 C 113.000 139.107,127.903 139.167,151.354 139.167 C 191.675 139.167,191.062 139.178,188.538 138.495 C 179.410 136.024,173.393 126.474,174.416 116.083 C 174.554 114.691,174.785 113.365,174.990 112.796 C 175.179 112.271,175.333 111.758,175.333 111.656 C 175.333 110.360,178.101 106.078,180.451 103.738 C 186.105 98.107,193.041 96.156,200.542 98.087 C 201.069 98.222,201.896 98.435,202.379 98.560 C 202.862 98.684,203.496 98.909,203.787 99.060 C 204.410 99.382,205.184 99.416,205.467 99.133 C 205.790 98.810,205.747 84.999,205.420 83.896 C 205.099 82.817,204.334 82.353,202.546 82.152 C 199.438 81.804,199.515 79.865,202.667 79.096 C 206.183 78.237,207.549 77.702,209.385 76.461 C 210.604 75.638,211.674 75.516,212.181 76.143 C 212.492 76.527,212.500 77.207,212.504 103.810 C 212.506 119.423,212.572 131.361,212.658 131.732 C 213.029 133.327,213.811 133.291,215.392 131.604 C 217.119 129.762,218.335 129.874,218.332 131.875 C 218.328 134.017,217.843 134.439,213.500 136.082 C 211.684 136.769,210.274 137.361,209.092 137.934 C 207.208 138.847,206.356 138.225,206.216 135.833 C 206.088 133.641,205.697 133.260,204.500 134.163 C 201.937 136.095,198.772 137.903,197.224 138.318 C 196.843 138.421,196.356 138.651,196.141 138.830 C 195.753 139.153,195.857 139.156,212.125 139.161 C 222.647 139.165,228.500 139.109,228.500 139.004 C 228.500 138.814,227.776 138.426,227.131 138.272 C 223.948 137.509,221.800 133.167,222.764 129.446 C 223.892 125.094,227.996 122.061,241.063 115.924 C 242.970 115.029,243.743 114.484,244.130 113.764 C 244.763 112.587,244.511 103.777,243.806 102.446 C 242.862 100.661,242.013 100.283,239.122 100.359 C 234.995 100.467,232.627 102.393,230.341 107.500 C 229.347 109.721,228.611 110.422,226.475 111.185 C 220.097 113.465,221.612 106.301,228.512 101.556 C 229.796 100.673,233.639 98.667,234.047 98.667 C 234.172 98.667,234.806 98.486,235.455 98.265 C 241.630 96.165,248.975 97.749,250.844 101.583 L 251.250 102.417 251.337 116.417 L 251.425 130.417 251.837 131.580 C 252.645 133.856,253.861 134.098,255.948 132.398 C 257.146 131.422,257.609 131.316,258.112 131.901 C 260.077 134.186,253.224 139.160,249.219 138.356 C 247.499 138.010,246.792 137.312,245.333 134.520 C 244.418 132.767,244.222 132.698,242.976 133.699 C 239.726 136.309,237.322 137.727,234.893 138.466 C 232.624 139.157,232.854 139.167,252.153 139.167 C 264.106 139.167,270.500 139.109,270.500 139.002 C 270.500 138.912,269.947 138.575,269.270 138.254 C 266.804 137.084,265.620 135.530,264.908 132.527 L 264.500 130.804 264.499 116.860 C 264.498 99.976,264.749 101.560,262.059 101.464 C 260.424 101.406,260.000 101.136,260.000 100.154 C 260.000 99.200,260.095 99.074,261.644 97.967 C 264.524 95.908,266.984 93.213,268.476 90.485 C 269.390 88.813,270.123 88.441,270.924 89.242 C 271.331 89.649,271.333 89.671,271.334 92.951 C 271.335 96.568,271.472 97.451,272.049 97.579 C 272.251 97.624,274.346 97.681,276.704 97.705 C 280.915 97.749,280.998 97.757,281.371 98.130 C 281.966 98.726,281.919 100.323,281.287 100.955 L 280.825 101.417 276.485 101.432 C 272.254 101.447,272.136 101.456,271.781 101.812 L 271.417 102.176 271.418 115.880 L 271.418 129.583 271.896 131.000 C 273.261 135.053,275.956 135.619,279.903 132.683 C 281.197 131.721,281.677 131.542,282.258 131.807 C 284.265 132.721,281.035 136.634,276.922 138.270 C 276.192 138.561,275.567 138.881,275.534 138.983 C 275.489 139.116,282.044 139.167,299.522 139.167 C 319.881 139.167,323.534 139.132,323.327 138.939 C 323.045 138.674,322.093 138.333,321.638 138.333 C 321.242 138.333,318.438 137.247,317.667 136.794 C 314.831 135.131,312.070 132.771,310.896 131.006 C 310.632 130.610,310.210 129.978,309.958 129.601 C 306.583 124.566,305.775 117.344,307.859 110.833 C 310.820 101.584,319.543 96.319,329.833 97.570 C 338.856 98.668,344.981 104.520,347.029 114.000 C 347.304 115.272,347.292 120.828,347.013 122.000 C 345.293 129.204,342.233 133.421,336.255 136.822 C 335.378 137.321,333.707 137.945,332.168 138.349 C 328.927 139.199,327.634 139.167,365.214 139.167 L 400.000 139.167 400.000 69.583 L 400.000 0.000 342.351 0.000 L 284.702 0.000 284.847 0.625 C 284.927 0.969,284.994 6.931,284.996 13.875 C 285.000 26.424,285.002 26.502,285.346 26.846 C 285.746 27.246,285.502 27.379,287.948 25.417 C 290.445 23.412,292.912 22.261,295.296 21.986 C 296.096 21.894,297.206 21.762,297.762 21.693 C 299.311 21.501,302.617 21.921,304.417 22.538 C 308.066 23.790,310.007 25.863,311.301 29.890 L 311.899 31.750 311.991 44.333 L 312.083 56.917 312.549 57.710 C 313.242 58.888,313.598 59.041,316.894 59.583 C 318.170 59.793,318.760 61.079,318.015 62.026 L 317.697 62.430 308.614 62.422 C 298.594 62.413,299.026 62.458,298.755 61.379 C 298.483 60.295,299.155 59.747,301.167 59.412 C 305.243 58.734,304.992 59.632,304.993 45.750 C 304.994 31.516,304.893 30.704,302.822 28.445 C 299.149 24.436,292.148 24.698,287.859 29.005 C 284.966 31.909,285.000 31.714,285.000 45.571 C 285.000 59.633,284.710 58.773,289.733 59.586 C 291.245 59.830,291.853 61.533,290.684 62.247 C 290.519 62.348,286.997 62.413,281.442 62.418 L 272.468 62.425 272.067 62.054 C 271.173 61.225,271.801 59.786,273.145 59.583 C 276.727 59.040,277.484 58.555,277.822 56.583 C 277.972 55.705,278.008 49.659,277.969 32.083 L 277.917 8.750 277.548 7.952 C 277.086 6.951,276.176 6.498,274.290 6.331 C 271.793 6.109,271.541 3.985,273.963 3.575 C 274.304 3.517,275.363 3.251,276.315 2.985 C 277.268 2.718,278.112 2.500,278.191 2.500 C 278.889 2.500,282.167 0.576,282.167 0.167 C 282.167 0.056,235.028 0.000,141.083 0.000 L 0.000 0.000 0.000 41.417 M181.013 5.507 C 181.455 5.743,182.085 6.776,182.392 7.766 C 182.627 8.523,182.837 9.045,184.195 12.250 C 184.467 12.892,184.825 13.792,184.991 14.250 C 185.157 14.708,185.412 15.346,185.558 15.667 C 185.704 15.987,186.134 17.037,186.513 18.000 C 187.655 20.897,188.108 22.030,188.579 23.167 C 188.826 23.762,189.165 24.625,189.334 25.083 C 189.502 25.542,189.918 26.554,190.257 27.333 C 190.596 28.113,191.008 29.125,191.174 29.583 C 191.339 30.042,191.749 31.054,192.083 31.833 C 192.418 32.612,192.829 33.625,192.997 34.083 C 193.643 35.848,194.164 37.168,194.327 37.453 C 194.499 37.756,194.963 38.921,195.506 40.417 C 195.672 40.875,196.082 41.887,196.417 42.667 C 196.752 43.446,197.162 44.465,197.328 44.931 C 197.494 45.398,197.712 45.923,197.813 46.098 C 197.914 46.273,198.154 46.829,198.348 47.333 C 198.541 47.837,198.925 48.813,199.200 49.500 C 199.476 50.188,199.844 51.154,200.017 51.649 C 200.190 52.143,200.397 52.631,200.478 52.732 C 200.558 52.834,200.717 53.217,200.832 53.583 C 201.829 56.771,203.955 58.920,206.379 59.191 C 208.988 59.483,210.301 60.935,208.983 62.068 L 208.567 62.426 196.935 62.420 C 184.021 62.412,185.006 62.497,184.724 61.372 C 184.379 59.998,185.659 59.316,188.879 59.159 C 193.030 58.956,193.467 57.758,191.251 52.667 C 190.911 51.887,190.499 50.913,190.333 50.500 C 190.168 50.087,189.757 49.112,189.420 48.333 C 189.083 47.554,188.663 46.512,188.488 46.018 C 188.312 45.524,188.103 45.036,188.023 44.935 C 187.942 44.833,187.787 44.472,187.678 44.133 C 187.102 42.342,186.833 42.296,177.500 42.363 C 168.808 42.426,169.092 42.340,168.253 45.167 C 168.185 45.396,168.029 45.808,167.906 46.083 C 167.784 46.358,167.522 46.996,167.325 47.500 C 167.129 48.004,166.743 48.979,166.469 49.667 C 166.195 50.354,165.781 51.404,165.550 52.000 C 163.451 57.412,164.089 58.877,168.667 59.154 C 171.996 59.356,173.250 60.483,171.834 62.000 L 171.334 62.534 165.875 62.430 C 162.873 62.373,158.917 62.384,157.083 62.455 C 152.200 62.643,151.500 62.478,151.500 61.137 C 151.500 59.895,152.445 59.363,154.986 59.175 C 157.957 58.955,158.753 58.184,160.591 53.750 C 161.463 51.648,161.977 50.340,162.164 49.750 C 162.281 49.383,162.477 48.896,162.601 48.667 C 162.725 48.438,162.969 47.837,163.144 47.333 C 163.445 46.464,163.814 45.486,164.733 43.124 C 165.839 40.281,166.070 39.667,166.424 38.644 C 166.635 38.036,166.889 37.398,166.990 37.227 C 167.091 37.057,167.314 36.504,167.486 36.000 C 167.657 35.496,168.036 34.483,168.327 33.750 C 168.618 33.017,168.996 32.042,169.167 31.583 C 169.338 31.125,169.716 30.150,170.007 29.417 C 170.297 28.683,170.680 27.671,170.856 27.167 C 171.032 26.663,171.324 25.946,171.505 25.573 C 171.686 25.200,171.834 24.787,171.834 24.656 C 171.835 24.524,171.955 24.192,172.100 23.917 C 172.343 23.458,172.655 22.637,173.516 20.185 C 173.690 19.690,173.897 19.203,173.976 19.101 C 174.055 19.000,174.275 18.467,174.465 17.917 C 174.654 17.367,175.048 16.317,175.339 15.583 C 175.630 14.850,176.006 13.875,176.174 13.417 C 176.341 12.958,176.716 11.983,177.007 11.250 C 177.298 10.517,177.708 9.467,177.919 8.917 C 178.810 6.594,178.985 6.245,179.483 5.800 C 180.035 5.307,180.480 5.222,181.013 5.507 M20.504 7.043 C 21.260 7.420,21.662 8.172,22.839 11.417 C 23.005 11.875,23.417 12.887,23.753 13.667 C 24.090 14.446,24.464 15.392,24.585 15.770 C 24.706 16.147,24.961 16.763,25.152 17.138 C 25.343 17.513,25.500 17.904,25.500 18.007 C 25.500 18.174,25.725 18.734,26.836 21.333 C 27.013 21.746,27.423 22.796,27.747 23.667 C 28.072 24.537,28.444 25.475,28.575 25.750 C 28.945 26.530,29.671 28.345,29.917 29.108 C 30.040 29.488,30.256 30.023,30.397 30.296 C 30.539 30.570,30.762 31.084,30.894 31.438 C 31.026 31.793,31.374 32.683,31.667 33.417 C 31.960 34.150,32.308 35.050,32.441 35.417 C 32.803 36.414,34.479 40.668,34.762 41.307 C 34.898 41.613,35.271 42.550,35.592 43.390 C 37.306 47.880,37.686 48.141,38.678 45.509 C 38.866 45.010,39.123 44.410,39.248 44.176 C 39.374 43.942,39.713 43.188,40.002 42.500 C 40.290 41.813,40.663 40.950,40.830 40.583 C 40.998 40.217,41.361 39.392,41.639 38.750 C 41.916 38.108,42.603 36.533,43.167 35.250 C 43.730 33.967,44.418 32.392,44.695 31.750 C 44.972 31.108,45.336 30.283,45.503 29.917 C 45.670 29.550,46.045 28.688,46.336 28.000 C 46.627 27.313,47.006 26.450,47.178 26.083 C 47.469 25.464,48.689 22.652,49.855 19.917 C 50.382 18.678,50.471 18.480,51.404 16.463 C 51.732 15.755,52.000 15.130,52.000 15.074 C 52.000 14.958,52.870 12.908,53.341 11.917 C 53.514 11.550,53.967 10.537,54.347 9.667 C 55.718 6.521,55.354 6.638,63.550 6.702 L 69.640 6.750 70.070 7.154 C 71.581 8.574,69.983 10.167,67.048 10.167 C 65.796 10.167,64.917 10.414,64.537 10.872 C 64.201 11.278,63.791 13.965,63.920 14.917 C 63.982 15.375,64.082 25.087,64.142 36.500 C 64.248 56.849,64.256 57.261,64.583 57.816 C 65.193 58.851,65.631 59.047,67.637 59.179 C 70.608 59.375,71.773 60.449,70.602 61.913 L 70.205 62.409 59.561 62.423 L 48.917 62.437 48.458 61.981 C 47.054 60.586,48.346 59.371,51.461 59.157 C 54.469 58.950,55.418 58.228,55.828 55.833 C 56.136 54.034,55.991 16.867,55.676 16.672 C 55.301 16.441,54.882 16.763,54.654 17.457 C 54.541 17.802,54.317 18.346,54.156 18.667 C 53.739 19.498,52.833 21.616,52.833 21.761 C 52.833 21.828,52.648 22.266,52.422 22.733 C 52.196 23.201,51.780 24.146,51.498 24.833 C 50.840 26.434,50.489 27.268,49.777 28.917 C 47.620 33.916,46.537 36.439,46.163 37.333 C 45.367 39.236,44.768 40.641,44.480 41.283 C 44.308 41.667,44.167 42.028,44.167 42.085 C 44.167 42.141,43.984 42.577,43.761 43.052 C 43.382 43.860,42.608 45.647,41.799 47.583 C 41.607 48.042,41.282 48.792,41.075 49.250 C 40.868 49.708,40.464 50.646,40.176 51.333 C 39.888 52.021,39.471 52.996,39.250 53.500 C 39.029 54.004,38.614 54.979,38.329 55.667 C 37.077 58.685,36.719 59.413,36.230 59.940 C 35.206 61.043,34.096 60.513,33.391 58.583 C 32.899 57.236,32.413 55.966,31.670 54.083 C 31.380 53.350,31.025 52.413,30.881 52.000 C 30.737 51.587,30.556 51.168,30.478 51.068 C 30.400 50.968,30.158 50.368,29.939 49.735 C 29.721 49.101,29.304 47.983,29.013 47.250 C 28.515 45.997,28.222 45.246,27.237 42.708 C 27.015 42.135,26.651 41.198,26.428 40.625 C 25.923 39.326,25.320 37.753,24.767 36.297 C 24.534 35.681,24.267 35.043,24.174 34.880 C 24.081 34.717,23.861 34.171,23.686 33.667 C 23.340 32.675,22.834 31.349,22.000 29.250 C 21.709 28.517,21.291 27.448,21.071 26.874 C 20.852 26.301,20.490 25.363,20.267 24.791 C 20.045 24.218,19.675 23.262,19.446 22.667 C 19.217 22.071,18.791 20.983,18.500 20.250 C 18.208 19.517,17.845 18.587,17.691 18.184 C 17.365 17.325,16.951 16.982,16.630 17.304 C 16.380 17.553,16.264 18.674,15.928 24.083 C 15.791 26.283,15.597 28.983,15.496 30.083 C 15.396 31.183,15.171 34.333,14.997 37.083 C 14.822 39.833,14.561 43.508,14.415 45.250 C 13.948 50.851,13.990 55.551,14.519 56.678 C 15.330 58.409,16.309 58.974,18.834 59.169 C 20.691 59.312,21.905 59.678,22.172 60.176 C 22.466 60.727,22.361 61.655,21.957 62.058 L 21.580 62.435 12.582 62.411 C 3.113 62.385,3.154 62.388,2.856 61.733 C 2.159 60.202,3.101 59.429,5.973 59.174 C 8.715 58.930,9.337 58.425,9.825 56.041 C 10.115 54.623,10.233 53.283,10.686 46.250 C 10.786 44.692,10.931 42.742,11.007 41.917 C 11.084 41.092,11.265 38.467,11.410 36.083 C 11.556 33.700,11.744 31.000,11.828 30.083 C 11.912 29.167,12.096 26.392,12.235 23.917 C 12.375 21.442,12.566 18.854,12.660 18.167 C 13.557 11.574,13.123 10.415,9.667 10.167 C 7.020 9.976,6.167 9.496,6.167 8.196 C 6.167 7.648,6.570 7.030,7.059 6.829 C 7.799 6.524,19.849 6.716,20.504 7.043 M256.433 13.517 C 256.718 13.832,256.758 14.230,256.833 17.475 C 256.909 20.736,257.007 21.522,257.381 21.866 C 257.401 21.884,259.570 21.941,262.203 21.991 C 267.827 22.099,267.583 22.019,267.583 23.770 C 267.583 24.760,267.540 24.900,267.116 25.264 L 266.648 25.667 262.186 25.667 L 257.725 25.667 257.321 26.097 L 256.917 26.527 256.865 38.805 C 256.807 52.675,256.909 54.500,257.837 56.333 C 259.318 59.256,262.159 59.635,265.335 57.333 C 267.310 55.901,268.286 55.681,268.693 56.575 C 269.006 57.261,268.715 58.129,267.873 59.029 C 262.502 64.771,253.601 64.612,250.846 58.724 C 249.870 56.640,249.833 55.982,249.833 40.777 C 249.833 24.284,250.095 25.845,247.305 25.675 C 245.487 25.564,245.000 25.308,245.000 24.463 C 245.000 23.697,245.240 23.412,246.964 22.133 C 250.809 19.278,251.850 18.200,253.667 15.193 C 254.943 13.081,255.649 12.653,256.433 13.517 M177.535 20.875 C 177.345 21.105,176.838 22.331,176.244 24.000 C 176.031 24.596,175.624 25.683,175.337 26.417 C 174.472 28.633,174.001 29.862,173.582 31.000 C 172.964 32.680,172.427 34.095,171.686 36.000 C 170.528 38.978,169.995 38.750,178.122 38.750 C 186.305 38.750,185.863 39.077,183.872 34.500 C 183.732 34.179,183.449 33.467,183.241 32.917 C 182.305 30.432,181.998 29.657,181.839 29.380 C 181.746 29.217,181.563 28.783,181.434 28.417 C 181.100 27.468,180.299 25.460,179.673 24.000 C 179.378 23.313,179.025 22.394,178.889 21.959 C 178.572 20.945,177.913 20.418,177.535 20.875 M98.352 21.912 C 101.763 22.322,104.117 23.677,105.140 25.820 L 105.583 26.750 105.667 40.750 L 105.750 54.750 106.150 55.750 C 107.176 58.313,108.328 58.450,111.066 56.335 C 111.867 55.717,112.370 55.699,112.821 56.272 C 114.961 58.993,105.623 64.266,102.312 62.207 C 101.325 61.593,100.435 60.494,99.670 58.944 C 98.639 56.852,98.357 56.776,96.701 58.148 C 88.797 64.693,79.301 64.912,76.323 58.617 C 74.273 54.284,77.195 49.348,84.037 45.585 C 85.721 44.659,93.907 40.667,94.122 40.667 C 94.415 40.667,97.441 39.031,97.845 38.655 C 98.621 37.931,98.715 37.190,98.622 32.500 C 98.488 25.723,97.705 24.500,93.500 24.500 C 90.529 24.500,88.879 25.128,87.020 26.964 C 85.620 28.347,83.667 31.441,83.667 32.274 C 83.667 34.311,77.341 36.928,76.049 35.426 C 74.864 34.049,76.550 30.272,79.466 27.767 C 81.140 26.329,85.036 23.833,85.606 23.833 C 85.662 23.833,86.130 23.655,86.646 23.436 C 89.140 22.380,94.198 21.370,95.833 21.601 C 96.063 21.634,97.196 21.774,98.352 21.912 M143.172 22.002 C 146.817 22.538,150.498 24.252,151.069 25.679 C 151.471 26.683,151.450 31.853,151.041 32.655 C 149.955 34.786,148.527 34.137,146.058 30.392 C 142.880 25.569,140.806 24.109,137.558 24.403 C 127.519 25.313,120.798 37.735,124.837 47.917 C 126.379 51.804,129.040 55.100,132.079 56.886 C 133.402 57.664,133.698 57.790,135.917 58.520 C 139.960 59.850,145.500 58.480,148.949 55.298 C 150.273 54.075,151.180 53.925,151.673 54.845 C 152.822 56.991,146.517 61.566,140.769 62.756 C 130.103 64.965,120.274 59.287,116.816 48.917 L 116.261 47.250 116.264 43.250 L 116.267 39.250 116.801 37.602 C 117.095 36.695,117.476 35.720,117.649 35.435 C 117.821 35.150,118.015 34.742,118.080 34.529 C 118.278 33.874,119.817 31.472,120.713 30.417 C 125.071 25.287,130.206 22.588,137.167 21.765 C 138.096 21.655,141.811 21.802,143.172 22.002 M226.099 22.184 C 226.376 22.489,226.423 22.849,226.463 24.976 C 226.537 28.874,226.401 28.808,228.974 26.191 C 233.483 21.605,238.752 20.779,241.366 24.248 C 244.791 28.792,238.302 33.497,234.625 29.137 C 233.921 28.302,232.949 27.665,232.382 27.668 C 230.664 27.678,227.986 30.609,226.979 33.583 L 226.583 34.750 226.583 46.027 L 226.583 57.304 227.091 58.027 C 227.667 58.849,228.109 59.040,230.314 59.421 C 232.130 59.735,232.567 60.036,232.632 61.017 C 232.733 62.517,233.445 62.413,223.056 62.421 L 213.917 62.429 213.542 62.055 C 212.687 61.204,213.292 59.799,214.606 59.583 C 217.752 59.066,218.260 58.861,218.962 57.829 L 219.341 57.272 219.296 44.761 C 219.240 29.638,219.504 30.895,216.339 30.654 C 213.177 30.412,213.154 27.908,216.308 27.249 C 216.813 27.144,218.069 26.541,219.928 25.513 C 220.706 25.082,221.640 24.357,223.324 22.875 C 224.666 21.695,225.474 21.493,226.099 22.184 M380.857 22.152 C 381.231 22.455,381.252 22.580,381.295 24.777 C 381.368 28.508,381.391 28.522,383.655 26.190 C 387.252 22.484,390.940 21.292,394.167 22.791 C 398.479 24.794,397.540 30.833,392.917 30.833 C 391.450 30.833,390.921 30.579,389.360 29.118 C 387.624 27.495,387.316 27.390,386.055 27.989 C 383.995 28.969,381.895 32.034,381.493 34.650 C 381.130 37.006,381.365 57.406,381.760 57.936 C 382.468 58.883,383.018 59.095,386.041 59.581 C 387.422 59.803,388.066 61.175,387.196 62.044 L 386.826 62.415 377.788 62.422 L 368.750 62.429 368.375 62.055 C 367.520 61.204,368.125 59.798,369.440 59.584 C 374.564 58.746,374.220 59.718,374.292 45.864 C 374.369 30.847,374.379 30.892,371.044 30.667 C 367.915 30.455,367.797 28.062,370.879 27.322 C 372.683 26.890,375.654 25.081,377.733 23.151 C 378.384 22.546,379.029 22.008,379.167 21.956 C 379.691 21.754,380.478 21.846,380.857 22.152 M329.741 22.978 C 330.911 23.229,330.875 22.837,330.905 35.804 C 330.943 52.253,331.106 53.557,333.414 55.921 C 338.031 60.650,349.102 58.564,350.781 52.649 C 351.248 51.004,351.245 28.714,350.778 27.374 C 350.361 26.179,349.596 25.726,347.750 25.583 C 345.907 25.440,345.734 25.391,345.255 24.875 C 344.710 24.287,344.686 23.456,345.204 23.093 C 345.645 22.784,356.460 22.700,357.247 22.999 C 358.188 23.357,358.167 22.973,358.167 39.500 C 358.167 57.803,357.917 56.318,360.995 56.350 C 362.941 56.370,363.343 56.474,363.659 57.037 C 364.274 58.134,363.470 58.747,360.089 59.755 C 357.124 60.639,355.694 61.262,353.695 62.542 C 351.351 64.041,350.950 63.742,350.833 60.400 C 350.721 57.184,350.606 57.102,348.583 58.789 C 346.430 60.585,343.675 62.124,341.750 62.605 C 341.200 62.743,340.487 62.924,340.167 63.007 C 335.338 64.263,328.117 61.337,326.069 57.295 C 325.917 56.995,325.698 56.637,325.581 56.500 C 324.162 54.824,323.951 52.732,323.843 39.250 C 323.740 26.370,323.793 26.969,322.683 26.178 C 322.147 25.796,320.858 25.500,319.735 25.500 C 318.119 25.500,317.073 24.094,318.000 23.167 C 318.338 22.828,328.297 22.668,329.741 22.978 M97.250 42.145 C 96.382 42.506,90.056 45.690,89.037 46.280 C 85.495 48.327,83.918 50.098,83.486 52.511 C 82.170 59.879,94.205 60.001,98.021 52.657 L 98.579 51.583 98.581 46.869 C 98.584 41.399,98.632 41.570,97.250 42.145 M296.917 81.564 C 300.547 83.280,300.314 89.612,296.583 90.647 C 293.572 91.482,291.167 89.432,291.167 86.029 C 291.167 82.624,294.192 80.276,296.917 81.564 M0.000 110.434 C 0.000 138.098,-0.094 135.816,1.024 135.238 C 1.355 135.067,2.275 134.930,3.664 134.846 C 6.171 134.694,6.621 134.480,7.112 133.206 C 7.513 132.168,7.593 89.167,7.197 87.856 C 6.778 86.469,6.501 86.351,2.500 85.853 C 1.813 85.767,0.969 85.623,0.625 85.533 L 0.000 85.368 0.000 110.434 M155.709 97.582 C 160.796 98.324,164.251 101.435,165.796 106.667 L 166.214 108.083 166.315 120.500 C 166.436 135.334,166.261 134.503,169.378 134.994 C 171.872 135.386,172.695 135.965,172.402 137.120 C 172.083 138.378,171.902 138.415,167.129 138.222 C 164.445 138.114,161.738 138.107,159.667 138.204 C 155.074 138.418,154.230 138.358,153.730 137.776 C 152.906 136.818,153.548 135.473,154.933 135.256 C 157.918 134.787,158.296 134.635,158.959 133.633 L 159.417 132.941 159.465 122.512 C 159.515 111.419,159.458 110.252,158.750 108.061 C 156.237 100.279,144.029 101.211,140.718 109.437 L 140.257 110.583 140.201 121.250 C 140.128 135.140,139.941 134.343,143.434 135.053 C 145.838 135.542,146.167 135.753,146.167 136.811 C 146.167 138.110,145.895 138.252,143.441 138.239 C 140.860 138.225,132.900 138.225,130.110 138.239 L 127.971 138.250 127.569 137.782 C 126.552 136.600,127.541 135.343,129.667 135.114 C 131.821 134.882,132.882 134.169,133.078 132.823 C 133.344 130.994,133.096 107.940,132.804 107.407 C 132.448 106.758,131.874 106.500,130.783 106.500 C 127.515 106.500,126.952 104.010,130.012 103.096 C 131.880 102.539,134.932 100.614,136.683 98.889 C 139.124 96.485,140.059 96.907,140.128 100.443 C 140.197 103.950,140.309 104.096,141.862 102.703 C 146.775 98.296,150.685 96.850,155.709 97.582 M378.628 97.651 C 382.842 98.255,386.596 101.602,387.917 105.933 C 388.597 108.163,388.657 109.362,388.674 120.985 C 388.693 134.726,388.610 134.304,391.417 134.907 C 394.491 135.568,394.667 135.668,394.667 136.757 C 394.667 138.086,394.366 138.252,391.973 138.240 C 389.553 138.228,381.435 138.229,378.610 138.241 C 376.369 138.251,375.833 137.968,375.833 136.772 C 375.833 135.749,376.230 135.522,379.082 134.907 C 380.792 134.538,381.346 134.037,381.652 132.582 C 381.934 131.235,381.812 111.364,381.510 109.511 C 380.140 101.120,368.335 100.213,363.679 108.142 C 362.698 109.813,362.667 110.243,362.667 122.059 L 362.667 132.763 363.042 133.503 C 363.514 134.435,364.104 134.773,365.672 135.011 C 368.066 135.374,368.857 136.040,368.437 137.336 C 368.109 138.348,367.842 138.392,363.103 138.220 C 360.695 138.133,357.536 138.128,355.667 138.210 C 350.249 138.448,349.667 138.319,349.667 136.887 C 349.667 135.753,350.259 135.357,352.500 134.996 C 355.821 134.459,355.693 135.029,355.671 120.899 C 355.648 106.266,355.730 106.705,352.955 106.495 C 351.163 106.359,350.794 106.211,350.503 105.506 C 350.110 104.557,351.012 103.406,352.417 103.066 C 354.216 102.630,356.828 100.965,359.097 98.809 C 361.540 96.486,362.495 97.048,362.658 100.905 C 362.777 103.731,362.869 103.766,365.167 101.877 C 369.921 97.968,373.340 96.894,378.628 97.651 M298.250 97.762 C 298.579 98.011,298.585 98.259,298.667 115.480 L 298.750 132.945 299.249 133.665 C 299.826 134.498,300.262 134.712,302.087 135.059 C 304.198 135.460,304.833 135.836,304.833 136.685 C 304.833 138.297,304.350 138.431,299.302 138.219 C 296.751 138.111,294.006 138.112,291.286 138.221 C 286.643 138.407,286.252 138.344,285.840 137.349 C 285.419 136.333,286.523 135.167,287.904 135.167 C 289.851 135.167,291.368 134.187,291.670 132.736 C 291.933 131.466,291.806 108.643,291.531 107.817 C 291.204 106.833,290.846 106.631,289.190 106.493 C 285.759 106.209,285.567 104.054,288.880 103.004 C 290.596 102.460,293.666 100.478,295.083 98.998 C 296.484 97.537,297.451 97.159,298.250 97.762 M194.250 100.335 C 188.677 101.338,183.699 106.033,182.414 111.500 C 182.295 112.004,182.068 112.942,181.908 113.583 C 180.037 121.107,184.521 130.567,191.291 133.380 L 192.583 133.917 195.583 133.915 C 197.398 133.913,198.814 133.836,199.167 133.720 C 202.599 132.587,205.034 130.856,205.486 129.226 C 205.809 128.063,205.727 107.312,205.394 105.812 C 204.475 101.678,199.734 99.348,194.250 100.335 M54.417 100.641 C 53.958 100.813,53.321 101.052,53.000 101.171 C 51.496 101.729,48.335 104.599,47.453 106.208 C 45.474 109.817,44.882 111.798,44.510 116.051 C 44.359 117.788,44.371 118.013,44.776 121.000 C 46.845 136.250,60.718 141.535,67.692 129.729 C 70.583 124.836,71.566 117.464,70.015 112.311 C 69.839 111.727,69.642 110.987,69.577 110.667 C 69.512 110.346,69.281 109.746,69.063 109.335 C 68.845 108.923,68.667 108.510,68.667 108.417 C 68.667 106.835,64.738 102.546,62.081 101.227 L 60.448 100.417 57.849 100.372 C 55.637 100.333,55.126 100.373,54.417 100.641 M324.000 100.562 C 319.556 101.889,315.449 106.652,314.569 111.500 C 314.511 111.821,314.361 112.458,314.237 112.917 C 313.331 116.255,313.767 121.614,315.272 125.649 C 320.904 140.739,335.609 139.437,339.528 123.500 C 340.025 121.478,340.202 116.273,339.840 114.333 C 339.361 111.765,338.355 108.797,337.440 107.250 C 337.115 106.700,336.701 105.983,336.520 105.656 C 335.673 104.125,333.037 101.896,331.000 100.988 C 329.539 100.337,325.564 100.095,324.000 100.562 M241.750 118.650 C 240.925 119.089,239.350 119.918,238.250 120.494 C 234.222 122.602,233.331 123.185,231.886 124.661 C 229.626 126.969,229.240 130.009,230.940 132.112 C 233.130 134.823,238.396 134.303,241.862 131.033 C 244.069 128.951,244.345 128.089,244.455 122.931 C 244.575 117.298,244.505 117.186,241.750 118.650 M109.546 133.954 C 109.108 134.288,108.300 134.909,107.750 135.334 C 105.672 136.942,104.154 137.773,102.130 138.409 C 100.069 139.058,100.621 139.167,105.964 139.167 L 110.917 139.166 110.897 136.625 C 110.886 135.227,110.867 133.960,110.855 133.809 C 110.814 133.292,110.345 133.344,109.546 133.954 " stroke="none" fill="#ffffff" fill-rule="evenodd"></path><path id="path2" d="M209.460 76.664 C 207.707 77.881,205.801 78.594,201.784 79.535 C 199.850 79.989,200.318 81.713,202.424 81.891 C 205.852 82.180,205.917 82.362,205.917 91.723 L 205.917 99.029 205.514 99.355 C 205.073 99.712,204.490 99.668,203.591 99.208 C 202.123 98.457,197.052 97.580,194.250 97.593 C 187.720 97.622,180.796 102.011,176.913 108.583 C 176.377 109.489,175.352 111.930,175.338 112.333 C 175.333 112.471,175.166 113.071,174.967 113.667 C 174.554 114.905,174.426 121.094,174.786 122.417 C 174.886 122.783,175.128 123.704,175.323 124.463 C 177.036 131.126,182.849 137.074,188.871 138.324 C 189.389 138.431,189.998 138.665,190.224 138.843 C 190.902 139.376,194.755 139.323,195.570 138.770 C 195.892 138.551,196.439 138.319,196.786 138.254 C 197.788 138.067,200.815 136.489,202.581 135.235 C 205.005 133.512,205.045 133.490,205.577 133.538 C 206.164 133.592,206.292 133.924,206.317 135.455 C 206.343 137.122,206.943 138.161,207.883 138.168 C 207.993 138.169,208.908 137.796,209.917 137.339 C 210.925 136.882,212.463 136.241,213.333 135.916 C 214.204 135.590,215.254 135.184,215.667 135.014 C 216.079 134.843,216.620 134.623,216.868 134.525 C 217.863 134.132,218.555 131.555,217.854 130.854 C 217.250 130.250,216.857 130.402,215.564 131.743 C 214.309 133.044,213.773 133.325,213.168 133.001 C 212.297 132.535,212.333 133.780,212.333 104.266 C 212.333 86.859,212.274 76.699,212.171 76.428 C 211.898 75.709,210.683 75.815,209.460 76.664 M293.884 81.815 C 289.900 83.727,290.915 90.667,295.179 90.667 C 300.377 90.667,300.823 82.159,295.663 81.426 C 295.043 81.338,294.742 81.404,293.884 81.815 M36.250 82.656 C 35.236 82.863,9.424 83.027,5.340 82.852 C 2.812 82.744,1.505 82.753,0.882 82.884 L -0.000 83.069 0.000 84.097 L 0.000 85.126 1.076 85.396 C 1.668 85.545,2.511 85.667,2.951 85.666 C 4.248 85.666,6.647 86.314,6.926 86.741 C 7.676 87.886,7.663 87.460,7.660 110.583 L 7.656 132.417 7.287 133.333 C 6.777 134.597,6.089 134.926,3.500 135.148 C 2.446 135.238,1.227 135.408,0.792 135.527 L -0.000 135.742 0.000 136.677 L 0.000 137.613 0.910 137.922 C 1.767 138.213,2.097 138.220,6.607 138.042 C 10.162 137.902,12.665 137.902,16.336 138.041 C 21.814 138.249,22.194 138.194,22.565 137.140 C 22.989 135.933,21.962 135.279,19.372 135.106 C 14.839 134.804,15.000 135.306,15.000 121.479 C 15.000 108.338,14.522 109.503,19.917 109.498 C 29.355 109.487,30.794 110.264,31.745 115.884 C 32.009 117.450,33.793 117.679,34.242 116.206 C 34.306 115.998,34.274 113.860,34.172 111.456 C 34.037 108.298,34.035 106.078,34.164 103.465 C 34.366 99.382,34.328 99.052,33.630 98.758 C 32.359 98.224,32.014 98.673,31.331 101.751 C 30.354 106.150,30.391 106.132,21.750 106.269 C 14.451 106.384,15.099 107.339,15.036 96.371 C 14.970 85.106,14.552 85.666,23.042 85.667 C 32.233 85.669,35.881 87.678,37.174 93.449 C 37.637 95.514,38.885 96.426,39.846 95.403 L 40.250 94.973 40.211 89.461 C 40.168 83.548,40.161 83.494,39.289 82.930 C 38.823 82.628,37.133 82.476,36.250 82.656 M269.646 89.260 C 269.421 89.377,269.128 89.686,268.994 89.945 C 267.343 93.143,265.259 95.551,262.167 97.831 C 260.416 99.121,260.166 99.400,260.169 100.060 C 260.174 101.052,260.748 101.333,262.765 101.333 C 264.773 101.333,264.570 99.711,264.670 116.559 C 264.765 132.671,264.783 132.933,265.938 134.960 C 266.800 136.473,268.424 137.847,269.851 138.271 C 270.310 138.407,270.811 138.664,270.963 138.843 C 271.420 139.376,274.661 139.324,275.210 138.775 C 275.426 138.559,275.893 138.328,276.249 138.261 C 278.482 137.842,282.667 134.419,282.667 133.011 C 282.667 131.666,281.459 131.627,279.948 132.924 C 276.553 135.836,273.276 135.221,271.815 131.396 L 271.250 129.917 271.250 115.963 L 271.250 102.009 271.616 101.644 C 271.972 101.287,272.084 101.278,276.338 101.264 L 280.695 101.250 281.097 100.782 C 281.413 100.415,281.500 100.125,281.500 99.433 C 281.500 97.919,281.542 97.932,276.528 97.883 C 270.652 97.826,271.290 98.361,271.203 93.417 C 271.129 89.166,270.915 88.595,269.646 89.260 M56.750 97.580 C 56.658 97.622,55.758 97.725,54.750 97.809 C 47.821 98.388,40.379 104.230,38.903 110.250 C 38.836 110.525,38.641 111.078,38.471 111.479 C 37.025 114.879,37.468 122.405,39.379 126.917 C 41.652 132.283,47.902 137.524,52.881 138.241 C 53.764 138.368,54.753 138.736,54.915 138.997 C 55.135 139.353,60.289 139.209,60.798 138.833 C 61.047 138.650,61.749 138.395,62.358 138.268 C 77.061 135.195,82.882 114.802,72.272 103.538 C 70.297 101.441,65.933 98.667,64.610 98.667 C 64.465 98.667,63.958 98.514,63.485 98.327 C 62.497 97.938,57.244 97.355,56.750 97.580 M151.409 97.756 C 148.370 98.200,145.277 99.888,141.722 103.042 C 140.221 104.374,140.000 104.115,140.000 101.022 C 140.000 97.195,139.219 96.717,136.793 99.058 C 134.883 100.900,132.234 102.578,130.167 103.253 C 127.504 104.123,127.618 106.001,130.346 106.208 C 133.534 106.449,133.333 105.476,133.333 120.728 C 133.333 135.918,133.711 134.729,128.617 135.579 C 127.446 135.775,127.053 137.124,127.959 137.837 C 128.451 138.224,129.572 138.256,133.583 137.996 C 135.313 137.884,137.394 137.894,140.335 138.028 C 145.648 138.271,146.000 138.196,146.000 136.825 C 146.000 135.962,145.715 135.795,143.343 135.264 C 139.772 134.465,139.974 135.308,140.036 121.457 L 140.085 110.417 140.545 109.281 C 143.968 100.832,156.181 100.059,159.009 108.113 L 159.583 109.750 159.583 121.507 L 159.583 133.263 159.039 133.950 C 158.421 134.732,157.673 135.049,155.583 135.417 C 153.570 135.772,152.962 136.655,154.010 137.703 L 154.521 138.213 157.802 138.065 C 161.907 137.879,163.896 137.879,168.000 138.061 C 171.666 138.224,172.167 138.097,172.167 137.002 C 172.167 136.000,171.714 135.625,170.248 135.411 C 166.005 134.792,166.167 135.367,166.166 120.867 C 166.166 105.079,165.677 103.234,160.497 99.468 C 159.134 98.478,154.832 97.347,153.083 97.519 C 152.992 97.528,152.238 97.635,151.409 97.756 M238.987 97.748 C 237.926 97.868,236.441 98.162,235.687 98.400 C 234.933 98.638,234.246 98.833,234.160 98.833 C 233.806 98.833,229.992 100.797,228.833 101.576 C 223.644 105.063,220.654 111.251,224.054 111.468 C 226.652 111.634,228.895 110.124,230.193 107.333 C 232.730 101.881,235.633 99.731,240.000 100.072 C 243.897 100.375,244.667 101.883,244.667 109.215 C 244.667 114.886,245.434 114.023,236.500 118.403 C 226.026 123.538,222.707 126.704,222.673 131.590 C 222.652 134.532,225.122 137.782,227.727 138.242 C 228.081 138.304,228.553 138.538,228.776 138.761 C 229.336 139.321,232.552 139.379,233.298 138.842 C 233.547 138.664,234.214 138.400,234.782 138.257 C 235.350 138.113,236.186 137.809,236.640 137.581 C 237.094 137.353,237.501 137.167,237.546 137.167 C 237.875 137.167,241.158 134.923,242.728 133.624 C 244.185 132.419,244.541 132.505,245.438 134.274 C 247.170 137.690,248.479 138.571,251.240 138.180 C 253.690 137.832,257.741 135.082,258.175 133.471 C 258.561 132.036,257.600 131.412,256.410 132.325 C 254.866 133.510,254.445 133.742,253.848 133.742 C 252.874 133.742,252.123 133.047,251.648 131.706 L 251.250 130.583 251.167 116.583 L 251.083 102.583 250.588 101.605 C 249.041 98.552,244.675 97.100,238.987 97.748 M326.250 97.576 C 326.158 97.615,325.205 97.724,324.131 97.817 C 318.992 98.263,314.271 100.883,311.038 105.083 C 310.230 106.133,308.333 109.644,308.333 110.090 C 308.333 110.233,308.207 110.590,308.053 110.883 C 306.612 113.628,306.632 122.360,308.085 125.171 C 308.222 125.434,308.333 125.754,308.333 125.880 C 308.333 126.007,308.653 126.742,309.044 127.514 C 311.865 133.083,316.898 137.154,322.333 138.263 C 323.021 138.403,323.787 138.664,324.035 138.842 C 324.626 139.267,329.317 139.338,329.657 138.928 C 329.766 138.797,330.431 138.563,331.136 138.408 C 340.705 136.305,347.064 128.149,347.047 118.000 C 347.042 114.911,347.001 114.561,346.350 112.083 C 344.336 104.415,337.868 98.663,330.321 97.830 C 328.227 97.599,326.455 97.488,326.250 97.576 M373.917 97.755 C 371.001 98.162,368.713 99.289,365.412 101.945 C 362.562 104.237,362.333 104.174,362.333 101.091 C 362.333 97.330,361.611 96.761,359.434 98.809 C 357.068 101.036,354.199 102.883,352.551 103.240 C 350.117 103.768,349.973 106.165,352.375 106.168 C 355.941 106.171,355.901 106.013,355.967 120.250 C 356.035 135.016,356.158 134.530,352.152 135.324 C 349.893 135.772,349.231 136.556,350.154 137.690 L 350.474 138.083 353.945 138.003 C 358.358 137.901,362.112 137.930,365.108 138.089 L 367.467 138.215 367.900 137.782 C 368.713 136.969,368.332 135.765,367.204 135.577 C 364.229 135.082,363.291 134.634,362.738 133.446 L 362.337 132.583 362.335 122.138 C 362.333 110.068,362.357 109.826,363.742 107.696 C 368.959 99.672,380.798 101.110,381.674 109.874 C 381.768 110.814,381.917 112.000,382.006 112.510 C 382.096 113.028,382.167 117.417,382.167 122.470 C 382.167 134.808,382.190 134.737,377.917 135.419 C 376.330 135.672,375.881 136.137,376.179 137.217 C 376.449 138.197,376.775 138.248,381.412 138.037 C 384.261 137.908,386.436 137.904,388.770 138.024 C 393.912 138.290,394.500 138.161,394.500 136.764 C 394.500 135.916,394.256 135.743,392.622 135.427 C 390.409 135.001,389.650 134.664,389.088 133.861 L 388.583 133.138 388.491 120.694 L 388.399 108.250 387.882 106.500 C 386.908 103.197,384.627 100.247,382.110 99.033 C 380.535 98.274,379.613 97.977,378.353 97.821 C 375.908 97.520,375.632 97.516,373.917 97.755 M296.750 97.852 C 296.567 97.956,295.892 98.549,295.250 99.171 C 293.569 100.798,290.759 102.586,288.833 103.253 C 286.009 104.232,286.105 105.997,288.995 106.220 C 291.147 106.386,291.497 106.671,291.812 108.514 C 292.073 110.037,292.074 132.059,291.814 133.093 C 291.490 134.376,290.218 135.137,287.885 135.442 C 286.380 135.639,285.807 136.209,286.068 137.247 C 286.282 138.102,286.922 138.230,290.162 138.066 C 293.436 137.900,295.511 137.888,300.533 138.004 C 304.388 138.093,304.426 138.083,304.608 136.966 C 304.739 136.156,304.307 135.750,303.057 135.508 C 300.253 134.965,299.615 134.662,298.853 133.507 C 298.610 133.139,298.575 131.367,298.500 115.641 C 298.444 103.981,298.360 98.126,298.245 98.011 C 297.971 97.737,297.113 97.646,296.750 97.852 M79.500 99.000 C 79.098 99.402,79.090 99.539,79.428 100.251 C 79.754 100.937,80.231 101.124,81.885 101.214 C 82.987 101.274,83.293 101.359,83.874 101.768 C 85.180 102.685,85.152 102.404,85.160 114.722 C 85.168 128.283,85.307 129.607,87.037 132.609 C 88.580 135.287,91.603 137.672,94.301 138.340 C 94.696 138.438,95.144 138.664,95.296 138.842 C 95.718 139.334,100.051 139.334,100.575 138.842 C 100.765 138.663,101.354 138.404,101.883 138.266 C 103.599 137.819,105.802 136.597,108.065 134.837 C 110.982 132.569,111.298 132.650,111.077 135.607 C 111.014 136.445,111.016 137.589,111.081 138.149 L 111.199 139.167 112.016 139.167 C 112.610 139.167,112.833 139.102,112.833 138.931 C 112.833 138.120,116.121 136.457,120.417 135.093 C 122.963 134.285,123.596 133.687,122.924 132.728 C 122.711 132.423,122.460 132.371,120.870 132.295 C 117.436 132.133,117.757 133.893,117.717 115.013 C 117.683 99.497,117.682 99.441,117.337 99.096 C 116.862 98.621,106.431 98.455,105.734 98.912 C 104.442 99.759,105.582 101.008,107.804 101.180 C 109.631 101.322,110.154 101.547,110.770 102.454 C 111.070 102.897,111.083 103.462,111.083 115.833 L 111.083 128.750 110.469 129.750 C 108.193 133.455,103.225 135.285,98.471 134.169 C 95.007 133.356,93.125 131.555,92.205 128.174 L 91.772 126.583 91.678 113.167 C 91.573 98.339,91.640 99.148,90.500 98.831 C 89.246 98.482,79.874 98.626,79.500 99.000 M198.774 100.092 C 202.698 100.867,204.930 102.789,205.653 106.015 C 206.154 108.247,206.130 128.464,205.625 129.535 C 203.399 134.264,194.022 135.778,188.714 132.267 C 183.277 128.670,179.928 119.240,181.842 112.917 C 182.009 112.367,182.197 111.617,182.261 111.250 C 182.459 110.114,184.111 106.974,185.279 105.514 C 188.619 101.339,194.047 99.158,198.774 100.092 M59.338 100.176 C 63.961 100.753,68.088 105.038,69.923 111.167 C 71.390 116.066,71.076 123.506,69.247 127.167 C 69.133 127.396,68.752 128.168,68.400 128.882 C 67.301 131.114,65.389 133.455,63.917 134.368 C 63.458 134.652,62.821 135.054,62.500 135.261 C 61.465 135.929,58.773 136.549,57.333 136.450 C 46.055 135.681,40.147 116.971,47.607 105.648 C 50.356 101.476,54.450 99.566,59.338 100.176 M329.000 100.234 C 332.859 100.869,336.931 104.599,338.504 108.940 C 340.052 113.210,340.083 113.396,340.083 118.250 C 340.083 137.883,321.627 143.490,315.120 125.833 C 313.582 121.660,313.084 115.500,314.060 112.731 C 314.187 112.373,314.346 111.742,314.413 111.331 C 314.634 109.974,316.152 106.676,317.228 105.214 C 320.222 101.147,324.233 99.450,329.000 100.234 M244.405 117.762 C 244.836 118.193,244.786 125.907,244.342 127.511 C 243.304 131.253,239.529 133.912,235.247 133.915 L 233.078 133.917 232.090 133.331 C 230.223 132.223,229.477 130.516,229.816 128.124 C 230.191 125.470,232.216 123.440,237.000 120.921 C 237.963 120.414,239.800 119.443,241.083 118.763 C 243.528 117.466,243.975 117.332,244.405 117.762 " stroke="none" fill="#00843e" fill-rule="evenodd"></path></g></svg>