<?xml version="1.0" standalone="no"?>
<!DOCTYPE svg PUBLIC "-//W3C//DTD SVG 20010904//EN"
 "http://www.w3.org/TR/2001/REC-SVG-20010904/DTD/svg10.dtd">
<svg version="1.0" xmlns="http://www.w3.org/2000/svg"
 width="1200.000000pt" height="587.000000pt" viewBox="0 0 1200.000000 587.000000"
 preserveAspectRatio="xMidYMid meet">

<g transform="translate(0.000000,587.000000) scale(0.100000,-0.100000)"
fill="#000000" stroke="none">
<path d="M7852 4565 c-34 -18 -90 -38 -123 -44 -65 -13 -85 -34 -54 -57 10 -8
33 -14 51 -14 67 0 64 30 64 -608 0 -317 -4 -582 -8 -588 -11 -17 -48 -34 -76
-34 -13 0 -31 -3 -40 -6 -19 -7 -22 -54 -3 -55 63 -4 418 0 426 5 29 18 -8 56
-53 56 -19 0 -45 9 -60 21 l-26 20 0 280 c0 309 3 324 63 387 88 93 237 108
335 35 66 -49 67 -55 70 -394 l3 -307 -27 -21 c-15 -12 -41 -21 -60 -21 -46 0
-82 -38 -53 -56 9 -5 362 -9 425 -5 20 2 24 29 8 46 -9 8 -28 15 -44 15 -41 0
-80 20 -85 44 -3 12 -6 152 -8 311 -4 333 -10 369 -82 440 -57 58 -129 79
-248 73 -103 -5 -165 -30 -236 -93 -21 -19 -43 -35 -50 -35 -7 0 -11 92 -13
317 -3 274 -5 318 -18 319 -8 1 -43 -13 -78 -31z"/>
<path d="M5490 4428 c-10 -24 -109 -279 -220 -568 -112 -289 -210 -541 -220
-560 -28 -54 -53 -72 -116 -79 -61 -7 -88 -28 -66 -53 14 -18 448 -16 465 1
24 24 -7 46 -71 52 -33 3 -73 14 -88 23 -24 16 -26 22 -21 61 4 24 30 103 60
177 l53 133 209 0 210 0 52 -122 c67 -157 85 -211 78 -233 -7 -23 -55 -40
-114 -40 -26 0 -52 -5 -59 -12 -16 -16 -15 -48 1 -49 6 0 130 -1 275 -1 275
-1 299 2 276 40 -7 10 -29 19 -57 22 -52 7 -88 35 -117 90 -10 19 -107 256
-215 525 -275 684 -254 635 -276 635 -14 0 -26 -13 -39 -42z m74 -503 c47
-118 86 -217 86 -220 0 -3 -79 -5 -176 -5 -137 0 -175 3 -172 13 50 140 163
427 168 427 5 0 47 -97 94 -215z"/>
<path d="M1497 4433 c-14 -13 -7 -43 12 -53 11 -5 35 -10 55 -10 19 0 47 -5
62 -10 l27 -11 -7 -122 c-20 -361 -67 -937 -77 -961 -12 -26 -51 -43 -113 -48
-34 -3 -57 -31 -39 -49 9 -9 300 -16 426 -10 22 1 23 46 1 55 -9 3 -31 6 -51
6 -47 0 -98 25 -112 56 -6 14 -11 60 -11 102 -1 85 49 838 57 862 2 8 94 -217
204 -500 110 -283 207 -521 214 -529 7 -7 20 -11 27 -9 8 3 117 247 243 542
l230 537 3 -478 c2 -321 -1 -490 -8 -515 -13 -45 -36 -59 -109 -67 -58 -6 -86
-30 -64 -52 17 -17 499 -17 516 0 22 22 -6 46 -63 51 -95 10 -90 -22 -92 544
-3 552 -2 574 13 592 6 7 36 14 66 16 59 3 82 20 70 52 -6 14 -27 16 -165 16
-139 0 -161 -2 -174 -17 -8 -10 -104 -223 -213 -473 -109 -250 -201 -459 -205
-463 -4 -5 -92 202 -195 460 -103 257 -192 474 -197 481 -8 9 -54 12 -168 12
-86 0 -160 -3 -163 -7z"/>
<path d="M7228 4242 c-26 -47 -82 -104 -163 -168 -53 -41 -44 -64 24 -64 l50
0 3 -363 3 -363 25 -49 c45 -87 149 -118 265 -79 48 17 145 98 145 122 0 26
-32 23 -77 -7 -74 -50 -121 -53 -163 -11 -36 36 -40 86 -38 422 l3 323 117 3
c116 3 118 3 124 27 12 47 -8 55 -132 55 l-113 0 -3 98 c-3 88 -5 97 -23 100
-15 2 -27 -10 -47 -46z"/>
<path d="M3421 4074 c-134 -36 -272 -138 -306 -227 -22 -59 -9 -82 42 -74 63
11 101 36 124 85 56 118 117 169 212 179 60 6 108 -12 128 -48 17 -33 23 -239
7 -269 -10 -18 -65 -51 -198 -116 -256 -126 -320 -187 -320 -302 0 -100 72
-157 200 -157 94 0 146 19 246 91 42 30 78 54 79 52 1 -2 14 -27 29 -55 53
-106 153 -109 265 -8 65 59 46 98 -24 51 -53 -36 -69 -34 -96 14 -11 20 -15
100 -19 368 l-5 344 -37 33 c-20 18 -53 38 -75 44 -53 15 -188 12 -252 -5z
m214 -560 c0 -106 -3 -123 -23 -155 -78 -126 -299 -149 -331 -33 -25 90 31
156 214 251 66 35 125 61 130 59 6 -2 10 -51 10 -122z"/>
<path d="M4431 4075 c-189 -53 -347 -216 -382 -393 -41 -213 83 -434 289 -513
69 -26 197 -36 271 -20 113 24 251 116 251 167 0 34 -29 31 -64 -5 -38 -40
-118 -73 -192 -79 -119 -9 -233 46 -310 151 -129 174 -106 422 51 565 87 79
193 110 268 78 39 -16 63 -41 125 -132 26 -38 55 -70 65 -72 36 -7 47 16 47
100 0 71 -2 81 -25 102 -40 38 -119 59 -235 62 -72 3 -122 -1 -159 -11z"/>
<path d="M6509 4054 c-18 -19 -71 -54 -116 -76 -101 -48 -110 -72 -34 -82 27
-3 55 -14 62 -23 11 -12 15 -79 17 -302 3 -324 2 -331 -63 -345 -22 -4 -50
-12 -62 -17 -24 -9 -30 -33 -12 -45 8 -5 363 -9 427 -5 6 1 12 10 12 21 0 22
-19 32 -85 46 -64 14 -66 22 -63 324 3 295 4 297 76 373 46 47 73 47 123 2 51
-46 98 -48 140 -6 66 66 6 161 -101 161 -58 0 -135 -44 -186 -105 -21 -25 -42
-45 -46 -45 -4 0 -8 36 -8 80 0 77 -1 80 -23 80 -13 0 -38 -15 -58 -36z"/>
<path d="M10091 4049 c-25 -22 -77 -56 -117 -75 -66 -31 -94 -57 -76 -67 4 -3
28 -8 54 -11 31 -5 51 -14 58 -25 14 -26 15 -594 1 -620 -7 -12 -26 -22 -49
-26 -79 -13 -82 -14 -82 -40 0 -14 5 -25 10 -26 6 0 103 -1 217 -1 185 -1 208
1 218 16 14 23 -17 46 -62 46 -23 0 -42 8 -59 25 l-25 25 3 278 3 277 27 47
c56 94 106 110 169 53 29 -26 48 -35 73 -35 97 0 123 130 36 175 -73 38 -166
8 -249 -80 -29 -30 -54 -55 -56 -55 -2 0 -5 35 -7 78 -3 68 -5 77 -23 79 -12
2 -39 -14 -64 -38z"/>
<path d="M8713 4054 c-9 -23 23 -44 67 -44 20 0 45 -6 56 -14 18 -14 19 -32
24 -323 5 -288 6 -311 26 -354 29 -63 83 -120 141 -149 41 -21 62 -25 143 -25
85 0 101 3 150 29 30 16 77 46 104 68 58 46 66 40 59 -42 -4 -35 -1 -60 5 -64
6 -3 39 9 74 28 35 19 95 44 135 57 104 33 113 69 17 69 -50 0 -55 2 -65 27
-6 16 -9 161 -8 379 0 194 -2 358 -6 363 -4 7 -59 11 -146 11 -120 0 -140 -2
-146 -16 -9 -23 23 -44 67 -44 20 0 45 -6 56 -14 18 -14 19 -29 19 -325 l0
-310 -35 -37 c-96 -101 -274 -115 -369 -29 -60 54 -63 73 -68 435 -4 228 -9
327 -17 332 -6 4 -71 8 -144 8 -114 0 -134 -2 -139 -16z"/>
<path d="M6209 2812 c-24 -14 -78 -36 -119 -48 -58 -17 -76 -26 -78 -42 -3
-20 20 -32 64 -32 11 0 28 -8 37 -18 15 -16 17 -46 17 -206 l0 -188 -22 6
c-209 61 -302 62 -423 2 -207 -102 -315 -310 -273 -523 23 -114 60 -187 137
-264 87 -87 150 -113 276 -113 80 -1 96 2 145 28 30 16 76 44 102 63 26 19 52
32 58 28 5 -3 10 -23 10 -44 0 -20 6 -45 13 -54 11 -15 22 -13 127 30 63 26
118 52 122 58 4 5 8 25 8 43 0 39 -17 42 -51 6 -35 -38 -60 -49 -70 -33 -5 8
-9 307 -9 665 0 540 -2 653 -14 657 -7 3 -33 -7 -57 -21z m-172 -560 c23 -12
52 -36 65 -54 23 -32 23 -38 26 -318 4 -330 7 -316 -96 -367 -49 -24 -69 -28
-142 -28 -76 0 -91 3 -139 30 -235 130 -257 531 -37 696 27 20 69 44 95 53 63
22 172 16 228 -12z"/>
<path d="M8175 2701 c-80 -34 -86 -165 -8 -197 28 -12 38 -12 68 0 39 17 55
47 55 106 0 65 -61 113 -115 91z"/>
<path d="M1370 2672 c-14 -5 -13 -38 3 -50 6 -5 38 -12 70 -14 99 -8 92 38 92
-573 0 -613 8 -564 -96 -574 -65 -6 -96 -28 -72 -52 16 -16 490 -16 506 0 24
24 -7 46 -72 52 -99 10 -96 -2 -99 303 -3 241 -2 265 15 281 15 16 31 17 148
12 72 -3 143 -11 158 -16 29 -11 49 -48 67 -119 9 -36 15 -43 33 -40 22 3 22
4 22 213 0 209 0 210 -22 213 -17 3 -24 -3 -28 -25 -4 -15 -14 -53 -23 -83
-15 -48 -21 -56 -47 -61 -48 -10 -289 -10 -305 1 -13 8 -15 44 -15 224 0 163
3 218 13 228 10 10 54 13 170 13 129 0 166 -3 205 -19 56 -21 97 -70 122 -146
20 -59 38 -78 60 -60 12 10 15 39 15 139 0 69 -5 133 -10 141 -8 13 -70 15
-455 15 -244 0 -449 -1 -455 -3z"/>
<path d="M7576 2483 c-31 -58 -65 -98 -131 -149 -59 -46 -65 -53 -58 -71 3 -8
22 -13 53 -13 l49 0 3 -363 3 -363 25 -49 c50 -97 162 -123 278 -64 61 30 112
78 112 104 0 28 -23 26 -67 -5 -27 -20 -61 -35 -87 -37 -35 -4 -45 -1 -68 22
-43 43 -49 98 -46 440 l3 310 115 5 115 5 3 33 3 32 -108 0 c-59 0 -113 4
-120 8 -8 5 -13 42 -15 102 -3 80 -6 95 -20 98 -12 2 -25 -12 -42 -45z"/>
<path d="M2560 2316 c-203 -57 -330 -233 -330 -456 0 -137 46 -252 137 -343
273 -273 724 -117 783 271 38 242 -115 479 -341 531 -59 14 -194 12 -249 -3z
m253 -69 c209 -123 252 -505 81 -714 -99 -120 -252 -134 -367 -33 -84 74 -147
232 -147 370 0 194 96 354 240 401 47 16 146 3 193 -24z"/>
<path d="M4520 2290 c-25 -23 -78 -57 -117 -76 -89 -43 -98 -69 -27 -77 25 -2
51 -10 57 -16 9 -9 13 -102 15 -316 3 -295 2 -305 -18 -325 -11 -11 -31 -20
-44 -20 -42 0 -76 -18 -76 -40 0 -11 6 -20 13 -20 21 -1 391 -1 405 -1 8 1 12
10 10 23 -3 21 -17 28 -80 42 -58 13 -58 13 -58 304 0 302 3 317 77 383 115
104 291 88 355 -34 22 -40 23 -54 26 -324 l4 -282 -26 -26 c-14 -14 -37 -25
-51 -25 -15 0 -35 -5 -46 -10 -21 -12 -26 -50 -6 -51 71 -3 399 1 407 6 32 20
-10 55 -66 55 -13 0 -33 9 -44 20 -19 19 -20 33 -20 273 0 349 -13 419 -91
496 -59 59 -104 76 -204 76 -79 0 -97 -4 -142 -27 -28 -15 -79 -50 -112 -78
l-60 -50 -3 77 c-4 95 -14 101 -78 43z"/>
<path d="M6835 2316 c-172 -49 -321 -175 -313 -266 2 -29 7 -35 28 -38 14 -1
45 8 70 20 37 19 51 34 77 87 57 116 134 169 228 158 55 -6 81 -27 95 -76 11
-39 14 -220 4 -245 -3 -9 -81 -54 -173 -101 -184 -94 -251 -140 -295 -202 -59
-84 -43 -188 37 -241 36 -24 50 -27 121 -26 96 0 139 17 240 93 38 29 70 51
71 49 1 -2 14 -26 28 -54 31 -61 45 -73 90 -81 65 -10 197 72 197 123 0 31
-15 30 -52 -1 -36 -31 -59 -32 -84 -4 -18 20 -19 45 -24 369 -5 332 -6 350
-26 376 -35 47 -88 68 -183 71 -53 2 -105 -3 -136 -11z m194 -564 c-4 -123 -5
-130 -32 -166 -45 -59 -100 -89 -168 -94 -71 -5 -115 10 -134 49 -31 59 -11
137 48 185 41 33 255 152 276 153 10 1 12 -24 10 -127z"/>
<path d="M8188 2285 c-27 -24 -78 -58 -115 -77 -80 -39 -87 -59 -24 -70 78
-13 76 -2 79 -333 l3 -295 -25 -25 c-14 -14 -35 -25 -48 -25 -47 0 -68 -12
-68 -36 0 -13 6 -24 13 -24 132 -4 398 0 406 5 32 19 -9 55 -64 55 -12 0 -33
8 -45 18 l-22 18 1 400 c1 220 -1 408 -5 417 -10 27 -36 19 -86 -28z"/>
<path d="M8803 2315 c-144 -39 -250 -140 -304 -291 -17 -46 -22 -81 -22 -164
0 -83 5 -118 22 -164 70 -194 237 -315 436 -316 353 -1 575 385 409 712 -34
66 -111 148 -172 181 -101 55 -255 72 -369 42z m210 -49 c139 -50 231 -214
231 -411 0 -139 -38 -247 -117 -332 -59 -65 -108 -87 -187 -87 -79 0 -128 22
-187 87 -106 115 -153 314 -114 477 49 203 216 322 374 266z"/>
<path d="M9689 2304 c-31 -34 -113 -87 -161 -104 -64 -23 -62 -54 3 -63 75
-10 74 -4 77 -310 2 -150 0 -288 -5 -307 -10 -38 -36 -56 -95 -65 -37 -6 -52
-22 -38 -44 11 -18 410 -18 421 0 13 22 -2 38 -39 44 -54 8 -85 27 -93 55 -10
35 -10 454 0 513 17 103 113 187 222 195 106 8 194 -46 218 -135 7 -22 11
-151 11 -310 0 -260 -1 -274 -20 -293 -11 -11 -31 -20 -44 -20 -56 0 -98 -35
-66 -55 8 -5 312 -9 408 -5 8 0 12 9 10 23 -2 17 -13 25 -52 34 -84 21 -80 4
-86 351 l-5 307 -28 57 c-50 103 -141 158 -258 158 -80 0 -151 -29 -233 -95
-38 -30 -73 -55 -78 -55 -4 0 -8 34 -8 75 0 66 -2 75 -18 75 -10 0 -29 -12
-43 -26z"/>
<path d="M3194 2295 c-10 -25 16 -45 55 -45 21 0 46 -6 57 -14 18 -14 19 -32
24 -323 6 -346 8 -356 86 -442 61 -68 104 -86 209 -86 79 0 97 3 144 28 30 15
75 46 101 67 26 22 51 40 54 40 3 0 6 -31 6 -69 0 -39 4 -72 9 -75 5 -4 31 7
58 24 27 17 85 43 128 58 63 22 80 32 80 48 0 16 -8 19 -50 22 -32 2 -55 9
-62 19 -10 13 -13 106 -13 385 l0 368 -22 5 c-13 3 -75 4 -138 3 -103 -3 -115
-5 -118 -22 -5 -24 14 -36 59 -36 24 0 42 -7 55 -21 18 -19 19 -42 22 -294 2
-168 -1 -288 -7 -312 -23 -85 -113 -142 -224 -143 -115 0 -186 44 -212 134
-12 39 -15 115 -15 357 0 266 -2 310 -16 323 -22 23 -262 24 -270 1z"/>
</g>
</svg>
