<svg width="NaN" height="NaN" xmlns="http://www.w3.org/2000/svg" version="1.1">

 <g>
  <title>Layer 1</title>
  <g id="svgg">
   <path fill-rule="evenodd" fill="#0067b2" d="m195.10746,79.1976c-0.13028,0.41061 -2.36522,1.30565 -3.92031,1.57054c-1.16862,0.19927 -1.04703,1.22314 0.15778,1.33025c0.91,0.08058 1.34907,0.29915 1.57199,0.78213l0.17804,0.38504l0.02509,11.25817c0.01882,8.48042 0.00145,11.39762 -0.07093,11.82125c-0.16309,0.95149 -0.52834,1.1855 -2.25665,1.4475c-0.64848,0.09795 -0.95149,0.79227 -0.52014,1.19226l0.19348,0.17901l4.32996,-0.00338c2.68029,-0.00241 4.37965,-0.03378 4.45927,-0.08251c0.56404,-0.34451 0.27068,-1.1662 -0.45886,-1.28393c-2.4236,-0.39227 -2.28367,0.02268 -2.28367,-6.76224c0,-6.686 -0.01641,-6.59192 1.37947,-7.9931c2.06944,-2.07813 5.44743,-2.20454 7.21965,-0.2702c0.99926,1.08997 1.04799,1.48176 1.04751,8.34966c-0.00048,6.69807 0.12063,6.26478 -1.84605,6.59192c-0.97079,0.16164 -1.29503,0.42605 -1.16379,0.94908c0.13076,0.52062 -0.07768,0.49891 4.75697,0.50325l4.38255,0.00386l0.15344,-0.19493c0.35946,-0.45693 0.07479,-1.07742 -0.54088,-1.17875c-1.59032,-0.26152 -1.76209,-0.33534 -2.09646,-0.90372l-0.22485,-0.38262l-0.04439,-6.07178l-0.04439,-6.0713l-0.28854,-0.89745c-0.62436,-1.94303 -1.56089,-2.94325 -3.32153,-3.54734c-0.8685,-0.2977 -2.46365,-0.50035 -3.21104,-0.40771c-0.26827,0.03329 -0.80385,0.09698 -1.18985,0.14137c-1.15028,0.13269 -2.34061,0.68805 -3.54541,1.65546c-1.1802,0.94667 -1.06247,0.88249 -1.25547,0.68949c-0.16598,-0.16598 -0.16695,-0.20844 -0.1766,-6.29856c-0.00531,-3.37268 -0.03233,-6.24066 -0.0608,-6.37334c-0.06755,-0.31845 -1.23858,-0.42991 -1.3346,-0.12738m-49.50691,2.64458c-0.24029,0.21471 -0.32472,0.38311 -0.75463,1.50395c-0.10181,0.26538 -0.29963,0.772 -0.44004,1.12567c-0.14041,0.35367 -0.32135,0.82411 -0.40192,1.04558c-0.08106,0.22099 -0.26248,0.69142 -0.40289,1.0451c-0.14041,0.35416 -0.33051,0.86078 -0.42171,1.12616c-0.09168,0.26538 -0.19783,0.52255 -0.23594,0.57128c-0.03812,0.04922 -0.138,0.28419 -0.22195,0.52303c-0.41543,1.18309 -0.56597,1.57922 -0.68322,1.80069c-0.06996,0.13269 -0.12786,0.29288 -0.12835,0.35657c0,0.06321 -0.07141,0.26248 -0.15874,0.44245c-0.08733,0.17997 -0.22822,0.52593 -0.31314,0.76911c-0.08492,0.24318 -0.26972,0.73147 -0.40964,1.08563c-0.14041,0.35367 -0.32279,0.82411 -0.4053,1.0451c-0.08251,0.22147 -0.26489,0.69191 -0.4053,1.04558c-0.14041,0.35367 -0.32328,0.84245 -0.40578,1.08563c-0.08299,0.24318 -0.19059,0.51 -0.23932,0.59203c-0.04873,0.08251 -0.17129,0.39034 -0.2731,0.6837c-0.17081,0.4936 -0.28226,0.78985 -0.81591,2.1616c-0.44342,1.13967 -0.62146,1.61155 -0.76669,2.03084c-0.08444,0.24318 -0.20217,0.53316 -0.262,0.64366c-0.05983,0.11049 -0.1544,0.34547 -0.21085,0.52255c-0.09023,0.28468 -0.33823,0.91579 -0.75897,1.93c-0.88684,2.13941 -1.27091,2.51141 -2.70441,2.61756c-1.22603,0.09071 -1.682,0.3474 -1.682,0.94667c0,0.64703 0.33775,0.72665 2.6938,0.63594c0.88491,-0.03426 2.79368,-0.03957 4.24214,-0.01206l2.63397,0.05018l0.24125,-0.25766c0.68322,-0.73195 0.07817,-1.27573 -1.52808,-1.3732c-2.20889,-0.13365 -2.51672,-0.84052 -1.50395,-3.45181c0.11146,-0.28757 0.31121,-0.7942 0.44342,-1.12567c0.13221,-0.33196 0.31845,-0.8024 0.41302,-1.04558c0.09505,-0.24318 0.22147,-0.55102 0.28033,-0.6837c0.05935,-0.13269 0.13462,-0.33148 0.16743,-0.44197c0.40482,-1.36403 0.26779,-1.32253 4.46168,-1.35293c4.50317,-0.03233 4.63297,-0.01013 4.91089,0.85403c0.05259,0.16357 0.12738,0.33775 0.16646,0.38697c0.0386,0.04873 0.13944,0.28419 0.22436,0.52255c0.08444,0.23836 0.28709,0.74112 0.44969,1.11699c0.1626,0.37587 0.36091,0.84631 0.44052,1.04558c0.0801,0.19927 0.27889,0.66923 0.44294,1.04558c1.06922,2.45641 0.85837,3.03444 -1.14449,3.13239c-1.55365,0.07575 -2.17125,0.40482 -2.00479,1.06777c0.13607,0.54281 -0.3392,0.5018 5.89181,0.50566l5.61244,0.0029l0.20072,-0.17274c0.63594,-0.54667 0.00241,-1.24726 -1.25643,-1.38815c-1.16958,-0.13076 -2.19538,-1.16765 -2.67643,-2.70586c-0.05549,-0.1766 -0.13221,-0.36139 -0.17081,-0.41061c-0.03908,-0.04873 -0.13896,-0.28419 -0.22243,-0.52255c-0.08347,-0.23884 -0.26103,-0.70493 -0.3942,-1.03689c-0.13269,-0.33148 -0.31797,-0.8024 -0.41109,-1.04558c-0.09361,-0.24318 -0.20941,-0.51145 -0.25814,-0.59589c-0.04873,-0.08444 -0.15392,-0.33775 -0.23401,-0.56308c-0.0801,-0.22485 -0.27792,-0.71651 -0.43956,-1.09238c-0.16164,-0.37635 -0.35946,-0.86464 -0.43956,-1.08563c-0.262,-0.72182 -0.48588,-1.28393 -0.56887,-1.43013c-0.07865,-0.13751 -0.33003,-0.77441 -0.64173,-1.62603c-0.08106,-0.22099 -0.27937,-0.70976 -0.44101,-1.08563c-0.16116,-0.37587 -0.35898,-0.86416 -0.43859,-1.08563c-0.0801,-0.22099 -0.27889,-0.70928 -0.44245,-1.08563c-0.16357,-0.37587 -0.36429,-0.86416 -0.44535,-1.08563c-0.08154,-0.22099 -0.24511,-0.63738 -0.36429,-0.92447c-0.22726,-0.5486 -0.44583,-1.09528 -0.99685,-2.49308c-0.18287,-0.46465 -0.39034,-0.97127 -0.46079,-1.12567c-0.07045,-0.15488 -0.19348,-0.46272 -0.27358,-0.6837c-0.0801,-0.22099 -0.25283,-0.65524 -0.38407,-0.965c-0.65524,-1.54641 -0.75656,-1.79828 -0.86995,-2.16353c-0.33003,-1.06343 -0.86802,-1.42724 -1.40359,-0.9486m-83.19458,0.49649c-0.23594,0.09698 -0.43039,0.39517 -0.43039,0.65958c0,0.62725 0.41157,0.85885 1.68875,0.95101c1.66752,0.11966 1.87693,0.67888 1.44412,3.86c-0.04536,0.33148 -0.13751,1.58019 -0.20506,2.77438c-0.06707,1.19419 -0.15585,2.53313 -0.19638,2.9751c-0.04053,0.44245 -0.13124,1.7452 -0.20169,2.895c-0.06996,1.15028 -0.1573,2.41684 -0.19445,2.81491c-0.03667,0.39806 -0.10663,1.33894 -0.15488,2.09067c-0.3889,6.04138 -0.39903,6.06889 -2.27402,6.23583c-1.38574,0.12304 -1.84026,0.49601 -1.50395,1.23472c0.14379,0.31604 0.124,0.31459 4.6928,0.32714l4.34154,0.01158l0.1819,-0.1819c0.19493,-0.19445 0.24559,-0.64221 0.10374,-0.90807c-0.12883,-0.24029 -0.71458,-0.41688 -1.61059,-0.48588c-2.26968,-0.17515 -2.59344,-1.19322 -2.13217,-6.71592c0.07045,-0.84052 0.19638,-2.6137 0.28082,-3.94058c0.08396,-1.32688 0.19252,-2.84675 0.24077,-3.3775c0.04873,-0.53075 0.14234,-1.8335 0.20844,-2.895c0.16212,-2.60984 0.21809,-3.15073 0.33872,-3.27087c0.15488,-0.15537 0.35464,0.01013 0.51193,0.4246c0.07431,0.19445 0.24945,0.64317 0.39034,0.99685c0.14041,0.35367 0.34595,0.87863 0.45645,1.1662c0.11049,0.28709 0.28902,0.74836 0.39613,1.02483c0.1076,0.27599 0.28226,0.72858 0.38793,1.00505c0.10615,0.27696 0.30784,0.79275 0.44824,1.14642c0.40241,1.01277 0.64655,1.65256 0.8135,2.1312c0.08444,0.24318 0.19059,0.50663 0.23546,0.58527c0.04487,0.07865 0.1737,0.38648 0.28612,0.6837c0.26682,0.70252 0.55777,1.46149 0.80143,2.08826c0.1076,0.27647 0.28323,0.72858 0.39034,1.00505c0.47526,1.22459 0.61664,1.58694 0.85692,2.19152c0.14041,0.35367 0.34161,0.89311 0.4468,1.19901c0.10567,0.30542 0.22243,0.59492 0.26007,0.64317c0.03764,0.04825 0.12497,0.25042 0.19445,0.44969c0.06948,0.19927 0.24077,0.65138 0.38069,1.00505c0.3585,0.90855 0.59299,1.52132 0.83038,2.17125c0.34016,0.93123 0.87574,1.18695 1.36982,0.65475c0.23594,-0.25428 0.40868,-0.60554 1.01277,-2.06172c0.13751,-0.33196 0.33775,-0.8024 0.44438,-1.04558c0.10663,-0.24318 0.30784,-0.71362 0.4468,-1.04558c0.13896,-0.33148 0.33389,-0.78406 0.43377,-1.00505c0.09988,-0.22099 0.25669,-0.58286 0.34933,-0.80433c0.39034,-0.93412 0.7638,-1.79635 0.94667,-2.18621c0.1076,-0.22919 0.1959,-0.43956 0.1959,-0.46658c0,-0.0275 0.06803,-0.20169 0.15102,-0.38697c0.13896,-0.30977 0.42798,-0.98768 0.81205,-1.90588c0.18046,-0.43136 0.703,-1.6487 1.74376,-4.06072c0.34354,-0.79564 0.5129,-1.19805 0.83038,-1.97053c0.13607,-0.33148 0.33679,-0.78744 0.44583,-1.01325c0.10905,-0.22533 0.19831,-0.43666 0.19831,-0.46899c0,-0.06996 0.43715,-1.0919 0.63835,-1.49286c0.07768,-0.15488 0.18576,-0.41736 0.24029,-0.58383c0.11001,-0.33486 0.31218,-0.49022 0.49312,-0.37876c0.15199,0.09409 0.22195,18.02717 0.07334,18.89518c-0.19783,1.15559 -0.65572,1.50395 -2.10708,1.60383c-1.50299,0.10326 -2.12638,0.68949 -1.44895,1.36258l0.22147,0.22002l5.13573,-0.00676l5.13573,-0.00676l0.19155,-0.23932c0.56501,-0.70638 0.0029,-1.22459 -1.43061,-1.31916c-0.9679,-0.06369 -1.17923,-0.15826 -1.47356,-0.65765c-0.15778,-0.26779 -0.16164,-0.46658 -0.21278,-10.28497c-0.02895,-5.50677 -0.0772,-10.19281 -0.10712,-10.4138c-0.06224,-0.45934 0.13558,-1.75582 0.2977,-1.95171c0.18335,-0.22099 0.60747,-0.34016 1.21156,-0.34016c1.41614,0 2.18717,-0.76862 1.45812,-1.45377l-0.20748,-0.19493l-2.93843,-0.02316c-3.95457,-0.03088 -3.77894,-0.08733 -4.44045,1.43061c-0.18335,0.41978 -0.40192,0.90855 -0.4854,1.08563c-0.22726,0.47816 -0.64703,1.46728 -0.64703,1.52325c0,0.02702 -0.12931,0.32858 -0.28757,0.67019c-0.45017,0.9732 -0.49312,1.06874 -0.74739,1.66656c-0.5626,1.31964 -1.15125,2.67643 -1.29165,2.9751c-0.08299,0.17708 -0.26586,0.59348 -0.40627,0.92495c-0.14041,0.33196 -0.32135,0.74788 -0.40192,0.92495c-0.08058,0.1766 -0.25621,0.57466 -0.38986,0.88442c-0.13365,0.30977 -0.46561,1.0697 -0.73726,1.68875c-0.27213,0.61905 -0.60361,1.37899 -0.73726,1.68875c-0.13414,0.30977 -0.30928,0.70783 -0.39034,0.88442c-0.08058,0.17708 -0.26055,0.59348 -0.39951,0.92495c-0.13944,0.33196 -0.30301,0.69577 -0.36381,0.80867c-0.06031,0.11291 -0.18432,0.40241 -0.27503,0.64317c-0.47864,1.26994 -0.66199,1.14401 -1.489,-1.02242c-0.15488,-0.4053 -0.33486,-0.8574 -0.40048,-1.00505c-0.13655,-0.30832 -0.94522,-2.36087 -1.11988,-2.84193c-0.06417,-0.17708 -0.23208,-0.61133 -0.37346,-0.965c-0.14137,-0.35416 -0.30928,-0.78358 -0.37297,-0.95487c-0.06369,-0.17081 -0.17129,-0.41881 -0.2398,-0.55102c-0.06803,-0.13172 -0.17225,-0.38986 -0.2316,-0.57321c-0.1187,-0.36815 -0.46899,-1.24389 -0.64752,-1.62024c-0.06321,-0.13269 -0.2427,-0.58527 -0.39951,-1.00505c-0.15633,-0.42026 -0.35416,-0.92688 -0.43956,-1.12616c-0.53606,-1.25402 -0.64462,-1.52422 -0.64462,-1.6048c0,-0.0497 -0.07575,-0.23836 -0.16791,-0.41929c-0.09216,-0.18094 -0.2152,-0.47816 -0.27358,-0.66006c-0.05838,-0.18239 -0.23884,-0.63883 -0.40144,-1.0147c-0.16212,-0.37635 -0.36091,-0.86464 -0.44101,-1.08563c-0.5679,-1.56571 -0.76187,-1.92855 -1.12664,-2.11046c-0.31604,-0.15778 -6.13016,-0.25042 -6.48721,-0.10326m119.61609,3.14204c-0.07479,0.04391 -0.35705,0.44583 -0.62773,0.89359c-0.8767,1.45088 -1.37899,1.97101 -3.2342,3.34855c-0.83183,0.61712 -0.94763,0.75463 -0.94763,1.12423c0,0.40771 0.23498,0.53123 1.11216,0.58479c1.34618,0.08203 1.21976,-0.67116 1.21976,7.28672c0,7.33641 0.01785,7.6539 0.48877,8.65943c1.32929,2.84096 5.62402,2.91768 8.21553,0.14716c0.40627,-0.43425 0.54667,-0.85306 0.39565,-1.18406c-0.19638,-0.43136 -0.6673,-0.32521 -1.62024,0.36574c-1.53242,1.11072 -2.9032,0.92785 -3.61779,-0.4825c-0.44776,-0.88442 -0.49698,-1.76499 -0.46899,-8.45726l0.02509,-5.92414l0.19493,-0.20748l0.19493,-0.20748l2.15243,0l2.15292,0l0.22581,-0.19445c0.20458,-0.17563 0.22533,-0.24318 0.22533,-0.72086c0,-0.84486 0.11773,-0.80626 -2.59585,-0.85837c-1.27042,-0.02413 -2.31697,-0.05163 -2.32662,-0.06031c-0.18046,-0.16598 -0.22774,-0.54523 -0.26441,-2.11866c-0.04729,-2.04918 -0.20555,-2.39947 -0.89986,-1.99466m-37.00003,3.6559c0.09505,0.0661 0.22629,0.2924 0.29191,0.50228c0.06562,0.20989 0.23594,0.65331 0.37828,0.98478c0.30205,0.70445 0.68853,1.67331 0.84968,2.1312c0.06224,0.1766 0.15054,0.386 0.19541,0.46465c0.07672,0.13365 0.22485,0.50759 0.67647,1.7066c0.10036,0.26538 0.23691,0.60892 0.30446,0.7638c0.96066,2.2084 1.17392,2.05063 -2.77438,2.05063c-3.92128,0 -3.66411,0.11001 -3.10537,-1.32688c0.35753,-0.91916 0.61664,-1.6019 0.91482,-2.4125c0.20217,-0.54909 0.42943,-1.14208 0.84679,-2.2113c0.13848,-0.35416 0.33486,-0.87863 0.43763,-1.1662c0.57176,-1.6048 0.64945,-1.72204 0.9843,-1.48707m-41.1973,0.44438c-1.19853,0.14089 -2.03567,0.35464 -3.01804,0.77055c-0.24897,0.10567 -0.47478,0.19155 -0.5018,0.19155c-0.27503,0 -2.15485,1.20432 -2.96255,1.89816c-1.40697,1.20866 -2.22047,3.03107 -1.6487,3.69547c0.62339,0.72472 3.67569,-0.53799 3.67569,-1.52084c0,-0.40192 0.94232,-1.89478 1.61782,-2.56208c0.89697,-0.88587 1.69309,-1.18888 3.1266,-1.18888c2.02891,0 2.40671,0.5901 2.47137,3.86c0.04487,2.26293 -0.00048,2.62046 -0.3749,2.96979c-0.19493,0.18142 -1.65498,0.97079 -1.79635,0.97079c-0.10374,0 -4.05348,1.92614 -4.86601,2.37294c-3.30127,1.81565 -4.71113,4.19727 -3.72201,6.28794c1.43689,3.03734 6.01871,2.93167 9.83239,-0.22629c0.79902,-0.66199 0.93509,-0.62532 1.43254,0.38407c0.36911,0.74788 0.79854,1.27814 1.27477,1.5744c1.59756,0.99347 6.10314,-1.55076 5.07059,-2.86364c-0.21761,-0.27647 -0.46031,-0.26779 -0.84679,0.0304c-1.32109,1.02049 -1.87693,0.95439 -2.37197,-0.28226l-0.193,-0.4825l-0.04005,-6.755l-0.04053,-6.755l-0.21375,-0.44873c-0.4936,-1.034 -1.6294,-1.68779 -3.27521,-1.88561c-0.55777,-0.06659 -1.10444,-0.13414 -1.21542,-0.15006c-0.11049,-0.01544 -0.74739,0.03619 -1.41469,0.11484m21.35835,-0.03571c-3.35868,0.3971 -5.83632,1.69937 -7.93906,4.17459c-0.43232,0.50904 -1.17489,1.668 -1.27042,1.98404c-0.03136,0.10277 -0.12497,0.29963 -0.20796,0.43715c-0.08347,0.13751 -0.26731,0.60795 -0.40916,1.04558l-0.25766,0.79516l-0.00145,1.93l-0.00145,1.93l0.26779,0.80433c1.66849,5.00353 6.41098,7.74316 11.55732,6.67732c2.77341,-0.57418 5.81557,-2.78161 5.26118,-3.81706c-0.23787,-0.4439 -0.6755,-0.37153 -1.31433,0.21857c-1.32929,1.22652 -2.70248,1.74665 -4.59919,1.74231c-1.15848,-0.00241 -1.23038,-0.01592 -2.57559,-0.48588c-1.75968,-0.61471 -3.56664,-2.56642 -4.45927,-4.81776c-1.94882,-4.91282 1.29407,-10.90643 6.13788,-11.34551c1.56716,-0.14186 2.56787,0.5626 4.10125,2.88969c1.19129,1.80696 1.8803,2.12011 2.4043,1.0919c0.19734,-0.38697 0.20748,-2.88149 0.01351,-3.36592c-0.44969,-1.12423 -4.21271,-2.18331 -6.70772,-1.88851m41.57075,0.53558c-0.81253,0.71507 -1.26319,1.06488 -1.63857,1.27284c-0.89697,0.49601 -1.50299,0.78696 -1.74665,0.83762c-1.52181,0.31797 -1.51071,1.52615 0.01496,1.64291c1.52711,0.11628 1.39973,-0.49022 1.42675,6.80663l0.02171,6.03656l-0.18287,0.26875c-0.33872,0.49794 -0.58383,0.59685 -2.10177,0.84631c-0.63401,0.10422 -0.92592,0.78213 -0.51338,1.19274l0.18094,0.18046l4.40957,-0.00386c5.01269,-0.00386 4.66915,0.04632 4.62042,-0.67743c-0.03136,-0.47333 -0.24222,-0.61857 -1.11844,-0.77007c-1.06391,-0.18383 -1.27718,-0.27599 -1.5551,-0.67261l-0.24511,-0.34885l0,-5.44115l0,-5.44115l0.19107,-0.56308c0.48588,-1.43496 1.77801,-2.84916 2.60695,-2.85399c0.27358,-0.00145 0.74257,0.30591 1.08225,0.70879c1.77415,2.1037 4.9051,-0.16646 3.25253,-2.35894c-1.26126,-1.67379 -3.80355,-1.27525 -5.97914,0.9375c-1.24147,1.2627 -1.17585,1.29455 -1.21156,-0.58624c-0.03329,-1.75196 -0.39806,-1.99562 -1.51457,-1.01373m75.19425,-0.44342c-0.06659,0.02509 -0.3778,0.28468 -0.69191,0.57659c-1.00312,0.93123 -2.43663,1.80407 -3.30706,2.01251c-1.48707,0.35705 -1.43013,1.51167 0.07961,1.61396c1.60914,0.10856 1.60431,0.08685 1.56716,7.33255c-0.03474,6.68456 0.13124,6.21557 -2.34109,6.6199c-0.63449,0.10326 -0.9264,0.78165 -0.51386,1.19226l0.18094,0.18046l4.36084,-0.00338l4.36084,-0.00338l0.17853,-0.17901c0.41978,-0.41929 0.10905,-1.08128 -0.55729,-1.1884c-1.4586,-0.2345 -1.72397,-0.33679 -2.06558,-0.79371c-0.19059,-0.25573 -0.30398,-10.09873 -0.12883,-11.2355c0.19397,-1.26222 1.20722,-2.74108 2.20117,-3.21393c0.60843,-0.28902 0.75704,-0.23836 1.59466,0.54474c0.75318,0.70493 1.00843,0.82749 1.71625,0.82749c2.2306,0 2.68367,-2.91382 0.60313,-3.88027c-1.55703,-0.72327 -3.33649,-0.14813 -5.07204,1.64002c-1.09238,1.12519 -1.10348,1.11844 -1.1387,-0.68177c-0.02606,-1.34232 -0.262,-1.65498 -1.02676,-1.36113m-29.51308,0.58431c-0.44728,0.44728 0.05742,1.12567 0.83714,1.12567c0.54185,0 1.16379,0.14282 1.42241,0.32714c0.53558,0.38166 0.51,0.09264 0.5597,6.30724c0.05211,6.50507 0.15392,7.51446 0.83859,8.32313c0.05645,0.0661 0.16212,0.23884 0.23546,0.38359c0.34788,0.68612 1.65063,1.84026 2.55291,2.261c1.1223,0.52351 3.2067,0.76621 4.24938,0.49505c0.1544,-0.04005 0.49842,-0.12738 0.7638,-0.19397c0.92881,-0.23208 2.2581,-0.97465 3.29692,-1.84122c0.9761,-0.81398 1.03159,-0.77441 1.08563,0.77731c0.05645,1.61252 0.24994,1.75678 1.38092,1.03352c0.96452,-0.6176 1.65449,-0.9182 3.08511,-1.34473c1.63133,-0.48636 2.01926,-0.78213 1.72253,-1.31144c-0.15247,-0.27165 -0.34644,-0.32183 -1.28538,-0.33148c-1.48514,-0.01544 -1.36451,0.70107 -1.36451,-8.13013c0,-7.97428 0.01013,-7.789 -0.4439,-7.96173c-0.37973,-0.14427 -5.59797,-0.10374 -5.81075,0.04536c-0.24994,0.17515 -0.23836,0.57611 0.02461,0.85982c0.23112,0.24897 0.31459,0.27261 1.20384,0.34161c0.8907,0.069 1.25981,0.28757 1.46101,0.86416c0.22533,0.64655 0.22678,11.40148 0.00145,12.19519c-0.81012,2.85399 -6.15188,3.86048 -8.37958,1.57874c-1.11361,-1.14063 -1.19226,-1.76981 -1.21059,-9.70645c-0.01448,-6.25658 0.0029,-6.06744 -0.56163,-6.18855c-0.69673,-0.14958 -5.50195,-0.07238 -5.66503,0.09119m-105.98933,9.08548c0.10277,0.06514 0.12063,0.41592 0.11966,2.35074l-0.00097,2.27451l-0.26924,0.51821c-1.84122,3.54348 -7.64811,3.48462 -7.01314,-0.07045c0.20844,-1.16427 0.96934,-2.01878 2.67836,-3.00646c0.8024,-0.46417 4.11138,-2.09839 4.32465,-2.13603c0.0222,-0.00386 0.09457,0.0275 0.16067,0.06948m54.2055,16.30319c-0.10808,0.02075 -0.39758,0.1737 -0.64317,0.33968c-0.86464,0.58383 -1.53532,0.84582 -3.22117,1.2574c-1.52084,0.37104 -1.55799,1.30661 -0.05838,1.47452c0.86271,0.09698 1.23182,0.32086 1.38671,0.84148c0.15778,0.5322 0.17853,7.19601 0.02268,7.35185c-0.13655,0.13655 -0.51,0.12014 -0.8106,-0.03522c-0.14041,-0.07286 -0.44631,-0.18142 -0.67936,-0.24125c-0.23305,-0.06031 -0.63208,-0.16309 -0.88635,-0.22822c-3.61923,-0.93171 -6.96585,0.00965 -9.69391,2.72661c-1.13388,1.12905 -2.46944,3.19512 -2.46944,3.82044c0,0.04922 -0.07431,0.29674 -0.1655,0.55005c-0.09891,0.27454 -0.21037,0.91434 -0.27696,1.58598c-0.4936,5.01366 2.40961,9.62153 6.81387,10.81379c0.20941,0.05645 0.42219,0.15247 0.47237,0.21327c0.05066,0.06128 0.18721,0.10953 0.30301,0.10808l0.21134,-0.00241l-0.18335,-0.15295c-0.10084,-0.08444 -0.3889,-0.1959 -0.64028,-0.24801c-2.90803,-0.60361 -5.7128,-3.47207 -6.53932,-6.68842c-0.09409,-0.36622 -0.21085,-0.8106 -0.2591,-0.9872c-0.1737,-0.63835 -0.11194,-3.62454 0.08733,-4.22188c0.09602,-0.28757 0.1766,-0.57707 0.17901,-0.64366c0.00676,-0.19445 0.50132,-1.37223 0.75994,-1.80938c1.87355,-3.17099 5.21438,-5.28868 8.3651,-5.30268c1.35197,-0.00627 3.79872,0.41688 4.50703,0.77924c0.43377,0.22195 0.71507,0.24318 0.92785,0.07093l0.19445,-0.1573l0,-3.52515c0,-4.51668 -0.03136,-4.6045 -1.68537,-4.74394c-1.01615,-0.08589 -1.24196,-0.91772 -0.3088,-1.13677c1.9382,-0.45403 2.85785,-0.79806 3.70367,-1.38526c0.5901,-0.40964 1.17634,-0.46079 1.30806,-0.11387c0.0497,0.13076 0.07817,5.03296 0.07817,13.43184c0,14.24051 -0.01737,13.63979 0.40289,13.86464c0.29191,0.15633 0.55053,0.02075 1.15607,-0.60699c0.62387,-0.64703 0.8135,-0.72037 1.10493,-0.42894c0.33823,0.33823 0.00434,1.58164 -0.47575,1.77126c-0.11966,0.04729 -0.38069,0.15344 -0.57948,0.23594c-0.19927,0.08203 -0.7059,0.27792 -1.12616,0.43522c-0.41978,0.15681 -1.16186,0.4661 -1.64822,0.6866c-0.48684,0.2205 -0.92833,0.40048 -0.98141,0.39999c-0.45355,-0.00338 -0.74305,-0.5047 -0.7556,-1.30902c-0.01206,-0.73871 -0.07382,-0.8989 -0.35705,-0.92495c-0.25669,-0.02316 -0.27599,-0.01255 -1.44557,0.8188c-0.84341,0.59878 -2.31118,1.36596 -2.78403,1.45474c-0.38697,0.07238 -0.89118,0.38069 -0.69287,0.42364c0.0772,0.01689 0.23594,-0.04439 0.35223,-0.13607c0.11628,-0.09168 0.36043,-0.20651 0.54281,-0.25524c0.74402,-0.19976 2.27306,-1.07356 3.50778,-2.00431c0.57755,-0.4357 0.76621,-0.25187 0.82797,0.80578c0.06755,1.15414 0.47864,1.45426 1.38767,1.01373c0.57032,-0.27647 1.25064,-0.56211 2.12686,-0.89359c2.0955,-0.79275 2.32951,-0.99636 2.33144,-2.02988c0.00145,-0.96548 -0.58527,-1.01952 -1.41855,-0.13076c-0.76283,0.81398 -1.14015,0.83135 -1.31916,0.06176c-0.0415,-0.17901 -0.07334,-5.93909 -0.07431,-13.47237c-0.00193,-12.41424 -0.01013,-13.16887 -0.14282,-13.32569c-0.15392,-0.1819 -0.4328,-0.25573 -0.73919,-0.1959m40.03689,2.83565c-1.98404,1.02483 -1.3925,4.42356 0.77007,4.42356c1.20432,0 1.97053,-0.82122 2.03615,-2.18235c0.08685,-1.80552 -1.38092,-2.97751 -2.80622,-2.24121m1.61252,0.08251c1.59563,0.82122 1.41903,3.7056 -0.25669,4.18617c-1.27766,0.3667 -2.25665,-0.41495 -2.43807,-1.94641c-0.19493,-1.6434 1.35341,-2.93022 2.69476,-2.23977m-142.81807,0.38648c-0.28757,0.07238 -0.46127,0.14427 -0.38648,0.15923c0.07479,0.01496 0.26248,-0.0082 0.41736,-0.05066c0.18094,-0.05018 1.04799,-0.04922 2.43711,0.00241c1.48417,0.05452 4.12345,0.05066 8.46884,-0.01351c7.83966,-0.1158 7.29058,-0.1187 7.52411,0.03474c0.43618,0.28564 0.43763,0.29577 0.45838,3.16134l0.01882,2.65954l-0.19493,0.20748c-0.46368,0.4936 -1.06584,0.05356 -1.28924,-0.94281c-0.62387,-2.78451 -2.38403,-3.75385 -6.81869,-3.75482c-4.09643,-0.00048 -3.89474,-0.27068 -3.8629,5.16468c0.0304,5.29206 -0.28226,4.83127 3.23951,4.77579c4.16928,-0.0661 4.15143,-0.05742 4.62283,-2.17994c0.32955,-1.48514 0.49601,-1.70178 1.10927,-1.44412c0.33679,0.14186 0.35512,0.30108 0.25766,2.27113c-0.06224,1.26077 -0.06128,2.33192 0.00386,3.85566c0.04922,1.15993 0.06466,2.19152 0.03378,2.29188c-0.21664,0.71072 -1.07742,0.60023 -1.2048,-0.15537c-0.45838,-2.70924 -1.15414,-3.08607 -5.69109,-3.08173c-2.6248,0.00241 -2.38789,-0.56983 -2.38789,5.76539c-0.00048,6.68986 -0.07865,6.44524 2.10901,6.59095c1.24968,0.08347 1.7452,0.39903 1.54062,0.98141c-0.17901,0.50856 -0.36332,0.53509 -2.9997,0.43522c-1.76257,-0.06707 -2.98619,-0.06659 -4.71982,0.00048c-2.18669,0.08444 -2.36522,0.08106 -2.71889,-0.05404c-0.41302,-0.15778 -0.61567,-0.11484 -0.23932,0.05066c0.15585,0.06852 0.63063,0.10084 1.43882,0.09795c1.64629,-0.00531 6.24789,-0.00483 7.70649,0.00048l1.19274,0.00483l0.2345,-0.26248c0.67454,-0.75511 0.07527,-1.27814 -1.58984,-1.38719c-1.9329,-0.12642 -1.87258,0.07961 -1.87355,-6.41484c-0.00145,-6.26285 -0.24125,-5.68675 2.36763,-5.68675c4.37869,0.00048 4.81246,0.19155 5.37939,2.36908c0.33389,1.28345 0.57611,1.5522 1.15125,1.27621c0.43715,-0.20941 0.455,-0.34354 0.35802,-2.74929c-0.06176,-1.54062 -0.06273,-2.72275 -0.00386,-4.01923c0.09168,-2.00672 0.07382,-2.11818 -0.36574,-2.3189c-0.63594,-0.2895 -0.94184,0.18673 -1.29021,2.00624c-0.2977,1.55558 -0.61615,1.66656 -4.78688,1.66656c-3.03541,0 -2.77052,0.46175 -2.77052,-4.825c0,-4.894 -0.07479,-4.60353 1.23472,-4.78302c1.94978,-0.26682 5.65538,-0.07624 6.72653,0.34644c1.08949,0.42943 2.53313,2.24411 2.53313,3.1845c0,1.02387 1.22121,1.63568 1.56378,0.78358c0.13848,-0.34547 0.10615,-5.25973 -0.03667,-5.6052c-0.16019,-0.38648 -0.67743,-0.58334 -1.38526,-0.52786c-2.53168,0.19831 -16.29596,0.21664 -16.86868,0.02171c-0.0661,-0.0222 -0.3556,0.01882 -0.64317,0.09119m-0.44824,1.29262c0.05211,0.08396 0.3474,0.14861 1.17199,0.25621c1.95943,0.25621 2.06365,0.30108 2.2663,0.97031c0.19107,0.63256 0.15247,21.38054 -0.04101,21.88138c-0.23739,0.61471 -0.45403,0.71796 -1.66559,0.7913c-0.56694,0.03426 -1.11265,0.10615 -1.21252,0.15971c-0.10036,0.05356 -0.27454,0.12545 -0.38793,0.16019c-0.19059,0.05742 -0.19252,0.06273 -0.02654,0.069c0.09891,0.00386 0.31604,-0.04439 0.4825,-0.10712c0.16695,-0.06273 0.68322,-0.13655 1.14787,-0.16405c1.15462,-0.06852 1.49961,-0.23594 1.74665,-0.84775l0.17804,-0.44197l0.00193,-10.53491c0.00145,-11.15685 0.00772,-10.9513 -0.35416,-11.50377c-0.13607,-0.20796 -1.29214,-0.51821 -1.93434,-0.51965c-0.22147,0 -0.6012,-0.05404 -0.84438,-0.11918c-0.51724,-0.13896 -0.58769,-0.14572 -0.52882,-0.0497m130.02024,1.79587c-0.09891,0.04777 -0.33051,0.36188 -0.51435,0.69818c-0.72037,1.31723 -1.90732,2.61756 -3.29692,3.61103c-0.74739,0.53413 -0.79323,0.59492 -0.79323,1.05523c0,0.47382 0.20458,0.60409 0.99347,0.63208c1.29793,0.04632 1.17682,-0.71796 1.1773,7.42857l0.00048,6.72798l0.19686,0.83135c0.34306,1.44605 0.91482,2.19875 2.09743,2.7599c0.32183,0.15295 0.59927,0.31942 0.61615,0.37008c0.01689,0.05066 0.0994,0.07865 0.18287,0.06273c0.24463,-0.04729 -0.04439,-0.28275 -0.51965,-0.42364c-0.68081,-0.20217 -1.46584,-0.8685 -1.87982,-1.59515c-0.55729,-0.97803 -0.56597,-1.10444 -0.61181,-8.87848c-0.04825,-8.12916 0.0497,-7.34655 -0.91916,-7.34655c-1.64629,0 -1.75051,-0.61181 -0.28854,-1.68972c1.49189,-1.1001 2.49742,-2.26148 3.29403,-3.80548c0.21471,-0.41592 0.6837,-0.51724 0.94377,-0.20313c0.05887,0.07141 0.10133,0.72713 0.12207,1.87886c0.04198,2.38548 -0.26586,2.12734 2.56931,2.15485c2.41926,0.02364 2.39899,0.01737 2.39899,0.74788c0,0.33389 -0.04198,0.47382 -0.19445,0.65089l-0.19397,0.22581l-2.10225,0.00676c-2.05256,0.00676 -2.1066,0.0111 -2.27837,0.18335l-0.1766,0.17611l0,6.73281l0,6.73281l0.27261,0.71362c0.70493,1.84556 2.28609,2.1423 3.92417,0.73726c0.72906,-0.6258 1.31192,-0.60699 1.31192,0.04198c0,0.66489 -1.98356,2.30442 -3.05616,2.52589c-0.32086,0.0661 -0.64317,0.24945 -0.64317,0.36574c0,0.10808 0.22099,0.0994 0.25766,-0.01013c0.01592,-0.04922 0.31749,-0.20362 0.66971,-0.34402c1.98452,-0.78937 3.543,-2.67739 2.57462,-3.1184c-0.28033,-0.12786 -0.51193,-0.0415 -1.13629,0.42267c-1.90443,1.41662 -3.20477,1.14353 -3.86338,-0.81205l-0.23064,-0.6837l0,-6.6117l-0.00048,-6.61218l0.17563,-0.17563c0.17129,-0.17177 0.22822,-0.17611 2.26968,-0.18335l2.09405,-0.00724l0.22292,-0.22292c0.30494,-0.30494 0.32762,-1.07549 0.04053,-1.36306c-0.17997,-0.17997 -0.22002,-0.18383 -2.25183,-0.20506c-1.13774,-0.01158 -2.14857,-0.03908 -2.24604,-0.0608c-0.2784,-0.06176 -0.34451,-0.48781 -0.34499,-2.23301c-0.00048,-1.9136 -0.14716,-2.23446 -0.86416,-1.88899m-103.75825,4.13213c-2.74446,0.33148 -5.06866,1.75148 -6.58178,4.02019c-0.44438,0.66682 -1.05764,1.89671 -1.05764,2.12059c0,0.05018 -0.05694,0.2012 -0.12593,0.33486c-0.65861,1.27332 -0.63594,4.71982 0.04391,6.82545c0.93605,2.89597 3.71718,5.62933 6.39457,6.28408c0.88153,0.21568 1.00891,0.25766 1.09383,0.35995c0.10567,0.12738 0.51049,0.1544 0.43329,0.02895c-0.07817,-0.12593 -0.55536,-0.30349 -0.98141,-0.36477c-2.40237,-0.34595 -5.41799,-2.87474 -6.51472,-5.46383c-0.92206,-2.17704 -1.13581,-5.80834 -0.43811,-7.44884c0.08203,-0.19348 0.17611,-0.46031 0.20844,-0.59299c0.70783,-2.8868 4.30342,-5.72245 7.60613,-5.99892c0.46417,-0.03908 0.9346,-0.09216 1.0451,-0.1187c0.26827,-0.06369 2.26775,0.11677 2.77438,0.25042c1.33604,0.35319 1.82771,0.54619 2.73433,1.07501c7.34365,4.28267 5.35093,16.65976 -2.9529,18.34031c-0.25283,0.05115 -0.54233,0.16164 -0.64317,0.24608l-0.18335,0.15295l0.21713,0.00241c0.11918,0.00145 0.24656,-0.05018 0.28275,-0.11484c0.03619,-0.06466 0.3006,-0.17563 0.5872,-0.24656c4.77337,-1.18406 7.94436,-6.08143 7.27803,-11.24129c-0.73967,-5.72583 -5.30461,-9.16412 -11.22006,-8.45051m46.58152,-0.00097c-1.39732,0.2345 -2.83807,1.03545 -4.42935,2.46316c-0.74932,0.67212 -0.80336,0.60168 -0.83666,-1.09045c-0.03329,-1.70612 -0.48443,-1.90974 -1.66221,-0.74981c-0.84486,0.83231 -2.31745,1.76113 -3.21876,2.02988c-1.47645,0.44101 -1.2048,1.64243 0.37201,1.64243c0.52641,0 0.80336,0.12449 0.97513,0.43763c0.14089,0.25717 0.26055,11.38073 0.13221,12.26322c-0.09457,0.64945 -0.6065,0.99347 -1.64581,1.10541c-1.0258,0.11049 -1.50299,0.717 -1.01229,1.28731l0.19397,0.22581l1.03207,-0.00531c1.34618,-0.00676 5.18688,-0.00676 6.43221,0c1.18406,0.00627 1.3153,-0.06224 1.3153,-0.68901c0,-0.51049 -0.15874,-0.61229 -1.31867,-0.84824c-1.68537,-0.34258 -1.59515,0.04198 -1.55992,-6.65995l0.02702,-5.14683l0.22243,-0.55295c1.59756,-3.96905 7.48792,-4.41874 8.70044,-0.66392c0.34161,1.05716 0.36911,1.62024 0.34499,6.97261l-0.02316,5.03199l-0.22099,0.33389c-0.3199,0.48347 -0.50228,0.55681 -1.94255,0.7831c-0.66826,0.1047 -0.97803,0.75367 -0.58045,1.2159c0.24125,0.28082 0.64848,0.30977 2.8646,0.20651c0.99926,-0.0468 2.30539,-0.04343 3.60042,0.00869c2.30297,0.09312 2.39031,0.07527 2.54422,-0.53172c0.14137,-0.55729 -0.25573,-0.83666 -1.45908,-1.0258c-1.50395,-0.23691 -1.41952,0.16405 -1.4779,-6.99336l-0.04873,-5.9912l-0.20169,-0.68322c-0.96066,-3.2535 -3.71525,-4.94707 -7.11881,-4.37579m42.19849,-0.00145c-0.46465,0.06514 -1.11602,0.20844 -1.44798,0.31797c-0.33148,0.10953 -0.64993,0.19927 -0.70686,0.19927c-0.19155,0 -2.05497,0.97465 -2.66437,1.39394c-3.32925,2.28946 -4.06024,5.74609 -0.98285,4.64599c1.03062,-0.36815 1.38574,-0.70638 1.86535,-1.77801c1.103,-2.46413 2.24556,-3.39342 4.23683,-3.44553c2.22819,-0.05887 2.65134,0.6977 2.57896,4.61174c-0.03908,2.12493 -0.05452,2.15292 -1.64243,2.89838c-4.27592,2.00817 -6.3386,3.20573 -7.47489,4.33864c-2.26003,2.25424 -1.7978,5.76057 0.85354,6.47467c0.17997,0.04873 0.39758,0.15874 0.48347,0.24463c0.16695,0.16695 0.31749,0.20555 0.31749,0.08058c0,-0.12449 -0.33679,-0.32183 -0.64076,-0.3749c-1.22941,-0.21568 -2.42215,-1.79973 -2.41202,-3.20477c0.01641,-2.3575 1.61782,-3.88509 6.67153,-6.36273c4.31066,-2.11335 3.94058,-1.69695 3.94058,-4.43321c0,-2.46992 -0.13558,-3.20863 -0.69963,-3.81127c-0.41061,-0.43956 -0.64414,-0.52979 -1.5522,-0.60023c-2.10708,-0.16453 -3.50778,0.87284 -4.73188,3.50343c-0.54619,1.17344 -0.83183,1.43833 -1.95702,1.81372c-2.83228,0.94522 -1.86679,-2.46316 1.30082,-4.59147c0.55922,-0.37587 2.39947,-1.3235 2.57028,-1.3235c0.0415,0 0.36767,-0.09216 0.72472,-0.20506c0.91579,-0.28902 2.64507,-0.4632 3.54059,-0.35657c0.37587,0.04487 0.81543,0.09505 0.9761,0.11194c1.01132,0.10422 2.2499,0.92881 2.68511,1.78718l0.23884,0.47189l0.04053,6.755l0.04005,6.755l0.19204,0.54185c0.22919,0.64703 0.59155,0.98237 1.0615,0.98237c0.28805,0 0.49119,-0.11194 1.23617,-0.6837c0.57418,-0.44052 1.03786,-0.13944 0.85161,0.55295c-0.20941,0.77731 -2.16401,2.10418 -3.34614,2.27209c-1.33218,0.18866 -1.96378,-0.23643 -2.79947,-1.88465c-0.4328,-0.85354 -0.60457,-0.89504 -1.30758,-0.31363c-0.73485,0.60747 -2.34061,1.7095 -2.49163,1.7095c-0.01689,0 -0.25669,0.1047 -0.53316,0.23257c-0.27647,0.12786 -0.69335,0.27647 -0.9264,0.33003c-0.23305,0.05356 -0.5047,0.16453 -0.60313,0.24704l-0.17949,0.15006l0.2123,0.00241c0.11677,0.00145 0.23112,-0.04584 0.25428,-0.10519c0.02268,-0.05983 0.21664,-0.15585 0.43039,-0.21375c1.08466,-0.29433 2.38982,-1.05812 3.9565,-2.31648c0.6012,-0.48298 0.69577,-0.44969 1.13725,0.39613c0.70397,1.34714 1.0451,1.68393 1.875,1.85087c1.93241,0.38793 5.23899,-2.01203 4.29087,-3.11454c-0.2427,-0.28226 -0.4661,-0.23112 -1.04413,0.2398c-1.00698,0.82025 -1.5937,0.70349 -1.98356,-0.39469l-0.19879,-0.56115l-0.04246,-6.755l-0.04198,-6.755l-0.1959,-0.40241c-0.76428,-1.56764 -3.10634,-2.3242 -5.95598,-1.92421m41.89692,-0.07672c-0.11049,0.01496 -0.54474,0.06948 -0.965,0.12111c-6.74921,0.82749 -10.39257,9.52117 -6.45344,15.39851c0.12159,0.1819 0.32521,0.48684 0.45259,0.67791c0.56646,0.85161 1.89864,1.99031 3.26701,2.79271c0.37201,0.21857 1.72494,0.74257 1.91601,0.74257c0.21327,0 0.67405,0.16405 0.82411,0.29288c0.06996,0.06031 0.21471,0.10808 0.32183,0.10663l0.19493,-0.00241l-0.17467,-0.1462c-0.09602,-0.0801 -0.40385,-0.19059 -0.6837,-0.24511c-2.70055,-0.52689 -5.17916,-2.50225 -6.55911,-5.22596c-0.18866,-0.37249 -0.34306,-0.72713 -0.34306,-0.78841c0,-0.0608 -0.05356,-0.2152 -0.11966,-0.34209c-0.70107,-1.35631 -0.71072,-5.5695 -0.01544,-6.89396c0.07431,-0.14137 0.1351,-0.31363 0.1351,-0.38262c0,-0.069 0.21037,-0.5322 0.46706,-1.02917c1.88513,-3.65156 5.50195,-5.42234 10.01815,-4.9051c3.78473,0.43329 6.87225,3.14252 7.858,6.89589c0.31411,1.19564 0.33389,1.36451 0.3363,2.85495c0.0082,4.89689 -3.06002,8.83216 -7.67706,9.84686c-0.65331,0.14379 -1.00843,0.36622 -0.58431,0.36622c0.12352,0 0.28371,-0.05404 0.35657,-0.11966c0.07238,-0.06562 0.40096,-0.19011 0.73002,-0.27599c0.73871,-0.19397 1.54545,-0.49553 1.96764,-0.73581c2.88439,-1.64098 4.36084,-3.67569 5.19074,-7.15162c0.13462,-0.56549 0.14041,-3.24626 0.00772,-3.86c-0.84824,-3.92562 -3.0383,-6.45585 -6.56779,-7.58828c-0.98044,-0.31459 -3.01611,-0.52544 -3.90053,-0.40385m23.11995,0.10036c-1.33942,0.25766 -2.41443,0.82025 -3.90005,2.04242c-1.10879,0.91144 -1.15318,0.89456 -1.21059,-0.46899c-0.07865,-1.861 -0.53944,-2.13217 -1.71818,-1.01132c-1.09479,1.04027 -2.35508,1.84363 -3.2231,2.054c-0.67791,0.16405 -1.11313,0.71941 -0.92351,1.1773c0.14041,0.34016 0.31845,0.41157 1.18309,0.47719c1.33894,0.10133 1.29937,-0.11049 1.31047,6.94993c0.01062,6.81773 0.07238,6.5427 -1.53001,6.8018c-1.08128,0.17418 -1.36692,0.36525 -1.36692,0.91241c0,0.69094 0.28082,0.75318 2.895,0.63835c0.90179,-0.03957 2.42601,-0.03715 3.58787,0.00483c2.28657,0.08299 2.4154,0.06176 2.57366,-0.42653c0.20265,-0.62532 -0.17901,-0.94667 -1.33411,-1.12181c-0.75656,-0.11484 -1.04124,-0.27792 -1.26898,-0.72761l-0.18094,-0.35705l0,-5.16468c0,-5.70122 0.01496,-5.9087 0.48829,-6.71495c2.24652,-3.82574 7.94243,-3.38812 8.60346,0.66054c0.14572,0.89407 0.20458,10.48183 0.06852,11.13176c-0.14765,0.70204 -0.41495,0.94377 -1.24003,1.12181c-1.37609,0.29674 -1.56764,0.40627 -1.56764,0.89986c0,0.57707 0.25862,0.71362 1.3399,0.70879c1.36306,-0.00579 5.28,-0.00627 6.44765,-0.00048c1.15462,0.00579 1.29986,-0.07431 1.29986,-0.71555c0,-0.52544 -0.08492,-0.57369 -1.56813,-0.89263c-1.35679,-0.29143 -1.31433,-0.07238 -1.32398,-6.82593c-0.00386,-2.9611 -0.02509,-5.40159 -0.04729,-5.42378c-0.0222,-0.0222 -0.0304,2.53313 -0.01834,5.67806l0.0222,5.71811l0.24366,0.34885c0.27117,0.38745 0.63738,0.55005 1.70516,0.7556c0.78841,0.15247 0.90614,0.23594 0.90614,0.6451c0,0.67405 -0.28371,0.7363 -2.76473,0.60795c-1.12616,-0.0579 -2.17559,-0.05597 -3.55024,0.00627c-2.23735,0.10181 -2.39465,0.0772 -2.52492,-0.39565c-0.14379,-0.5211 0.07286,-0.74546 0.83859,-0.86754c2.06172,-0.32907 2.05063,-0.29481 2.05063,-6.24789c0,-2.43807 -0.03426,-4.55577 -0.07768,-4.8057c-0.04294,-0.24608 -0.11484,-0.81832 -0.16019,-1.27187c-0.42267,-4.22863 -6.13499,-4.92247 -8.65219,-1.05089c-0.66826,1.02773 -0.67984,1.14449 -0.67888,6.96827l0.00097,5.03971l0.19348,0.4164c0.26682,0.57321 0.71941,0.78937 2.15485,1.02821c0.54426,0.09071 0.72809,0.67164 0.33582,1.06391l-0.20892,0.20892l-1.13822,-0.0608c-1.44557,-0.07672 -3.25688,-0.09071 -5.38615,-0.0415l-1.67476,0.0386l-0.1544,-0.18962c-0.44535,-0.54716 -0.12593,-0.92544 0.96404,-1.1416c1.9329,-0.38311 1.87355,-0.14861 1.84074,-7.27321c-0.03185,-6.86935 -0.01255,-6.79312 -1.73314,-6.79457c-1.15897,-0.00145 -1.08949,-1.158 0.08492,-1.41276c0.79516,-0.17225 2.17945,-1.06343 3.32105,-2.13796c1.0504,-0.98816 1.39877,-0.71362 1.39877,1.10107c0,1.48658 0.11098,1.51795 1.48176,0.41543c2.40623,-1.93627 4.03949,-2.39996 6.72074,-1.90829c2.20889,0.40482 3.85662,2.37294 4.37772,5.22837c0.02027,0.11098 0.02413,0.00048 0.0082,-0.24511c-0.21761,-3.42286 -3.67327,-5.85514 -7.32097,-5.15358m-105.185,0.04584c1.81275,0.21423 3.21779,1.05378 4.18038,2.49839c1.01856,1.5276 1.08659,2.07041 1.08659,8.66088c0.00048,6.99625 -0.07768,6.71881 1.96957,7.01748c0.70735,0.10326 0.92592,0.28419 0.92592,0.76766c0,0.52834 -0.24173,0.58962 -2.01058,0.51097c-1.98018,-0.08782 -2.93987,-0.08782 -4.92054,0.00193l-1.58308,0.07141l-0.24656,-0.24608c-0.50566,-0.50566 -0.2123,-0.93171 0.75897,-1.103c1.00843,-0.17756 1.36934,-0.33051 1.66752,-0.70783l0.26248,-0.33148l0,-5.67227l0,-5.67275l-0.27696,-0.78985c-1.36451,-3.88606 -7.25728,-3.51308 -8.90888,0.56356l-0.22195,0.54812l-0.02364,5.3268c-0.02992,6.68311 -0.12738,6.27636 1.59563,6.66188c1.14449,0.25621 1.282,0.33679 1.282,0.75318c0,0.66151 -0.16984,0.6977 -2.73336,0.58045c-1.41903,-0.06466 -2.42312,-0.06948 -3.25784,-0.01544c-1.93531,0.12545 -2.47619,0.11001 -2.71358,-0.07672c-0.43715,-0.34402 -0.24752,-0.99492 0.31749,-1.08949c2.45786,-0.41013 2.27547,0.16357 2.27547,-7.16561c0,-7.35909 0.09698,-6.88962 -1.44123,-7.0059c-1.31626,-0.09988 -1.37127,-1.00601 -0.08637,-1.42579c0.99733,-0.32569 2.27547,-1.13532 3.19705,-2.02409c1.17055,-1.12953 1.54738,-0.8989 1.54738,0.94763c0,1.49237 0.10663,1.61734 0.83087,0.97465c1.97439,-1.75196 3.43685,-2.46268 5.48168,-2.66485c0.04439,-0.00434 0.51483,0.04343 1.04558,0.10615m68.11308,0.03667c-0.13269,0.08299 -0.42219,0.34016 -0.64366,0.5708c-0.6837,0.7141 -2.16498,1.67042 -2.99295,1.9329c-1.59852,0.50663 -1.50588,1.54641 0.14958,1.68344c0.79902,0.06659 0.97176,0.16405 1.12953,0.63883c0.13269,0.39855 0.19397,11.41064 0.06707,12.02342c-0.14572,0.70011 -0.87767,1.17296 -1.8171,1.17296c-0.66633,0 -1.19901,0.5626 -0.99588,1.05282c0.19879,0.48009 0.38745,0.51049 2.6277,0.42074c1.3124,-0.05259 2.63686,-0.05308 3.86772,-0.00097c2.43566,0.10229 2.66871,0.03764 2.66871,-0.74016c0,-0.40964 -0.30639,-0.59106 -1.32495,-0.78455c-0.88056,-0.16743 -1.09093,-0.27068 -1.36934,-0.67261l-0.24077,-0.3474l-0.04005,-8.42686c-0.03957,-8.30913 -0.04246,-8.42879 -0.2012,-8.54894c-0.2205,-0.16646 -0.59541,-0.15585 -0.88442,0.02557m0.88201,0.09457c0.05549,0.05549 0.09602,2.88053 0.12304,8.50648c0.03619,7.5878 0.05308,8.44279 0.17032,8.62035c0.36767,0.55729 0.6755,0.70349 2.02843,0.96548c0.60313,0.11677 0.81157,0.31266 0.74836,0.70349c-0.08782,0.53895 -0.10615,0.54378 -1.96619,0.50084c-2.42312,-0.05597 -3.4243,-0.05018 -5.00401,0.02992c-1.5633,0.07913 -1.8721,0.01737 -1.97536,-0.39517c-0.12593,-0.50084 0.15054,-0.77586 0.8767,-0.87091c1.12567,-0.14716 1.73941,-0.51435 1.89574,-1.13339c0.12545,-0.49891 0.12497,-11.12452 -0.00097,-11.85937c-0.15199,-0.88925 -0.32086,-1.02676 -1.3592,-1.10686c-1.39443,-0.1076 -1.44075,-0.95921 -0.07817,-1.43158c0.9293,-0.32183 2.28512,-1.18454 3.0962,-1.96957c0.76573,-0.7416 1.12423,-0.88008 1.44509,-0.5597m-105.62504,0.39662c-0.51145,0.51193 0.06224,1.20577 0.99733,1.20673c1.7399,0.00193 1.73459,-0.01785 1.73604,6.77141c0.00097,5.84163 0.03619,6.37238 0.49794,7.52604c0.66778,1.66752 2.04291,3.01177 3.63419,3.5512c0.25959,0.0883 0.51531,0.21954 0.56839,0.29191c0.05259,0.07189 0.16309,0.11821 0.24559,0.10229c0.23836,-0.04584 -0.05018,-0.28709 -0.46561,-0.38938c-1.29262,-0.31942 -2.75411,-1.47452 -3.49668,-2.76328c-0.83473,-1.44847 -0.90179,-2.0873 -0.90565,-8.63048c-0.00386,-5.94344 0.00965,-5.80785 -0.6205,-6.25031c-0.28033,-0.19734 -0.42798,-0.23836 -0.95969,-0.26731c-0.79806,-0.04343 -1.02821,-0.13365 -1.1855,-0.46465c-0.16309,-0.34354 -0.15923,-0.40964 0.03474,-0.60361c0.18046,-0.18046 4.70245,-0.24994 5.3075,-0.08154c0.55005,0.15295 0.51772,-0.23739 0.56839,6.91712l0.04536,6.47322l0.20892,0.76766c0.4439,1.63133 1.35197,2.50032 3.02335,2.89259c2.29381,0.53847 4.69087,-0.34451 5.78904,-2.13217l0.29626,-0.4825l0,-6.23245c0,-5.96901 -0.00627,-6.24162 -0.15102,-6.45537c-0.29722,-0.43763 -0.54957,-0.54619 -1.4311,-0.61471c-1.07212,-0.08299 -1.62217,-0.68563 -0.99878,-1.09431c0.3363,-0.2205 5.36926,-0.14041 5.59845,0.08878c0.16646,0.16646 0.16695,0.19348 0.18335,7.67995c0.01834,8.61359 -0.01158,8.30093 0.79468,8.26957c0.14813,-0.00579 0.13221,-0.02316 -0.07817,-0.08347c-0.61567,-0.17756 -0.57948,0.32955 -0.57948,-8.09732c-0.00048,-8.08091 0.01834,-7.74847 -0.4468,-7.94243c-0.49891,-0.20844 -5.33983,-0.16309 -5.61437,0.05259c-0.63497,0.49987 0.02171,1.15704 1.22748,1.22796c0.72037,0.04198 0.92881,0.13655 1.24968,0.56646c0.16405,0.22002 0.16598,0.28612 0.16598,6.3883l0,6.16587l-0.26924,0.46224c-1.69261,2.90899 -6.87949,3.0716 -8.32602,0.26103c-0.11484,-0.22388 -0.29722,-0.84534 -0.41013,-1.39829l-0.20265,-0.9954l0,-6.04042c0,-6.7772 0.02316,-6.49928 -0.5626,-6.69903c-0.54957,-0.18769 -5.27373,-0.13944 -5.46866,0.05549m55.40741,0.61857c-2.60068,0.48733 -5.34031,3.04988 -5.74465,5.37264c-0.03088,0.17708 -0.12159,0.53895 -0.20217,0.80433c-0.92351,3.05085 0.69239,7.60082 3.31574,9.33638c2.56111,1.69406 7.08551,0.96355 8.15956,-1.31819c0.24366,-0.51676 0.25524,-10.27146 0.01351,-11.3484c-0.48443,-2.16208 -2.81346,-3.3582 -5.542,-2.84675m-67.10803,0.07045c-5.59459,1.10203 -7.09902,11.09847 -2.37728,15.79946c1.6984,1.69116 4.28798,2.16401 5.95598,1.08804c0.15488,-0.09988 0.46224,-0.29384 0.6837,-0.43087c0.71024,-0.44052 1.63278,-1.57006 2.16305,-2.647c0.16984,-0.34451 0.35367,-0.717 0.40868,-0.82749c0.88249,-1.76643 1.034,-5.35623 0.32617,-7.72c-1.15704,-3.86531 -3.92514,-5.89905 -7.1603,-5.26215m69.19726,0.0029c1.84942,0.31797 3.01128,1.25209 3.3278,2.67546c0.16067,0.72375 0.20024,10.73611 0.04439,11.29726c-0.21809,0.78648 -1.39298,1.62168 -3.04892,2.16836c-0.17032,0.05597 -0.85354,0.09312 -1.72928,0.09409l-1.4475,0.00097l-0.62339,-0.2591c-3.26653,-1.35727 -5.43006,-5.92172 -4.5273,-9.55205c0.0772,-0.30928 0.18673,-0.76187 0.24415,-1.00505c0.80771,-3.43588 4.46023,-5.98686 7.76005,-5.41992m60.8365,-0.00869c-1.33363,0.24994 -2.59682,1.103 -3.54879,2.39561c-0.51917,0.70542 -1.25161,2.2967 -1.35824,2.95145c-0.03233,0.19831 -0.10905,0.50277 -0.17032,0.6755c-0.62387,1.76981 -0.07865,5.44694 1.15125,7.76005c2.81249,5.28965 8.52529,4.77144 10.76265,-0.97658c0.70831,-1.81854 0.93316,-5.21872 0.45403,-6.85488c-0.45645,-1.55751 -0.68901,-2.13748 -1.18888,-2.964c-1.44123,-2.38162 -3.62599,-3.45132 -6.1017,-2.98716m-126.65722,0.47189c1.282,0.63642 3.17775,2.70586 3.17775,3.46918c0,0.04487 0.08589,0.24415 0.19107,0.44294c0.10519,0.19831 0.21664,0.48781 0.24801,0.64269c0.03136,0.1544 0.12642,0.51145 0.21134,0.79323c0.74836,2.48632 0.27406,6.04331 -1.12085,8.40419c-3.36496,5.6964 -10.05868,3.14638 -11.05697,-4.21174c-0.19541,-1.44123 -0.2012,-1.54979 -0.12835,-2.38789c0.17949,-2.05207 0.46513,-3.00791 1.42,-4.74925c0.42557,-0.77634 1.95075,-2.16112 2.67643,-2.43035c0.15488,-0.05742 0.46224,-0.17274 0.6837,-0.25573c0.34209,-0.12931 0.58865,-0.14861 1.65594,-0.12979l1.25402,0.02171l0.78792,0.39083m129.75342,-0.11532c0.98285,0.43811 2.25472,1.5136 2.6634,2.25231c0.08733,0.15778 0.28709,0.50373 0.4439,0.76911c0.34788,0.58817 0.61615,1.282 0.88635,2.29188c0.60409,2.25955 0.47816,4.97313 -0.32569,7.0363c-2.24411,5.75767 -7.8247,6.27733 -10.61404,0.98864c-1.2352,-2.34206 -1.7095,-5.49182 -1.14208,-7.58249c0.05983,-0.22147 0.13221,-0.52882 0.16019,-0.6837c0.35609,-1.96136 2.01878,-4.17797 3.71477,-4.95286c1.21011,-0.55295 3.1184,-0.60699 4.21319,-0.11918m-43.38495,8.57644c-0.61905,0.3281 -1.5054,0.79661 -1.97005,1.04124c-2.30828,1.21542 -3.28534,2.19489 -3.46628,3.47545c-0.16357,1.15414 0.19638,1.97777 1.09721,2.51238l0.47671,0.28275l1.04654,-0.00097c1.41855,-0.00097 2.52734,-0.48781 3.50199,-1.53676c0.91965,-0.99009 1.04317,-1.47742 1.04317,-4.12489c0,-2.66099 0.06369,-2.60019 -1.72928,-1.64919m1.57392,-0.13993c0.1351,0.45162 0.05308,3.85904 -0.10615,4.40378c-0.6205,2.12397 -3.76543,3.6752 -5.59604,2.76038c-1.56861,-0.78406 -1.71384,-2.74398 -0.30928,-4.17845c0.69721,-0.71217 1.12712,-0.99347 3.07063,-2.01058c0.53075,-0.27792 1.29069,-0.67791 1.68875,-0.88973c0.92109,-0.48926 1.12664,-0.50325 1.25209,-0.0854m-59.43339,6.66526c1.52615,0.05645 1.32253,0.81929 -0.36188,1.3539c-2.04339,0.64848 -3.65928,1.46053 -3.65928,1.83929c0,0.05549 0.13703,-0.02895 0.30446,-0.18769c0.51772,-0.49215 1.61589,-0.99443 3.43492,-1.5715c1.05089,-0.33341 1.32688,-0.52737 1.32688,-0.93364c0,-0.44052 -0.22726,-0.56067 -1.02531,-0.54185l-0.70349,0.01641l0.6837,0.02509m-6.32172,1.23038c-1.09335,0.85017 -2.15678,1.43978 -2.98378,1.65401c-0.51338,0.13269 -0.93557,0.43522 -0.60795,0.43522c0.09602,0 0.20362,-0.05066 0.23932,-0.11291c0.03522,-0.06176 0.2813,-0.18528 0.54667,-0.27358c1.07598,-0.35898 1.78911,-0.76669 2.94325,-1.68393c1.24678,-0.99106 1.24582,-0.99106 1.21831,0.47961c-0.01062,0.5872 0.00724,1.18743 0.04053,1.33315c0.03426,0.15247 0.05935,-0.30928 0.05887,-1.08563c-0.00145,-1.89719 0.01448,-1.88899 -1.45522,-0.74595" id="path0"/>
   <path fill-rule="evenodd" fill="#ffffff" d="m59,99.02738c0,12.58505 0.02847,19.98322 0.07672,19.98322c0.04198,0 0.26779,-0.0497 0.50228,-0.11098c0.29384,-0.07624 0.55102,-0.09023 0.82845,-0.04487c1.06729,0.17515 14.19756,0.13317 16.5869,-0.05308c0.70783,-0.05501 1.22507,0.14234 1.38526,0.52834c0.14282,0.34547 0.17515,5.25973 0.03667,5.6052c-0.34258,0.8521 -1.56378,0.24029 -1.56378,-0.78358c0,-0.94039 -1.44364,-2.75508 -2.53313,-3.1845c-1.07115,-0.42267 -4.77675,-0.61326 -6.72653,-0.34644c-1.30951,0.17949 -1.23472,-0.11098 -1.23472,4.78302c0,5.28675 -0.26489,4.825 2.77052,4.825c4.17073,0 4.48918,-0.11098 4.78688,-1.66656c0.34837,-1.81951 0.65427,-2.29574 1.29021,-2.00624c0.43956,0.20072 0.45741,0.31218 0.36574,2.3189c-0.05887,1.29648 -0.0579,2.4786 0.00386,4.01923c0.09698,2.40575 0.07913,2.53988 -0.35802,2.74929c-0.57514,0.27599 -0.81736,0.00724 -1.15125,-1.27621c-0.56694,-2.17752 -1.00071,-2.36859 -5.37939,-2.36908c-2.60888,0 -2.36908,-0.57611 -2.36763,5.68675c0.00097,6.49445 -0.05935,6.28842 1.87355,6.41484c1.66414,0.10905 2.26437,0.63208 1.5908,1.38622c-0.28998,0.32424 -0.60506,0.3474 -3.34469,0.2427c-1.12423,-0.04294 -2.7985,-0.04005 -4.26771,0.00772c-2.13844,0.069 -2.46172,0.06321 -2.79464,-0.05018l-0.37635,-0.12786l0,0.31652l0,0.317l13.07768,0c14.46921,0 13.9071,0.0222 11.8917,-0.47092c-2.67739,-0.65475 -5.45852,-3.38812 -6.39457,-6.28408c-0.67984,-2.10563 -0.70252,-5.55213 -0.04391,-6.82545c0.069,-0.13365 0.12593,-0.28468 0.12593,-0.33486c0,-0.05018 0.12835,-0.38359 0.28516,-0.74016c3.1681,-7.20566 14.06874,-7.42037 17.55769,-0.34644c2.31455,4.69376 0.84389,10.58557 -3.3278,13.32858c-0.98816,0.64993 -2.8757,1.43206 -3.45567,1.43206c-0.01399,0 -0.04632,0.05404 -0.07141,0.12063c-0.04101,0.10663 0.88394,0.12063 8.03025,0.12063c8.72746,0 8.68886,0.00193 7.49226,-0.39903c-1.60673,-0.53799 -2.98571,-1.87934 -3.65783,-3.55796c-0.46175,-1.15366 -0.49698,-1.68441 -0.49794,-7.52604c-0.00145,-6.78926 0.00386,-6.76948 -1.73604,-6.77141c-0.93509,-0.00097 -1.50878,-0.6948 -0.99733,-1.20673c0.19493,-0.19493 4.91909,-0.24318 5.46866,-0.05549c0.58576,0.19976 0.5626,-0.07817 0.5626,6.69903l0,6.04042l0.20265,0.9954c0.11291,0.55295 0.29529,1.17441 0.41013,1.39829c1.44654,2.81056 6.63341,2.64796 8.32602,-0.26103l0.26924,-0.46224l0,-6.16587c0,-6.10218 -0.00193,-6.16828 -0.16598,-6.3883c-0.32086,-0.42991 -0.5293,-0.52448 -1.24968,-0.56646c-1.20577,-0.07093 -1.86245,-0.72809 -1.22748,-1.22796c0.27454,-0.21568 5.11547,-0.26103 5.61437,-0.05259c0.46513,0.19397 0.44631,-0.13848 0.4468,7.94243c0,9.01165 -0.15971,8.1861 1.58791,8.18754c0.75318,0.00048 0.98478,0.13172 0.98478,0.55874c0,0.40627 -0.27599,0.60023 -1.32688,0.93364c-2.02795,0.64317 -3.6588,1.4504 -3.6588,1.81082c0,0.04584 7.1907,0.07479 18.50581,0.07479c19.45488,0 19.15911,0.00531 17.94128,-0.32424c-4.40426,-1.19226 -7.30746,-5.80013 -6.81387,-10.81379c0.06659,-0.67164 0.17804,-1.31144 0.27696,-1.58598c0.09119,-0.25331 0.1655,-0.50084 0.1655,-0.55005c0,-0.62532 1.33556,-2.69139 2.46944,-3.82044c2.72806,-2.71696 6.07468,-3.65832 9.69391,-2.72661c0.25428,0.06514 0.65331,0.16791 0.88635,0.22822c0.23305,0.05983 0.53895,0.16839 0.67936,0.24125c0.3006,0.15537 0.67405,0.17177 0.8106,0.03522c0.15585,-0.15585 0.1351,-6.81966 -0.02268,-7.35185c-0.15488,-0.52062 -0.524,-0.7445 -1.38671,-0.84148c-1.49961,-0.16791 -1.46246,-1.10348 0.05838,-1.47452c1.69647,-0.41447 2.35557,-0.67261 3.24144,-1.27139c0.58817,-0.3971 1.10444,-0.45596 1.34907,-0.15344c0.15006,0.18528 0.15392,0.51338 0.15585,13.34933c0.00097,7.53327 0.03281,13.29336 0.07431,13.47237c0.17901,0.76959 0.55632,0.75222 1.31916,-0.06176c0.83328,-0.88877 1.42,-0.83473 1.41855,0.13076c-0.00193,1.03352 -0.23594,1.23713 -2.33144,2.02988c-0.87622,0.33148 -1.55655,0.61712 -2.12686,0.89359c-0.90903,0.44052 -1.32012,0.14041 -1.38767,-1.01373c-0.06176,-1.05764 -0.25042,-1.24147 -0.82797,-0.80578c-1.23665,0.93219 -2.76376,1.80455 -3.51067,2.00479c-0.18383,0.0497 -0.41881,0.16067 -0.52255,0.24704c-0.18721,0.15585 -0.13703,0.1573 7.71228,0.15971c5.07687,0.00193 7.90094,-0.02509 7.90094,-0.07575c0,-0.09168 -0.34933,-0.27889 -0.66054,-0.35319c-1.5358,-0.36815 -2.57221,-2.46316 -2.10708,-4.25855c0.54426,-2.09984 2.52444,-3.56326 8.82927,-6.52437c0.92013,-0.43184 1.2931,-0.6948 1.47983,-1.0422c0.30542,-0.5679 0.18383,-4.81873 -0.15633,-5.46094c-0.45548,-0.86126 -0.86512,-1.04365 -2.26003,-1.00698c-1.99128,0.05211 -3.13384,0.98141 -4.23683,3.44553c-0.47961,1.07163 -0.83473,1.40987 -1.86535,1.77801c-3.07739,1.1001 -2.3464,-2.35653 0.98285,-4.64599c0.61953,-0.42605 2.47378,-1.39394 2.67064,-1.39394c0.06031,0 0.36622,-0.08733 0.67936,-0.19397c2.97944,-1.01325 6.5234,-0.24897 7.42519,1.60094l0.1959,0.40241l0.04198,6.755l0.04246,6.755l0.19879,0.56115c0.38986,1.09817 0.97658,1.21494 1.98356,0.39469c0.57804,-0.47092 0.80143,-0.52207 1.04413,-0.2398c0.94811,1.10251 -2.35846,3.50247 -4.29087,3.11454c-0.8299,-0.16695 -1.17103,-0.50373 -1.875,-1.85087c-0.44149,-0.84582 -0.53606,-0.87912 -1.13725,-0.39613c-1.56813,1.25933 -2.72806,1.94351 -3.90005,2.30008c-1.09479,0.33341 -0.98382,0.33823 8.32795,0.33823c5.76732,0 8.85243,-0.02799 8.85243,-0.07961c0,-0.04343 -0.26682,-0.20603 -0.59348,-0.36091c-1.18985,-0.56453 -1.76113,-1.31433 -2.10467,-2.76328l-0.19686,-0.83135l-0.00048,-6.72798c-0.00048,-8.14653 0.12063,-7.38225 -1.1773,-7.42857c-0.78889,-0.02799 -0.99347,-0.15826 -0.99347,-0.63208c0,-0.46031 0.04584,-0.5211 0.79323,-1.05523c1.3896,-0.99347 2.57655,-2.29381 3.29644,-3.61007c0.44101,-0.80674 0.79468,-0.98623 1.18116,-0.59975c0.19638,0.19638 0.19734,0.20699 0.19783,1.78959c0.00048,1.7452 0.06659,2.17125 0.34499,2.23301c0.09747,0.02171 1.1083,0.04922 2.24604,0.0608c2.03181,0.02123 2.07186,0.02509 2.25183,0.20506c0.28709,0.28757 0.26441,1.05812 -0.04053,1.36306l-0.22292,0.22292l-2.09405,0.00724c-2.04146,0.00724 -2.09839,0.01158 -2.26968,0.18335l-0.17563,0.17563l0.00048,6.61218l0,6.6117l0.23064,0.6837c0.65861,1.95557 1.95895,2.22867 3.86338,0.81205c0.62436,-0.46417 0.85596,-0.55053 1.13629,-0.42267c0.96838,0.44101 -0.5901,2.32903 -2.57462,3.1184c-0.35223,0.14041 -0.65379,0.29481 -0.66971,0.34402c-0.02171,0.06417 3.14108,0.08878 11.57421,0.08878c9.82322,0 11.58579,-0.01689 11.48591,-0.11001c-0.13607,-0.12786 -0.59541,-0.2924 -0.81494,-0.2924c-0.19107,0 -1.544,-0.524 -1.91601,-0.74257c-1.36837,-0.8024 -2.70055,-1.9411 -3.26701,-2.79271c-0.12738,-0.19107 -0.331,-0.49601 -0.45259,-0.67791c-1.62844,-2.42939 -2.0183,-5.914 -1.01277,-9.05556c1.42868,-4.46264 5.63753,-7.00301 10.60246,-6.3994c4.3536,0.52979 7.30891,3.35338 8.29707,7.92748c0.13269,0.61374 0.1269,3.29451 -0.00772,3.86c-0.8299,3.47593 -2.30635,5.51063 -5.19074,7.15162c-0.42315,0.24077 -1.22941,0.54185 -1.97198,0.73678c-1.56378,0.41013 -2.18766,0.39469 15.9447,0.39469l16.78425,0l0,-33.57428l0,-33.5738l-27.81564,0l-27.81564,0l0.06996,0.30156c0.0386,0.16598 0.07093,3.04265 0.07189,6.39313c0.00193,6.05489 0.0029,6.09253 0.16888,6.25851c0.193,0.193 0.07527,0.25717 1.25547,-0.68949c1.2048,-0.96741 2.39513,-1.52277 3.54541,-1.65546c0.386,-0.04439 0.92158,-0.10808 1.18985,-0.14137c0.74739,-0.09264 2.34254,0.11001 3.21104,0.40771c1.76064,0.60409 2.69718,1.60431 3.32153,3.54734l0.28854,0.89745l0.04439,6.0713l0.04439,6.07178l0.22485,0.38262c0.33437,0.56839 0.50614,0.64221 2.09646,0.90372c0.61567,0.10133 0.90035,0.72182 0.54088,1.17875l-0.15344,0.19493l-4.38255,-0.00386c-4.83465,-0.00434 -4.62621,0.01737 -4.75697,-0.50325c-0.13124,-0.52303 0.193,-0.78744 1.16379,-0.94908c1.96667,-0.32714 1.84556,0.10615 1.84605,-6.59192c0.00048,-6.86791 -0.04825,-7.2597 -1.04751,-8.34966c-1.77222,-1.93434 -5.15021,-1.80793 -7.21965,0.2702c-1.39587,1.40118 -1.37947,1.30709 -1.37947,7.9931c0,6.78492 -0.13993,6.36997 2.28367,6.76224c0.72954,0.11773 1.0229,0.93943 0.45886,1.28393c-0.07961,0.04873 -1.77898,0.0801 -4.45927,0.08251l-4.32996,0.00338l-0.19348,-0.17901c-0.43136,-0.39999 -0.12835,-1.09431 0.52014,-1.19226c1.72832,-0.262 2.09357,-0.49601 2.25665,-1.4475c0.07238,-0.42364 0.08975,-3.34083 0.07093,-11.82125l-0.02509,-11.25817l-0.17804,-0.38504c-0.22292,-0.48298 -0.66199,-0.70156 -1.57199,-0.78213c-1.2048,-0.10712 -1.32639,-1.13195 -0.15778,-1.32977c0.16453,-0.02799 0.6755,-0.15633 1.13484,-0.28468c0.45982,-0.12883 0.86705,-0.23401 0.90517,-0.23401c0.33679,0 1.91842,-0.92833 1.91842,-1.12567c0,-0.05356 -22.74457,-0.08058 -68.07303,-0.08058l-68.07255,0l0,19.9837m87.33877,-17.32658c0.21327,0.11387 0.51724,0.61229 0.66537,1.08997c0.11339,0.36525 0.21471,0.61712 0.86995,2.16353c0.13124,0.30977 0.30398,0.74402 0.38407,0.965c0.0801,0.22099 0.20313,0.52882 0.27358,0.6837c0.07045,0.1544 0.27792,0.66103 0.46079,1.12567c0.55102,1.3978 0.76959,1.94448 0.99685,2.49308c0.11918,0.28709 0.28275,0.70349 0.36429,0.92447c0.08106,0.22147 0.28178,0.70976 0.44535,1.08563c0.16357,0.37635 0.36236,0.86464 0.44245,1.08563c0.07961,0.22147 0.27744,0.70976 0.43859,1.08563c0.16164,0.37587 0.35995,0.86464 0.44101,1.08563c0.3117,0.85161 0.56308,1.48851 0.64173,1.62603c0.08299,0.1462 0.30687,0.70831 0.56887,1.43013c0.0801,0.22099 0.27792,0.70928 0.43956,1.08563c0.16164,0.37587 0.35946,0.86754 0.43956,1.09238c0.0801,0.22533 0.18528,0.47864 0.23401,0.56308c0.04873,0.08444 0.16453,0.35271 0.25814,0.59589c0.09312,0.24318 0.2784,0.7141 0.41109,1.04558c0.13317,0.33196 0.31073,0.79806 0.3942,1.03689c0.08347,0.23836 0.18335,0.47382 0.22243,0.52255c0.0386,0.04922 0.11532,0.23401 0.17081,0.41061c0.48105,1.53821 1.50685,2.5751 2.67643,2.70586c1.25884,0.14089 1.89237,0.84148 1.25643,1.38815l-0.20072,0.17274l-5.61244,-0.0029c-6.23101,-0.00386 -5.75574,0.03715 -5.89181,-0.50566c-0.16646,-0.66296 0.45114,-0.99202 2.00479,-1.06777c2.00286,-0.09795 2.21371,-0.67598 1.14449,-3.13239c-0.16405,-0.37635 -0.36284,-0.84631 -0.44294,-1.04558c-0.07961,-0.19927 -0.27792,-0.66971 -0.44052,-1.04558c-0.1626,-0.37587 -0.36525,-0.87863 -0.44969,-1.11699c-0.08492,-0.23836 -0.18576,-0.47382 -0.22436,-0.52255c-0.03908,-0.04922 -0.11387,-0.2234 -0.16646,-0.38697c-0.27792,-0.86416 -0.40771,-0.88635 -4.91089,-0.85403c-4.19389,0.0304 -4.05686,-0.0111 -4.46168,1.35293c-0.03281,0.11049 -0.10808,0.30928 -0.16743,0.44197c-0.05887,0.13269 -0.18528,0.44052 -0.28033,0.6837c-0.09457,0.24318 -0.28082,0.71362 -0.41302,1.04558c-0.13221,0.33148 -0.33196,0.8381 -0.44342,1.12567c-1.01277,2.61129 -0.70493,3.31815 1.50395,3.45181c1.60624,0.09747 2.2113,0.64124 1.52808,1.3732l-0.24125,0.25766l-2.63397,-0.05018c-1.44847,-0.0275 -3.35724,-0.0222 -4.24214,0.01206c-2.35605,0.09071 -2.6938,0.0111 -2.6938,-0.63594c0,-0.59927 0.45596,-0.85596 1.682,-0.94667c1.43351,-0.10615 1.81758,-0.47816 2.70441,-2.61756c0.42074,-1.01422 0.66875,-1.64533 0.75897,-1.93c0.05645,-0.17708 0.15102,-0.41206 0.21085,-0.52255c0.05983,-0.11049 0.17756,-0.40048 0.262,-0.64366c0.14523,-0.41929 0.32328,-0.89118 0.76669,-2.03084c0.53365,-1.37175 0.6451,-1.668 0.81591,-2.1616c0.10181,-0.29336 0.22436,-0.6012 0.2731,-0.6837c0.04873,-0.08203 0.15633,-0.34885 0.23932,-0.59203c0.08251,-0.24318 0.26538,-0.73195 0.40578,-1.08563c0.14041,-0.35367 0.32279,-0.82411 0.4053,-1.04558c0.08251,-0.22099 0.26489,-0.69142 0.4053,-1.0451c0.13993,-0.35416 0.32472,-0.84245 0.40964,-1.08563c0.08492,-0.24318 0.22581,-0.58913 0.31314,-0.76911c0.08733,-0.17997 0.15874,-0.37925 0.15874,-0.44245c0.00048,-0.06369 0.05838,-0.22388 0.12835,-0.35657c0.11725,-0.22147 0.26779,-0.6176 0.68322,-1.80069c0.08396,-0.23884 0.18383,-0.47382 0.22195,-0.52303c0.03812,-0.04873 0.14427,-0.30591 0.23594,-0.57128c0.09119,-0.26538 0.2813,-0.772 0.42171,-1.12616c0.14041,-0.35367 0.32183,-0.82411 0.40289,-1.0451c0.08058,-0.22147 0.26152,-0.69191 0.40192,-1.04558c0.14041,-0.35367 0.33823,-0.8603 0.44004,-1.12567c0.42991,-1.12085 0.51435,-1.28924 0.75463,-1.50395c0.26634,-0.23787 0.48105,-0.27889 0.73823,-0.14137m-77.44559,0.74112c0.36477,0.1819 0.55874,0.54474 1.12664,2.11046c0.0801,0.22099 0.27889,0.70928 0.44101,1.08563c0.1626,0.37587 0.34306,0.83231 0.40144,1.0147c0.05838,0.1819 0.18142,0.47912 0.27358,0.66006c0.09216,0.18094 0.16791,0.3696 0.16791,0.41929c0,0.08058 0.10856,0.35078 0.64462,1.6048c0.0854,0.19927 0.28323,0.7059 0.43956,1.12616c0.15681,0.41978 0.3363,0.87236 0.39951,1.00505c0.17853,0.37635 0.52882,1.25209 0.64752,1.62024c0.05935,0.18335 0.16357,0.44149 0.2316,0.57321c0.06852,0.13221 0.17611,0.38021 0.2398,0.55102c0.06369,0.17129 0.2316,0.60071 0.37297,0.95487c0.14137,0.35367 0.30928,0.78792 0.37346,0.965c0.17467,0.48105 0.98334,2.53361 1.11988,2.84193c0.06562,0.14765 0.24559,0.59975 0.40048,1.00505c0.82701,2.16643 1.01036,2.29236 1.489,1.02242c0.09071,-0.24077 0.21471,-0.53027 0.27503,-0.64317c0.0608,-0.11291 0.22436,-0.47671 0.36381,-0.80867c0.13896,-0.33148 0.31893,-0.74788 0.39951,-0.92495c0.08106,-0.1766 0.25621,-0.57466 0.39034,-0.88442c0.13365,-0.30977 0.46513,-1.0697 0.73726,-1.68875c0.27165,-0.61905 0.60361,-1.37899 0.73726,-1.68875c0.13365,-0.30977 0.30928,-0.70783 0.38986,-0.88442c0.08058,-0.17708 0.26152,-0.59299 0.40192,-0.92495c0.14041,-0.33148 0.32328,-0.74788 0.40627,-0.92495c0.14041,-0.29867 0.72906,-1.65546 1.29165,-2.9751c0.25428,-0.59782 0.29722,-0.69335 0.74739,-1.66656c0.15826,-0.34161 0.28757,-0.64317 0.28757,-0.67019c0,-0.05597 0.41978,-1.0451 0.64703,-1.52325c0.08347,-0.17708 0.30205,-0.66585 0.4854,-1.08563c0.66151,-1.51795 0.48588,-1.46149 4.44045,-1.43061l2.93843,0.02316l0.20748,0.19493c0.72906,0.68515 -0.04198,1.45377 -1.45812,1.45377c-0.60409,0 -1.02821,0.11918 -1.21156,0.34016c-0.16212,0.1959 -0.35995,1.49237 -0.2977,1.95171c0.02992,0.22099 0.07817,4.90703 0.10712,10.4138c0.05115,9.81839 0.05501,10.01718 0.21278,10.28497c0.29433,0.49939 0.50566,0.59396 1.47356,0.65765c1.43351,0.09457 1.99562,0.61278 1.43061,1.31916l-0.19155,0.23932l-5.13573,0.00676l-5.13573,0.00676l-0.22147,-0.22002c-0.67743,-0.67309 -0.05404,-1.25933 1.44895,-1.36258c1.45136,-0.09988 1.90925,-0.44824 2.10708,-1.60383c0.14861,-0.86802 0.07865,-18.8011 -0.07334,-18.89518c-0.18094,-0.11146 -0.38311,0.04391 -0.49312,0.37876c-0.05452,0.16646 -0.1626,0.42894 -0.24029,0.58383c-0.2012,0.40096 -0.63835,1.42289 -0.63835,1.49286c0,0.03233 -0.08926,0.24366 -0.19831,0.46899c-0.10905,0.22581 -0.30977,0.68177 -0.44583,1.01325c-0.31749,0.77248 -0.48684,1.17489 -0.83038,1.97053c-1.04075,2.41202 -1.5633,3.62937 -1.74376,4.06072c-0.38407,0.9182 -0.67309,1.59611 -0.81205,1.90588c-0.08299,0.18528 -0.15102,0.35946 -0.15102,0.38697c0,0.02702 -0.0883,0.23739 -0.1959,0.46658c-0.18287,0.38986 -0.55632,1.25209 -0.94667,2.18621c-0.09264,0.22147 -0.24945,0.58334 -0.34933,0.80433c-0.09988,0.22099 -0.29481,0.67357 -0.43377,1.00505c-0.13896,0.33196 -0.34016,0.8024 -0.4468,1.04558c-0.10663,0.24318 -0.30687,0.71362 -0.44438,1.04558c-0.60409,1.45619 -0.77683,1.80745 -1.01277,2.06172c-0.49408,0.5322 -1.02966,0.27647 -1.36982,-0.65475c-0.23739,-0.64993 -0.47189,-1.2627 -0.83038,-2.17125c-0.13993,-0.35367 -0.31121,-0.80578 -0.38069,-1.00505c-0.06948,-0.19927 -0.15681,-0.40144 -0.19445,-0.44969c-0.03764,-0.04825 -0.1544,-0.33775 -0.26007,-0.64317c-0.10519,-0.30591 -0.30639,-0.84534 -0.4468,-1.19901c-0.24029,-0.60457 -0.38166,-0.96693 -0.85692,-2.19152c-0.10712,-0.27647 -0.28275,-0.72858 -0.39034,-1.00505c-0.24366,-0.62677 -0.53461,-1.38574 -0.80143,-2.08826c-0.11242,-0.29722 -0.24125,-0.60506 -0.28612,-0.6837c-0.04487,-0.07865 -0.15102,-0.34209 -0.23546,-0.58527c-0.16695,-0.47864 -0.41109,-1.11844 -0.8135,-2.1312c-0.14041,-0.35367 -0.34209,-0.86947 -0.44824,-1.14642c-0.10567,-0.27647 -0.28033,-0.72906 -0.38793,-1.00505c-0.10712,-0.27647 -0.28564,-0.73774 -0.39613,-1.02483c-0.11049,-0.28757 -0.31604,-0.81253 -0.45645,-1.1662c-0.14089,-0.35367 -0.31604,-0.8024 -0.39034,-0.99685c-0.1573,-0.41447 -0.35705,-0.57997 -0.51193,-0.4246c-0.12063,0.12014 -0.1766,0.66103 -0.33872,3.27087c-0.0661,1.0615 -0.15971,2.36425 -0.20844,2.895c-0.04825,0.53075 -0.15681,2.05063 -0.24077,3.3775c-0.08444,1.32688 -0.21037,3.10006 -0.28082,3.94058c-0.22533,2.70248 -0.20506,4.97023 0.05018,5.51401c0.39131,0.83521 0.86368,1.10782 2.08199,1.20191c0.896,0.069 1.48176,0.24559 1.61059,0.48588c0.14186,0.26586 0.09119,0.71362 -0.10374,0.90807l-0.1819,0.1819l-4.34154,-0.01158c-4.56879,-0.01255 -4.54901,-0.0111 -4.6928,-0.32714c-0.3363,-0.73871 0.11821,-1.11168 1.50395,-1.23472c1.32302,-0.11773 1.62313,-0.36139 1.85859,-1.51167c0.13993,-0.68419 0.19686,-1.33074 0.41543,-4.72416c0.04825,-0.75174 0.11821,-1.69261 0.15488,-2.09067c0.03715,-0.39806 0.12449,-1.66463 0.19445,-2.81491c0.07045,-1.1498 0.16116,-2.45255 0.20169,-2.895c0.04053,-0.44197 0.12931,-1.78091 0.19638,-2.9751c0.06755,-1.19419 0.15971,-2.4429 0.20506,-2.77438c0.4328,-3.18112 0.2234,-3.74034 -1.44412,-3.86c-1.27718,-0.09216 -1.68875,-0.32376 -1.68875,-0.95101c0,-0.26441 0.19445,-0.5626 0.43039,-0.65958c0.35705,-0.14716 6.17118,-0.05452 6.48721,0.10326m113.83574,3.12371c0.13751,0.15199 0.15681,0.34402 0.193,1.90974c0.03667,1.57343 0.08396,1.95268 0.26441,2.11866c0.00965,0.00869 1.05619,0.03619 2.32662,0.06031c2.71358,0.05211 2.59585,0.01351 2.59585,0.85837c0,0.47768 -0.02075,0.54523 -0.22533,0.72086l-0.22581,0.19445l-2.15292,0l-2.15243,0l-0.19493,0.20748l-0.19493,0.20748l-0.02509,5.92414c-0.02799,6.69228 0.02123,7.57284 0.46899,8.45726c0.71458,1.41035 2.08537,1.59322 3.61779,0.4825c0.95294,-0.69094 1.42386,-0.79709 1.62024,-0.36574c0.15102,0.331 0.01062,0.74981 -0.39565,1.18406c-2.59151,2.77052 -6.88624,2.6938 -8.21553,-0.14716c-0.47092,-1.00553 -0.48877,-1.32302 -0.48877,-8.65943c0,-7.95787 0.12642,-7.20469 -1.21976,-7.28672c-0.87719,-0.05356 -1.11216,-0.17708 -1.11216,-0.58479c0,-0.3696 0.1158,-0.50711 0.94763,-1.12423c1.85521,-1.37754 2.3575,-1.89767 3.2342,-3.34855c0.61567,-1.01904 0.95632,-1.22555 1.3346,-0.80867m-38.06829,3.55024c-0.09168,0.11098 -0.3363,0.70252 -0.62291,1.50781c-0.10277,0.28757 -0.29915,0.81205 -0.43763,1.1662c-0.41736,1.06922 -0.64462,1.66221 -0.84679,2.2113c-0.29819,0.8106 -0.55729,1.49334 -0.91482,2.4125c-0.55874,1.43689 -0.81591,1.32688 3.10537,1.32688c3.9483,0 3.73503,0.15778 2.77438,-2.05063c-0.06755,-0.15488 -0.2041,-0.49842 -0.30446,-0.7638c-0.45162,-1.19901 -0.59975,-1.57295 -0.67647,-1.7066c-0.04487,-0.07865 -0.13317,-0.28805 -0.19541,-0.46465c-0.16116,-0.45789 -0.54764,-1.42675 -0.84968,-2.1312c-0.14234,-0.33148 -0.31266,-0.7749 -0.37828,-0.98478c-0.15295,-0.48926 -0.47092,-0.74353 -0.65331,-0.52303m-38.2058,0.50035c1.64581,0.19783 2.78161,0.85161 3.27521,1.88561l0.21375,0.44873l0.04053,6.755l0.04005,6.755l0.193,0.4825c0.49505,1.23665 1.05089,1.30275 2.37197,0.28226c0.38648,-0.29819 0.62918,-0.30687 0.84679,-0.0304c1.03255,1.31288 -3.47304,3.85711 -5.07059,2.86364c-0.47623,-0.29626 -0.90565,-0.82652 -1.27477,-1.5744c-0.49746,-1.00939 -0.63352,-1.04606 -1.43254,-0.38407c-3.81368,3.15796 -8.3955,3.26363 -9.83239,0.22629c-0.98913,-2.09067 0.42074,-4.47229 3.72201,-6.28794c0.81253,-0.4468 4.76228,-2.37294 4.86601,-2.37294c0.14137,0 1.60142,-0.78937 1.79635,-0.97079c0.37442,-0.34933 0.41978,-0.70686 0.3749,-2.96979c-0.06466,-3.2699 -0.44245,-3.86 -2.47137,-3.86c-1.43351,0 -2.22963,0.30301 -3.1266,1.18888c-0.6755,0.6673 -1.61782,2.16015 -1.61782,2.56208c0,0.98285 -3.0523,2.24556 -3.67569,1.52084c-0.57176,-0.6644 0.24173,-2.48681 1.6487,-3.69547c0.80771,-0.69384 2.68753,-1.89816 2.96255,-1.89816c0.02702,0 0.25283,-0.08589 0.5018,-0.19155c1.20336,-0.50952 3.64384,-0.99685 4.43273,-0.88539c0.11098,0.01592 0.65765,0.08347 1.21542,0.15006m21.62565,0.04343c1.75871,0.25862 3.5348,1.08563 3.8103,1.77415c0.19397,0.48443 0.18383,2.97896 -0.01351,3.36592c-0.524,1.02821 -1.21301,0.71507 -2.4043,-1.0919c-1.53339,-2.3271 -2.53409,-3.03155 -4.10125,-2.88969c-4.84382,0.43908 -8.0867,6.43269 -6.13788,11.34551c0.74402,1.87548 2.02795,3.4658 3.49427,4.32754c0.63835,0.37539 0.78117,0.43618 1.85184,0.78841c1.95075,0.64173 4.6238,-0.0193 6.28794,-1.55462c0.63883,-0.5901 1.07646,-0.66247 1.31433,-0.21857c0.55439,1.03545 -2.48777,3.24288 -5.26118,3.81706c-5.14635,1.06584 -9.88884,-1.67379 -11.55732,-6.67732l-0.26779,-0.80433l0.00145,-1.93l0.00145,-1.93l0.25766,-0.79516c0.14186,-0.43763 0.32569,-0.90807 0.40916,-1.04558c0.08299,-0.13751 0.1766,-0.33437 0.20796,-0.43715c0.09554,-0.31604 0.8381,-1.475 1.27042,-1.98404c2.10274,-2.47523 4.58037,-3.77749 7.93906,-4.17459c0.44824,-0.05308 2.24073,0.01785 2.89741,0.11435m40.01228,0.08782c0.13365,0.14716 0.15633,0.32086 0.17563,1.34714c0.03571,1.88079 -0.02992,1.84894 1.21156,0.58624c2.17559,-2.21275 4.71789,-2.61129 5.97914,-0.9375c1.65256,2.19248 -1.47838,4.46264 -3.25253,2.35894c-0.33968,-0.40289 -0.80867,-0.71024 -1.08225,-0.70879c-0.82894,0.00483 -2.12107,1.41903 -2.60695,2.85399l-0.19107,0.56308l0,5.44115l0,5.44115l0.24511,0.34885c0.27792,0.39662 0.49119,0.48877 1.5551,0.67261c0.87622,0.15151 1.08707,0.29674 1.11844,0.77007c0.04873,0.72375 0.39227,0.67357 -4.62042,0.67743l-4.40957,0.00386l-0.18094,-0.18046c-0.41254,-0.41061 -0.12063,-1.08852 0.51338,-1.19274c1.51795,-0.24945 1.76306,-0.34837 2.10177,-0.84631l0.18287,-0.26875l-0.02171,-6.03656c-0.02702,-7.29685 0.10036,-6.69035 -1.42675,-6.80663c-1.52567,-0.11677 -1.53676,-1.32495 -0.01496,-1.64291c0.24366,-0.05066 0.84968,-0.34161 1.74665,-0.83762c0.37539,-0.20796 0.82604,-0.55777 1.63857,-1.27284c0.64752,-0.56935 1.03738,-0.66682 1.33894,-0.33341m74.67074,-0.01544c0.18046,0.1462 0.19059,0.20651 0.21134,1.26656c0.03522,1.80021 0.04632,1.80696 1.1387,0.68177c1.73555,-1.78815 3.51501,-2.36329 5.07204,-1.64002c2.08054,0.96645 1.62747,3.88027 -0.60313,3.88027c-0.70783,0 -0.96307,-0.12256 -1.71625,-0.82749c-0.83762,-0.7831 -0.98623,-0.83376 -1.59466,-0.54474c-0.99395,0.47285 -2.0072,1.95171 -2.20117,3.21393c-0.17515,1.13677 -0.06176,10.97977 0.12883,11.2355c0.34161,0.45693 0.60699,0.55922 2.06558,0.79371c0.66633,0.10712 0.97706,0.76911 0.55729,1.1884l-0.17853,0.17901l-4.36084,0.00338l-4.36084,0.00338l-0.18094,-0.18046c-0.41254,-0.41061 -0.12063,-1.089 0.51386,-1.19226c2.47233,-0.40434 2.30635,0.06466 2.34109,-6.6199c0.03715,-7.2457 0.04198,-7.22399 -1.56716,-7.33255c-1.50974,-0.10229 -1.56668,-1.25691 -0.07961,-1.61396c0.87043,-0.20844 2.30394,-1.08128 3.30706,-2.01251c0.31411,-0.29191 0.62532,-0.5515 0.69191,-0.57659c0.25283,-0.09747 0.63256,-0.05308 0.81543,0.09457m-24.66347,0.39855c0.56453,0.12111 0.54716,-0.06803 0.56163,6.18855c0.01834,7.93664 0.09698,8.56582 1.21059,9.70645c2.2277,2.28174 7.56946,1.27525 8.37958,-1.57874c0.22533,-0.79371 0.22388,-11.54864 -0.00145,-12.19519c-0.2012,-0.57659 -0.57032,-0.79516 -1.46101,-0.86416c-0.88925,-0.069 -0.97272,-0.09264 -1.20384,-0.34161c-0.26296,-0.28371 -0.27454,-0.68467 -0.02461,-0.85982c0.21278,-0.14909 5.43102,-0.18962 5.81075,-0.04536c0.45403,0.17274 0.4439,-0.01255 0.4439,7.96173c0,8.8312 -0.12063,8.11469 1.36451,8.13013c0.93895,0.00965 1.13291,0.05983 1.28538,0.33148c0.29674,0.5293 -0.09119,0.82508 -1.72253,1.31144c-1.43061,0.42653 -2.12059,0.72713 -3.08511,1.34473c-1.13098,0.72327 -1.32446,0.579 -1.38092,-1.03352c-0.05404,-1.55172 -0.10953,-1.59129 -1.08563,-0.77731c-1.03882,0.86657 -2.36811,1.60914 -3.29692,1.84122c-0.26538,0.06659 -0.6094,0.15392 -0.7638,0.19397c-2.32999,0.60602 -5.81413,-0.80578 -6.80229,-2.75604c-0.07334,-0.14475 -0.17901,-0.31749 -0.23546,-0.38359c-0.68467,-0.80867 -0.78648,-1.81806 -0.83859,-8.32313c-0.0497,-6.2146 -0.02413,-5.92558 -0.5597,-6.30724c-0.25862,-0.18432 -0.88056,-0.32714 -1.42241,-0.32714c-0.77972,0 -1.28442,-0.6784 -0.83714,-1.12567c0.16309,-0.16357 4.9683,-0.24077 5.66503,-0.09119m-112.17691,9.24808c-0.41881,0.17418 -3.47111,1.71046 -3.96277,1.99514c-1.70902,0.98768 -2.46992,1.84219 -2.67836,3.00646c-0.63497,3.55506 5.17192,3.61393 7.01314,0.07045l0.26924,-0.51821l0.00097,-2.27451c0.00145,-2.63928 0.02461,-2.55677 -0.64221,-2.27933m96.33933,19.01967c1.75148,0.82797 1.63905,3.88316 -0.16116,4.38255c-1.45281,0.40289 -2.61322,-0.58624 -2.61322,-2.22819c0,-1.64291 1.45956,-2.77582 2.77438,-2.15436m-143.26245,13.92978c0,13.34788 -0.04536,12.24682 0.49408,11.96793c0.15971,-0.08251 0.60361,-0.14861 1.2738,-0.18914c1.20963,-0.07334 1.42675,-0.1766 1.66366,-0.7913c0.19348,-0.50084 0.23208,-21.24882 0.04101,-21.88138c-0.20217,-0.66923 -0.33582,-0.72616 -2.2663,-0.96645c-0.33148,-0.0415 -0.73871,-0.11098 -0.90469,-0.1544l-0.30156,-0.07961l0,12.09435m75.12959,-6.20109c2.45448,0.35802 4.12152,1.85907 4.86698,4.38351l0.20169,0.68322l0.04873,5.9912c0.05838,7.15741 -0.02606,6.75645 1.4779,6.99336c1.20336,0.18914 1.60045,0.46851 1.45908,1.0258c-0.15392,0.60699 -0.24125,0.62484 -2.54422,0.53172c-1.29503,-0.05211 -2.60116,-0.05549 -3.60042,-0.00869c-2.21612,0.10326 -2.62335,0.07431 -2.8646,-0.20651c-0.39758,-0.46224 -0.08782,-1.1112 0.58045,-1.2159c1.44026,-0.22629 1.62265,-0.29963 1.94255,-0.7831l0.22099,-0.33389l0.02316,-5.03199c0.02413,-5.35237 -0.00338,-5.91545 -0.34499,-6.97261c-1.21252,-3.75482 -7.10288,-3.30513 -8.70044,0.66392l-0.22243,0.55295l-0.02702,5.14683c-0.03522,6.70193 -0.12545,6.31737 1.55992,6.65995c1.15993,0.23594 1.31867,0.33775 1.31867,0.84824c0,0.62677 -0.13124,0.69528 -1.3153,0.68901c-1.24533,-0.00676 -5.08603,-0.00676 -6.43221,0l-1.03207,0.00531l-0.19397,-0.22581c-0.4907,-0.57032 -0.01351,-1.17682 1.01229,-1.28731c1.03931,-0.11194 1.55124,-0.45596 1.64581,-1.10541c0.12835,-0.88249 0.00869,-12.00605 -0.13221,-12.26322c-0.17177,-0.31314 -0.44873,-0.43763 -0.97513,-0.43763c-1.57681,0 -1.84846,-1.20143 -0.37201,-1.64243c0.90131,-0.26875 2.3739,-1.19757 3.21876,-2.02988c1.17778,-1.15993 1.62892,-0.95632 1.66221,0.74981c0.03329,1.69213 0.08733,1.76257 0.83666,1.09045c2.37052,-2.12638 4.2571,-2.82407 6.68118,-2.47088m107.55842,0.03329c2.03326,0.29143 3.84456,1.90636 4.48194,3.99607c0.3281,1.07598 0.35705,1.65449 0.36525,7.26259c0.00917,6.63003 -0.03088,6.42642 1.3235,6.71737c1.48321,0.31893 1.56813,0.36718 1.56813,0.89263c0,0.64124 -0.14523,0.72134 -1.29986,0.71555c-1.16765,-0.00579 -5.08459,-0.00531 -6.44765,0.00048c-1.08128,0.00483 -1.3399,-0.13172 -1.3399,-0.70879c0,-0.4936 0.19155,-0.60313 1.56764,-0.89986c0.82508,-0.17804 1.09238,-0.41978 1.24003,-1.12181c0.13607,-0.64993 0.0772,-10.23769 -0.06852,-11.13176c-0.66103,-4.04866 -6.35694,-4.48629 -8.60346,-0.66054c-0.47333,0.80626 -0.48829,1.01373 -0.48829,6.71495l0,5.16468l0.18094,0.35705c0.22774,0.44969 0.51242,0.61278 1.26898,0.72761c1.15511,0.17515 1.53676,0.49649 1.33411,1.12181c-0.15826,0.48829 -0.28709,0.50952 -2.57366,0.42653c-1.16186,-0.04198 -2.68608,-0.04439 -3.58787,-0.00483c-2.61419,0.11484 -2.895,0.05259 -2.895,-0.63835c0,-0.54716 0.28564,-0.73823 1.36692,-0.91241c1.60238,-0.2591 1.54062,0.01592 1.53001,-6.8018c-0.0111,-7.06042 0.02847,-6.84861 -1.31047,-6.94993c-0.86464,-0.06562 -1.04268,-0.13703 -1.18309,-0.47719c-0.18962,-0.45789 0.24559,-1.01325 0.92351,-1.1773c0.86802,-0.21037 2.12831,-1.01373 3.2231,-2.054c1.17875,-1.12085 1.63954,-0.84968 1.71818,1.01132c0.05742,1.36355 0.10181,1.38043 1.21059,0.46899c2.29381,-1.88609 3.94347,-2.4043 6.49493,-2.03905m-38.78239,0.05356c0.15874,0.12014 0.16164,0.2398 0.2012,8.54894l0.04005,8.42686l0.24077,0.3474c0.2784,0.40192 0.48877,0.50518 1.36934,0.67261c1.01856,0.19348 1.32495,0.3749 1.32495,0.78455c0,0.77779 -0.23305,0.84245 -2.66871,0.74016c-1.23086,-0.05211 -2.55532,-0.05163 -3.86772,0.00097c-2.24025,0.08975 -2.42891,0.05935 -2.6277,-0.42074c-0.20313,-0.49022 0.32955,-1.05282 0.99588,-1.05282c0.93943,0 1.67138,-0.47285 1.8171,-1.17296c0.1269,-0.61278 0.06562,-11.62487 -0.06707,-12.02342c-0.15778,-0.47478 -0.33051,-0.57225 -1.12953,-0.63883c-1.65546,-0.13703 -1.7481,-1.17682 -0.14958,-1.68344c0.82797,-0.26248 2.30925,-1.2188 2.99295,-1.9329c0.67598,-0.70493 1.14256,-0.88732 1.52808,-0.59637m-50.18,1.24147c-2.68897,0.48395 -5.09086,2.74929 -5.71087,5.38711c-0.05742,0.24318 -0.16695,0.69577 -0.24415,1.00505c-0.90276,3.63033 1.26077,8.19478 4.5273,9.55205l0.62339,0.2591l1.4475,-0.00097c0.87574,-0.00097 1.55896,-0.03812 1.72928,-0.09409c1.65594,-0.54667 2.83083,-1.38188 3.04892,-2.16836c0.15585,-0.56115 0.11628,-10.57351 -0.04439,-11.29726c-0.44342,-1.99466 -2.73095,-3.11888 -5.37698,-2.64265m-67.46942,0.14765c-0.22147,0.08299 -0.52882,0.19831 -0.6837,0.25573c-0.72568,0.26924 -2.25086,1.65401 -2.67643,2.43035c-0.95487,1.74134 -1.24051,2.69718 -1.42,4.74925c-0.07286,0.8381 -0.06707,0.94667 0.12835,2.38789c0.99829,7.35813 7.69202,9.90814 11.05697,4.21174c1.39491,-2.36087 1.86921,-5.91786 1.12085,-8.40419c-0.08492,-0.28178 -0.17997,-0.63883 -0.21134,-0.79323c-0.03136,-0.15488 -0.14282,-0.44438 -0.24801,-0.64269c-0.10519,-0.19879 -0.19107,-0.39806 -0.19107,-0.44294c0,-0.76332 -1.89574,-2.83276 -3.17775,-3.46918l-0.78792,-0.39083l-1.25402,-0.02171c-1.06729,-0.01882 -1.31385,0.00048 -1.65594,0.12979m130.0738,-0.03812c-2.14423,0.64028 -4.12586,2.93843 -4.55046,5.27759c-0.02799,0.15488 -0.10036,0.46224 -0.16019,0.6837c-0.43715,1.61059 -0.22678,4.1963 0.49939,6.14319c2.71744,7.28093 9.8126,6.65271 11.70352,-1.03689c0.2398,-0.97562 0.32521,-3.48703 0.15054,-4.42308c-0.23112,-1.23906 -0.71651,-2.67112 -1.158,-3.41755c-0.15681,-0.26538 -0.35657,-0.61133 -0.4439,-0.76911c-0.40868,-0.73871 -1.68055,-1.8142 -2.6634,-2.25231c-0.70493,-0.31411 -2.62287,-0.43087 -3.3775,-0.20555m-39.68563,8.72746c-0.39806,0.21182 -1.158,0.61181 -1.68875,0.88973c-1.94351,1.01711 -2.37342,1.29841 -3.07063,2.01058c-1.09045,1.11361 -1.2767,2.58041 -0.45645,3.59511c1.05668,1.30806 3.59752,1.05716 5.26987,-0.52062c1.06488,-1.00457 1.19805,-1.42048 1.25112,-3.90922c0.0579,-2.71792 0.02413,-2.77196 -1.30516,-2.06558m-63.78843,7.38418c-0.21134,0.16116 -0.6012,0.46079 -0.86657,0.66585c-1.00264,0.77586 -1.73507,1.17682 -2.71165,1.48369c-0.99443,0.31314 -0.72809,0.36574 1.84991,0.36574l2.38982,-0.00048l-0.00965,-1.22603c-0.00531,-0.67454 -0.01448,-1.28586 -0.02027,-1.35872c-0.01978,-0.24945 -0.24608,-0.22436 -0.63159,0.06996" id="path1"/>
   <path fill-rule="evenodd" fill="#00843e" d="m160.06445,116.03406c-0.84582,0.5872 -1.76547,0.93123 -3.70367,1.38526c-0.93316,0.21906 -0.70735,1.05089 0.3088,1.13677c1.65401,0.13944 1.68537,0.22726 1.68537,4.74394l0,3.52515l-0.19445,0.1573c-0.21278,0.17225 -0.49408,0.15102 -0.92785,-0.07093c-0.70831,-0.36236 -3.15507,-0.78551 -4.50703,-0.77924c-3.15073,0.01399 -6.49156,2.13169 -8.3651,5.30268c-0.25862,0.43715 -0.75318,1.61493 -0.75994,1.80938c-0.00241,0.06659 -0.08299,0.35609 -0.17901,0.64366c-0.19927,0.59734 -0.26103,3.58353 -0.08733,4.22188c0.04825,0.1766 0.16502,0.62098 0.2591,0.9872c0.82652,3.2149 3.6313,6.08481 6.53691,6.68793c0.24994,0.05163 0.54378,0.16453 0.65282,0.25042c0.32714,0.25717 2.18621,0.2316 2.57945,-0.03522c0.15537,-0.10567 0.41929,-0.21761 0.58672,-0.24897c0.48347,-0.09023 1.94399,-0.85161 2.79609,-1.45667c1.16958,-0.83135 1.18888,-0.84196 1.44557,-0.8188c0.28323,0.02606 0.34499,0.18625 0.35705,0.92495c0.01255,0.80433 0.30205,1.30565 0.7556,1.30902c0.05308,0.00048 0.49456,-0.17949 0.98141,-0.39999c0.48636,-0.2205 1.22845,-0.52979 1.64822,-0.6866c0.42026,-0.1573 0.92688,-0.35319 1.12616,-0.43522c0.19879,-0.08251 0.45982,-0.18866 0.57948,-0.23594c0.48009,-0.18962 0.81398,-1.43303 0.47575,-1.77126c-0.29143,-0.29143 -0.48105,-0.21809 -1.10493,0.42894c-0.60554,0.62773 -0.86416,0.76332 -1.15607,0.60699c-0.42026,-0.22485 -0.40289,0.37587 -0.40289,-13.86464c0,-8.39888 -0.02847,-13.30108 -0.07817,-13.43184c-0.13172,-0.34692 -0.71796,-0.29577 -1.30806,0.11387m40.73458,2.48536c-1.92228,0.92254 -1.43254,4.27109 0.62484,4.27109c2.50804,0 2.72323,-4.10511 0.23353,-4.45878c-0.29915,-0.04246 -0.44438,-0.01062 -0.85837,0.18769m-124.30841,0.40578c-0.48926,0.09988 -12.94355,0.17901 -14.91408,0.09457c-1.21976,-0.05211 -1.85039,-0.04777 -2.15099,0.01544l-0.42557,0.08926l0,0.49601l0,0.49649l0.51917,0.13028c0.28564,0.07189 0.69239,0.13076 0.90469,0.13028c0.6258,0 1.78332,0.31266 1.91794,0.51869c0.36188,0.55246 0.3556,0.34692 0.35416,11.50377l-0.00193,10.53491l-0.17804,0.44197c-0.24608,0.60988 -0.57804,0.76862 -1.82723,0.87574c-0.50856,0.04343 -1.09672,0.12545 -1.30661,0.18287l-0.38214,0.10374l0,0.45114l0,0.45162l0.43908,0.14909c0.4135,0.14041 0.57273,0.14379 2.7488,0.0579c1.71529,-0.06755 2.92299,-0.06755 4.69424,-0.00048c2.64314,0.10036 2.82649,0.07382 3.00549,-0.43473c0.20458,-0.58238 -0.29095,-0.89793 -1.54062,-0.98141c-2.18717,-0.14572 -2.10949,0.0965 -2.10949,-6.57503c0,-6.34053 -0.23064,-5.77842 2.37245,-5.78083c4.55384,-0.00531 5.24815,0.3696 5.70701,3.08125c0.12738,0.7556 0.98816,0.86609 1.2048,0.15537c0.03088,-0.10036 0.01544,-1.13195 -0.03378,-2.29188c-0.06514,-1.52374 -0.0661,-2.59489 -0.00386,-3.85566c0.09747,-1.97005 0.07913,-2.12927 -0.25766,-2.27113c-0.61326,-0.25766 -0.77972,-0.04101 -1.10927,1.44412c-0.4714,2.12252 -0.45355,2.11383 -4.62283,2.17994c-3.52177,0.05549 -3.20911,0.51628 -3.23951,-4.77579c-0.03185,-5.43536 -0.23353,-5.16516 3.8629,-5.16468c4.43466,0.00097 6.19482,0.97031 6.81869,3.75482c0.2234,0.99636 0.82556,1.4364 1.28924,0.94281l0.19493,-0.20748l-0.01882,-2.65954c-0.02075,-2.85302 -0.02413,-2.87908 -0.44487,-3.15121c-0.22485,-0.14572 -1.04027,-0.21906 -1.46632,-0.13221m112.61357,3.18643c-0.10856,0.05645 -0.24994,0.20555 -0.31459,0.33051c-0.79661,1.54304 -1.80214,2.7049 -3.29403,3.805c-0.84486,0.62243 -0.96548,0.75704 -0.96404,1.07549c0.00241,0.47864 0.27937,0.61422 1.25257,0.61422c0.96886,0 0.87091,-0.78262 0.91916,7.34655c0.04584,7.77404 0.05452,7.90046 0.61181,8.87848c0.41592,0.73002 1.1995,1.39298 1.88802,1.59756c0.22147,0.06562 0.4632,0.18962 0.53654,0.27599c0.2205,0.25717 1.78429,0.23208 2.04918,-0.03281c0.10422,-0.10422 0.32955,-0.21568 0.50132,-0.24801c1.07742,-0.20217 3.09669,-1.85377 3.09669,-2.53313c0,-0.64896 -0.58286,-0.66778 -1.31192,-0.04198c-1.63809,1.40504 -3.21924,1.1083 -3.92417,-0.73726l-0.27261,-0.71362l0,-6.73281l0,-6.73281l0.1766,-0.17611c0.17177,-0.17225 0.22581,-0.1766 2.27837,-0.18335l2.10225,-0.00676l0.19397,-0.22581c0.15247,-0.17708 0.19445,-0.317 0.19445,-0.65089c0,-0.73051 0.02027,-0.72423 -2.39899,-0.74788c-2.83517,-0.0275 -2.52734,0.23064 -2.56931,-2.15485c-0.03571,-2.05111 -0.13896,-2.32662 -0.75125,-2.00575m-102.72232,4.0144c-0.04439,0.02027 -0.47864,0.06996 -0.965,0.11049c-3.34324,0.27937 -6.93401,3.09813 -7.64618,6.00278c-0.03233,0.13269 -0.12642,0.39951 -0.20844,0.59299c-0.6977,1.6405 -0.48395,5.2718 0.43811,7.44884c1.09672,2.5891 4.11235,5.11788 6.51472,5.46383c0.42605,0.06128 0.90324,0.23884 0.98141,0.36477c0.10615,0.17177 2.59296,0.10229 2.83855,-0.07913c0.12014,-0.0883 0.45886,-0.21134 0.7527,-0.27261c7.0942,-1.48272 9.90283,-11.32235 4.78351,-16.75723c-0.95294,-1.0118 -3.05857,-2.35026 -3.69692,-2.35026c-0.06996,0 -0.31459,-0.07382 -0.54281,-0.16405c-0.47671,-0.18769 -3.01128,-0.46899 -3.24964,-0.36043m45.67297,0.08492c-1.46632,0.21423 -2.95869,1.02869 -4.67398,2.5505c-0.72423,0.64269 -0.83087,0.51772 -0.83087,-0.97465c0,-1.84653 -0.37683,-2.07716 -1.54738,-0.94763c-0.92158,0.88877 -2.19972,1.6984 -3.19705,2.02409c-1.2849,0.41978 -1.22989,1.32591 0.08637,1.42579c1.53821,0.11628 1.44123,-0.35319 1.44123,7.0059c0,7.32918 0.18239,6.75548 -2.27547,7.16561c-0.56501,0.09457 -0.75463,0.74546 -0.31749,1.08949c0.23739,0.18673 0.77827,0.20217 2.71358,0.07672c0.83473,-0.05404 1.83881,-0.04922 3.25784,0.01544c2.56352,0.11725 2.73336,0.08106 2.73336,-0.58045c0,-0.4164 -0.13751,-0.49698 -1.282,-0.75318c-1.72301,-0.38552 -1.62554,0.02123 -1.59563,-6.66188l0.02364,-5.3268l0.22195,-0.54812c1.6516,-4.07664 7.54437,-4.44962 8.90888,-0.56356l0.27696,0.78985l0,5.67275l0,5.67227l-0.26248,0.33148c-0.29819,0.37732 -0.6591,0.53027 -1.66752,0.70783c-0.97127,0.17129 -1.26463,0.59734 -0.75897,1.103l0.24656,0.24608l1.58308,-0.07141c1.98066,-0.08975 2.94036,-0.08975 4.92054,-0.00193c1.76885,0.07865 2.01058,0.01737 2.01058,-0.51097c0,-0.48347 -0.21857,-0.6644 -0.92592,-0.76766c-2.04725,-0.29867 -1.96908,-0.02123 -1.96957,-7.01748c0,-7.61771 -0.23594,-8.50792 -2.73529,-10.32502c-0.65765,-0.47768 -2.73336,-1.02338 -3.57726,-0.94039c-0.04391,0.00434 -0.40771,0.05597 -0.80771,0.11435m42.25639,-0.00386c-0.51193,0.0579 -1.22845,0.19976 -1.59225,0.31459c-0.36381,0.11484 -0.69528,0.20892 -0.73678,0.20892c-0.17081,0 -2.01106,0.94763 -2.57028,1.3235c-2.50369,1.68248 -3.94637,4.66819 -2.30587,4.77289c1.25354,0.0801 2.33578,-0.64848 2.96207,-1.99514c1.2241,-2.63059 2.6248,-3.66797 4.73188,-3.50343c1.8803,0.1462 2.25183,0.87381 2.25183,4.4115c0,2.73626 0.37008,2.31986 -3.94058,4.43321c-5.05371,2.47764 -6.65512,4.00523 -6.67153,6.36273c-0.01013,1.41952 1.18164,2.98764 2.43856,3.20959c0.17081,0.02992 0.39855,0.14282 0.50614,0.25042c0.2702,0.2702 1.82192,0.29819 2.18187,0.03908c0.12014,-0.08589 0.44197,-0.21327 0.71603,-0.28226c0.27406,-0.06948 0.67743,-0.21616 0.89649,-0.32617c0.21906,-0.11001 0.41543,-0.19976 0.43715,-0.19976c0.15874,0 1.74279,-1.08273 2.50032,-1.7095c0.703,-0.58141 0.87477,-0.53992 1.30758,0.31363c0.83569,1.64822 1.46728,2.0733 2.79947,1.88465c1.18213,-0.16791 3.13673,-1.49479 3.34614,-2.27209c0.18625,-0.69239 -0.27744,-0.99347 -0.85161,-0.55295c-0.74498,0.57176 -0.94811,0.6837 -1.23617,0.6837c-0.46996,0 -0.83231,-0.33534 -1.0615,-0.98237l-0.19204,-0.54185l-0.04005,-6.755l-0.04053,-6.755l-0.23884,-0.47189c-0.74643,-1.47307 -2.85302,-2.17366 -5.59748,-1.861m42.1044,-0.08299c-0.04439,0.01882 -0.50421,0.07141 -1.02242,0.11628c-2.47957,0.2152 -4.75745,1.47935 -6.31737,3.50585c-0.38986,0.50663 -1.30516,2.20068 -1.30516,2.41588c0,0.069 -0.0608,0.24125 -0.1351,0.38262c-0.69528,1.32446 -0.68563,5.53765 0.01544,6.89396c0.0661,0.1269 0.11966,0.2813 0.11966,0.34209c0,0.06128 0.1544,0.41592 0.34306,0.78841c1.36113,2.68704 3.78956,4.6513 6.41194,5.18639c0.33196,0.06755 0.70156,0.19348 0.82122,0.27937c0.28516,0.20506 2.54857,0.23932 2.71262,0.0415c0.05259,-0.06321 0.37346,-0.17611 0.71362,-0.2509c4.61704,-1.0147 7.68526,-4.94997 7.67706,-9.84686c-0.00241,-1.49044 -0.0222,-1.65932 -0.3363,-2.85495c-0.97176,-3.69981 -4.09257,-6.47515 -7.73399,-6.87707c-1.01036,-0.11146 -1.86535,-0.16502 -1.96426,-0.12256m22.99933,0.08637c-1.40697,0.19638 -2.51093,0.74016 -4.10366,2.02168c-1.37513,1.10589 -1.48562,1.07549 -1.48562,-0.41206c0,-1.81468 -0.34837,-2.08923 -1.39877,-1.10107c-1.1416,1.07453 -2.52589,1.96571 -3.32105,2.13796c-1.17441,0.25476 -1.24389,1.41131 -0.08492,1.41276c1.7206,0.00145 1.7013,-0.07479 1.73314,6.79457c0.03281,7.1246 0.09216,6.8901 -1.84074,7.27321c-1.08997,0.21616 -1.40938,0.59444 -0.96404,1.1416l0.1544,0.18962l1.67476,-0.0386c2.12927,-0.04922 3.94058,-0.03522 5.38615,0.0415l1.13822,0.0608l0.20892,-0.20892c0.39227,-0.39227 0.20844,-0.9732 -0.33582,-1.06391c-1.43544,-0.23884 -1.88802,-0.455 -2.15485,-1.02821l-0.19348,-0.4164l-0.00097,-5.03971c-0.00097,-5.82378 0.01062,-5.94054 0.67888,-6.96827c2.5172,-3.87158 8.22952,-3.17775 8.65219,1.05089c0.04536,0.45355 0.11725,1.0258 0.16019,1.27187c0.04343,0.24994 0.07768,2.36763 0.07768,4.8057c0,5.95309 0.0111,5.91883 -2.05063,6.24789c-0.76573,0.12207 -0.98237,0.34644 -0.83859,0.86754c0.13028,0.47285 0.28757,0.49746 2.52492,0.39565c1.37464,-0.06224 2.42408,-0.06417 3.55024,-0.00627c2.48102,0.12835 2.76473,0.0661 2.76473,-0.60795c0,-0.40916 -0.11773,-0.49263 -0.90614,-0.6451c-1.06777,-0.20555 -1.43399,-0.36815 -1.70516,-0.7556l-0.24366,-0.34885l-0.04439,-6.00423l-0.04439,-6.00423l-0.24945,-0.84438c-0.46996,-1.5937 -1.57054,-3.01707 -2.78499,-3.60283c-0.75994,-0.36622 -1.2048,-0.50952 -1.81275,-0.58479c-1.17971,-0.14523 -1.31288,-0.14716 -2.14037,-0.03185m-37.23308,0.0468c-0.0883,0.05018 -0.41399,0.3363 -0.72375,0.63642c-0.81108,0.78503 -2.16691,1.64774 -3.0962,1.96957c-1.36258,0.47237 -1.31626,1.32398 0.07817,1.43158c1.03834,0.0801 1.20722,0.21761 1.3592,1.10686c0.12593,0.73485 0.12642,11.36046 0.00097,11.85937c-0.15633,0.61905 -0.77007,0.98623 -1.89574,1.13339c-0.72616,0.09505 -1.00264,0.37008 -0.8767,0.87091c0.10326,0.41254 0.41206,0.4743 1.97536,0.39517c1.57971,-0.0801 2.58089,-0.08589 5.00401,-0.02992c1.86004,0.04294 1.87837,0.03812 1.96619,-0.50084c0.06321,-0.39083 -0.14523,-0.58672 -0.74836,-0.70349c-1.35293,-0.262 -1.66077,-0.4082 -2.02843,-0.96548c-0.11725,-0.17756 -0.13414,-1.03255 -0.17032,-8.62035c-0.02702,-5.62595 -0.06755,-8.45099 -0.12304,-8.50648c-0.13221,-0.13221 -0.54619,-0.17611 -0.72134,-0.07672m-104.82313,0.55391c-0.19397,0.19397 -0.19783,0.26007 -0.03474,0.60361c0.1573,0.331 0.38745,0.42122 1.1855,0.46465c0.53172,0.02895 0.67936,0.06996 0.95969,0.26731c0.63015,0.44245 0.61664,0.30687 0.6205,6.25031c0.00386,6.54318 0.07093,7.18201 0.90565,8.63048c0.7445,1.29214 2.2031,2.4429 3.50488,2.76521c0.19059,0.04729 0.40675,0.15633 0.48009,0.24222c0.20362,0.23739 2.29429,0.23739 2.54712,0c0.09168,-0.08637 0.37587,-0.21134 0.63111,-0.27792c0.82797,-0.21568 1.89092,-0.80529 2.98282,-1.65449c1.40745,-1.09431 1.55992,-1.05523 1.45329,0.37153c-0.0304,0.40434 -0.02943,0.95632 0.00193,1.22652l0.05694,0.49119l0.3942,0c0.28661,0 0.3942,-0.03136 0.3942,-0.11387c0,-0.39131 1.58646,-1.19371 3.65928,-1.85184c1.22845,-0.38986 1.53387,-0.6784 1.20963,-1.14111c-0.10277,-0.14716 -0.22388,-0.17225 -0.99106,-0.20892c-1.65691,-0.07817 -1.50202,0.77104 -1.52132,-8.33857c-0.01641,-7.48647 -0.01689,-7.51349 -0.18335,-7.67995c-0.22919,-0.22919 -5.26215,-0.30928 -5.59845,-0.08878c-0.62339,0.40868 -0.07334,1.01132 0.99878,1.09431c0.88153,0.06852 1.13388,0.17708 1.4311,0.61471c0.14475,0.21375 0.15102,0.48636 0.15102,6.45537l0,6.23245l-0.29626,0.4825c-1.09817,1.78766 -3.49523,2.67064 -5.78904,2.13217c-1.67138,-0.39227 -2.57945,-1.26126 -3.02335,-2.89259l-0.20892,-0.76766l-0.04536,-6.47322c-0.05066,-7.15451 -0.01834,-6.76417 -0.56839,-6.91712c-0.60506,-0.16839 -5.12705,-0.09891 -5.3075,0.08154m57.54971,0.52689c1.89333,0.37394 2.97027,1.3013 3.31912,2.85785c0.24173,1.07694 0.23015,10.83164 -0.01351,11.3484c-1.07405,2.28174 -5.59845,3.01225 -8.15956,1.31819c-2.62335,-1.73555 -4.23925,-6.28553 -3.31574,-9.33638c0.08058,-0.26538 0.17129,-0.62725 0.20217,-0.80433c0.09554,-0.54812 0.89263,-2.06317 1.45619,-2.76762c1.61155,-2.01444 4.23056,-3.06677 6.51134,-2.61612m-67.27787,0.04053c2.2306,0.2784 4.22188,2.34592 5.10726,5.30316c0.70783,2.36377 0.55632,5.95357 -0.32617,7.72c-0.05501,0.11049 -0.23884,0.48298 -0.40868,0.82749c-0.53027,1.07694 -1.45281,2.20647 -2.16305,2.647c-0.22147,0.13703 -0.52882,0.331 -0.6837,0.43087c-0.49939,0.32231 -1.79828,0.62146 -2.49308,0.57369c-5.44164,-0.37104 -8.29225,-9.39862 -4.6928,-14.86197c1.32639,-2.01299 3.30175,-2.93457 5.66021,-2.64024m130.11192,0.02799c1.86197,0.30639 3.82671,2.10611 4.58568,4.20065c0.74691,2.06028 0.76187,2.15002 0.76187,4.49208c0,9.47292 -8.90502,12.1783 -12.04465,3.6588c-0.74209,-2.01347 -0.98237,-4.98567 -0.51145,-6.32172c0.06128,-0.17274 0.138,-0.47719 0.17032,-0.6755c0.10663,-0.65475 0.83907,-2.24604 1.35824,-2.95145c1.44461,-1.96233 3.37991,-2.78113 5.67999,-2.40285m-40.81709,8.45726c0.20796,0.20796 0.18383,3.92996 -0.0304,4.70389c-0.50084,1.80552 -2.32227,3.08848 -4.38834,3.08993l-1.04654,0.00097l-0.47671,-0.28275c-0.90083,-0.53461 -1.26077,-1.35824 -1.09721,-2.51238c0.18094,-1.28056 1.158,-2.26003 3.46628,-3.47545c0.46465,-0.24463 1.351,-0.71314 1.97005,-1.04124c1.17971,-0.6258 1.39539,-0.69046 1.60287,-0.48298" id="path2"/>
  </g>
  <text font-style="normal" font-weight="normal" xml:space="preserve" text-anchor="start" font-family="sans-serif" font-size="24" id="svg_1" y="53" x="62" stroke-width="0" stroke="#000" fill="#000000">Platinum sponsor</text>
 </g>
</svg>