<svg width="NaN" height="NaN" xmlns="http://www.w3.org/2000/svg" version="1.1">

 <g>
  <title>Layer 1</title>
  <g id="svgg">
   <path fill-rule="evenodd" fill="#007dbd" d="m77.07978,88.30864c-1.30398,0.40743 -1.96725,1.23249 -2.38166,2.96055c-1.32816,5.54485 -1.34375,5.59269 -1.99896,6.25758c-0.70413,0.7138 -1.12929,0.85033 -3.52815,1.12875c-0.46816,0.05429 -1.1739,0.13814 -1.56789,0.18651c-0.39399,0.04784 -1.64368,0.18813 -2.77726,0.31121c-2.7606,0.30046 -3.92375,0.53105 -5.24063,1.03953c-5.7018,2.2016 -9.35734,7.36913 -9.56213,13.51705c-0.03924,1.17713 -0.00645,1.51736 0.3096,3.17931c0.81754,4.30484 3.80819,8.12915 7.95016,10.16789c4.43653,2.18333 7.43793,1.78558 8.13883,-1.07823c0.40904,-1.67378 0.88634,-3.65124 1.10134,-4.56499c0.28864,-1.22873 0.54288,-1.77268 1.06049,-2.27148c0.35153,-0.33863 0.5547,-0.46548 1.21421,-0.75895c0.12363,-0.05536 1.13144,-0.2021 2.23976,-0.3268c1.10886,-0.1247 2.33813,-0.26553 2.73211,-0.31283c0.39453,-0.04676 1.05941,-0.12524 1.47813,-0.17361c2.45046,-0.28219 3.54374,-0.45043 4.16563,-0.64124c1.72,-0.52675 2.74071,-0.97933 3.98664,-1.76784c1.70818,-1.08091 3.36798,-2.74071 4.49726,-4.49726c0.49074,-0.76271 1.32548,-2.41875 1.32548,-2.62891c0,-0.06181 0.0344,-0.1505 0.07579,-0.19726c0.09729,-0.10965 0.32089,-0.86806 0.54019,-1.8318c0.57943,-2.5456 0.48644,-5.15033 -0.27036,-7.61476c-0.19834,-0.645 -0.22575,-0.71649 -0.56008,-1.45824c-0.12846,-0.28434 -0.23328,-0.5332 -0.23328,-0.55255c0,-0.09245 -1.0406,-1.8232 -1.3158,-2.1887c-2.0812,-2.7649 -4.95468,-4.71818 -8.26944,-5.62064c-1.42975,-0.38915 -2.43326,-0.47408 -3.10998,-0.2623m24.20739,4.18713c-0.02741,0.11395 -0.0387,7.20089 -0.02526,15.74929l0.02473,15.54289l3.49375,0l3.49375,0l0.02311,-5.57656l0.02311,-5.57656l3.61415,0c4.91759,0 6.42205,-0.13545 8.16463,-0.73638c4.06619,-1.40126 6.33766,-4.79719 6.33766,-9.47613c0,-4.79128 -2.37629,-8.18935 -6.65371,-9.51536c-1.86405,-0.57728 -1.37869,-0.54986 -10.27431,-0.58534l-8.17161,-0.03225l-0.04999,0.2064m51.64408,5.08583l0,3.40399l-1.85868,0.02419l-1.85921,0.02419l0,2.10485l0,2.10539l1.85921,0.02419l1.85868,0.02419l0,7.11435c0,8.60914 0.01935,8.76179 1.29161,10.03996c0.85463,0.85893 1.65711,1.20454 3.5905,1.54639c0.59824,0.10589 5.52228,0.05913 5.8007,-0.05536l0.24618,-0.10051l0,-2.42251l0,-2.42198l-0.38055,0.06665c-0.76916,0.13438 -2.58753,0.07794 -3.0917,-0.09621c-1.10886,-0.3827 -1.0965,-0.29401 -1.0965,-7.56908l0,-6.10224l2.26234,-0.02365l2.2618,-0.02419l0,-2.10539l0,-2.10485l-2.26073,-0.02419l-2.26126,-0.02365l-0.02311,-3.38034l-0.02365,-3.38034l-3.15781,-0.02365l-3.15781,-0.02365l0,3.40345m15.92451,-0.01935l-0.02365,3.38195l-1.88125,0.04461l-1.88125,0.04515l0,2.10485l0,2.10539l1.90383,0.02419l1.90383,0.02419l0.00323,7.27668c0.00215,5.74104 0.02795,7.38095 0.12201,7.76956c0.48536,2.00703 1.85921,3.14115 4.35375,3.59534c0.86,0.15695 5.82704,0.15964 6.2049,0.0043l0.24779,-0.10213l-0.02365,-2.39833l-0.02365,-2.39779l-0.5375,0.04461c-1.85868,0.1548 -3.08794,-0.01021 -3.51794,-0.47246c-0.52138,-0.56008 -0.51331,-0.45204 -0.51331,-7.1423l0,-6.1361l2.28438,-0.04515l2.28438,-0.04461l0,-2.10539l0,-2.10485l-2.28438,-0.04515l-2.28438,-0.04461l-0.02365,-3.38195l-0.02365,-3.38141l-3.13309,0l-3.13309,0l-0.02365,3.38141m-53.10178,0.3311c2.69986,0.50579 3.94203,1.92855 3.94203,4.51393c0,2.2059 -0.95944,3.68349 -2.79984,4.31451c-1.00244,0.34346 -1.77913,0.40366 -5.21805,0.40366l-3.31476,0l-0.02311,-4.68055l-0.02311,-4.68109l3.38249,0.00215c2.52088,0.00108 3.55395,0.03386 4.05436,0.12739m-37.60404,0.26714c1.42169,0.51869 2.40908,1.52865 2.98366,3.05246c0.59985,1.58993 0.04999,3.65769 -1.32333,4.97886c-1.0621,1.02233 -1.80009,1.27764 -4.63755,1.60336c-4.28065,0.49181 -4.5795,0.61114 -4.9106,1.96134c-0.14728,0.59985 -0.66919,2.79285 -1.04759,4.40105c-0.78045,3.3153 -2.06884,4.67464 -4.43814,4.6827c-6.18286,0.02096 -6.46935,-9.01603 -0.30853,-9.73681c5.49701,-0.64285 5.29653,-0.60791 5.85553,-1.01964c0.37948,-0.2795 0.56599,-0.70036 0.86269,-1.9436c0.36389,-1.52811 0.83581,-3.48891 1.08898,-4.52414c0.52836,-2.16183 1.54585,-3.21963 3.56954,-3.71036c0.42355,-0.10266 1.71839,0.04031 2.30534,0.25478m58.34294,2.24944c-0.04945,0.01881 -0.45258,0.07633 -0.89601,0.12846c-4.04523,0.47676 -6.6392,2.02853 -7.8819,4.71656c-0.32411,0.70036 -0.74068,2.62461 -0.59878,2.76598c0.02473,0.02473 1.44104,0.04515 3.14706,0.04515l3.10191,0l0.1204,-0.56008c0.46494,-2.16129 2.03659,-3.07611 4.8762,-2.83639c2.22848,0.18813 3.19275,1.08683 3.19221,2.97453c-0.00108,1.73183 -1.07823,2.29405 -5.28524,2.75791c-5.20031,0.57298 -7.52446,1.48673 -8.8623,3.48408c-1.43781,2.14731 -1.3717,5.61473 0.14889,7.80934c2.42198,3.49644 10.18348,3.74691 13.82934,0.44613c0.46763,-0.42301 0.42086,-0.45258 0.57459,0.36066c0.0688,0.36228 0.15856,0.7998 0.19941,0.97234l0.07471,0.31336l3.20888,0.02365c3.0358,0.02204 3.20565,0.01505 3.14169,-0.13438c-0.61329,-1.43351 -0.66919,-2.30749 -0.66919,-10.46029c-0.00054,-7.84911 0.00161,-7.81901 -0.59555,-9.05903c-0.45795,-0.95084 -1.57541,-2.0081 -2.68428,-2.53861c-1.45824,-0.69821 -2.16344,-0.8686 -4.83374,-1.16691c-0.76648,-0.08546 -3.11481,-0.11556 -3.30831,-0.04246m53.66024,0.03924c-0.19726,0.04085 -0.66059,0.12524 -1.03039,0.18759c-6.03075,1.01695 -10.07866,7.26754 -9.04613,13.96909c0.96213,6.24683 5.09496,9.78035 11.46488,9.80293c5.47175,0.01881 8.92519,-2.24299 10.56779,-6.92085c0.258,-0.7353 0.42355,-0.68316 -2.26019,-0.71756c-2.95356,-0.03816 -3.03849,-0.02688 -3.24758,0.43753c-0.99653,2.20913 -4.95306,3.21264 -7.64594,1.93876c-1.53295,-0.72509 -2.52088,-2.43434 -2.62569,-4.5408l-0.02903,-0.58265l8.19688,-0.04461l8.19688,-0.04461l0.04999,-0.58265c0.44989,-5.23203 -2.48863,-10.47426 -6.8456,-12.21361c-1.53349,-0.61221 -4.43438,-0.95998 -5.74588,-0.68854m26.47188,0.01881c-2.62139,0.54879 -4.76225,2.08496 -5.8136,4.17154c-0.32519,0.645 -0.36281,0.48913 -0.38808,-1.6125l-0.02419,-1.99305l-2.95625,0l-2.95625,0l-0.02311,11.3993l-0.02258,11.3993l3.17609,0l3.17609,0l0.03333,-6.11406c0.02365,-4.27958 0.06504,-6.235 0.13814,-6.51719c0.20909,-0.80303 0.31175,-1.1266 0.47623,-1.49963c0.09191,-0.20855 0.1677,-0.40205 0.1677,-0.42946c0,-0.16125 0.71488,-1.12391 1.14111,-1.53671c1.27764,-1.23733 3.59426,-1.73451 6.13879,-1.31741l0.33701,0.05536l-0.02365,-2.94335l-0.02365,-2.94281l-0.44774,-0.10428c-0.53696,-0.1247 -1.54854,-0.13169 -2.10539,-0.01505m15.85625,0.0258c-2.27255,0.41979 -4.14036,1.52704 -5.21966,3.09331c-0.46225,0.6708 -0.46494,0.66543 -0.51385,-1.01104l-0.04461,-1.54209l-2.95625,0l-2.95625,0l0,11.37673l0,11.37726l3.13524,0l3.13578,0l0.05268,-7.03211c0.04569,-6.03344 0.07364,-7.10898 0.19619,-7.57015c0.07848,-0.29563 0.17953,-0.67833 0.22414,-0.85086c0.731,-2.80951 5.13205,-4.03985 7.14499,-1.99735c1.12768,1.14326 1.20991,1.81568 1.20561,9.81959c-0.00215,3.58835 0.02311,6.78325 0.05536,7.10091l0.05913,0.57728l3.10084,-0.02365l3.1003,-0.02365l0.02741,-7.48039c0.03494,-9.56858 -0.05859,-10.56564 -1.17336,-12.55923c-1.40395,-2.51066 -5.06916,-3.90225 -8.57366,-3.25456m19.75313,-0.02849c-5.53303,0.69821 -7.94049,2.83263 -7.96468,7.06329c-0.0215,3.63726 1.84363,5.20031 7.69593,6.45c5.26589,1.12445 6.7596,1.98284 6.53869,3.75766c-0.19296,1.54854 -1.75333,2.50153 -4.10973,2.51013c-0.85086,0.00269 -1.05243,-0.02849 -2.09088,-0.32626c-1.38944,-0.39775 -2.62246,-1.88125 -2.62246,-3.15405c0,-0.37948 0.01666,-0.37786 -3.18039,-0.34884l-2.77673,0.02473l-0.03118,0.26875c-0.20371,1.77429 1.2255,4.46663 3.07719,5.79748c2.31233,1.66141 7.07404,2.39994 10.92899,1.69581c2.35156,-0.43 4.36074,-1.41578 5.3492,-2.62461c0.16179,-0.19834 0.38485,-0.46763 0.49611,-0.59878c1.31795,-1.55929 1.73828,-5.21859 0.79873,-6.9574c-0.71864,-1.33085 -1.66733,-2.1371 -3.46419,-2.9455c-0.69875,-0.31444 -2.93206,-0.92396 -4.97188,-1.35773c-0.39399,-0.08385 -0.85731,-0.18383 -1.02985,-0.22199c-0.17254,-0.03816 -0.45473,-0.0989 -0.62726,-0.13491c-2.75953,-0.57136 -4.09414,-1.73666 -3.65769,-3.19383c0.31605,-1.05458 1.21314,-1.45716 3.25456,-1.46039c2.74716,-0.00376 3.93289,0.66328 4.29463,2.4166l0.11073,0.5375l2.97076,0.02365l2.97076,0.02365l0,-0.35421c0,-4.5494 -5.48143,-7.70775 -11.95938,-6.89075m-59.87697,4.76978c1.85384,0.26284 2.82295,1.11478 3.67865,3.23414c0.09675,0.24026 0.34293,1.21798 0.34293,1.36256c0,0.09299 -0.98739,0.11556 -5.05573,0.11556l-5.05573,0l0.04838,-0.33594c0.34669,-2.39295 1.8619,-4.01943 4.06565,-4.36289c0.99223,-0.1548 0.97718,-0.1548 1.97585,-0.01344m-50.80665,9.25844c-0.00484,2.60365 -0.43484,3.8614 -1.62379,4.75365c-2.21504,1.66141 -6.11836,1.30183 -6.98643,-0.64446c-0.81055,-1.81783 0.17254,-3.60501 2.34296,-4.25915c0.8514,-0.25639 1.06748,-0.29778 3.30348,-0.63533c1.12338,-0.16931 2.45691,-0.53266 2.64934,-0.72133c0.2795,-0.27413 0.31766,-0.09084 0.31444,1.50661m-24.49764,19.56124c-2.87294,0.4128 -4.40858,3.95278 -3.01108,6.93913c1.34429,2.87348 5.81038,3.11481 7.26109,0.39291c0.27681,-0.51923 0.57244,-1.57165 0.48268,-1.72c-0.0946,-0.15749 -1.82428,-0.07525 -1.87749,0.08923c-0.4558,1.41578 -0.91805,1.82428 -2.06508,1.82428c-1.79848,0 -2.8036,-1.97424 -2.13549,-4.19411c0.57674,-1.91458 3.14384,-2.33651 3.91999,-0.64446l0.20156,0.43914l0.91859,0l0.91859,0l0,-0.31928c0,-0.82345 -0.83313,-1.92801 -1.81998,-2.41069c-0.89225,-0.43699 -1.70603,-0.55255 -2.79339,-0.39614m-12.48613,0.32895c-0.04676,0.08708 -0.18544,0.44021 -0.30853,0.78368c-0.22898,0.64016 -1.44534,3.88613 -1.57756,4.20809c-0.20586,0.50364 -0.30208,0.75358 -0.59448,1.55069c-0.17576,0.4773 -0.4171,1.12069 -0.53696,1.42868c-0.301,0.774 -0.3354,0.73853 0.71165,0.73853c1.07554,0 1.01426,0.04193 1.34698,-0.93364c0.38969,-1.14434 0.18006,-1.03738 2.02906,-1.03738c1.21045,0 1.6211,0.02795 1.64851,0.1118c0.02043,0.06181 0.17093,0.49504 0.33486,0.9632l0.29778,0.85086l1.0062,0.02526c1.18895,0.0301 1.13628,0.14029 0.60361,-1.25399c-0.48966,-1.28248 -1.0793,-2.85305 -1.52274,-4.05651c-0.18114,-0.49289 -0.36389,-0.97664 -0.40528,-1.075c-0.04139,-0.09836 -0.24671,-0.64285 -0.45634,-1.20938c-0.20909,-0.56653 -0.41871,-1.08038 -0.46494,-1.14219c-0.1462,-0.19458 -2.00488,-0.15319 -2.11184,0.0473m25.2926,-0.0473c-0.02365,0.06181 -0.03225,2.0468 -0.01935,4.4118l0.02311,4.3l0.8514,0l0.85086,0l0.02311,-4.4118l0.02311,-4.4118l-0.85463,0c-0.60093,0 -0.86699,0.03279 -0.89763,0.1118m2.95786,-0.00323c-0.02419,0.06343 -0.03386,2.05003 -0.02096,4.41503l0.02311,4.3l0.8514,0l0.85086,0l0,-4.38923l0,-4.38976l-0.8299,-0.0258c-0.61383,-0.01881 -0.84173,0.0043 -0.87451,0.08976m6.53815,0.00323c-0.02365,0.06181 -0.03225,2.0468 -0.01935,4.4118l0.02311,4.3l0.94063,0l0.94063,0l0.04461,-1.52274l0.04515,-1.52274l1.34375,-0.0559c1.6383,-0.06773 1.89254,-0.1161 2.48056,-0.47139c1.9909,-1.20293 1.54316,-4.49296 -0.69929,-5.14388c-0.53213,-0.15426 -5.04014,-0.14996 -5.0998,0.00484m35.93725,0.02688c-0.08009,0.20909 -0.06558,1.05028 0.02043,1.18626c0.05375,0.08385 0.30261,0.10804 0.91698,0.08923l0.84388,-0.0258l0,-0.67188l0,-0.67188l-0.86269,-0.02526c-0.72724,-0.0215 -0.87129,-0.00323 -0.91859,0.11933m36.89508,-0.0301c-0.02419,0.06343 -0.03333,2.05003 -0.02043,4.41503l0.02311,4.3l0.89601,0l0.89548,0l0,-4.38923l0,-4.38976l-0.87505,-0.0258c-0.6493,-0.01881 -0.88634,0.0043 -0.91913,0.08976m-68.30443,1.64045c0.90569,0.52514 0.74336,1.99359 -0.25316,2.28545c-0.18114,0.05321 -0.77293,0.08439 -1.31473,0.0688l-0.98524,-0.02741l-0.02526,-1.15993c-0.01398,-0.63801 -0.00376,-1.21636 0.02311,-1.2857c0.0817,-0.21285 2.14839,-0.11664 2.55528,0.11879m-18.85765,0.56975c-2.15914,0.4042 -3.26101,3.20941 -2.06346,5.25299c1.16799,1.99359 4.54241,1.9565 5.56474,-0.06128c0.31928,-0.63049 0.2666,-0.70251 -0.516,-0.70251c-0.63479,0 -0.65683,0.00806 -1.01104,0.35368c-0.89763,0.87774 -2.29781,0.59448 -2.63536,-0.5332c-0.16125,-0.53858 -0.19135,-0.53105 2.27685,-0.55793l2.23654,-0.02365l-0.0258,-0.70413c-0.07686,-2.0812 -1.75978,-3.41098 -3.82646,-3.02398m25.47213,0.00538c-0.39829,0.0774 -0.70413,0.27036 -1.10779,0.69768c-0.32949,0.34938 -0.37249,0.32411 -0.41979,-0.2451l-0.0258,-0.31336l-0.62511,-0.02688c-0.344,-0.01505 -0.71703,-0.00376 -0.8299,0.02419l-0.20425,0.0516l0.02365,3.15566l0.02311,3.15566l0.8514,0l0.85086,0l0.04461,-1.8361c0.06181,-2.53754 0.36819,-3.04601 1.83288,-3.04601l0.58588,0l0,-0.79604c0,-0.95406 -0.06074,-1.00459 -0.99975,-0.8213m3.49966,0.00108c-3.09761,0.559 -3.47494,5.40779 -0.5074,6.51396c0.98363,0.36658 2.66654,0.129 3.37389,-0.47623c0.42893,-0.36765 0.96696,-1.37063 0.79389,-1.48028c-0.3698,-0.23489 -1.33838,-0.08009 -1.67593,0.26768c-0.96696,0.99706 -2.69234,0.46386 -2.69234,-0.83205l0,-0.22683l2.23385,0c2.49454,0 2.37575,0.03386 2.34565,-0.66543c-0.09245,-2.13764 -1.76891,-3.47978 -3.87161,-3.10084m6.52525,-0.00054c-1.2169,0.16609 -1.88985,0.83205 -1.89791,1.87964c-0.0086,1.05243 0.45849,1.45716 2.18978,1.89576c1.62916,0.4128 1.92371,0.61705 1.70764,1.18519c-0.29294,0.77185 -1.81998,0.65736 -2.25804,-0.16931l-0.2107,-0.39721l-0.78421,0l-0.78421,0l0,0.31713c0,2.30373 5.19171,2.76813 5.81575,0.5203c0.43215,-1.55553 -0.17415,-2.20375 -2.5456,-2.72459c-1.00083,-0.2193 -1.29914,-0.4214 -1.29914,-0.87935c0,-0.7009 1.64959,-0.6149 2.00219,0.10481l0.16555,0.33809l0.68531,-0.04246c0.37679,-0.02365 0.73584,-0.04515 0.79765,-0.04784c0.29133,-0.0129 -0.03978,-0.95191 -0.4816,-1.36633c-0.57513,-0.53911 -1.83073,-0.78744 -3.10245,-0.61383m6.55051,-0.00269c-1.57488,0.22038 -2.42413,1.57165 -1.73075,2.75415c0.28971,0.49504 0.62834,0.66596 2.02369,1.02394c1.61841,0.41441 1.91081,0.6192 1.69581,1.18519c-0.29186,0.76755 -1.76838,0.66113 -2.2661,-0.1634l-0.24349,-0.40313l-0.76379,0l-0.76379,0l0,0.31713c0,2.34189 5.17666,2.76329 5.83349,0.47461c0.43484,-1.51521 -0.17791,-2.15538 -2.56388,-2.6789c-1.00029,-0.2193 -1.2986,-0.4214 -1.2986,-0.87935c0,-0.68961 1.84685,-0.57943 2.02261,0.12094c0.06396,0.2537 0.043,0.24671 0.84388,0.27359c0.97073,0.03279 1.06586,-0.07364 0.72616,-0.8084c-0.46225,-0.99868 -1.78988,-1.4577 -3.51525,-1.21636m13.62885,0.00269c-1.76945,0.27036 -2.81113,1.9135 -2.51819,3.97213c0.57351,4.02695 6.55858,3.51525 6.58814,-0.56384c0.0172,-2.42789 -1.60336,-3.78508 -4.06995,-3.40829m15.44023,0c-0.39614,0.0946 -0.85893,0.39829 -1.18089,0.77508l-0.27466,0.32143l-0.02741,-0.47891l-0.02741,-0.47891l-0.80625,0l-0.80625,0l0,3.18039l0,3.17985l0.8514,0l0.85086,0l0.04891,-1.8361c0.02688,-1.0105 0.08385,-1.91726 0.12631,-2.01563c0.30154,-0.69499 0.84065,-1.03039 1.65765,-1.03039l0.54126,0l0,-0.79658c0,-0.95353 -0.086,-1.02716 -0.95353,-0.82023m4.93963,-0.0301c-0.40044,0.09944 -0.73369,0.25854 -1.04275,0.49826c-0.4085,0.31605 -0.41764,0.31551 -0.45204,-0.03816l-0.02795,-0.29133l-0.80625,0l-0.80625,0l-0.02365,3.20565l-0.02365,3.20619l0.87505,-0.0258l0.87451,-0.0258l0.04945,-2.06024c0.06235,-2.60365 0.16985,-2.92239 1.032,-3.05139c1.18196,-0.17738 1.32494,0.12363 1.38191,2.91701l0.04461,2.19461l0.86215,0.0258c1.05995,0.03118 0.96804,0.28918 0.93095,-2.60526c-0.03601,-2.77941 -0.14889,-3.20565 -0.97718,-3.6894c-0.36765,-0.215 -1.46576,-0.36604 -1.89093,-0.26015m6.13664,0.02688c-0.94278,0.13169 -1.61626,0.56653 -1.97961,1.27925c-0.35045,0.68693 -0.21231,0.87451 0.64715,0.8772c0.73906,0.00215 0.93256,-0.07364 1.05458,-0.41119c0.32788,-0.90623 2.15914,-0.71004 2.15914,0.23166c0,0.40743 -0.31551,0.5848 -1.27119,0.71273c-2.34673,0.31498 -2.93045,0.7267 -2.93636,2.07045c-0.00753,1.72161 2.08228,2.57731 3.81518,1.56144c0.46655,-0.27359 0.46709,-0.27359 0.57136,0.00161c0.08278,0.21769 0.11019,0.22414 0.94923,0.22414l0.86376,0l-0.06773,-0.24671c-0.03655,-0.13545 -0.09191,-1.3545 -0.12201,-2.70954c-0.05751,-2.5542 -0.07149,-2.64343 -0.47246,-3.01753c-0.5332,-0.49665 -1.9479,-0.74928 -3.21103,-0.57351m-101.47087,0.2537c0.0258,0.08654 0.24833,0.74121 0.4945,1.45609l0.44666,1.2986l-1.03361,0.02526c-1.16208,0.02849 -1.15939,0.02956 -1.02716,-0.31336c0.05268,-0.13706 0.24241,-0.67241 0.42086,-1.19003c0.53428,-1.54908 0.58641,-1.64421 0.69875,-1.27656m69.58422,0.01344c-0.06128,0.11449 -0.0946,1.33623 -0.0946,3.48623c0,3.6464 0.02795,3.47655 -0.58319,3.526l-0.35744,0.02903l-0.0258,0.73906l-0.02634,0.73906l0.78744,-0.00215c2.01939,-0.00645 2.1113,-0.24456 2.06884,-5.37285l-0.02688,-3.26961l-0.82399,-0.0258c-0.74283,-0.02311 -0.83313,-0.00806 -0.91805,0.15104m10.49845,-0.06128c-0.20318,0.24671 -0.07848,4.70151 0.14781,5.2847c0.52621,1.35611 2.71438,1.67378 3.83184,0.55685c0.22468,-0.22468 0.26499,-0.19511 0.31605,0.23113c0.02634,0.22038 0.03978,0.2236 0.83313,0.2236l0.80625,0l0,-3.17985l0,-3.18039l-0.85086,0l-0.8514,0l-0.04515,2.10539c-0.05859,2.709 -0.18436,3.00086 -1.2943,3.00086c-1.04705,0 -1.13466,-0.21769 -1.20508,-3.00086l-0.05321,-2.10539l-0.77024,-0.0258c-0.54556,-0.01828 -0.79765,0.00806 -0.86484,0.08976m-59.33839,1.30021c0.25048,0.18544 0.53804,0.68209 0.54503,0.94278c0.0043,0.14244 -0.11825,0.15641 -1.3502,0.15641l-1.35504,0l0.05375,-0.26821c0.18006,-0.903 1.37278,-1.37331 2.10646,-0.83098m28.70411,-0.12148c0.45526,0.19404 0.99438,0.97771 0.80356,1.16853c-0.1505,0.1505 -2.71008,0.0516 -2.71008,-0.10428c0.00161,-0.77185 1.12338,-1.39804 1.90651,-1.06425m26.67935,-0.0215c1.43405,0.47891 1.51091,3.29488 0.10589,3.89634c-0.6622,0.28326 -1.4448,-0.01774 -1.78719,-0.688c-0.23865,-0.46601 -0.301,-1.98284 -0.09675,-2.3478c0.44236,-0.79174 1.07178,-1.09596 1.77805,-0.86054m27.22438,2.62891c0,1.02233 -0.51385,1.52543 -1.49479,1.46308c-1.30989,-0.08385 -1.2771,-1.46146 0.03924,-1.64314c0.23381,-0.03225 0.5461,-0.09191 0.69391,-0.13169c0.64715,-0.17576 0.76164,-0.129 0.76164,0.31175" id="path0"/>
   <path fill-rule="evenodd" fill="#ffffff" d="m49.99999,87.79049c0,13.68099 0.01935,24.85508 0.04246,24.83143c0.02365,-0.02365 0.08493,-0.34239 0.13599,-0.70896c0.73745,-5.28363 4.3301,-9.75993 9.40679,-11.72019c1.31688,-0.50848 2.48003,-0.73906 5.24063,-1.03953c1.13359,-0.12309 2.38328,-0.26338 2.77726,-0.31121c0.39399,-0.04838 1.09973,-0.13223 1.56789,-0.18651c3.98449,-0.46279 3.81356,-0.23489 5.52711,-7.38633c0.56706,-2.36661 1.97155,-3.39109 4.11725,-3.00301c3.91246,0.70735 7.26861,2.76974 9.64383,5.9254c0.2752,0.3655 1.3158,2.09625 1.3158,2.1887c0,0.01935 0.10481,0.26821 0.23328,0.55255c0.33433,0.74175 0.36174,0.81324 0.56008,1.45824c0.7568,2.46444 0.84979,5.06916 0.27036,7.61476c-0.2193,0.96374 -0.4429,1.72215 -0.54019,1.8318c-0.04139,0.04676 -0.07579,0.13545 -0.07579,0.19726c0,0.06128 -0.18759,0.50686 -0.41764,0.98954c-1.55284,3.26209 -4.31613,5.9168 -7.55779,7.26109c-0.60523,0.25101 -0.96643,0.37786 -1.83395,0.64339c-0.62081,0.19028 -1.76139,0.36604 -4.14305,0.63801c-0.40635,0.04676 -1.07178,0.1247 -1.47813,0.17361c-0.40635,0.04891 -1.64583,0.19135 -2.75469,0.31605c-1.10833,0.1247 -2.11614,0.27144 -2.23976,0.3268c-0.65951,0.29348 -0.86269,0.42033 -1.21421,0.75895c-0.51761,0.4988 -0.77185,1.04275 -1.06049,2.27148c-0.215,0.91375 -0.6923,2.89121 -1.10134,4.56499c-0.7009,2.8638 -3.7023,3.26155 -8.13883,1.07823c-4.18014,-2.05755 -7.16918,-5.90981 -7.96736,-10.26894c-0.07955,-0.43645 -0.17845,-0.95514 -0.2193,-1.1524c-0.04139,-0.19673 -0.07955,6.40431 -0.08546,14.66945l-0.01075,15.02743l62.12264,0l62.1221,0l0.02634,-0.73906l0.0258,-0.73906l0.35744,-0.02903c0.61168,-0.04945 0.58319,0.12255 0.58319,-3.54804c0,-3.95493 -0.08654,-3.65178 1.032,-3.61576l0.80464,0.02634l0.02688,3.26961c0.03763,4.54241 0.0086,4.71226 -0.87828,5.1643l-0.40313,0.20586l44.59046,0.00269l44.58993,0.00215l0,-41.20798l0,-41.20851l-107.5,0l-107.5,0l0,24.87443m68.21789,4.68109c5.39113,1.17498 8.21891,4.59831 8.21891,9.95074c0,4.67894 -2.27148,8.07486 -6.33766,9.47613c-1.74258,0.60093 -3.24704,0.73638 -8.16463,0.73638l-3.61415,0l-0.02311,5.57656l-0.02311,5.57656l-3.49375,0l-3.49375,0l-0.02473,-15.54289c-0.01344,-8.5484 -0.00215,-15.63534 0.02526,-15.74929l0.04999,-0.2064l8.17161,0.03225c6.2952,0.02526 8.2947,0.05966 8.70911,0.14996m41.05264,5.1342l0.02311,3.38034l2.26126,0.02365l2.26073,0.02419l0,2.10485l0,2.10539l-2.2618,0.02419l-2.26234,0.02365l0,6.10224c0,7.27506 -0.01236,7.18638 1.0965,7.56908c0.50418,0.17415 2.32254,0.23059 3.0917,0.09621l0.38055,-0.06665l0,2.42198l0,2.42251l-0.24618,0.10051c-0.27843,0.11449 -5.20246,0.16125 -5.8007,0.05536c-1.93339,-0.34185 -2.73588,-0.68746 -3.5905,-1.54639c-1.27226,-1.27818 -1.29161,-1.43083 -1.29161,-10.03996l0,-7.11435l-1.85868,-0.02419l-1.85921,-0.02419l0,-2.10539l0,-2.10485l1.85921,-0.02419l1.85868,-0.02419l0,-3.40399l0,-3.40345l3.15781,0.02365l3.15781,0.02365l0.02365,3.38034m15.89871,-0.04354l0.02365,3.38195l2.28438,0.04461l2.28438,0.04515l0,2.10485l0,2.10539l-2.28438,0.04461l-2.28438,0.04515l0,6.1361c0,6.69026 -0.00806,6.58223 0.51331,7.1423c0.43,0.46225 1.65926,0.62726 3.51794,0.47246l0.5375,-0.04461l0.02365,2.39779l0.02365,2.39833l-0.24779,0.10213c-0.37786,0.15534 -5.3449,0.15265 -6.2049,-0.0043c-2.49454,-0.45419 -3.86839,-1.58831 -4.35375,-3.59534c-0.09406,-0.38861 -0.11986,-2.02853 -0.12201,-7.76956l-0.00323,-7.27668l-1.90383,-0.02419l-1.90383,-0.02419l0,-2.10539l0,-2.10485l1.88125,-0.04515l1.88125,-0.04461l0.02365,-3.38195l0.02365,-3.38141l3.13309,0l3.13309,0l0.02365,3.38141m-66.82899,4.88265l0.02311,4.68055l3.31476,0c4.03663,0 4.92081,-0.11503 6.0759,-0.79228c2.6703,-1.5652 2.6101,-6.39948 -0.09729,-7.83191c-1.21905,-0.645 -1.93608,-0.73315 -5.95711,-0.7353l-3.38249,-0.00215l0.02311,4.68109m-32.49564,-4.53919c-2.02369,0.49074 -3.04118,1.54854 -3.56954,3.71036c-0.25316,1.03523 -0.72509,2.99603 -1.08898,4.52414c-0.2967,1.24324 -0.48321,1.6641 -0.86269,1.9436c-0.559,0.41173 -0.35851,0.37679 -5.85553,1.01964c-6.16083,0.72079 -5.87434,9.75778 0.30853,9.73681c2.3693,-0.00806 3.65769,-1.3674 4.43814,-4.6827c0.3784,-1.6082 0.90031,-3.8012 1.04759,-4.40105c0.3311,-1.3502 0.62995,-1.46953 4.9106,-1.96134c2.83746,-0.32573 3.57545,-0.58104 4.63755,-1.60336c1.37331,-1.32118 1.92318,-3.38894 1.32333,-4.97886c-0.84656,-2.24514 -3.31154,-3.78669 -5.289,-3.30724m63.95659,2.54668c2.6703,0.29831 3.3755,0.4687 4.83374,1.16691c1.10886,0.53051 2.22633,1.58778 2.68428,2.53861c0.59716,1.24001 0.59501,1.20991 0.59555,9.05903c0,8.1528 0.0559,9.02678 0.66919,10.46029c0.06396,0.14943 -0.10589,0.15641 -3.14169,0.13438l-3.20888,-0.02365l-0.07471,-0.31336c-0.04085,-0.17254 -0.13061,-0.61006 -0.19941,-0.97234c-0.15373,-0.81324 -0.10696,-0.78368 -0.57459,-0.36066c-3.64586,3.30079 -11.40736,3.05031 -13.82934,-0.44613c-1.52059,-2.19461 -1.5867,-5.66203 -0.14889,-7.80934c1.33784,-1.99735 3.66199,-2.9111 8.8623,-3.48408c4.20701,-0.46386 5.28416,-1.02609 5.28524,-2.75791c0.00054,-1.8877 -0.96374,-2.7864 -3.19221,-2.97453c-2.83961,-0.23973 -4.41126,0.6751 -4.8762,2.83639l-0.1204,0.56008l-3.10191,0c-1.70603,0 -3.12234,-0.02043 -3.14706,-0.04515c-0.1419,-0.14136 0.27466,-2.06561 0.59878,-2.76598c1.2427,-2.68804 3.83668,-4.2398 7.8819,-4.71656c0.44344,-0.05214 0.84656,-0.10965 0.89601,-0.12846c0.1935,-0.0731 2.54184,-0.043 3.30831,0.04246m53.57693,0.04676c2.55474,0.38485 4.35483,1.29108 6.03075,3.03688c1.6211,1.68829 2.58161,3.6765 3.14921,6.51504c0.13975,0.69983 0.24725,2.5972 0.18651,3.30025l-0.04999,0.58265l-8.19688,0.04461l-8.19688,0.04461l0.02903,0.58265c0.10481,2.10646 1.09274,3.81571 2.62569,4.5408c2.69288,1.27388 6.64941,0.27036 7.64594,-1.93876c0.20909,-0.4644 0.29401,-0.47569 3.24758,-0.43753c2.68374,0.0344 2.51819,-0.01774 2.26019,0.71756c-1.6426,4.67786 -5.09604,6.93966 -10.56779,6.92085c-6.36991,-0.02258 -10.50275,-3.5561 -11.46488,-9.80293c-1.03254,-6.70155 3.01538,-12.95214 9.04613,-13.96909c0.3698,-0.06235 0.83313,-0.14674 1.03039,-0.18759c0.51224,-0.10589 2.3822,-0.07686 3.225,0.04999m25.35226,-0.01613l0.44774,0.10428l0.02365,2.94281l0.02365,2.94335l-0.33701,-0.05536c-2.54453,-0.4171 -4.86115,0.08009 -6.13879,1.31741c-0.42624,0.4128 -1.14111,1.37546 -1.14111,1.53671c0,0.02741 -0.07579,0.22091 -0.1677,0.42946c-0.16448,0.37303 -0.26714,0.6966 -0.47623,1.49963c-0.0731,0.28219 -0.11449,2.23761 -0.13814,6.51719l-0.03333,6.11406l-3.17609,0l-3.17609,0l0.02258,-11.3993l0.02311,-11.3993l2.95625,0l2.95625,0l0.02419,1.99305c0.02526,2.10163 0.06289,2.2575 0.38808,1.6125c1.40556,-2.78909 5.20945,-4.78536 7.91899,-4.15649m16.8173,-0.02258c3.2852,0.49826 5.17451,1.9049 6.04956,4.50425c0.61006,1.81191 0.6622,2.74663 0.63103,11.34286l-0.02741,7.48039l-3.1003,0.02365l-3.10084,0.02365l-0.05913,-0.57728c-0.03225,-0.31766 -0.05751,-3.51256 -0.05536,-7.10091c0.0043,-7.19766 -0.01398,-7.49168 -0.53535,-8.74351c-1.33623,-3.20995 -6.91118,-2.55259 -7.81525,0.92128c-0.04461,0.17254 -0.14566,0.55524 -0.22414,0.85086c-0.12255,0.46118 -0.1505,1.53671 -0.19619,7.57015l-0.05268,7.03211l-3.13578,0l-3.13524,0l0,-11.37726l0,-11.37673l2.95625,0l2.95625,0l0.04461,1.54209c0.04891,1.67646 0.0516,1.68184 0.51385,1.01104c1.60336,-2.32684 5.031,-3.62006 8.2861,-3.12664m20.35943,-0.00538c3.3411,0.43968 5.02885,1.15724 6.5274,2.77565c0.99384,1.07339 1.75924,2.86864 1.75924,4.12531l0,0.35421l-2.97076,-0.02365l-2.97076,-0.02365l-0.11073,-0.5375c-0.36174,-1.75333 -1.54746,-2.42036 -4.29463,-2.4166c-2.04143,0.00323 -2.93851,0.40581 -3.25456,1.46039c-0.43645,1.45716 0.89816,2.62246 3.65769,3.19383c0.17254,0.03601 0.45473,0.09675 0.62726,0.13491c0.17254,0.03816 0.63586,0.13814 1.02985,0.22199c2.03981,0.43376 4.27313,1.04329 4.97188,1.35773c1.79686,0.8084 2.74555,1.61465 3.46419,2.9455c0.93955,1.73881 0.51923,5.39811 -0.79873,6.9574c-0.11126,0.13115 -0.33433,0.40044 -0.49611,0.59878c-0.71864,0.87881 -2.2575,1.78343 -3.96084,2.32791c-3.07826,0.98363 -8.4237,0.61813 -11.24235,-0.76863c-2.46175,-1.21153 -4.40535,-4.22045 -4.15219,-6.42796l0.03118,-0.26875l2.77673,-0.02473c3.19705,-0.02903 3.18039,-0.03064 3.18039,0.34884c0,1.2728 1.23303,2.7563 2.62246,3.15405c1.03845,0.29778 1.24001,0.32895 2.09088,0.32626c2.3564,-0.0086 3.91676,-0.96159 4.10973,-2.51013c0.22091,-1.77483 -1.2728,-2.63321 -6.53869,-3.75766c-5.8523,-1.24969 -7.71743,-2.81274 -7.69593,-6.45c0.01505,-2.60634 0.87183,-4.2527 2.88369,-5.5384c1.92801,-1.23249 5.84048,-1.91834 8.75373,-1.5351m-65.52555,4.79343c-2.20375,0.34346 -3.71896,1.96994 -4.06565,4.36289l-0.04838,0.33594l5.05573,0c4.06834,0 5.05573,-0.02258 5.05573,-0.11556c0,-0.41979 -0.29616,-1.29645 -0.7568,-2.24138c-0.94869,-1.94521 -2.7176,-2.73534 -5.24063,-2.34189m-49.14524,7.73839c-0.19243,0.18866 -1.52596,0.55201 -2.64934,0.72133c-2.236,0.33755 -2.45208,0.37894 -3.30348,0.63533c-1.81138,0.54556 -2.5284,1.39051 -2.54076,2.99441c-0.01613,1.98553 1.16315,2.89981 3.75014,2.90841c3.58029,0.01129 5.04981,-1.6598 5.05788,-5.75286c0.00323,-1.59745 -0.03494,-1.78074 -0.31444,-1.50661m-22.66046,21.06033c1.59853,0.22521 3.09063,1.58401 3.09063,2.81435l0,0.31928l-0.91859,0l-0.91859,0l-0.20156,-0.43914c-0.77615,-1.69205 -3.34325,-1.27011 -3.91999,0.64446c-0.66811,2.21988 0.33701,4.19411 2.13549,4.19411c1.14703,0 1.60928,-0.4085 2.06508,-1.82428c0.05321,-0.16448 1.78289,-0.24671 1.87749,-0.08923c0.08976,0.14835 -0.20586,1.20078 -0.48268,1.72c-1.45071,2.7219 -5.9168,2.48056 -7.26109,-0.39291c-1.3975,-2.98635 0.13814,-6.52633 3.01108,-6.93913c0.74336,-0.10696 0.81324,-0.10696 1.52274,-0.00753m-11.89703,0.28918c0.04623,0.06181 0.25585,0.57566 0.46494,1.14219c0.20963,0.56653 0.41495,1.11101 0.45634,1.20938c0.04139,0.09836 0.22414,0.58211 0.40528,1.075c0.44344,1.20346 1.03308,2.77404 1.52274,4.05651c0.53266,1.39428 0.58534,1.28409 -0.60361,1.25399l-1.0062,-0.02526l-0.29778,-0.85086c-0.16394,-0.46816 -0.31444,-0.90139 -0.33486,-0.9632c-0.02741,-0.08385 -0.43806,-0.1118 -1.64851,-0.1118c-1.849,0 -1.63938,-0.10696 -2.02906,1.03738c-0.33271,0.97556 -0.27144,0.93364 -1.34698,0.93364c-1.04705,0 -1.01265,0.03548 -0.71165,-0.73853c0.11986,-0.30799 0.3612,-0.95138 0.53696,-1.42868c0.2924,-0.79711 0.38861,-1.04705 0.59448,-1.55069c0.13223,-0.32196 1.34859,-3.56793 1.57756,-4.20809c0.36281,-1.01426 0.25908,-0.94278 1.36471,-0.94278c0.67241,0 0.9976,0.0344 1.05565,0.1118m24.9099,4.3l-0.02311,4.4118l-0.85086,0l-0.8514,0l-0.02311,-4.3c-0.0129,-2.365 -0.0043,-4.34999 0.01935,-4.4118c0.03064,-0.07901 0.2967,-0.1118 0.89763,-0.1118l0.85463,0l-0.02311,4.4118m2.93314,0.02258l0,4.38923l-0.85086,0l-0.8514,0l-0.02311,-4.3c-0.0129,-2.365 -0.00323,-4.3516 0.02096,-4.41503c0.03279,-0.08546 0.26069,-0.10858 0.87451,-0.08976l0.8299,0.0258l0,4.38976m9.93354,-4.32741c2.24245,0.65091 2.69019,3.94095 0.69929,5.14388c-0.58803,0.35529 -0.84226,0.40366 -2.48056,0.47139l-1.34375,0.0559l-0.04515,1.52274l-0.04461,1.52274l-0.94063,0l-0.94063,0l-0.02311,-4.3c-0.0129,-2.365 -0.0043,-4.34999 0.01935,-4.4118c0.05966,-0.1548 4.56768,-0.1591 5.0998,-0.00484m32.61873,0.60953l0,0.67188l-0.84388,0.0258c-0.97019,0.0301 -0.98954,0.0172 -0.99115,-0.66811c-0.00269,-0.76325 -0.01183,-0.75626 0.97234,-0.7267l0.86269,0.02526l0,0.67188m36.90798,3.71789l0,4.38923l-0.89548,0l-0.89601,0l-0.02311,-4.3c-0.0129,-2.365 -0.00376,-4.3516 0.02043,-4.41503c0.03279,-0.08546 0.26983,-0.10858 0.91913,-0.08976l0.87505,0.0258l0,4.38976m-72.65388,-2.80414c-0.02688,0.06934 -0.03709,0.64769 -0.02311,1.2857l0.02526,1.15993l0.98524,0.02741c0.5418,0.01559 1.13359,-0.01559 1.31473,-0.0688c0.99653,-0.29186 1.15885,-1.76031 0.25316,-2.28545c-0.40689,-0.23543 -2.47358,-0.33164 -2.55528,-0.11879m-14.14378,0.93095c0.96535,0.45634 1.62218,1.5523 1.66786,2.78156l0.0258,0.70413l-2.23654,0.02365c-2.4682,0.02688 -2.4381,0.01935 -2.27685,0.55793c0.33755,1.12768 1.73774,1.41094 2.63536,0.5332c0.35421,-0.34561 0.37625,-0.35368 1.01104,-0.35368c0.7826,0 0.83528,0.07203 0.516,0.70251c-1.02233,2.01778 -4.39675,2.05486 -5.56474,0.06128c-1.72753,-2.94765 1.21099,-6.43549 4.22206,-5.01058m24.11171,-0.26553c0.19028,0.05106 0.20156,0.10051 0.20156,0.84979l0,0.79604l-0.58588,0c-1.46469,0 -1.77106,0.50848 -1.83288,3.04601l-0.04461,1.8361l-0.85086,0l-0.8514,0l-0.02311,-3.15566l-0.02365,-3.15566l0.20425,-0.0516c0.11288,-0.02795 0.4859,-0.03924 0.8299,-0.02419l0.62511,0.02688l0.0258,0.31336c0.0473,0.56921 0.0903,0.59448 0.41979,0.2451c0.58749,-0.62243 1.29108,-0.89064 1.90598,-0.72616m4.81546,0.24886c1.00298,0.45688 1.70226,1.60283 1.75763,2.88154c0.0301,0.69929 0.14889,0.66543 -2.34565,0.66543l-2.23385,0l0,0.22683c0,1.29591 1.72538,1.82911 2.69234,0.83205c0.32196,-0.33164 0.35153,-0.34239 0.94761,-0.34078c0.86753,0.00161 0.89548,0.03655 0.56545,0.69714c-0.96428,1.92909 -4.2957,2.06293 -5.4653,0.21876c-1.87319,-2.95356 0.99008,-6.58814 4.08178,-5.18096m6.85313,-0.02365c0.80679,0.3526 1.70764,1.75924 1.14219,1.78396c-0.06181,0.00269 -0.42086,0.02419 -0.79765,0.04784l-0.68531,0.04246l-0.16555,-0.33809c-0.3526,-0.71971 -2.00219,-0.80571 -2.00219,-0.10481c0,0.45795 0.29831,0.66005 1.29914,0.87935c2.37145,0.52084 2.97775,1.16906 2.5456,2.72459c-0.62404,2.24783 -5.81575,1.78343 -5.81575,-0.5203l0,-0.31713l0.78421,0l0.78421,0l0.2107,0.39721c0.43806,0.82668 1.9651,0.94116 2.25804,0.16931c0.21608,-0.56814 -0.07848,-0.77239 -1.70764,-1.18519c-1.73129,-0.4386 -2.19838,-0.84334 -2.18978,-1.89576c0.0129,-1.60014 2.40478,-2.52786 4.33978,-1.68345m6.53009,-0.00645c0.52299,0.23113 0.88258,0.56814 1.09381,1.02394c0.3397,0.73476 0.24456,0.84119 -0.72616,0.8084c-0.80088,-0.02688 -0.77991,-0.01989 -0.84388,-0.27359c-0.17576,-0.70036 -2.02261,-0.81055 -2.02261,-0.12094c0,0.45795 0.29831,0.66005 1.2986,0.87935c2.38596,0.52353 2.99871,1.16369 2.56388,2.6789c-0.65683,2.28868 -5.83349,1.86728 -5.83349,-0.47461l0,-0.31713l0.76379,0l0.76379,0l0.24349,0.40313c0.49773,0.82453 1.97424,0.93095 2.2661,0.1634c0.215,-0.56599 -0.0774,-0.77078 -1.69581,-1.18519c-2.00219,-0.51331 -2.57624,-1.16369 -2.15,-2.43649c0.41334,-1.23356 2.69933,-1.84739 4.2785,-1.14918m12.64899,-0.19189c3.62705,0.59394 3.5518,6.09525 -0.09084,6.65909c-2.00219,0.3096 -3.60018,-0.79926 -3.86893,-2.68481c-0.37571,-2.64289 1.37331,-4.39783 3.95976,-3.97428m14.81028,-0.02903c0.11449,0.04408 0.1419,0.20748 0.1419,0.8514l0,0.79658l-0.54126,0c-0.817,0 -1.35611,0.3354 -1.65765,1.03039c-0.04246,0.09836 -0.09944,1.00513 -0.12631,2.01563l-0.04891,1.8361l-0.85086,0l-0.8514,0l0,-3.17985l0,-3.18039l0.80625,0l0.80625,0l0.02741,0.47891l0.02741,0.47891l0.27466,-0.32143c0.53535,-0.62673 1.47221,-1.00566 1.99251,-0.80625m6.01893,0.26123c0.82829,0.48375 0.94116,0.90999 0.97718,3.6894c0.03709,2.89444 0.129,2.63644 -0.93095,2.60526l-0.86215,-0.0258l-0.04461,-2.19461c-0.05698,-2.79339 -0.19995,-3.09439 -1.38191,-2.91701c-0.86215,0.129 -0.96965,0.44774 -1.032,3.05139l-0.04945,2.06024l-0.87451,0.0258l-0.87505,0.0258l0.02365,-3.20619l0.02365,-3.20565l0.80625,0l0.80625,0l0.02795,0.29133c0.0344,0.35368 0.04354,0.35421 0.45204,0.03816c0.30906,-0.23973 0.64231,-0.39883 1.04275,-0.49826c0.42516,-0.10589 1.52328,0.04515 1.89093,0.26015m6.82518,-0.03548c0.44236,0.1892 0.77078,0.44989 0.94493,0.75035c0.06773,0.11664 0.12309,1.03576 0.1591,2.64289c0.0301,1.35504 0.08546,2.57409 0.12201,2.70954l0.06773,0.24671l-0.86376,0c-0.83904,0 -0.86645,-0.00645 -0.94923,-0.22414c-0.10428,-0.2752 -0.10481,-0.2752 -0.57136,-0.00161c-1.7329,1.01588 -3.8227,0.16018 -3.81518,-1.56144c0.00591,-1.34375 0.58964,-1.75548 2.93636,-2.07045c0.95568,-0.12793 1.27119,-0.3053 1.27119,-0.71273c0,-0.9417 -1.83126,-1.13789 -2.15914,-0.23166c-0.13814,0.38324 -0.93525,0.55309 -1.67055,0.35583c-0.58803,-0.15749 0.14459,-1.44641 1.05243,-1.85223c0.82668,-0.36926 2.66815,-0.39668 3.47548,-0.05106m-104.32983,0.14566c-0.05214,0.13545 -0.2408,0.66973 -0.41925,1.1868c-0.17845,0.51761 -0.36819,1.05296 -0.42086,1.19003c-0.13223,0.34293 -0.13491,0.34185 1.02716,0.31336l1.03361,-0.02526l-0.44666,-1.2986c-0.24618,-0.71488 -0.4687,-1.36955 -0.4945,-1.45609c-0.0688,-0.22575 -0.17039,-0.19296 -0.2795,0.08976m82.05045,1.90383c0.07041,2.78318 0.15803,3.00086 1.20508,3.00086c1.10994,0 1.23571,-0.29186 1.2943,-3.00086l0.04515,-2.10539l0.8514,0l0.85086,0l0,3.18039l0,3.17985l-0.80625,0c-0.79335,0 -0.80679,-0.00323 -0.83313,-0.2236c-0.05106,-0.42624 -0.09138,-0.4558 -0.31605,-0.23113c-0.78636,0.78636 -2.53754,0.8772 -3.37228,0.17469c-0.559,-0.47085 -0.65521,-0.97556 -0.68048,-3.57169c-0.0258,-2.74286 -0.0903,-2.56871 0.93794,-2.53431l0.77024,0.0258l0.05321,2.10539m-62.40698,-0.82238c-0.3956,0.18544 -0.64339,0.49611 -0.72616,0.91214l-0.05375,0.26821l1.35504,0c1.51253,0 1.50446,0.0043 1.19379,-0.6192c-0.32196,-0.64446 -1.07769,-0.88419 -1.76891,-0.56115m29.11853,-0.0645c-0.35744,0.10965 -0.52191,0.24564 -0.74981,0.61974c-0.37464,0.61383 -0.35421,0.62511 1.13789,0.62511c1.48511,0 1.47006,0.0043 1.33891,-0.38808c-0.24725,-0.74014 -0.95836,-1.09274 -1.72699,-0.85678m26.69548,0.02849c-0.27574,0.12309 -0.63049,0.47999 -0.82829,0.83474c-0.20425,0.36496 -0.1419,1.88179 0.09675,2.3478c0.60039,1.17444 2.2446,0.99438 2.65579,-0.29133c0.559,-1.7501 -0.59501,-3.48461 -1.92425,-2.89121m27.4125,2.29136c-0.14781,0.03978 -0.4601,0.09944 -0.69391,0.13169c-1.31634,0.18168 -1.34913,1.55929 -0.03924,1.64314c0.98094,0.06235 1.49479,-0.44075 1.49479,-1.46308c0,-0.44075 -0.11449,-0.48751 -0.76164,-0.31175" id="path1"/>
  </g>
  <text xml:space="preserve" text-anchor="start" font-family="sans-serif" font-size="24" id="svg_1" y="57" x="83" stroke-width="0" stroke="#000" fill="#000000">Silver sponsor</text>
 </g>
</svg>