<svg id="svg" version="1.1" xmlns="http://www.w3.org/2000/svg" xmlns:xlink="http://www.w3.org/1999/xlink" width="400" height="153.33333333333334" viewBox="0, 0, 400,153.33333333333334"><g id="svgg"><path id="path0" d="M50.488 47.217 C 47.440 48.082,46.796 49.177,45.072 56.421 C 42.785 66.036,43.297 65.643,31.250 67.009 C 21.337 68.133,20.458 68.295,17.288 69.573 C -1.254 77.048,-5.890 101.204,8.633 114.669 C 14.349 119.968,23.303 123.245,27.196 121.463 C 29.838 120.254,29.918 120.066,32.580 108.917 C 33.339 105.739,34.225 104.419,36.224 103.492 C 37.307 102.989,36.805 103.059,50.500 101.492 C 56.645 100.789,60.464 99.537,64.333 96.958 C 80.410 86.243,80.834 63.127,65.159 51.961 C 60.613 48.723,53.401 46.391,50.488 47.217 M95.599 55.029 C 95.242 55.538,95.186 112.569,95.542 113.054 C 95.733 113.314,96.272 113.334,102.000 113.294 L 108.250 113.250 108.333 103.083 C 108.379 97.492,108.477 92.823,108.552 92.708 C 108.655 92.548,110.144 92.500,115.052 92.499 C 129.252 92.495,134.132 91.069,138.337 85.695 C 145.580 76.438,142.687 61.948,132.583 56.876 C 128.466 54.809,128.150 54.777,110.724 54.709 L 95.864 54.650 95.599 55.029 M191.673 58.489 C 191.563 58.694,191.500 60.935,191.500 64.622 C 191.500 68.920,191.448 70.485,191.300 70.633 C 191.159 70.774,190.216 70.833,188.122 70.833 C 184.122 70.833,184.500 70.416,184.500 74.833 C 184.500 79.251,184.122 78.833,188.122 78.833 C 190.216 78.833,191.159 78.893,191.300 79.033 C 191.452 79.185,191.501 82.334,191.506 92.158 C 191.513 107.745,191.551 108.081,193.576 110.446 C 195.909 113.172,202.010 114.413,209.551 113.697 C 212.028 113.461,211.833 113.861,211.833 109.000 C 211.833 104.052,212.055 104.451,209.393 104.597 C 206.163 104.774,204.587 104.318,203.833 102.986 L 203.417 102.250 203.417 90.583 L 203.417 78.917 207.465 78.833 C 210.818 78.764,211.540 78.707,211.670 78.500 C 211.888 78.155,211.879 71.564,211.661 71.156 C 211.498 70.851,211.274 70.833,207.611 70.833 C 204.817 70.833,203.677 70.777,203.533 70.633 C 203.386 70.486,203.333 68.943,203.333 64.728 C 203.333 61.424,203.265 58.842,203.171 58.594 L 203.008 58.167 197.427 58.167 C 192.079 58.167,191.838 58.180,191.673 58.489 M221.367 58.367 C 221.219 58.515,221.167 60.080,221.167 64.378 C 221.167 68.065,221.104 70.306,220.994 70.511 C 220.833 70.813,220.614 70.833,217.583 70.833 C 213.625 70.833,214.000 70.398,214.000 74.993 L 214.000 78.508 214.428 78.671 C 214.663 78.760,216.185 78.833,217.811 78.833 C 219.888 78.833,220.826 78.893,220.967 79.033 C 221.119 79.185,221.167 82.387,221.170 92.408 C 221.173 108.462,221.160 108.360,223.572 110.754 C 226.043 113.206,229.383 113.983,236.567 113.776 C 241.997 113.620,241.501 114.114,241.497 108.864 C 241.494 104.150,241.810 104.583,238.381 104.583 C 234.695 104.583,233.918 104.269,233.215 102.492 C 232.858 101.589,232.655 79.811,232.998 79.170 C 233.171 78.847,233.336 78.833,237.006 78.833 C 241.954 78.833,241.500 79.244,241.500 74.762 C 241.500 70.407,241.968 70.834,237.196 70.831 C 235.108 70.829,233.305 70.758,233.167 70.670 C 232.953 70.536,232.910 69.624,232.869 64.471 C 232.833 59.960,232.770 58.396,232.619 58.300 C 232.265 58.075,221.595 58.138,221.367 58.367 M123.552 65.299 C 127.676 66.437,129.673 69.139,129.664 73.564 C 129.652 78.839,126.930 81.541,121.000 82.162 C 118.404 82.434,109.134 82.385,108.740 82.097 C 108.402 81.849,108.215 65.909,108.541 65.112 C 108.745 64.614,121.653 64.775,123.552 65.299 M52.250 65.507 C 59.608 68.229,60.476 77.551,53.767 81.806 C 52.360 82.698,51.198 82.964,46.000 83.583 C 40.157 84.278,40.272 84.258,39.379 84.771 C 38.199 85.449,37.979 86.029,36.403 92.591 C 34.600 100.099,34.144 101.097,31.810 102.656 C 24.654 107.434,15.456 99.031,19.325 91.250 C 21.268 87.342,23.258 86.362,31.167 85.418 C 38.978 84.485,38.276 85.181,40.410 76.253 C 41.984 69.670,42.264 68.928,43.750 67.414 C 45.951 65.173,49.309 64.419,52.250 65.507 M161.333 69.777 C 151.302 70.479,145.175 74.541,143.752 81.434 C 143.184 84.181,142.788 84.000,149.363 84.000 L 154.826 84.000 155.061 83.625 C 155.190 83.419,155.349 82.950,155.413 82.583 C 155.985 79.331,158.638 77.663,163.231 77.669 C 168.087 77.676,170.333 79.426,170.333 83.202 C 170.333 85.579,169.051 86.795,165.750 87.551 C 164.100 87.929,163.978 87.948,160.039 88.411 C 152.079 89.348,148.258 90.552,145.686 92.933 C 140.800 97.456,140.862 106.485,145.810 111.018 C 151.016 115.788,163.071 115.638,169.376 110.724 C 170.675 109.711,170.824 109.773,171.191 111.477 C 171.628 113.509,171.029 113.333,177.511 113.333 C 183.758 113.333,183.490 113.390,183.081 112.160 C 182.305 109.822,182.290 109.529,182.175 94.167 C 182.077 81.044,182.038 79.483,181.778 78.583 C 179.991 72.386,172.175 69.019,161.333 69.777 M260.917 69.850 C 248.869 71.103,240.804 81.458,241.846 94.333 C 242.869 106.966,250.897 114.409,263.500 114.409 C 272.823 114.409,278.484 111.121,282.098 103.604 C 283.830 100.002,284.023 100.171,278.167 100.171 C 273.041 100.171,273.347 100.100,272.410 101.510 C 269.092 106.501,259.968 107.181,256.013 102.734 C 254.403 100.922,252.912 95.746,253.833 95.163 C 253.986 95.067,259.860 95.004,268.938 95.003 C 281.999 95.000,283.818 94.970,284.002 94.748 C 284.340 94.340,284.112 88.997,283.669 86.917 C 281.164 75.175,272.464 68.649,260.917 69.850 M310.343 69.837 C 306.174 70.417,302.244 72.910,299.835 76.500 C 298.582 78.368,298.540 78.294,298.517 74.158 C 298.505 72.125,298.439 71.172,298.300 71.033 C 297.910 70.643,287.718 70.759,287.506 71.156 C 287.241 71.651,287.268 112.868,287.533 113.133 C 287.820 113.420,298.680 113.420,298.967 113.133 C 299.118 112.982,299.167 110.412,299.168 102.592 C 299.169 91.253,299.237 90.200,300.138 87.584 C 301.924 82.403,306.830 79.890,313.326 80.829 C 314.940 81.062,314.845 81.413,314.794 75.438 L 314.750 70.254 314.309 70.043 C 313.718 69.760,311.666 69.653,310.343 69.837 M340.042 69.844 C 335.992 70.371,332.060 72.558,329.917 75.478 C 328.991 76.739,328.833 76.443,328.833 73.436 C 328.833 71.945,328.769 71.169,328.633 71.033 C 328.385 70.785,318.389 70.750,318.000 70.996 C 317.687 71.194,317.527 112.428,317.837 113.007 C 318.108 113.513,329.057 113.516,329.327 113.011 C 329.442 112.797,329.500 108.649,329.501 100.719 C 329.502 86.758,329.596 85.609,330.949 82.936 C 333.429 78.040,342.050 77.542,344.558 82.150 C 345.748 84.337,345.729 84.080,345.828 99.250 C 345.877 106.767,345.977 113.010,346.052 113.125 C 346.263 113.451,357.217 113.424,357.489 113.097 C 357.891 112.613,357.628 83.460,357.202 81.250 C 355.569 72.785,349.328 68.637,340.042 69.844 M376.583 69.861 C 366.896 70.644,361.699 74.971,361.380 82.521 C 361.096 89.228,364.472 92.374,374.417 94.669 C 384.867 97.080,387.205 98.102,387.858 100.544 C 388.710 103.728,385.651 106.400,380.899 106.624 C 375.996 106.855,372.537 104.778,371.654 101.074 C 371.486 100.370,371.302 99.746,371.244 99.688 C 371.041 99.484,361.027 99.474,360.647 99.677 C 360.319 99.853,360.300 99.956,360.401 100.976 C 361.251 109.495,368.596 114.500,380.250 114.500 C 392.545 114.500,399.654 109.239,399.730 100.083 C 399.793 92.639,395.965 89.792,381.917 86.831 C 374.908 85.354,372.498 83.672,373.159 80.719 C 373.603 78.734,375.303 77.833,378.842 77.707 C 383.805 77.529,386.665 79.073,387.261 82.251 C 387.470 83.363,387.314 83.333,392.991 83.333 C 398.901 83.333,398.611 83.411,398.420 81.882 C 397.365 73.441,389.035 68.856,376.583 69.861 M265.667 78.863 C 267.979 79.299,269.795 80.772,270.973 83.167 C 271.673 84.590,272.364 86.892,272.212 87.290 C 272.146 87.460,270.284 87.494,262.940 87.460 L 253.750 87.417 253.699 86.893 C 253.626 86.137,254.112 84.405,254.719 83.263 C 256.678 79.576,260.756 77.937,265.667 78.863 M170.246 96.503 C 170.238 103.615,167.467 106.660,161.000 106.661 C 156.188 106.662,153.922 104.928,153.930 101.250 C 153.938 97.338,156.183 95.761,163.167 94.761 C 166.241 94.321,168.061 93.918,169.167 93.432 C 170.268 92.948,170.250 92.899,170.246 96.503 M125.000 132.335 C 116.463 133.495,115.712 147.045,124.061 149.268 C 128.434 150.433,132.883 147.834,133.437 143.792 C 133.565 142.860,133.275 142.667,131.750 142.667 C 130.380 142.667,130.079 142.844,129.745 143.849 C 128.119 148.744,121.949 146.493,121.934 141.000 C 121.919 135.615,127.435 133.125,129.670 137.507 C 130.040 138.232,130.846 138.468,132.277 138.272 C 133.546 138.098,133.639 137.731,132.843 136.047 C 131.893 134.039,129.971 132.685,127.583 132.341 C 126.301 132.157,126.312 132.157,125.000 132.335 M101.633 132.958 C 101.494 133.119,101.302 133.475,101.206 133.750 C 101.110 134.025,99.825 137.438,98.350 141.333 C 95.090 149.944,95.174 149.167,97.502 149.167 C 99.080 149.167,99.139 149.120,99.754 147.383 C 100.427 145.479,100.385 145.500,103.446 145.500 C 106.570 145.500,106.522 145.478,107.091 147.207 C 107.741 149.185,107.745 149.187,109.654 149.131 C 111.047 149.089,111.253 149.045,111.305 148.776 C 111.376 148.405,105.713 133.237,105.378 132.902 C 105.002 132.526,101.967 132.572,101.633 132.958 M148.833 132.830 C 148.617 132.967,148.583 134.050,148.583 140.917 C 148.583 147.783,148.617 148.867,148.833 149.004 C 149.199 149.235,151.394 149.206,151.633 148.967 C 151.921 148.679,151.921 133.155,151.633 132.867 C 151.394 132.628,149.199 132.599,148.833 132.830 M154.200 132.867 C 153.912 133.155,153.912 148.679,154.200 148.967 C 154.320 149.087,154.904 149.167,155.667 149.167 C 157.480 149.167,157.333 149.893,157.333 140.917 C 157.333 131.940,157.480 132.667,155.667 132.667 C 154.904 132.667,154.320 132.746,154.200 132.867 M166.500 132.824 C 166.284 132.966,166.250 134.053,166.250 140.917 C 166.250 150.021,166.058 149.160,168.092 149.164 C 169.885 149.168,169.833 149.255,169.833 146.237 C 169.833 143.172,169.617 143.399,172.667 143.283 C 173.996 143.233,175.383 143.104,175.750 142.997 C 180.217 141.697,180.664 135.088,176.417 133.134 C 175.497 132.710,167.076 132.447,166.500 132.824 M233.367 132.867 C 233.053 133.181,233.104 135.107,233.430 135.232 C 233.911 135.417,236.092 135.341,236.300 135.133 C 236.410 135.023,236.500 134.513,236.500 134.000 C 236.500 132.778,236.361 132.667,234.833 132.667 C 234.070 132.667,233.487 132.746,233.367 132.867 M301.867 132.867 C 301.579 133.155,301.579 148.679,301.867 148.967 C 301.987 149.087,302.570 149.167,303.333 149.167 C 305.147 149.167,305.000 149.893,305.000 140.917 C 305.000 131.940,305.147 132.667,303.333 132.667 C 302.570 132.667,301.987 132.746,301.867 132.867 M174.600 135.873 C 176.094 136.672,176.159 139.009,174.713 139.956 C 174.024 140.408,170.365 140.497,170.053 140.070 C 169.702 139.589,169.749 136.108,170.112 135.745 C 170.496 135.361,173.820 135.456,174.600 135.873 M139.322 137.050 C 135.693 138.080,133.903 142.055,135.339 145.894 C 136.956 150.216,144.247 150.739,146.084 146.665 C 146.745 145.199,144.734 144.715,143.265 145.987 C 141.477 147.535,138.770 147.027,138.404 145.075 C 138.205 144.012,138.251 144.000,142.607 144.000 L 146.507 144.000 146.695 143.587 C 147.187 142.508,146.064 139.342,144.807 138.266 C 143.360 137.027,141.138 136.535,139.322 137.050 M186.835 137.030 C 186.515 137.122,185.843 137.488,185.342 137.844 C 184.420 138.498,184.175 138.488,184.169 137.798 C 184.165 137.376,183.640 137.167,182.583 137.167 C 180.876 137.167,181.000 136.700,181.000 143.139 C 181.000 149.588,180.890 149.168,182.575 149.164 C 184.328 149.160,184.237 149.344,184.333 145.626 C 184.450 141.118,185.100 140.000,187.604 140.000 C 188.669 140.000,188.833 139.790,188.833 138.428 C 188.833 136.989,188.294 136.612,186.835 137.030 M193.289 137.004 C 189.555 137.947,187.625 142.578,189.425 146.277 C 191.480 150.502,198.355 150.580,200.101 146.399 C 200.688 144.996,198.419 144.845,196.877 146.184 C 195.290 147.562,192.663 146.882,192.247 144.985 C 192.036 144.025,192.143 144.000,196.417 144.000 C 200.931 144.000,200.760 144.063,200.624 142.456 C 200.299 138.600,196.918 136.088,193.289 137.004 M205.467 137.005 C 202.564 137.494,201.023 140.519,202.703 142.432 C 203.394 143.219,203.741 143.377,206.167 144.004 C 209.211 144.790,209.750 145.160,209.332 146.170 C 208.735 147.612,206.135 147.464,205.130 145.931 C 204.705 145.282,204.439 145.172,203.281 145.169 C 201.825 145.165,201.545 145.599,202.148 146.926 C 203.976 150.950,212.495 150.070,212.802 145.824 C 212.969 143.505,212.042 142.638,208.485 141.790 C 206.346 141.280,205.708 140.974,205.561 140.385 C 205.198 138.941,208.786 138.704,209.242 140.141 C 209.654 141.441,212.693 140.928,212.325 139.620 C 211.731 137.504,208.903 136.425,205.467 137.005 M217.537 137.010 C 214.665 137.576,213.210 140.543,214.875 142.439 C 215.560 143.219,215.911 143.378,218.333 144.004 C 221.210 144.747,221.782 145.107,221.543 146.021 C 221.135 147.579,218.256 147.519,217.321 145.933 C 216.951 145.306,216.624 145.172,215.447 145.169 C 213.992 145.165,213.712 145.599,214.314 146.926 C 215.769 150.127,222.974 150.366,224.560 147.265 C 225.954 144.541,224.685 142.778,220.604 141.769 C 218.415 141.227,217.873 140.967,217.727 140.385 C 217.366 138.948,220.474 138.693,221.337 140.089 C 221.868 140.949,224.329 141.133,224.584 140.332 C 225.252 138.226,221.160 136.296,217.537 137.010 M242.705 137.081 C 239.726 137.920,238.087 140.523,238.401 143.915 C 239.073 151.188,249.657 151.465,250.681 144.236 C 251.366 139.396,247.331 135.776,242.705 137.081 M271.699 137.080 C 271.304 137.203,270.629 137.578,270.199 137.913 L 269.417 138.523 269.191 137.970 C 268.892 137.236,268.761 137.172,267.554 137.169 C 265.910 137.165,266.000 136.816,266.000 143.229 C 266.000 149.580,265.890 149.167,267.585 149.167 C 269.368 149.167,269.302 149.303,269.364 145.500 C 269.435 141.120,270.074 140.000,272.502 140.000 C 273.523 140.000,273.667 139.812,273.667 138.479 C 273.667 136.843,273.297 136.581,271.699 137.080 M280.907 136.989 C 280.627 137.057,280.013 137.328,279.543 137.592 L 278.688 138.072 278.269 137.619 C 277.812 137.127,276.191 136.963,275.489 137.339 C 275.092 137.552,274.976 148.576,275.367 148.967 C 275.644 149.244,278.070 149.235,278.301 148.956 C 278.408 148.826,278.497 147.292,278.530 144.997 C 278.596 140.357,278.814 139.794,280.637 139.549 C 282.622 139.283,283.000 140.143,283.000 144.931 C 283.000 149.333,282.935 149.167,284.669 149.167 C 286.619 149.167,286.565 149.314,286.456 144.288 C 286.352 139.514,286.224 138.902,285.108 137.873 C 284.119 136.963,282.470 136.615,280.907 136.989 M292.034 137.088 C 290.404 137.442,289.282 138.285,288.751 139.554 C 288.285 140.670,288.463 140.833,290.150 140.833 L 291.611 140.833 292.014 140.213 C 293.160 138.447,296.398 139.057,295.923 140.949 C 295.784 141.505,295.066 141.798,293.137 142.087 C 289.135 142.686,288.167 143.441,288.167 145.960 C 288.167 148.929,291.410 150.364,294.888 148.935 L 296.026 148.467 296.399 148.817 C 296.781 149.176,298.830 149.335,299.262 149.039 C 299.385 148.954,299.411 147.400,299.345 143.987 L 299.250 139.056 298.782 138.443 C 297.708 137.036,294.884 136.469,292.034 137.088 M233.454 137.375 C 233.206 137.561,233.172 138.235,233.130 143.805 C 233.079 150.636,233.100 150.500,232.063 150.500 C 231.392 150.500,231.167 150.921,231.167 152.179 L 231.167 153.333 232.694 153.333 C 234.482 153.333,235.360 152.950,236.027 151.876 C 236.565 151.011,236.748 137.760,236.227 137.379 C 235.849 137.103,233.819 137.100,233.454 137.375 M252.812 137.443 C 252.447 137.885,252.500 145.593,252.877 146.842 C 253.618 149.294,256.536 150.211,259.236 148.841 L 260.371 148.265 260.699 148.716 C 261.004 149.134,261.115 149.167,262.231 149.167 C 263.948 149.167,263.833 149.597,263.833 143.139 C 263.833 136.669,263.974 137.165,262.136 137.169 C 260.504 137.173,260.596 136.942,260.497 141.285 C 260.391 145.945,260.186 146.495,258.452 146.776 C 256.393 147.111,255.976 146.218,255.870 141.251 C 255.826 139.182,255.720 137.493,255.626 137.375 C 255.359 137.042,253.098 137.097,252.812 137.443 M104.593 140.029 C 105.512 142.786,105.554 142.694,103.404 142.631 C 101.395 142.573,101.425 142.633,102.257 140.299 C 103.492 136.836,103.528 136.832,104.593 140.029 M142.206 139.773 C 142.993 140.175,143.470 141.515,142.903 141.732 C 142.758 141.788,141.755 141.833,140.673 141.833 C 138.352 141.833,138.134 141.719,138.596 140.747 C 139.197 139.481,140.791 139.050,142.206 139.773 M196.412 139.996 C 197.813 141.312,197.363 141.833,194.827 141.833 C 192.564 141.833,192.333 141.777,192.333 141.230 C 192.333 139.725,195.201 138.858,196.412 139.996 M245.860 139.770 C 248.204 140.948,247.803 146.022,245.302 146.822 C 243.307 147.461,241.808 145.892,241.799 143.157 C 241.788 140.193,243.635 138.653,245.860 139.770 M295.899 143.930 C 296.725 146.084,293.608 148.300,292.006 146.699 C 290.805 145.498,291.579 144.404,293.965 143.928 C 295.493 143.624,295.781 143.624,295.899 143.930 " stroke="none" fill="#007dbd" fill-rule="evenodd"></path><path id="path1" d="M0.023 46.208 C 0.035 71.623,0.075 92.229,0.111 92.000 C 1.789 81.391,7.960 73.333,17.288 69.573 C 20.458 68.295,21.337 68.133,31.250 67.009 C 43.297 65.643,42.785 66.036,45.072 56.421 C 46.698 49.585,47.091 48.799,49.464 47.631 C 51.867 46.448,56.307 47.241,61.417 49.767 C 80.366 59.135,81.977 85.199,64.333 96.958 C 60.464 99.537,56.645 100.789,50.500 101.492 C 36.805 103.059,37.307 102.989,36.224 103.492 C 34.225 104.419,33.339 105.739,32.580 108.917 C 30.188 118.936,30.077 119.274,28.780 120.445 C 26.709 122.316,23.987 122.444,19.167 120.894 C 9.295 117.721,2.126 109.409,0.282 99.000 C 0.054 97.711,0.030 100.086,0.016 125.458 L 0.000 153.333 115.583 153.333 L 231.167 153.333 231.167 152.179 C 231.167 150.921,231.392 150.500,232.063 150.500 C 233.100 150.500,233.079 150.636,233.130 143.805 C 233.184 136.655,233.052 137.167,234.833 137.167 C 236.662 137.167,236.525 136.558,236.467 144.421 C 236.410 152.182,236.439 152.018,234.946 152.913 L 234.250 153.330 317.125 153.332 L 400.000 153.333 400.000 76.667 L 400.000 0.000 205.792 0.006 C 18.130 0.012,11.612 0.022,12.421 0.314 C 15.940 1.581,18.371 6.500,15.479 6.500 C 14.540 6.500,14.025 6.244,13.898 5.714 C 13.366 3.497,11.985 2.583,9.167 2.583 C 6.525 2.583,5.384 3.225,4.995 4.930 C 4.509 7.061,5.502 7.750,10.982 9.081 C 15.391 10.152,16.784 11.142,17.431 13.667 C 18.835 19.148,11.288 22.999,5.047 19.985 C 1.859 18.445,0.034 13.667,2.633 13.667 C 3.636 13.667,4.097 13.987,4.243 14.788 C 4.997 18.908,12.980 20.035,14.434 16.227 C 15.379 13.755,14.160 12.660,9.083 11.422 C 4.419 10.284,2.905 9.429,2.274 7.577 C 1.224 4.497,2.881 1.592,6.417 0.313 L 7.250 0.012 3.625 0.006 L 0.000 0.000 0.023 46.208 M131.467 0.533 C 131.755 0.822,131.755 20.011,131.467 20.300 C 131.116 20.651,129.374 20.557,129.255 20.182 C 129.046 19.523,128.735 19.450,128.054 19.900 C 125.007 21.911,120.238 20.571,118.680 17.265 C 115.276 10.040,121.867 2.544,128.035 6.626 C 128.938 7.224,128.973 7.125,129.031 3.817 C 129.070 1.637,129.142 0.813,129.312 0.608 C 129.586 0.278,131.157 0.224,131.467 0.533 M144.633 0.533 C 144.773 0.673,144.834 1.590,144.836 3.575 C 144.839 7.056,144.838 7.054,146.112 6.377 C 151.820 3.343,157.537 8.795,155.851 15.667 C 154.788 20.001,150.356 22.088,146.440 20.101 C 145.107 19.424,145.069 19.422,144.763 20.039 C 144.512 20.544,142.860 20.684,142.485 20.232 C 142.140 19.816,142.134 1.024,142.479 0.609 C 142.753 0.278,144.323 0.223,144.633 0.533 M29.079 6.013 C 32.757 7.389,34.443 12.927,32.480 17.184 C 30.961 20.480,26.946 21.796,23.596 20.095 C 21.961 19.265,22.006 19.190,22.003 22.758 C 22.001 24.743,21.940 25.660,21.800 25.800 C 21.563 26.037,20.025 26.063,19.667 25.837 C 19.356 25.640,19.194 6.906,19.498 6.337 C 19.869 5.644,21.733 5.714,22.006 6.432 C 22.198 6.937,22.278 6.934,23.271 6.379 C 24.917 5.457,27.208 5.313,29.079 6.013 M44.466 6.004 C 50.348 8.068,50.470 18.137,44.640 20.349 C 40.685 21.850,36.461 19.980,35.158 16.153 C 32.944 9.647,38.277 3.832,44.466 6.004 M60.651 6.012 C 63.034 7.063,63.250 7.788,63.250 14.714 C 63.250 20.880,63.341 20.493,61.895 20.497 C 60.648 20.501,60.691 20.695,60.634 14.827 C 60.571 8.316,60.428 7.979,57.729 7.979 C 54.506 7.979,53.820 9.292,53.711 15.667 C 53.665 18.329,53.567 20.166,53.464 20.292 C 53.244 20.559,51.632 20.565,51.367 20.300 C 51.117 20.050,51.082 6.559,51.330 6.167 C 51.755 5.495,53.667 5.989,53.667 6.770 C 53.667 7.310,53.908 7.270,54.938 6.561 C 56.515 5.475,58.912 5.245,60.651 6.012 M72.722 5.671 C 75.020 6.004,76.411 7.017,76.920 8.731 C 77.308 10.037,77.107 10.333,75.828 10.333 C 74.980 10.333,74.901 10.283,74.289 9.349 C 72.858 7.165,67.995 7.630,68.563 9.897 C 68.766 10.702,69.631 11.137,72.416 11.833 C 76.697 12.903,77.750 13.789,77.750 16.321 C 77.750 19.040,76.001 20.498,72.410 20.774 C 68.510 21.074,65.519 19.275,65.504 16.621 C 65.497 15.479,67.562 15.276,68.017 16.374 C 69.135 19.073,75.000 19.307,75.000 16.652 C 75.000 15.354,74.101 14.788,70.791 14.007 C 67.601 13.253,66.269 12.411,65.843 10.880 C 64.897 7.472,68.148 5.010,72.722 5.671 M87.880 5.745 C 95.276 7.312,95.171 19.296,87.750 20.684 C 82.782 21.613,79.110 18.408,79.122 13.155 C 79.135 7.903,82.926 4.695,87.880 5.745 M103.019 5.852 C 103.734 6.567,103.299 8.324,102.405 8.331 C 99.226 8.354,98.156 10.275,98.042 16.167 C 97.957 20.570,97.978 20.500,96.750 20.500 C 95.425 20.500,95.491 20.904,95.540 13.070 L 95.583 6.096 96.125 5.940 C 97.173 5.640,97.728 5.963,97.887 6.964 C 98.051 7.996,98.099 8.010,98.842 7.236 C 99.594 6.453,100.623 5.856,101.524 5.679 C 102.604 5.467,102.638 5.471,103.019 5.852 M112.339 5.920 C 114.683 6.730,116.375 9.249,116.618 12.288 C 116.764 14.116,117.121 14.000,111.346 14.000 C 105.492 14.000,105.608 13.957,106.261 15.872 C 107.340 19.041,112.159 19.455,113.662 16.509 C 114.028 15.792,114.788 15.534,115.750 15.801 C 116.414 15.985,116.458 16.423,115.927 17.547 C 113.771 22.104,106.361 21.920,104.077 17.252 C 100.943 10.847,106.107 3.764,112.339 5.920 M159.057 5.990 C 159.525 6.168,159.517 6.147,161.620 12.083 C 163.699 17.950,163.390 17.901,165.174 12.653 C 167.168 6.791,167.339 6.348,167.722 6.080 C 168.401 5.605,170.000 5.853,170.000 6.434 C 170.000 6.815,163.709 23.120,163.200 24.060 C 161.786 26.668,157.833 27.235,157.833 24.830 C 157.833 24.011,158.077 23.833,159.197 23.833 C 160.419 23.833,160.967 23.375,161.575 21.846 C 162.195 20.285,162.220 20.384,159.480 13.543 C 156.742 6.706,156.651 6.457,156.810 6.214 C 157.055 5.838,158.325 5.712,159.057 5.990 M123.942 8.024 C 121.814 8.339,120.603 10.242,120.616 13.250 C 120.642 19.507,127.860 20.623,129.007 14.548 C 129.767 10.517,127.431 7.507,123.942 8.024 M148.276 8.025 C 143.917 8.667,143.538 17.027,147.810 18.307 C 151.005 19.264,153.250 17.172,153.250 13.237 C 153.250 9.552,151.359 7.570,148.276 8.025 M24.318 8.388 C 20.879 10.203,21.338 17.217,24.968 18.304 C 28.126 19.250,30.500 17.019,30.500 13.105 C 30.500 9.228,27.322 6.802,24.318 8.388 M40.226 8.233 C 36.775 9.790,36.550 16.260,39.886 17.977 C 43.535 19.855,46.980 16.283,45.995 11.643 C 45.407 8.874,42.549 7.184,40.226 8.233 M84.333 8.392 C 80.685 10.251,81.214 17.250,85.086 18.334 C 88.183 19.201,90.659 16.678,90.466 12.850 C 90.276 9.062,87.285 6.887,84.333 8.392 M108.142 8.336 C 106.932 8.975,105.731 10.892,106.193 11.448 C 106.483 11.798,113.640 11.762,113.775 11.410 C 114.057 10.676,112.859 8.941,111.640 8.320 C 110.785 7.884,108.983 7.892,108.142 8.336 M127.062 55.060 C 136.739 56.972,142.209 63.631,142.209 73.500 C 142.209 81.087,138.985 86.872,133.038 89.957 C 128.904 92.102,126.114 92.496,115.052 92.499 C 110.144 92.500,108.655 92.548,108.552 92.708 C 108.477 92.823,108.379 97.492,108.333 103.083 L 108.250 113.250 102.000 113.294 C 96.272 113.334,95.733 113.314,95.542 113.054 C 95.186 112.569,95.242 55.538,95.599 55.029 L 95.864 54.650 110.724 54.709 C 124.061 54.761,125.735 54.797,127.062 55.060 M203.171 58.594 C 203.265 58.842,203.333 61.424,203.333 64.728 C 203.333 68.943,203.386 70.486,203.533 70.633 C 203.677 70.777,204.817 70.833,207.611 70.833 C 211.274 70.833,211.498 70.851,211.661 71.156 C 211.879 71.564,211.888 78.155,211.670 78.500 C 211.540 78.707,210.818 78.764,207.465 78.833 L 203.417 78.917 203.417 90.583 L 203.417 102.250 203.833 102.986 C 204.587 104.318,206.163 104.774,209.393 104.597 C 212.055 104.451,211.833 104.052,211.833 109.000 C 211.833 113.861,212.028 113.461,209.551 113.697 C 202.010 114.413,195.909 113.172,193.576 110.446 C 191.551 108.081,191.513 107.745,191.506 92.158 C 191.501 82.334,191.452 79.185,191.300 79.033 C 191.159 78.893,190.216 78.833,188.122 78.833 C 184.122 78.833,184.500 79.251,184.500 74.833 C 184.500 70.416,184.122 70.833,188.122 70.833 C 190.216 70.833,191.159 70.774,191.300 70.633 C 191.448 70.485,191.500 68.920,191.500 64.622 C 191.500 60.935,191.563 58.694,191.673 58.489 C 191.838 58.180,192.079 58.167,197.427 58.167 L 203.008 58.167 203.171 58.594 M232.619 58.300 C 232.770 58.396,232.833 59.960,232.869 64.471 C 232.910 69.624,232.953 70.536,233.167 70.670 C 233.305 70.758,235.108 70.829,237.196 70.831 C 241.968 70.834,241.500 70.407,241.500 74.762 C 241.500 79.244,241.954 78.833,237.006 78.833 C 233.336 78.833,233.171 78.847,232.998 79.170 C 232.655 79.811,232.858 101.589,233.215 102.492 C 233.918 104.269,234.695 104.583,238.381 104.583 C 241.810 104.583,241.494 104.150,241.497 108.864 C 241.501 114.114,241.997 113.620,236.567 113.776 C 229.383 113.983,226.043 113.206,223.572 110.754 C 221.160 108.360,221.173 108.462,221.170 92.408 C 221.167 82.387,221.119 79.185,220.967 79.033 C 220.826 78.893,219.888 78.833,217.811 78.833 C 216.185 78.833,214.663 78.760,214.428 78.671 L 214.000 78.508 214.000 74.993 C 214.000 70.398,213.625 70.833,217.583 70.833 C 220.614 70.833,220.833 70.813,220.994 70.511 C 221.104 70.306,221.167 68.065,221.167 64.378 C 221.167 60.080,221.219 58.515,221.367 58.367 C 221.595 58.138,232.265 58.075,232.619 58.300 M108.541 65.112 C 108.215 65.909,108.402 81.849,108.740 82.097 C 109.134 82.385,118.404 82.434,121.000 82.162 C 126.930 81.541,129.652 78.839,129.664 73.564 C 129.673 69.139,127.676 66.437,123.552 65.299 C 121.653 64.775,108.745 64.614,108.541 65.112 M47.347 65.253 C 43.427 66.356,42.378 68.019,40.410 76.253 C 38.276 85.181,38.978 84.485,31.167 85.418 C 23.258 86.362,21.268 87.342,19.325 91.250 C 15.456 99.031,24.654 107.434,31.810 102.656 C 34.144 101.097,34.600 100.099,36.403 92.591 C 37.979 86.029,38.199 85.449,39.379 84.771 C 40.272 84.258,40.157 84.278,46.000 83.583 C 52.988 82.751,54.697 82.026,56.740 79.029 C 61.269 72.387,54.947 63.115,47.347 65.253 M166.500 69.840 C 175.371 70.465,180.241 73.252,181.778 78.583 C 182.038 79.483,182.077 81.044,182.175 94.167 C 182.290 109.529,182.305 109.822,183.081 112.160 C 183.490 113.390,183.758 113.333,177.511 113.333 C 171.029 113.333,171.628 113.509,171.191 111.477 C 170.824 109.773,170.675 109.711,169.376 110.724 C 163.071 115.638,151.016 115.788,145.810 111.018 C 140.862 106.485,140.800 97.456,145.686 92.933 C 148.258 90.552,152.079 89.348,160.039 88.411 C 168.513 87.414,170.333 86.493,170.333 83.202 C 170.333 79.426,168.087 77.676,163.231 77.669 C 158.638 77.663,155.985 79.331,155.413 82.583 C 155.349 82.950,155.190 83.419,155.061 83.625 L 154.826 84.000 149.363 84.000 C 142.788 84.000,143.184 84.181,143.752 81.434 C 145.425 73.332,154.003 68.960,166.500 69.840 M265.929 69.850 C 275.078 70.769,281.553 76.998,283.669 86.917 C 284.112 88.997,284.340 94.340,284.002 94.748 C 283.818 94.970,281.999 95.000,268.938 95.003 C 259.860 95.004,253.986 95.067,253.833 95.163 C 253.280 95.514,253.855 98.888,254.814 100.917 C 257.696 107.011,268.510 107.376,272.410 101.510 C 273.347 100.100,273.041 100.171,278.167 100.171 C 284.023 100.171,283.830 100.002,282.098 103.604 C 278.484 111.121,272.823 114.409,263.500 114.409 C 250.897 114.409,242.869 106.966,241.846 94.333 C 240.640 79.433,251.493 68.399,265.929 69.850 M314.309 70.043 L 314.750 70.254 314.794 75.438 C 314.845 81.413,314.940 81.062,313.326 80.829 C 306.830 79.890,301.924 82.403,300.138 87.584 C 299.237 90.200,299.169 91.253,299.168 102.592 C 299.167 110.412,299.118 112.982,298.967 113.133 C 298.680 113.420,287.820 113.420,287.533 113.133 C 287.268 112.868,287.241 71.651,287.506 71.156 C 287.718 70.759,297.910 70.643,298.300 71.033 C 298.439 71.172,298.505 72.125,298.517 74.158 C 298.540 78.294,298.582 78.368,299.835 76.500 C 303.061 71.691,310.667 68.298,314.309 70.043 M344.642 69.845 C 351.986 70.533,355.803 73.999,357.202 81.250 C 357.628 83.460,357.891 112.613,357.489 113.097 C 357.217 113.424,346.263 113.451,346.052 113.125 C 345.977 113.010,345.877 106.767,345.828 99.250 C 345.729 84.080,345.748 84.337,344.558 82.150 C 342.050 77.542,333.429 78.040,330.949 82.936 C 329.596 85.609,329.502 86.758,329.501 100.719 C 329.500 108.649,329.442 112.797,329.327 113.011 C 329.057 113.516,318.108 113.513,317.837 113.007 C 317.527 112.428,317.687 71.194,318.000 70.996 C 318.389 70.750,328.385 70.785,328.633 71.033 C 328.769 71.169,328.833 71.945,328.833 73.436 C 328.833 76.443,328.991 76.739,329.917 75.478 C 332.979 71.308,338.344 69.255,344.642 69.845 M382.583 69.842 C 391.920 70.642,397.550 74.923,398.420 81.882 C 398.611 83.411,398.901 83.333,392.991 83.333 C 387.314 83.333,387.470 83.363,387.261 82.251 C 386.665 79.073,383.805 77.529,378.842 77.707 C 375.303 77.833,373.603 78.734,373.159 80.719 C 372.498 83.672,374.908 85.354,381.917 86.831 C 395.965 89.792,399.793 92.639,399.730 100.083 C 399.654 109.239,392.545 114.500,380.250 114.500 C 368.596 114.500,361.251 109.495,360.401 100.976 C 360.300 99.956,360.319 99.853,360.647 99.677 C 361.027 99.474,371.041 99.484,371.244 99.688 C 371.302 99.746,371.486 100.370,371.654 101.074 C 373.277 107.886,386.494 108.878,387.869 102.291 C 388.618 98.703,386.363 97.425,374.417 94.669 C 367.554 93.085,364.419 91.376,362.466 88.150 C 360.867 85.510,360.938 80.558,362.624 77.167 C 365.251 71.882,373.041 69.023,382.583 69.842 M261.750 78.661 C 257.312 79.189,253.345 83.245,253.699 86.893 L 253.750 87.417 262.940 87.460 C 270.284 87.494,272.146 87.460,272.212 87.290 C 272.364 86.892,271.673 84.590,270.973 83.167 C 269.284 79.732,266.046 78.151,261.750 78.661 M169.167 93.432 C 168.061 93.918,166.241 94.321,163.167 94.761 C 156.183 95.761,153.938 97.338,153.930 101.250 C 153.922 104.928,156.188 106.662,161.000 106.661 C 167.467 106.660,170.238 103.615,170.246 96.503 C 170.250 92.899,170.268 92.948,169.167 93.432 M127.583 132.341 C 129.971 132.685,131.893 134.039,132.843 136.047 C 133.639 137.731,133.546 138.098,132.277 138.272 C 130.846 138.468,130.040 138.232,129.670 137.507 C 127.435 133.125,121.919 135.615,121.934 141.000 C 121.949 146.493,128.119 148.744,129.745 143.849 C 130.079 142.844,130.380 142.667,131.750 142.667 C 133.275 142.667,133.565 142.860,133.437 143.792 C 132.883 147.834,128.434 150.433,124.061 149.268 C 115.712 147.045,116.463 133.495,125.000 132.335 C 126.312 132.157,126.301 132.157,127.583 132.341 M105.378 132.902 C 105.713 133.237,111.376 148.405,111.305 148.776 C 111.253 149.045,111.047 149.089,109.654 149.131 C 107.745 149.187,107.741 149.185,107.091 147.207 C 106.522 145.478,106.570 145.500,103.446 145.500 C 100.385 145.500,100.427 145.479,99.754 147.383 C 99.139 149.120,99.080 149.167,97.502 149.167 C 95.174 149.167,95.090 149.944,98.350 141.333 C 99.825 137.438,101.110 134.025,101.206 133.750 C 101.555 132.750,101.733 132.667,103.514 132.667 C 104.695 132.667,105.208 132.731,105.378 132.902 M151.633 132.867 C 151.921 133.155,151.921 148.679,151.633 148.967 C 151.394 149.206,149.199 149.235,148.833 149.004 C 148.617 148.867,148.583 147.783,148.583 140.917 C 148.583 134.050,148.617 132.967,148.833 132.830 C 149.199 132.599,151.394 132.628,151.633 132.867 M157.133 132.867 C 157.421 133.155,157.421 148.679,157.133 148.967 C 157.013 149.087,156.430 149.167,155.667 149.167 C 153.853 149.167,154.000 149.893,154.000 140.917 C 154.000 131.940,153.853 132.667,155.667 132.667 C 156.430 132.667,157.013 132.746,157.133 132.867 M176.417 133.134 C 180.664 135.088,180.217 141.697,175.750 142.997 C 175.383 143.104,173.996 143.233,172.667 143.283 C 169.617 143.399,169.833 143.172,169.833 146.237 C 169.833 149.255,169.885 149.168,168.092 149.164 C 166.058 149.160,166.250 150.021,166.250 140.917 C 166.250 134.053,166.284 132.966,166.500 132.824 C 167.076 132.447,175.497 132.710,176.417 133.134 M236.300 132.867 C 236.410 132.977,236.500 133.487,236.500 134.000 C 236.500 135.213,236.355 135.333,234.897 135.333 C 233.188 135.333,233.167 135.318,233.167 134.099 C 233.167 132.769,233.286 132.667,234.833 132.667 C 235.596 132.667,236.180 132.746,236.300 132.867 M304.800 132.867 C 305.088 133.155,305.088 148.679,304.800 148.967 C 304.680 149.087,304.096 149.167,303.333 149.167 C 301.520 149.167,301.667 149.893,301.667 140.917 C 301.667 131.940,301.520 132.667,303.333 132.667 C 304.096 132.667,304.680 132.746,304.800 132.867 M170.112 135.745 C 169.749 136.108,169.702 139.589,170.053 140.070 C 170.365 140.497,174.024 140.408,174.713 139.956 C 176.159 139.009,176.094 136.672,174.600 135.873 C 173.820 135.456,170.496 135.361,170.112 135.745 M143.361 137.324 C 145.560 138.358,147.456 141.918,146.695 143.587 L 146.507 144.000 142.607 144.000 C 138.251 144.000,138.205 144.012,138.404 145.075 C 138.770 147.027,141.477 147.535,143.265 145.987 C 144.734 144.715,146.745 145.199,146.084 146.665 C 144.247 150.739,136.956 150.216,135.339 145.894 C 133.278 140.385,138.348 134.968,143.361 137.324 M188.500 137.167 C 188.753 137.420,188.833 137.722,188.833 138.428 C 188.833 139.790,188.669 140.000,187.604 140.000 C 185.100 140.000,184.450 141.118,184.333 145.626 C 184.237 149.344,184.328 149.160,182.575 149.164 C 180.890 149.168,181.000 149.588,181.000 143.139 C 181.000 136.700,180.876 137.167,182.583 137.167 C 183.640 137.167,184.165 137.376,184.169 137.798 C 184.175 138.488,184.420 138.498,185.342 137.844 C 186.747 136.847,187.927 136.594,188.500 137.167 M197.418 137.410 C 199.198 138.281,200.436 140.229,200.624 142.456 C 200.760 144.063,200.931 144.000,196.417 144.000 C 192.143 144.000,192.036 144.025,192.247 144.985 C 192.663 146.882,195.290 147.562,196.877 146.184 C 198.419 144.845,200.688 144.996,200.101 146.399 C 198.355 150.580,191.480 150.502,189.425 146.277 C 186.769 140.816,192.158 134.837,197.418 137.410 M209.033 137.021 C 212.071 137.664,213.780 140.833,211.090 140.833 C 210.141 140.833,209.370 140.545,209.242 140.141 C 208.786 138.704,205.198 138.941,205.561 140.385 C 205.708 140.974,206.346 141.280,208.485 141.790 C 212.042 142.638,212.969 143.505,212.802 145.824 C 212.495 150.070,203.976 150.950,202.148 146.926 C 201.545 145.599,201.825 145.165,203.281 145.169 C 204.439 145.172,204.705 145.282,205.130 145.931 C 206.135 147.464,208.735 147.612,209.332 146.170 C 209.750 145.160,209.211 144.790,206.167 144.004 C 203.156 143.225,202.306 142.625,202.080 141.116 C 201.631 138.128,204.973 136.160,209.033 137.021 M221.089 137.015 C 223.153 137.397,224.969 139.120,224.584 140.332 C 224.329 141.133,221.868 140.949,221.337 140.089 C 220.474 138.693,217.366 138.948,217.727 140.385 C 217.873 140.967,218.415 141.227,220.604 141.769 C 224.685 142.778,225.954 144.541,224.560 147.265 C 222.974 150.366,215.769 150.127,214.314 146.926 C 213.712 145.599,213.992 145.165,215.447 145.169 C 216.624 145.172,216.951 145.306,217.321 145.933 C 218.256 147.519,221.135 147.579,221.543 146.021 C 221.782 145.107,221.210 144.747,218.333 144.004 C 215.369 143.237,214.498 142.636,214.253 141.184 C 213.742 138.158,216.889 136.239,221.089 137.015 M247.313 137.421 C 249.772 138.524,251.107 141.227,250.681 144.236 C 249.657 151.465,239.073 151.188,238.401 143.915 C 237.922 138.733,242.615 135.313,247.313 137.421 M273.405 137.095 C 273.727 137.417,273.774 139.492,273.467 139.800 C 273.357 139.910,272.923 140.000,272.502 140.000 C 270.074 140.000,269.435 141.120,269.364 145.500 C 269.302 149.303,269.368 149.167,267.585 149.167 C 265.890 149.167,266.000 149.580,266.000 143.229 C 266.000 136.816,265.910 137.165,267.554 137.169 C 268.761 137.172,268.892 137.236,269.191 137.970 L 269.417 138.523 270.199 137.913 C 271.406 136.972,272.900 136.591,273.405 137.095 M283.516 137.019 C 285.854 137.521,286.335 138.708,286.456 144.288 C 286.565 149.314,286.619 149.167,284.669 149.167 C 282.935 149.167,283.000 149.333,283.000 144.931 C 283.000 140.143,282.622 139.283,280.637 139.549 C 278.814 139.794,278.596 140.357,278.530 144.997 C 278.497 147.292,278.408 148.826,278.301 148.956 C 278.070 149.235,275.644 149.244,275.367 148.967 C 274.976 148.576,275.092 137.552,275.489 137.339 C 276.191 136.963,277.812 137.127,278.269 137.619 L 278.688 138.072 279.543 137.592 C 280.896 136.831,281.939 136.681,283.516 137.019 M296.089 137.015 C 297.383 137.254,298.209 137.692,298.782 138.443 L 299.250 139.056 299.345 143.987 C 299.411 147.400,299.385 148.954,299.262 149.039 C 298.830 149.335,296.781 149.176,296.399 148.817 L 296.026 148.467 294.888 148.935 C 291.410 150.364,288.167 148.929,288.167 145.960 C 288.167 143.441,289.135 142.686,293.137 142.087 C 295.066 141.798,295.784 141.505,295.923 140.949 C 296.398 139.057,293.160 138.447,292.014 140.213 L 291.611 140.833 290.150 140.833 C 288.463 140.833,288.285 140.670,288.751 139.554 C 289.642 137.422,292.653 136.380,296.089 137.015 M255.626 137.375 C 255.720 137.493,255.826 139.182,255.870 141.251 C 255.976 146.218,256.393 147.111,258.452 146.776 C 260.186 146.495,260.391 145.945,260.497 141.285 C 260.596 136.942,260.504 137.173,262.136 137.169 C 263.974 137.165,263.833 136.669,263.833 143.139 C 263.833 149.597,263.948 149.167,262.231 149.167 C 261.115 149.167,261.004 149.134,260.699 148.716 L 260.371 148.265 259.236 148.841 C 256.536 150.211,253.618 149.294,252.877 146.842 C 252.500 145.593,252.447 137.885,252.812 137.443 C 253.098 137.097,255.359 137.042,255.626 137.375 M103.115 138.052 C 102.606 139.151,101.647 142.026,101.700 142.299 C 101.762 142.624,104.911 142.822,105.212 142.521 C 105.417 142.316,103.901 137.728,103.588 137.608 C 103.449 137.555,103.267 137.725,103.115 138.052 M140.213 139.494 C 139.413 139.686,138.917 140.070,138.596 140.747 C 138.134 141.719,138.352 141.833,140.673 141.833 C 142.874 141.833,143.167 141.771,143.167 141.307 C 143.167 140.087,141.640 139.150,140.213 139.494 M194.093 139.513 C 192.936 139.709,191.783 141.420,192.597 141.732 C 193.197 141.962,196.786 141.841,197.000 141.583 C 197.785 140.638,195.801 139.224,194.093 139.513 M243.833 139.535 C 240.900 140.333,241.097 146.345,244.074 146.904 C 246.411 147.342,248.002 144.602,247.181 141.553 C 246.760 139.989,245.331 139.128,243.833 139.535 M293.965 143.928 C 291.579 144.404,290.805 145.498,292.006 146.699 C 293.358 148.050,296.000 146.718,296.000 144.686 C 296.000 143.588,295.886 143.546,293.965 143.928 " stroke="none" fill="#ffffff" fill-rule="evenodd"></path><path id="path2" d="M6.417 0.306 C 2.861 1.624,1.224 4.497,2.274 7.577 C 2.905 9.429,4.419 10.284,9.083 11.422 C 13.449 12.487,14.438 13.083,14.627 14.767 C 15.191 19.764,5.157 19.783,4.243 14.788 C 4.097 13.987,3.636 13.667,2.633 13.667 C 0.034 13.667,1.859 18.445,5.047 19.985 C 11.288 22.999,18.835 19.148,17.431 13.667 C 16.784 11.142,15.391 10.152,10.982 9.081 C 5.502 7.750,4.509 7.061,4.995 4.930 C 5.384 3.225,6.525 2.583,9.167 2.583 C 11.980 2.583,13.365 3.500,13.898 5.714 C 13.966 5.998,14.174 6.241,14.432 6.339 C 18.059 7.718,16.939 2.519,13.206 0.647 C 11.771 -0.072,7.954 -0.264,6.417 0.306 M129.312 0.608 C 129.142 0.813,129.070 1.637,129.031 3.817 C 128.973 7.125,128.938 7.224,128.035 6.626 C 121.867 2.544,115.276 10.040,118.680 17.265 C 120.238 20.571,125.007 21.911,128.054 19.900 C 128.735 19.450,129.046 19.523,129.255 20.182 C 129.374 20.557,131.116 20.651,131.467 20.300 C 131.755 20.011,131.755 0.822,131.467 0.533 C 131.157 0.224,129.586 0.278,129.312 0.608 M142.479 0.609 C 142.134 1.024,142.140 19.816,142.485 20.232 C 142.860 20.684,144.512 20.544,144.763 20.039 C 145.069 19.422,145.107 19.424,146.440 20.101 C 150.356 22.088,154.788 20.001,155.851 15.667 C 157.537 8.795,151.820 3.343,146.112 6.377 C 144.838 7.054,144.839 7.056,144.836 3.575 C 144.834 1.590,144.773 0.673,144.633 0.533 C 144.323 0.223,142.753 0.278,142.479 0.609 M25.000 5.716 C 24.496 5.830,23.718 6.129,23.271 6.379 C 22.278 6.934,22.198 6.937,22.006 6.432 C 21.733 5.714,19.869 5.644,19.498 6.337 C 19.194 6.906,19.356 25.640,19.667 25.837 C 20.025 26.063,21.563 26.037,21.800 25.800 C 21.940 25.660,22.001 24.743,22.003 22.758 C 22.006 19.190,21.961 19.265,23.596 20.095 C 27.930 22.295,32.523 19.673,33.201 14.613 C 33.969 8.867,30.016 4.577,25.000 5.716 M40.364 5.678 C 34.539 6.704,32.604 15.209,37.263 19.310 C 40.271 21.958,45.998 21.011,47.867 17.557 C 51.198 11.402,46.860 4.533,40.364 5.678 M56.700 5.732 C 56.214 5.855,55.421 6.228,54.938 6.561 C 53.908 7.270,53.667 7.310,53.667 6.770 C 53.667 5.989,51.755 5.495,51.330 6.167 C 51.082 6.559,51.117 20.050,51.367 20.300 C 51.632 20.565,53.244 20.559,53.464 20.292 C 53.567 20.166,53.665 18.329,53.711 15.667 C 53.820 9.292,54.506 7.979,57.729 7.979 C 60.428 7.979,60.571 8.316,60.634 14.827 C 60.667 18.229,60.747 20.146,60.863 20.285 C 61.070 20.536,62.626 20.573,63.000 20.337 C 63.407 20.079,63.367 9.586,62.955 8.406 C 62.206 6.260,59.381 5.052,56.700 5.732 M69.565 5.748 C 66.631 6.386,65.159 8.416,65.843 10.880 C 66.269 12.411,67.601 13.253,70.791 14.007 C 74.101 14.788,75.000 15.354,75.000 16.652 C 75.000 19.307,69.135 19.073,68.017 16.374 C 67.562 15.276,65.497 15.479,65.504 16.621 C 65.519 19.275,68.510 21.074,72.410 20.774 C 76.001 20.498,77.750 19.040,77.750 16.321 C 77.750 13.789,76.697 12.903,72.416 11.833 C 69.631 11.137,68.766 10.702,68.563 9.897 C 67.995 7.630,72.858 7.165,74.289 9.349 C 74.901 10.283,74.980 10.333,75.828 10.333 C 77.107 10.333,77.308 10.037,76.920 8.731 C 76.191 6.276,73.030 4.994,69.565 5.748 M84.697 5.686 C 80.598 6.368,78.171 10.930,79.396 15.649 C 81.278 22.903,91.804 22.479,93.153 15.094 C 94.249 9.090,90.346 4.747,84.697 5.686 M101.524 5.679 C 100.623 5.856,99.594 6.453,98.842 7.236 C 98.099 8.010,98.051 7.996,97.887 6.964 C 97.728 5.963,97.173 5.640,96.125 5.940 L 95.583 6.096 95.540 13.070 C 95.491 20.904,95.425 20.500,96.750 20.500 C 97.978 20.500,97.957 20.570,98.042 16.167 C 98.156 10.275,99.226 8.354,102.405 8.331 C 103.299 8.324,103.734 6.567,103.019 5.852 C 102.638 5.471,102.604 5.467,101.524 5.679 M108.696 5.668 C 104.047 6.648,101.731 12.457,104.077 17.252 C 106.361 21.920,113.771 22.104,115.927 17.547 C 116.458 16.423,116.414 15.985,115.750 15.801 C 114.788 15.534,114.028 15.792,113.662 16.509 C 112.159 19.455,107.340 19.041,106.261 15.872 C 105.608 13.957,105.492 14.000,111.346 14.000 C 117.121 14.000,116.764 14.116,116.618 12.288 C 116.254 7.729,112.762 4.811,108.696 5.668 M157.167 5.955 C 156.502 6.208,156.371 5.781,159.480 13.543 C 162.220 20.384,162.195 20.285,161.575 21.846 C 160.967 23.375,160.419 23.833,159.197 23.833 C 158.077 23.833,157.833 24.011,157.833 24.830 C 157.833 27.235,161.786 26.668,163.200 24.060 C 163.709 23.120,170.000 6.815,170.000 6.434 C 170.000 5.853,168.401 5.605,167.722 6.080 C 167.339 6.348,167.168 6.791,165.174 12.653 C 163.390 17.901,163.699 17.950,161.620 12.083 C 159.517 6.147,159.525 6.168,159.057 5.990 C 158.611 5.821,157.570 5.801,157.167 5.955 M126.801 8.400 C 130.238 10.177,129.746 17.165,126.101 18.334 C 121.955 19.663,118.942 14.079,121.444 9.705 C 122.387 8.058,124.937 7.436,126.801 8.400 M151.286 8.604 C 154.373 10.510,153.845 17.164,150.517 18.306 C 146.932 19.536,143.936 15.771,144.993 11.364 C 145.713 8.360,148.740 7.032,151.286 8.604 M28.180 8.424 C 31.294 10.002,31.293 16.464,28.178 18.042 C 24.410 19.951,20.865 15.823,22.233 11.118 C 23.016 8.424,25.743 7.189,28.180 8.424 M44.028 8.589 C 48.023 11.382,46.091 18.903,41.492 18.462 C 36.910 18.021,35.938 10.168,40.226 8.233 C 41.179 7.802,43.170 7.989,44.028 8.589 M87.917 8.317 C 91.211 9.845,91.442 16.055,88.274 17.911 C 84.474 20.138,80.725 15.877,82.188 10.995 C 82.900 8.620,85.724 7.299,87.917 8.317 M111.640 8.320 C 112.859 8.941,114.057 10.676,113.775 11.410 C 113.640 11.762,106.483 11.798,106.193 11.448 C 105.731 10.892,106.932 8.975,108.142 8.336 C 108.983 7.892,110.785 7.884,111.640 8.320 " stroke="none" fill="#58636a" fill-rule="evenodd"></path></g></svg>