<svg id="svg" version="1.1" xmlns="http://www.w3.org/2000/svg" xmlns:xlink="http://www.w3.org/1999/xlink" width="400" height="153.33333333333334" viewBox="0, 0, 400,153.33333333333334"><g id="svgg"><path id="path0" d="M50.381 47.242 C 47.955 48.000,46.721 49.535,45.950 52.750 C 43.479 63.066,43.450 63.155,42.231 64.392 C 40.921 65.720,40.130 65.974,35.667 66.492 C 34.796 66.593,33.483 66.749,32.750 66.839 C 32.017 66.928,29.692 67.189,27.583 67.418 C 22.447 67.977,20.283 68.406,17.833 69.352 C 7.225 73.448,0.424 83.062,0.043 94.500 C -0.030 96.690,0.031 97.323,0.619 100.415 C 2.140 108.424,7.704 115.539,15.410 119.332 C 23.664 123.394,29.248 122.654,30.552 117.326 C 31.313 114.212,32.201 110.533,32.601 108.833 C 33.138 106.547,33.611 105.535,34.574 104.607 C 35.228 103.977,35.606 103.741,36.833 103.195 C 37.063 103.092,38.938 102.819,41.000 102.587 C 43.063 102.355,45.350 102.093,46.083 102.005 C 46.817 101.918,48.054 101.772,48.833 101.682 C 53.392 101.157,55.426 100.844,56.583 100.489 C 59.783 99.509,61.682 98.667,64.000 97.200 C 67.178 95.189,70.266 92.101,72.367 88.833 C 73.280 87.414,74.833 84.333,74.833 83.942 C 74.833 83.827,74.897 83.662,74.974 83.575 C 75.155 83.371,75.571 81.960,75.979 80.167 C 77.057 75.431,76.884 70.585,75.476 66.000 C 75.107 64.800,75.056 64.667,74.434 63.287 C 74.195 62.758,74.000 62.295,74.000 62.259 C 74.000 62.087,72.064 58.867,71.552 58.187 C 67.680 53.043,62.334 49.409,56.167 47.730 C 53.507 47.006,51.640 46.848,50.381 47.242 M95.418 55.032 C 95.367 55.244,95.346 68.429,95.371 84.333 L 95.417 113.250 101.917 113.250 L 108.417 113.250 108.460 102.875 L 108.503 92.500 115.227 92.500 C 124.376 92.500,127.175 92.248,130.417 91.130 C 137.982 88.523,142.208 82.205,142.208 73.500 C 142.208 64.586,137.787 58.264,129.829 55.797 C 126.361 54.723,127.264 54.774,110.714 54.708 L 95.511 54.648 95.418 55.032 M191.500 64.494 L 191.500 70.827 188.042 70.872 L 184.583 70.917 184.583 74.833 L 184.583 78.750 188.042 78.795 L 191.500 78.840 191.500 92.076 C 191.500 108.093,191.536 108.377,193.903 110.755 C 195.493 112.353,196.986 112.996,200.583 113.632 C 201.696 113.829,210.857 113.742,211.375 113.529 L 211.833 113.342 211.833 108.835 L 211.833 104.329 211.125 104.453 C 209.694 104.703,206.311 104.598,205.373 104.274 C 203.310 103.562,203.333 103.727,203.333 90.192 L 203.333 78.839 207.542 78.795 L 211.750 78.750 211.750 74.833 L 211.750 70.917 207.544 70.872 L 203.337 70.828 203.294 64.539 L 203.250 58.250 197.375 58.206 L 191.500 58.162 191.500 64.494 M221.127 64.458 L 221.083 70.750 217.583 70.833 L 214.083 70.917 214.083 74.833 L 214.083 78.750 217.625 78.795 L 221.167 78.840 221.173 92.378 C 221.177 103.059,221.225 106.110,221.400 106.833 C 222.303 110.567,224.859 112.677,229.500 113.522 C 231.100 113.814,240.341 113.819,241.044 113.530 L 241.505 113.340 241.461 108.878 L 241.417 104.417 240.417 104.500 C 236.959 104.788,234.672 104.481,233.872 103.621 C 232.902 102.579,232.917 102.780,232.917 90.333 L 232.917 78.917 237.167 78.833 L 241.417 78.750 241.417 74.833 L 241.417 70.917 237.167 70.833 L 232.917 70.750 232.873 64.458 L 232.829 58.167 227.000 58.167 L 221.171 58.167 221.127 64.458 M122.333 65.074 C 127.356 66.015,129.667 68.662,129.667 73.472 C 129.667 77.576,127.882 80.325,124.458 81.499 C 122.593 82.138,121.148 82.250,114.750 82.250 L 108.583 82.250 108.540 73.542 L 108.497 64.833 114.790 64.837 C 119.480 64.839,121.402 64.900,122.333 65.074 M52.372 65.571 C 55.017 66.536,56.854 68.415,57.923 71.250 C 59.039 74.208,58.016 78.055,55.461 80.513 C 53.485 82.415,52.112 82.890,46.833 83.496 C 38.869 84.411,38.313 84.633,37.697 87.145 C 37.423 88.261,36.452 92.341,35.748 95.333 C 34.296 101.501,31.899 104.030,27.491 104.045 C 15.988 104.084,15.455 87.271,26.917 85.930 C 37.144 84.734,36.771 84.799,37.811 84.033 C 38.517 83.513,38.864 82.730,39.416 80.417 C 40.093 77.574,40.971 73.926,41.442 72.000 C 42.425 67.978,44.318 66.010,48.083 65.097 C 48.871 64.906,51.280 65.172,52.372 65.571 M160.917 69.756 C 160.825 69.791,160.075 69.898,159.250 69.995 C 151.724 70.882,146.898 73.769,144.586 78.770 C 143.983 80.073,143.208 83.653,143.472 83.916 C 143.518 83.962,146.153 84.000,149.327 84.000 L 155.098 84.000 155.322 82.958 C 156.187 78.937,159.111 77.235,164.394 77.681 C 168.540 78.031,170.334 79.703,170.333 83.215 C 170.331 86.437,168.327 87.483,160.500 88.346 C 150.825 89.412,146.501 91.112,144.012 94.828 C 141.337 98.823,141.460 105.274,144.289 109.357 C 148.795 115.862,163.235 116.328,170.018 110.187 C 170.888 109.400,170.801 109.345,171.087 110.858 C 171.215 111.532,171.382 112.346,171.458 112.667 L 171.597 113.250 177.567 113.294 C 183.215 113.335,183.531 113.322,183.412 113.044 C 182.271 110.377,182.167 108.751,182.167 93.583 C 182.166 78.980,182.170 79.036,181.059 76.729 C 180.207 74.960,178.128 72.993,176.065 72.006 C 173.352 70.707,172.040 70.390,167.072 69.835 C 165.646 69.676,161.277 69.620,160.917 69.756 M260.750 69.829 C 260.383 69.905,259.521 70.062,258.833 70.178 C 247.613 72.070,240.082 83.699,242.003 96.167 C 243.793 107.789,251.482 114.363,263.333 114.405 C 273.513 114.440,279.938 110.232,282.994 101.529 C 283.474 100.161,283.782 100.258,278.789 100.194 C 273.294 100.123,273.136 100.144,272.747 101.008 C 270.893 105.118,263.532 106.985,258.522 104.615 C 255.670 103.266,253.832 100.086,253.637 96.167 L 253.583 95.083 268.833 95.000 L 284.083 94.917 284.176 93.833 C 285.013 84.099,279.546 74.346,271.440 71.110 C 268.587 69.971,263.190 69.324,260.750 69.829 M310.000 69.864 C 305.123 70.885,301.140 73.743,299.184 77.625 C 298.579 78.825,298.509 78.535,298.462 74.625 L 298.417 70.917 292.917 70.917 L 287.417 70.917 287.374 92.125 L 287.332 113.333 293.241 113.333 L 299.150 113.333 299.212 101.958 C 299.256 93.996,299.333 90.358,299.469 89.833 C 299.858 88.339,300.049 87.737,300.355 87.043 C 300.526 86.655,300.667 86.295,300.667 86.244 C 300.667 85.944,301.997 84.153,302.790 83.385 C 305.167 81.083,309.477 80.158,314.211 80.934 L 314.838 81.037 314.794 75.561 L 314.750 70.086 313.917 69.892 C 312.918 69.660,311.036 69.647,310.000 69.864 M339.500 69.912 C 335.272 70.693,331.797 72.753,329.789 75.667 C 328.929 76.915,328.924 76.905,328.833 73.786 L 328.750 70.917 323.250 70.917 L 317.750 70.917 317.750 92.083 L 317.750 113.250 323.583 113.250 L 329.417 113.250 329.515 100.167 C 329.600 88.942,329.652 86.941,329.880 86.083 C 330.026 85.533,330.214 84.821,330.297 84.500 C 331.657 79.273,339.845 76.984,343.590 80.784 C 345.688 82.911,345.841 84.162,345.833 99.053 C 345.829 105.729,345.876 111.673,345.936 112.264 L 346.046 113.338 351.815 113.294 L 357.583 113.250 357.634 99.333 C 357.699 81.531,357.525 79.676,355.451 75.967 C 352.839 71.296,346.020 68.707,339.500 69.912 M376.250 69.859 C 365.956 71.158,361.477 75.129,361.432 83.000 C 361.392 89.767,364.862 92.675,375.750 95.000 C 385.547 97.092,388.326 98.689,387.915 101.991 C 387.556 104.872,384.653 106.645,380.269 106.661 C 378.686 106.666,378.311 106.608,376.379 106.054 C 373.794 105.314,371.500 102.554,371.500 100.186 C 371.500 99.480,371.531 99.483,365.583 99.537 L 360.417 99.583 360.359 100.083 C 359.980 103.384,362.639 108.393,366.084 110.869 C 370.386 113.960,379.245 115.334,386.417 114.024 C 390.792 113.224,394.530 111.390,396.369 109.141 C 396.670 108.772,397.085 108.271,397.292 108.027 C 399.744 105.126,400.526 98.318,398.778 95.083 C 397.441 92.607,395.676 91.107,392.333 89.603 C 391.033 89.018,386.878 87.884,383.083 87.077 C 382.350 86.921,381.488 86.735,381.167 86.664 C 380.846 86.593,380.321 86.480,380.000 86.413 C 374.866 85.350,372.383 83.182,373.195 80.471 C 373.783 78.509,375.452 77.760,379.250 77.754 C 384.361 77.747,386.567 78.988,387.240 82.250 L 387.446 83.250 392.973 83.294 L 398.500 83.338 398.500 82.679 C 398.500 74.215,388.302 68.339,376.250 69.859 M264.851 78.733 C 268.300 79.222,270.103 80.807,271.695 84.750 C 271.875 85.197,272.333 87.016,272.333 87.285 C 272.333 87.458,270.496 87.500,262.927 87.500 L 253.521 87.500 253.611 86.875 C 254.256 82.423,257.075 79.397,261.175 78.758 C 263.021 78.470,262.993 78.470,264.851 78.733 M170.327 95.958 C 170.318 100.802,169.518 103.142,167.306 104.802 C 163.185 107.893,155.923 107.224,154.308 103.603 C 152.800 100.221,154.629 96.896,158.667 95.679 C 160.251 95.202,160.653 95.125,164.813 94.497 C 166.903 94.182,169.384 93.506,169.742 93.155 C 170.262 92.645,170.333 92.986,170.327 95.958 M124.750 132.351 C 119.405 133.119,116.548 139.705,119.148 145.261 C 121.649 150.607,129.958 151.056,132.657 145.992 C 133.172 145.026,133.722 143.068,133.555 142.792 C 133.379 142.499,130.161 142.652,130.062 142.958 C 129.214 145.592,128.354 146.352,126.220 146.352 C 122.874 146.352,121.004 142.679,122.247 138.549 C 123.320 134.987,128.096 134.202,129.540 137.350 L 129.915 138.167 131.624 138.167 L 133.333 138.167 133.333 137.573 C 133.333 136.041,131.783 133.986,129.947 133.088 C 128.287 132.275,126.773 132.060,124.750 132.351 M101.520 132.963 C 101.433 133.125,101.175 133.782,100.946 134.421 C 100.520 135.612,98.257 141.651,98.011 142.250 C 97.628 143.187,97.449 143.652,96.905 145.135 C 96.578 146.023,96.129 147.220,95.906 147.793 C 95.346 149.233,95.282 149.167,97.230 149.167 C 99.231 149.167,99.117 149.245,99.736 147.430 C 100.461 145.301,100.071 145.500,103.511 145.500 C 105.763 145.500,106.527 145.552,106.578 145.708 C 106.616 145.823,106.896 146.629,107.201 147.500 L 107.755 149.083 109.627 149.130 C 111.839 149.186,111.741 149.391,110.750 146.797 C 109.839 144.411,108.742 141.489,107.917 139.250 C 107.580 138.333,107.240 137.433,107.163 137.250 C 107.086 137.067,106.704 136.054,106.314 135.000 C 105.925 133.946,105.535 132.990,105.449 132.875 C 105.177 132.513,101.719 132.590,101.520 132.963 M148.576 132.875 C 148.532 132.990,148.516 136.683,148.540 141.083 L 148.583 149.083 150.167 149.083 L 151.750 149.083 151.793 140.875 L 151.836 132.667 150.246 132.667 C 149.128 132.667,148.633 132.728,148.576 132.875 M154.079 132.869 C 154.034 132.987,154.016 136.683,154.040 141.083 L 154.083 149.083 155.667 149.083 L 157.250 149.083 157.250 140.917 L 157.250 132.750 155.706 132.702 C 154.564 132.667,154.140 132.710,154.079 132.869 M166.243 132.875 C 166.199 132.990,166.183 136.683,166.207 141.083 L 166.250 149.083 168.000 149.083 L 169.750 149.083 169.833 146.250 L 169.917 143.417 172.417 143.313 C 175.465 143.187,175.938 143.097,177.032 142.436 C 180.736 140.198,179.903 134.077,175.731 132.866 C 174.741 132.579,166.354 132.587,166.243 132.875 M233.103 132.925 C 232.954 133.314,232.981 134.879,233.141 135.132 C 233.241 135.288,233.704 135.333,234.847 135.298 L 236.417 135.250 236.417 134.000 L 236.417 132.750 234.812 132.703 C 233.459 132.663,233.191 132.697,233.103 132.925 M301.745 132.869 C 301.700 132.987,301.683 136.683,301.707 141.083 L 301.750 149.083 303.417 149.083 L 305.083 149.083 305.083 140.917 L 305.083 132.750 303.455 132.702 C 302.247 132.667,301.806 132.710,301.745 132.869 M174.667 135.921 C 176.352 136.898,176.050 139.630,174.196 140.173 C 173.859 140.272,172.758 140.330,171.750 140.301 L 169.917 140.250 169.870 138.092 C 169.844 136.905,169.863 135.829,169.913 135.700 C 170.065 135.304,173.910 135.483,174.667 135.921 M139.583 136.981 C 135.566 137.733,133.516 142.952,135.744 146.754 C 137.917 150.463,144.195 150.394,146.097 146.640 C 146.691 145.467,146.593 145.333,145.137 145.333 C 143.956 145.333,143.915 145.348,143.256 145.991 C 141.586 147.624,138.981 147.097,138.353 144.999 C 138.053 143.997,137.997 144.011,142.589 143.961 L 146.750 143.917 146.702 142.607 C 146.559 138.735,143.428 136.261,139.583 136.981 M186.973 136.991 C 186.232 137.135,185.663 137.494,184.912 138.289 C 184.299 138.939,184.219 138.892,184.131 137.833 L 184.083 137.250 182.920 137.200 C 182.280 137.172,181.586 137.193,181.376 137.245 L 180.996 137.341 181.040 143.212 L 181.083 149.083 182.667 149.083 L 184.250 149.083 184.333 145.667 C 184.448 140.946,185.018 140.000,187.743 140.000 L 188.833 140.000 188.833 138.519 C 188.833 136.744,188.720 136.650,186.973 136.991 M193.484 136.993 C 187.721 138.033,187.019 147.054,192.540 149.112 C 194.370 149.794,197.501 149.352,198.817 148.226 C 199.615 147.542,200.616 145.676,200.294 145.472 C 199.606 145.035,197.804 145.323,197.176 145.970 C 195.377 147.825,192.167 146.833,192.167 144.422 L 192.167 144.000 196.323 144.000 C 200.964 144.000,200.743 144.063,200.687 142.762 C 200.515 138.785,197.396 136.288,193.484 136.993 M205.624 136.992 C 203.360 137.301,202.108 138.540,202.093 140.489 C 202.077 142.447,202.946 143.200,206.167 144.016 C 209.198 144.784,209.746 145.164,209.344 146.221 C 208.799 147.657,205.958 147.444,205.143 145.906 L 204.751 145.167 203.292 145.167 L 201.833 145.167 201.833 145.757 C 201.833 150.043,211.492 150.907,212.653 146.725 C 213.457 143.831,212.329 142.625,207.917 141.656 C 206.055 141.248,205.500 140.872,205.500 140.020 C 205.500 138.716,208.569 138.876,209.225 140.215 L 209.533 140.844 210.808 140.765 C 211.509 140.721,212.177 140.681,212.292 140.676 C 212.834 140.652,212.218 138.905,211.396 138.134 C 210.326 137.131,207.990 136.669,205.624 136.992 M217.811 136.987 C 214.881 137.397,213.301 139.911,214.591 142.111 C 215.130 143.032,215.760 143.350,218.356 144.016 C 221.367 144.787,221.911 145.168,221.511 146.221 C 220.968 147.649,218.221 147.451,217.295 145.917 L 216.842 145.167 215.421 145.167 L 214.000 145.167 214.000 145.757 C 214.000 150.114,223.631 150.898,224.853 146.640 C 225.662 143.821,224.522 142.630,220.083 141.656 C 218.222 141.248,217.667 140.872,217.667 140.020 C 217.667 138.737,221.103 138.942,221.430 140.245 C 221.549 140.717,221.510 140.704,223.000 140.754 C 224.806 140.815,224.983 140.617,224.351 139.250 C 223.491 137.392,221.021 136.538,217.811 136.987 M243.167 136.992 C 239.875 137.495,237.937 140.552,238.482 144.382 C 239.549 151.874,250.684 150.922,250.739 143.333 C 250.771 138.816,247.756 136.291,243.167 136.992 M271.893 136.992 C 271.156 137.168,270.295 137.733,269.696 138.434 L 269.185 139.032 269.134 138.141 L 269.083 137.250 267.583 137.250 L 266.083 137.250 266.083 143.167 L 266.083 149.083 267.667 149.083 L 269.250 149.083 269.341 145.667 C 269.391 143.787,269.497 142.100,269.576 141.917 C 270.137 140.624,271.140 140.000,272.660 140.000 L 273.667 140.000 273.667 138.518 C 273.667 136.744,273.507 136.607,271.893 136.992 M281.083 136.936 C 280.338 137.121,279.718 137.417,279.143 137.863 C 278.383 138.451,278.366 138.450,278.302 137.792 L 278.250 137.250 276.750 137.250 L 275.250 137.250 275.206 143.214 L 275.162 149.179 276.790 149.131 L 278.417 149.083 278.509 145.250 C 278.625 140.406,278.825 139.813,280.429 139.573 C 282.628 139.243,282.894 139.803,283.000 145.000 L 283.083 149.083 284.687 149.131 C 286.659 149.189,286.488 149.669,286.419 144.284 C 286.352 139.113,286.142 138.320,284.601 137.420 C 283.917 137.020,281.874 136.739,281.083 136.936 M292.500 136.986 C 290.746 137.231,289.493 138.040,288.817 139.366 C 288.165 140.644,288.422 140.993,290.021 140.998 C 291.396 141.002,291.756 140.861,291.983 140.233 C 292.593 138.547,296.000 138.912,296.000 140.664 C 296.000 141.422,295.413 141.752,293.635 141.990 C 289.269 142.576,288.183 143.342,288.172 145.842 C 288.158 149.045,292.046 150.637,295.270 148.747 C 296.138 148.238,296.139 148.238,296.333 148.750 C 296.487 149.155,296.538 149.167,298.099 149.167 L 299.706 149.167 299.580 148.708 C 299.512 148.456,299.409 146.188,299.353 143.667 C 299.246 138.915,299.220 138.749,298.474 138.053 C 297.482 137.129,294.850 136.659,292.500 136.986 M103.717 137.458 C 103.765 137.619,104.179 138.837,104.637 140.167 L 105.468 142.583 103.545 142.630 C 101.383 142.683,101.388 142.685,101.634 142.047 C 101.732 141.792,102.085 140.796,102.417 139.833 C 103.411 136.951,103.508 136.774,103.717 137.458 M233.176 137.483 C 233.062 137.696,233.000 139.969,233.000 143.969 C 233.000 150.753,233.052 150.437,231.915 150.529 L 231.250 150.583 231.202 151.958 L 231.153 153.333 232.618 153.329 C 236.375 153.317,236.546 152.874,236.467 143.333 L 236.417 137.250 234.884 137.202 C 233.502 137.159,233.334 137.187,233.176 137.483 M252.708 137.369 C 252.330 137.828,252.562 146.116,252.983 147.201 C 253.962 149.724,258.033 150.315,260.112 148.237 C 260.530 147.819,260.605 147.874,260.700 148.667 C 260.749 149.077,260.774 149.083,262.250 149.083 L 263.750 149.083 263.750 143.167 L 263.750 137.250 262.167 137.250 L 260.583 137.250 260.499 141.167 C 260.390 146.207,260.156 146.750,258.091 146.750 C 256.143 146.750,255.980 146.345,255.849 141.167 L 255.750 137.250 254.317 137.202 C 253.302 137.168,252.833 137.217,252.708 137.369 M142.311 139.788 C 142.777 140.133,143.312 141.057,143.325 141.542 C 143.333 141.807,143.105 141.833,140.813 141.833 L 138.292 141.833 138.392 141.334 C 138.727 139.654,140.946 138.779,142.311 139.788 M195.714 139.562 C 196.561 139.923,197.564 141.381,197.209 141.736 C 196.929 142.016,192.167 141.832,192.167 141.542 C 192.170 140.106,194.257 138.941,195.714 139.562 M245.350 139.522 C 248.018 140.413,248.161 145.652,245.547 146.771 C 244.315 147.298,242.859 146.738,242.222 145.491 C 241.778 144.624,241.662 141.802,242.042 141.123 C 242.865 139.650,244.036 139.084,245.350 139.522 M296.000 144.413 C 296.000 146.315,295.044 147.251,293.219 147.135 C 290.782 146.979,290.843 144.416,293.292 144.078 C 293.727 144.018,294.308 143.907,294.583 143.833 C 295.787 143.506,296.000 143.593,296.000 144.413 " stroke="none" fill="#007dbd" fill-rule="evenodd"></path><path id="path1" d="M0.000 46.278 C 0.000 71.731,0.036 92.520,0.079 92.476 C 0.123 92.432,0.237 91.839,0.332 91.157 C 1.704 81.327,8.388 72.999,17.833 69.352 C 20.283 68.406,22.447 67.977,27.583 67.418 C 29.692 67.189,32.017 66.928,32.750 66.839 C 33.483 66.749,34.796 66.593,35.667 66.492 C 43.080 65.631,42.762 66.055,45.950 52.750 C 47.005 48.347,49.618 46.441,53.610 47.163 C 60.889 48.479,67.133 52.316,71.552 58.187 C 72.064 58.867,74.000 62.087,74.000 62.259 C 74.000 62.295,74.195 62.758,74.434 63.287 C 75.056 64.667,75.107 64.800,75.476 66.000 C 76.884 70.585,77.057 75.431,75.979 80.167 C 75.571 81.960,75.155 83.371,74.974 83.575 C 74.897 83.662,74.833 83.827,74.833 83.942 C 74.833 84.056,74.484 84.885,74.056 85.783 C 71.167 91.852,66.026 96.791,59.995 99.292 C 58.869 99.759,58.197 99.995,56.583 100.489 C 55.428 100.843,53.306 101.170,48.875 101.676 C 48.119 101.763,46.881 101.908,46.125 101.999 C 45.369 102.090,43.063 102.355,41.000 102.587 C 38.938 102.819,37.063 103.092,36.833 103.195 C 35.606 103.741,35.228 103.977,34.574 104.607 C 33.611 105.535,33.138 106.547,32.601 108.833 C 32.201 110.533,31.313 114.212,30.552 117.326 C 29.248 122.654,23.664 123.394,15.410 119.332 C 7.633 115.504,2.072 108.337,0.587 100.227 C 0.439 99.415,0.255 98.450,0.179 98.083 C 0.102 97.717,0.031 109.998,0.020 125.375 L 0.000 153.333 115.577 153.333 L 231.153 153.333 231.202 151.958 L 231.250 150.583 231.915 150.529 C 233.053 150.437,233.000 150.757,233.000 143.928 C 233.000 136.570,232.839 137.134,234.920 137.201 L 236.417 137.250 236.467 143.333 C 236.537 151.784,236.483 152.100,234.833 152.941 L 234.083 153.324 317.042 153.329 L 400.000 153.333 400.000 76.667 L 400.000 0.000 200.000 0.000 L 0.000 0.000 0.000 46.278 M126.917 54.987 C 136.947 57.173,142.208 63.542,142.208 73.500 C 142.208 82.205,137.982 88.523,130.417 91.130 C 127.175 92.248,124.376 92.500,115.227 92.500 L 108.503 92.500 108.460 102.875 L 108.417 113.250 101.917 113.250 L 95.417 113.250 95.371 84.333 C 95.346 68.429,95.367 55.244,95.418 55.032 L 95.511 54.648 110.714 54.708 C 122.426 54.755,126.146 54.819,126.917 54.987 M203.294 64.539 L 203.337 70.828 207.544 70.872 L 211.750 70.917 211.750 74.833 L 211.750 78.750 207.542 78.795 L 203.333 78.839 203.333 90.192 C 203.333 103.727,203.310 103.562,205.373 104.274 C 206.311 104.598,209.694 104.703,211.125 104.453 L 211.833 104.329 211.833 108.835 L 211.833 113.342 211.375 113.529 C 210.857 113.742,201.696 113.829,200.583 113.632 C 196.986 112.996,195.493 112.353,193.903 110.755 C 191.536 108.377,191.500 108.093,191.500 92.076 L 191.500 78.840 188.042 78.795 L 184.583 78.750 184.583 74.833 L 184.583 70.917 188.042 70.872 L 191.500 70.827 191.500 64.494 L 191.500 58.162 197.375 58.206 L 203.250 58.250 203.294 64.539 M232.873 64.458 L 232.917 70.750 237.167 70.833 L 241.417 70.917 241.417 74.833 L 241.417 78.750 237.167 78.833 L 232.917 78.917 232.917 90.333 C 232.917 102.780,232.902 102.579,233.872 103.621 C 234.672 104.481,236.959 104.788,240.417 104.500 L 241.417 104.417 241.461 108.878 L 241.505 113.340 241.044 113.530 C 240.341 113.819,231.100 113.814,229.500 113.522 C 224.859 112.677,222.303 110.567,221.400 106.833 C 221.225 106.110,221.177 103.059,221.173 92.378 L 221.167 78.840 217.625 78.795 L 214.083 78.750 214.083 74.833 L 214.083 70.917 217.583 70.833 L 221.083 70.750 221.127 64.458 L 221.171 58.167 227.000 58.167 L 232.829 58.167 232.873 64.458 M108.540 73.542 L 108.583 82.250 114.750 82.250 C 122.260 82.250,123.905 82.036,126.054 80.776 C 131.022 77.864,130.910 68.870,125.873 66.205 C 123.605 65.005,122.271 64.841,114.790 64.837 L 108.497 64.833 108.540 73.542 M48.083 65.097 C 44.318 66.010,42.425 67.978,41.442 72.000 C 40.971 73.926,40.093 77.574,39.416 80.417 C 38.864 82.730,38.517 83.513,37.811 84.033 C 36.771 84.799,37.144 84.734,26.917 85.930 C 15.455 87.271,15.988 104.084,27.491 104.045 C 31.899 104.030,34.296 101.501,35.748 95.333 C 36.452 92.341,37.423 88.261,37.697 87.145 C 38.313 84.633,38.869 84.411,46.833 83.496 C 52.112 82.890,53.485 82.415,55.461 80.513 C 58.016 78.055,59.039 74.208,57.923 71.250 C 56.348 67.073,51.762 64.205,48.083 65.097 M167.072 69.835 C 172.040 70.390,173.352 70.707,176.065 72.006 C 178.128 72.993,180.207 74.960,181.059 76.729 C 182.170 79.036,182.166 78.980,182.167 93.583 C 182.167 108.751,182.271 110.377,183.412 113.044 C 183.531 113.322,183.215 113.335,177.567 113.294 L 171.597 113.250 171.458 112.667 C 171.382 112.346,171.215 111.532,171.087 110.858 C 170.801 109.345,170.888 109.400,170.018 110.187 C 163.235 116.328,148.795 115.862,144.289 109.357 C 141.460 105.274,141.337 98.823,144.012 94.828 C 146.501 91.112,150.825 89.412,160.500 88.346 C 168.327 87.483,170.331 86.437,170.333 83.215 C 170.334 79.703,168.540 78.031,164.394 77.681 C 159.111 77.235,156.187 78.937,155.322 82.958 L 155.098 84.000 149.327 84.000 C 146.153 84.000,143.518 83.962,143.472 83.916 C 143.208 83.653,143.983 80.073,144.586 78.770 C 146.898 73.769,151.724 70.882,159.250 69.995 C 160.075 69.898,160.825 69.791,160.917 69.756 C 161.277 69.620,165.646 69.676,167.072 69.835 M266.750 69.922 C 271.503 70.638,274.852 72.324,277.970 75.572 C 280.986 78.713,282.773 82.412,283.829 87.693 C 284.089 88.995,284.289 92.525,284.176 93.833 L 284.083 94.917 268.833 95.000 L 253.583 95.083 253.637 96.167 C 253.832 100.086,255.670 103.266,258.522 104.615 C 263.532 106.985,270.893 105.118,272.747 101.008 C 273.136 100.144,273.294 100.123,278.789 100.194 C 283.782 100.258,283.474 100.161,282.994 101.529 C 279.938 110.232,273.513 114.440,263.333 114.405 C 251.482 114.363,243.793 107.789,242.003 96.167 C 240.082 83.699,247.613 72.070,258.833 70.178 C 259.521 70.062,260.383 69.905,260.750 69.829 C 261.703 69.632,265.182 69.686,266.750 69.922 M313.917 69.892 L 314.750 70.086 314.794 75.561 L 314.838 81.037 314.211 80.934 C 309.477 80.158,305.167 81.083,302.790 83.385 C 301.997 84.153,300.667 85.944,300.667 86.244 C 300.667 86.295,300.526 86.655,300.355 87.043 C 300.049 87.737,299.858 88.339,299.469 89.833 C 299.333 90.358,299.256 93.996,299.212 101.958 L 299.150 113.333 293.241 113.333 L 287.332 113.333 287.374 92.125 L 287.417 70.917 292.917 70.917 L 298.417 70.917 298.462 74.625 C 298.509 78.535,298.579 78.825,299.184 77.625 C 301.799 72.436,308.876 68.722,313.917 69.892 M345.205 69.850 C 351.317 70.777,354.832 73.394,356.460 78.230 C 357.595 81.601,357.692 83.340,357.634 99.333 L 357.583 113.250 351.815 113.294 L 346.046 113.338 345.936 112.264 C 345.876 111.673,345.829 105.729,345.833 99.053 C 345.841 85.662,345.807 85.115,344.837 82.786 C 342.351 76.814,331.979 78.037,330.297 84.500 C 330.214 84.821,330.026 85.533,329.880 86.083 C 329.652 86.941,329.600 88.942,329.515 100.167 L 329.417 113.250 323.583 113.250 L 317.750 113.250 317.750 92.083 L 317.750 70.917 323.250 70.917 L 328.750 70.917 328.833 73.786 C 328.924 76.905,328.929 76.915,329.789 75.667 C 332.772 71.338,339.149 68.932,345.205 69.850 M383.083 69.840 C 389.299 70.658,392.439 71.993,395.227 75.004 C 397.076 77.001,398.500 80.341,398.500 82.679 L 398.500 83.338 392.973 83.294 L 387.446 83.250 387.240 82.250 C 386.567 78.988,384.361 77.747,379.250 77.754 C 375.452 77.760,373.783 78.509,373.195 80.471 C 372.383 83.182,374.866 85.350,380.000 86.413 C 380.321 86.480,380.846 86.593,381.167 86.664 C 381.488 86.735,382.350 86.921,383.083 87.077 C 386.878 87.884,391.033 89.018,392.333 89.603 C 395.676 91.107,397.441 92.607,398.778 95.083 C 400.526 98.318,399.744 105.126,397.292 108.027 C 397.085 108.271,396.670 108.772,396.369 109.141 C 395.032 110.776,392.169 112.459,389.000 113.472 C 383.273 115.302,373.328 114.622,368.084 112.042 C 363.504 109.788,359.888 104.190,360.359 100.083 L 360.417 99.583 365.583 99.537 C 371.531 99.483,371.500 99.480,371.500 100.186 C 371.500 102.554,373.794 105.314,376.379 106.054 C 378.311 106.608,378.686 106.666,380.269 106.661 C 384.653 106.645,387.556 104.872,387.915 101.991 C 388.326 98.689,385.547 97.092,375.750 95.000 C 364.862 92.675,361.392 89.767,361.432 83.000 C 361.460 78.151,363.054 75.088,366.797 72.696 C 370.384 70.403,377.663 69.127,383.083 69.840 M261.175 78.758 C 257.075 79.397,254.256 82.423,253.611 86.875 L 253.521 87.500 262.927 87.500 C 270.496 87.500,272.333 87.458,272.333 87.285 C 272.333 86.504,271.782 84.873,270.925 83.115 C 269.160 79.496,265.869 78.026,261.175 78.758 M169.742 93.155 C 169.384 93.506,166.903 94.182,164.813 94.497 C 160.653 95.125,160.251 95.202,158.667 95.679 C 155.297 96.694,153.963 98.266,153.940 101.250 C 153.910 104.944,156.104 106.645,160.917 106.661 C 167.578 106.682,170.312 103.573,170.327 95.958 C 170.333 92.986,170.262 92.645,169.742 93.155 M127.583 132.337 C 130.557 132.756,133.333 135.284,133.333 137.573 L 133.333 138.167 131.624 138.167 L 129.915 138.167 129.540 137.350 C 128.096 134.202,123.320 134.987,122.247 138.549 C 121.004 142.679,122.874 146.352,126.220 146.352 C 128.354 146.352,129.214 145.592,130.062 142.958 C 130.161 142.652,133.379 142.499,133.555 142.792 C 133.722 143.068,133.172 145.026,132.657 145.992 C 129.958 151.056,121.649 150.607,119.148 145.261 C 116.548 139.705,119.405 133.119,124.750 132.351 C 126.133 132.152,126.263 132.152,127.583 132.337 M105.449 132.875 C 105.535 132.990,105.925 133.946,106.314 135.000 C 106.704 136.054,107.086 137.067,107.163 137.250 C 107.240 137.433,107.580 138.333,107.917 139.250 C 108.742 141.489,109.839 144.411,110.750 146.797 C 111.741 149.391,111.839 149.186,109.627 149.130 L 107.755 149.083 107.201 147.500 C 106.896 146.629,106.616 145.823,106.578 145.708 C 106.527 145.552,105.763 145.500,103.511 145.500 C 100.071 145.500,100.461 145.301,99.736 147.430 C 99.117 149.245,99.231 149.167,97.230 149.167 C 95.282 149.167,95.346 149.233,95.906 147.793 C 96.129 147.220,96.578 146.023,96.905 145.135 C 97.449 143.652,97.628 143.187,98.011 142.250 C 98.257 141.651,100.520 135.612,100.946 134.421 C 101.621 132.534,101.428 132.667,103.485 132.667 C 104.736 132.667,105.341 132.731,105.449 132.875 M151.793 140.875 L 151.750 149.083 150.167 149.083 L 148.583 149.083 148.540 141.083 C 148.516 136.683,148.532 132.990,148.576 132.875 C 148.633 132.728,149.128 132.667,150.246 132.667 L 151.836 132.667 151.793 140.875 M157.250 140.917 L 157.250 149.083 155.667 149.083 L 154.083 149.083 154.040 141.083 C 154.016 136.683,154.034 132.987,154.079 132.869 C 154.140 132.710,154.564 132.667,155.706 132.702 L 157.250 132.750 157.250 140.917 M175.731 132.866 C 179.903 134.077,180.736 140.198,177.032 142.436 C 175.938 143.097,175.465 143.187,172.417 143.313 L 169.917 143.417 169.833 146.250 L 169.750 149.083 168.000 149.083 L 166.250 149.083 166.207 141.083 C 166.183 136.683,166.199 132.990,166.243 132.875 C 166.354 132.587,174.741 132.579,175.731 132.866 M236.417 134.000 L 236.417 135.250 234.847 135.298 C 233.042 135.354,233.006 135.330,233.003 134.055 C 232.998 132.635,232.981 132.648,234.812 132.703 L 236.417 132.750 236.417 134.000 M305.083 140.917 L 305.083 149.083 303.417 149.083 L 301.750 149.083 301.707 141.083 C 301.683 136.683,301.700 132.987,301.745 132.869 C 301.806 132.710,302.247 132.667,303.455 132.702 L 305.083 132.750 305.083 140.917 M169.913 135.700 C 169.863 135.829,169.844 136.905,169.870 138.092 L 169.917 140.250 171.750 140.301 C 172.758 140.330,173.859 140.272,174.196 140.173 C 176.050 139.630,176.352 136.898,174.667 135.921 C 173.910 135.483,170.065 135.304,169.913 135.700 M143.599 137.432 C 145.395 138.281,146.617 140.320,146.702 142.607 L 146.750 143.917 142.589 143.961 C 137.997 144.011,138.053 143.997,138.353 144.999 C 138.981 147.097,141.586 147.624,143.256 145.991 C 143.915 145.348,143.956 145.333,145.137 145.333 C 146.593 145.333,146.691 145.467,146.097 146.640 C 144.195 150.394,137.917 150.463,135.744 146.754 C 132.530 141.270,137.997 134.781,143.599 137.432 M188.458 136.938 C 188.812 137.033,188.833 137.125,188.833 138.519 L 188.833 140.000 187.743 140.000 C 185.018 140.000,184.448 140.946,184.333 145.667 L 184.250 149.083 182.667 149.083 L 181.083 149.083 181.040 143.212 L 180.996 137.341 181.376 137.245 C 181.586 137.193,182.280 137.172,182.920 137.200 L 184.083 137.250 184.131 137.833 C 184.219 138.892,184.299 138.939,184.912 138.289 C 186.005 137.131,187.314 136.632,188.458 136.938 M197.417 137.401 C 199.283 138.251,200.584 140.383,200.687 142.762 C 200.743 144.063,200.964 144.000,196.323 144.000 L 192.167 144.000 192.167 144.422 C 192.167 146.833,195.377 147.825,197.176 145.970 C 197.775 145.353,197.830 145.333,198.939 145.336 C 200.553 145.339,200.605 145.404,199.991 146.633 C 198.197 150.222,191.999 150.471,189.823 147.040 C 186.338 141.545,191.665 134.783,197.417 137.401 M210.167 137.357 C 211.668 138.013,213.344 140.630,212.292 140.676 C 212.177 140.681,211.509 140.721,210.808 140.765 L 209.533 140.844 209.225 140.215 C 208.569 138.876,205.500 138.716,205.500 140.020 C 205.500 140.872,206.055 141.248,207.917 141.656 C 212.329 142.625,213.457 143.831,212.653 146.725 C 211.492 150.907,201.833 150.043,201.833 145.757 L 201.833 145.167 203.292 145.167 L 204.751 145.167 205.143 145.906 C 205.958 147.444,208.799 147.657,209.344 146.221 C 209.746 145.164,209.198 144.784,206.167 144.016 C 202.946 143.200,202.077 142.447,202.093 140.489 C 202.117 137.512,206.567 135.786,210.167 137.357 M222.316 137.345 C 223.289 137.775,223.958 138.402,224.351 139.250 C 224.983 140.617,224.806 140.815,223.000 140.754 C 221.510 140.704,221.549 140.717,221.430 140.245 C 221.103 138.942,217.667 138.737,217.667 140.020 C 217.667 140.872,218.222 141.248,220.083 141.656 C 224.522 142.630,225.662 143.821,224.853 146.640 C 223.631 150.898,214.000 150.114,214.000 145.757 L 214.000 145.167 215.421 145.167 L 216.842 145.167 217.295 145.917 C 218.221 147.451,220.968 147.649,221.511 146.221 C 221.911 145.168,221.367 144.787,218.356 144.016 C 214.631 143.061,213.563 141.851,214.356 139.483 C 215.125 137.188,219.378 136.046,222.316 137.345 M245.849 136.988 C 252.597 138.093,252.457 148.328,245.680 149.377 C 241.955 149.953,238.982 147.890,238.482 144.382 C 237.783 139.465,241.037 136.200,245.849 136.988 M273.403 136.934 C 273.616 137.016,273.667 137.320,273.667 138.518 L 273.667 140.000 272.660 140.000 C 271.140 140.000,270.137 140.624,269.576 141.917 C 269.497 142.100,269.391 143.787,269.341 145.667 L 269.250 149.083 267.667 149.083 L 266.083 149.083 266.083 143.167 L 266.083 137.250 267.583 137.250 L 269.083 137.250 269.134 138.141 L 269.185 139.032 269.696 138.434 C 270.692 137.268,272.435 136.563,273.403 136.934 M284.601 137.420 C 286.142 138.320,286.352 139.113,286.419 144.284 C 286.488 149.669,286.659 149.189,284.687 149.131 L 283.083 149.083 283.000 145.000 C 282.894 139.803,282.628 139.243,280.429 139.573 C 278.825 139.813,278.625 140.406,278.509 145.250 L 278.417 149.083 276.790 149.131 L 275.162 149.179 275.206 143.214 L 275.250 137.250 276.750 137.250 L 278.250 137.250 278.302 137.792 C 278.366 138.450,278.383 138.451,279.143 137.863 C 279.718 137.417,280.338 137.121,281.083 136.936 C 281.874 136.739,283.917 137.020,284.601 137.420 M297.299 137.354 C 298.122 137.706,298.733 138.191,299.057 138.750 C 299.183 138.967,299.286 140.677,299.353 143.667 C 299.409 146.188,299.512 148.456,299.580 148.708 L 299.706 149.167 298.099 149.167 C 296.538 149.167,296.487 149.155,296.333 148.750 C 296.139 148.238,296.138 148.238,295.270 148.747 C 292.046 150.637,288.158 149.045,288.172 145.842 C 288.183 143.342,289.269 142.576,293.635 141.990 C 295.413 141.752,296.000 141.422,296.000 140.664 C 296.000 138.912,292.593 138.547,291.983 140.233 C 291.726 140.946,290.243 141.262,288.875 140.895 C 287.781 140.602,289.144 138.204,290.833 137.449 C 292.371 136.762,295.797 136.711,297.299 137.354 M103.197 137.625 C 103.100 137.877,102.749 138.871,102.417 139.833 C 102.085 140.796,101.732 141.792,101.634 142.047 C 101.388 142.685,101.383 142.683,103.545 142.630 L 105.468 142.583 104.637 140.167 C 104.179 138.837,103.765 137.619,103.717 137.458 C 103.589 137.038,103.400 137.099,103.197 137.625 M255.849 141.167 C 255.980 146.345,256.143 146.750,258.091 146.750 C 260.156 146.750,260.390 146.207,260.499 141.167 L 260.583 137.250 262.167 137.250 L 263.750 137.250 263.750 143.167 L 263.750 149.083 262.250 149.083 C 260.774 149.083,260.749 149.077,260.700 148.667 C 260.605 147.874,260.530 147.819,260.112 148.237 C 258.649 149.700,255.391 149.869,253.838 148.562 C 252.798 147.686,252.619 146.747,252.572 141.917 C 252.524 136.814,252.404 137.138,254.317 137.202 L 255.750 137.250 255.849 141.167 M139.743 139.637 C 139.007 139.982,138.546 140.560,138.392 141.334 L 138.292 141.833 140.813 141.833 C 143.627 141.833,143.612 141.841,143.034 140.681 C 142.435 139.482,141.029 139.036,139.743 139.637 M193.917 139.517 C 193.252 139.721,192.946 139.974,192.522 140.670 C 191.825 141.812,191.863 141.833,194.639 141.833 C 197.402 141.833,197.374 141.841,197.130 141.111 C 196.670 139.734,195.347 139.078,193.917 139.517 M243.583 139.570 C 243.070 139.799,242.410 140.463,242.042 141.123 C 241.662 141.802,241.778 144.624,242.222 145.491 C 243.339 147.676,246.398 147.341,247.163 144.949 C 248.203 141.693,246.056 138.466,243.583 139.570 M294.583 143.833 C 294.308 143.907,293.727 144.018,293.292 144.078 C 290.843 144.416,290.782 146.979,293.219 147.135 C 295.044 147.251,296.000 146.315,296.000 144.413 C 296.000 143.593,295.787 143.506,294.583 143.833 " stroke="none" fill="#ffffff" fill-rule="evenodd"></path></g></svg>