<?xml version="1.0" encoding="UTF-8" standalone="no"?>
<svg
   xmlns:dc="http://purl.org/dc/elements/1.1/"
   xmlns:cc="http://creativecommons.org/ns#"
   xmlns:rdf="http://www.w3.org/1999/02/22-rdf-syntax-ns#"
   xmlns:svg="http://www.w3.org/2000/svg"
   xmlns="http://www.w3.org/2000/svg"
   xmlns:sodipodi="http://sodipodi.sourceforge.net/DTD/sodipodi-0.dtd"
   xmlns:inkscape="http://www.inkscape.org/namespaces/inkscape"
   version="1.1"
   id="svg2"
   xml:space="preserve"
   width="369.70667"
   height="117.66667"
   viewBox="0 0 369.70667 117.66667"
   sodipodi:docname="sigecom_logo_4rgb.eps"><metadata
     id="metadata8"><rdf:RDF><cc:Work
         rdf:about=""><dc:format>image/svg+xml</dc:format><dc:type
           rdf:resource="http://purl.org/dc/dcmitype/StillImage" /></cc:Work></rdf:RDF></metadata><defs
     id="defs6" /><sodipodi:namedview
     pagecolor="#ffffff"
     bordercolor="#666666"
     borderopacity="1"
     objecttolerance="10"
     gridtolerance="10"
     guidetolerance="10"
     inkscape:pageopacity="0"
     inkscape:pageshadow="2"
     inkscape:window-width="640"
     inkscape:window-height="480"
     id="namedview4" /><g
     id="g10"
     inkscape:groupmode="layer"
     inkscape:label="ink_ext_XXXXXX"
     transform="matrix(1.3333333,0,0,-1.3333333,0,117.66667)"><g
       id="g12"
       transform="scale(0.1)"><path
         d="m 1173.97,410.723 c -4.19,-9.153 -10.16,-16.993 -17.89,-23.516 -7.73,-6.543 -17.15,-11.602 -28.26,-15.195 -11.1,-3.594 -23.51,-5.391 -37.23,-5.391 -20.26,0 -37.97,4.004 -53.16,12 -15.19,8 -28.51,19.68 -39.942,35.039 l 27.442,23.52 c 8.49,-11.758 18.04,-20.825 28.66,-27.2 10.62,-6.367 23.11,-9.55 37.49,-9.55 17.64,0 30.87,3.672 39.69,11.023 8.82,7.356 13.23,16.738 13.23,28.176 0,8.164 -2.71,14.941 -8.12,20.332 -5.41,5.391 -12.21,9.883 -20.4,13.477 -7.87,3.593 -16.23,6.621 -25.08,9.062 -8.85,2.461 -16.56,4.98 -23.11,7.598 -7.55,2.949 -15,6.047 -22.38,9.316 -7.38,3.262 -13.93,7.344 -19.67,12.246 -5.74,4.903 -10.32,10.938 -13.77,18.125 -3.44,7.188 -5.16,16.172 -5.16,26.953 0,12.09 2.45,22.371 7.35,30.879 4.9,8.477 11.34,15.508 19.35,21.067 8.01,5.546 17.16,9.629 27.44,12.246 10.3,2.605 20.66,3.914 31.12,3.914 9.47,0 18.04,-0.656 25.72,-1.953 7.68,-1.309 14.95,-3.516 21.81,-6.621 6.86,-3.106 13.39,-7.188 19.6,-12.247 6.2,-5.07 12.41,-11.347 18.62,-18.867 l -26.46,-22.051 c -9.48,10.45 -18.62,17.813 -27.44,22.051 -8.82,4.239 -20.09,6.367 -33.81,6.367 -5.23,0 -10.53,-0.566 -15.92,-1.71 -5.39,-1.141 -10.3,-2.938 -14.71,-5.387 -4.4,-2.453 -8,-5.715 -10.78,-9.797 -2.78,-4.094 -4.16,-9.238 -4.16,-15.441 0,-5.223 1.06,-9.715 3.19,-13.473 2.12,-3.762 5.3,-7.102 9.55,-10.051 4.24,-2.93 9.55,-5.715 15.93,-8.32 6.37,-2.617 13.79,-5.391 22.29,-8.34 9.8,-3.594 19.76,-7.188 29.89,-10.774 10.12,-3.601 19.27,-8.085 27.44,-13.472 8.16,-5.395 14.86,-12.336 20.09,-20.832 5.22,-8.496 7.84,-19.59 7.84,-33.321 0,-10.781 -2.1,-20.742 -6.29,-29.882"
         style="fill:#959695;fill-opacity:1;fill-rule:nonzero;stroke:none"
         id="path14" /><path
         d="m 1173.97,410.723 c -4.19,-9.153 -10.16,-16.993 -17.89,-23.516 -7.73,-6.543 -17.15,-11.602 -28.26,-15.195 -11.1,-3.594 -23.51,-5.391 -37.23,-5.391 -20.26,0 -37.97,4.004 -53.16,12 -15.19,8 -28.51,19.68 -39.942,35.039 l 27.442,23.52 c 8.49,-11.758 18.04,-20.825 28.66,-27.2 10.62,-6.367 23.11,-9.55 37.49,-9.55 17.64,0 30.87,3.672 39.69,11.023 8.82,7.356 13.23,16.738 13.23,28.176 0,8.164 -2.71,14.941 -8.12,20.332 -5.41,5.391 -12.21,9.883 -20.4,13.477 -7.87,3.593 -16.23,6.621 -25.08,9.062 -8.85,2.461 -16.56,4.98 -23.11,7.598 -7.55,2.949 -15,6.047 -22.38,9.316 -7.38,3.262 -13.93,7.344 -19.67,12.246 -5.74,4.903 -10.32,10.938 -13.77,18.125 -3.44,7.188 -5.16,16.172 -5.16,26.953 0,12.09 2.45,22.371 7.35,30.879 4.9,8.477 11.34,15.508 19.35,21.067 8.01,5.546 17.16,9.629 27.44,12.246 10.3,2.605 20.66,3.914 31.12,3.914 9.47,0 18.04,-0.656 25.72,-1.953 7.68,-1.309 14.95,-3.516 21.81,-6.621 6.86,-3.106 13.39,-7.188 19.6,-12.247 6.2,-5.07 12.41,-11.347 18.62,-18.867 l -26.46,-22.051 c -9.48,10.45 -18.62,17.813 -27.44,22.051 -8.82,4.239 -20.09,6.367 -33.81,6.367 -5.23,0 -10.53,-0.566 -15.92,-1.71 -5.39,-1.141 -10.3,-2.938 -14.71,-5.387 -4.4,-2.453 -8,-5.715 -10.78,-9.797 -2.78,-4.094 -4.16,-9.238 -4.16,-15.441 0,-5.223 1.06,-9.715 3.19,-13.473 2.12,-3.762 5.3,-7.102 9.55,-10.051 4.24,-2.93 9.55,-5.715 15.93,-8.32 6.37,-2.617 13.79,-5.391 22.29,-8.34 9.8,-3.594 19.76,-7.188 29.89,-10.774 10.12,-3.601 19.27,-8.085 27.44,-13.472 8.16,-5.395 14.86,-12.336 20.09,-20.832 5.22,-8.496 7.84,-19.59 7.84,-33.321 0,-10.781 -2.1,-20.742 -6.29,-29.882 z"
         style="fill:none;stroke:#959695;stroke-width:5;stroke-linecap:butt;stroke-linejoin:miter;stroke-miterlimit:4;stroke-dasharray:none;stroke-opacity:1"
         id="path16" /><path
         d="m 1247.88,372.5 v 246.465 h 40.17 V 372.5 Z m 37.73,308.203 c -4.91,-4.89 -10.79,-7.344 -17.65,-7.344 -7.18,0 -13.23,2.454 -18.13,7.344 -4.9,4.902 -7.34,10.781 -7.34,17.649 0,7.175 2.44,13.23 7.34,18.132 4.9,4.903 10.95,7.344 18.13,7.344 6.86,0 12.74,-2.441 17.65,-7.344 4.89,-4.902 7.34,-10.957 7.34,-18.132 0,-6.868 -2.45,-12.747 -7.34,-17.649"
         style="fill:#959695;fill-opacity:1;fill-rule:nonzero;stroke:none"
         id="path18" /><path
         d="m 1247.88,372.5 v 246.465 h 40.17 V 372.5 Z m 37.73,308.203 c -4.91,-4.89 -10.79,-7.344 -17.65,-7.344 -7.18,0 -13.23,2.454 -18.13,7.344 -4.9,4.902 -7.34,10.781 -7.34,17.649 0,7.175 2.44,13.23 7.34,18.132 4.9,4.903 10.95,7.344 18.13,7.344 6.86,0 12.74,-2.441 17.65,-7.344 4.89,-4.902 7.34,-10.957 7.34,-18.132 0,-6.868 -2.45,-12.747 -7.34,-17.649 z"
         style="fill:none;stroke:#959695;stroke-width:5;stroke-linecap:butt;stroke-linejoin:miter;stroke-miterlimit:4;stroke-dasharray:none;stroke-opacity:1"
         id="path20" /><path
         d="m 1523.53,554.297 c -4.08,7.168 -9.04,13.469 -14.9,18.855 -5.86,5.395 -12.44,9.641 -19.76,12.746 -7.33,3.094 -15.06,4.649 -23.2,4.649 -11.39,0 -21.15,-2.363 -29.28,-7.102 -8.14,-4.734 -14.89,-11.355 -20.27,-19.851 -5.37,-8.496 -9.27,-18.614 -11.71,-30.371 -2.44,-11.758 -3.66,-24.5 -3.66,-38.223 0,-30.383 5.53,-53.574 16.59,-69.578 11.08,-16.008 27.18,-24.016 48.33,-24.016 9.77,0 17.83,0.977 24.17,2.949 6.35,1.954 11.71,4.727 16.11,8.321 4.39,3.594 8.54,8.008 12.45,13.23 3.9,5.227 8.3,11.274 13.18,18.137 v 86.727 c -1.31,8.488 -3.98,16.332 -8.05,23.527 z m 40.14,-217.813 c -5.39,-14.531 -12.98,-27.031 -22.78,-37.48 -9.8,-10.449 -20.81,-20.215 -34.8,-24.5 -16.71,-5.129 -32.96,-2.727 -46.26,1.101 L 1442.5,307.5 c 12.17,-1.816 33.75,-4.375 50.75,1.543 9.88,3.437 16.28,12.09 21.98,20.098 5.69,8.007 9.76,16.66 12.2,25.964 2.43,9.309 3.66,18.04 3.66,26.211 l 0.49,24.504 c -8.49,-13.398 -18.94,-23.203 -31.37,-29.394 -12.41,-6.211 -26.77,-9.317 -43.11,-9.317 -15.36,0 -28.99,3.106 -40.91,9.317 -11.93,6.191 -22.05,14.941 -30.38,26.211 -8.33,11.269 -14.7,24.746 -19.12,40.429 -4.4,15.672 -6.61,32.989 -6.61,51.934 0,19.277 2.28,36.824 6.86,52.676 4.57,15.84 11.19,29.472 19.85,40.918 8.65,11.426 19.19,20.254 31.6,26.457 12.41,6.199 26.45,9.304 42.15,9.304 17.31,0 31.84,-3.593 43.61,-10.781 11.76,-7.187 20.9,-16.164 27.43,-26.941 v 32.332 h 40.18 V 384.258 c 0,-17.305 -2.7,-33.235 -8.09,-47.774"
         style="fill:#959695;fill-opacity:1;fill-rule:nonzero;stroke:none"
         id="path22" /><path
         d="m 1523.53,554.297 c -4.08,7.168 -9.04,13.469 -14.9,18.855 -5.86,5.395 -12.44,9.641 -19.76,12.746 -7.33,3.094 -15.06,4.649 -23.2,4.649 -11.39,0 -21.15,-2.363 -29.28,-7.102 -8.14,-4.734 -14.89,-11.355 -20.27,-19.851 -5.37,-8.496 -9.27,-18.614 -11.71,-30.371 -2.44,-11.758 -3.66,-24.5 -3.66,-38.223 0,-30.383 5.53,-53.574 16.59,-69.578 11.08,-16.008 27.18,-24.016 48.33,-24.016 9.77,0 17.83,0.977 24.17,2.949 6.35,1.954 11.71,4.727 16.11,8.321 4.39,3.594 8.54,8.008 12.45,13.23 3.9,5.227 8.3,11.274 13.18,18.137 v 86.727 c -1.31,8.488 -3.98,16.332 -8.05,23.527 z m 40.14,-217.813 c -5.39,-14.531 -12.98,-27.031 -22.78,-37.48 -9.8,-10.449 -20.81,-20.215 -34.8,-24.5 -16.71,-5.129 -32.96,-2.727 -46.26,1.101 L 1442.5,307.5 c 12.17,-1.816 33.75,-4.375 50.75,1.543 9.88,3.437 16.28,12.09 21.98,20.098 5.69,8.007 9.76,16.66 12.2,25.964 2.43,9.309 3.66,18.04 3.66,26.211 l 0.49,24.504 c -8.49,-13.398 -18.94,-23.203 -31.37,-29.394 -12.41,-6.211 -26.77,-9.317 -43.11,-9.317 -15.36,0 -28.99,3.106 -40.91,9.317 -11.93,6.191 -22.05,14.941 -30.38,26.211 -8.33,11.269 -14.7,24.746 -19.12,40.429 -4.4,15.672 -6.61,32.989 -6.61,51.934 0,19.277 2.28,36.824 6.86,52.676 4.57,15.84 11.19,29.472 19.85,40.918 8.65,11.426 19.19,20.254 31.6,26.457 12.41,6.199 26.45,9.304 42.15,9.304 17.31,0 31.84,-3.593 43.61,-10.781 11.76,-7.187 20.9,-16.164 27.43,-26.941 v 32.332 h 40.18 V 384.258 c 0,-17.305 -2.7,-33.235 -8.09,-47.774 z"
         style="fill:none;stroke:#959695;stroke-width:5;stroke-linecap:butt;stroke-linejoin:miter;stroke-miterlimit:4;stroke-dasharray:none;stroke-opacity:1"
         id="path24" /><path
         d="m 1807.92,546.211 c -2.96,8.977 -7.14,16.727 -12.55,23.269 -5.41,6.536 -12.05,11.758 -19.92,15.676 -7.87,3.926 -17.36,5.879 -28.52,5.879 -18.69,0 -33.92,-6.289 -45.74,-18.867 -11.8,-12.578 -19.01,-30.625 -21.63,-54.141 h 134.27 c -1,9.805 -2.97,19.192 -5.91,28.184 z m 45.11,-59.055 h -173.96 c 0.32,-10.769 1.88,-21.394 4.66,-31.843 2.77,-10.458 7.01,-19.688 12.73,-27.684 5.72,-8.02 12.99,-14.465 21.81,-19.359 8.82,-4.903 19.44,-7.352 31.85,-7.352 13.73,0 26.22,2.527 37.49,7.598 11.27,5.058 22.29,14.453 33.07,28.172 l 26.96,-20.575 c -10.14,-14.05 -23.36,-25.808 -39.7,-35.285 -16.34,-9.473 -36.26,-14.207 -59.78,-14.207 -16.01,0 -30.8,2.942 -44.34,8.817 -13.57,5.878 -25.19,14.457 -34.89,25.734 -9.7,11.269 -17.21,24.902 -22.54,40.906 -5.34,16.008 -7.99,34.309 -7.99,54.875 0,20.254 2.85,38.223 8.57,53.906 5.72,15.684 13.48,29.075 23.28,40.176 9.81,11.113 21.39,19.524 34.79,25.235 13.4,5.722 27.6,8.574 42.64,8.574 18.28,0 34.12,-3.418 47.52,-10.281 13.39,-6.868 24.51,-16.172 33.32,-27.93 8.82,-11.77 15.35,-25.324 19.61,-40.676 4.23,-15.352 6.36,-31.355 6.36,-48.019 0,-3.602 -0.49,-7.184 -1.46,-10.782"
         style="fill:#272525;fill-opacity:1;fill-rule:nonzero;stroke:none"
         id="path26" /><path
         d="m 1807.92,546.211 c -2.96,8.977 -7.14,16.727 -12.55,23.269 -5.41,6.536 -12.05,11.758 -19.92,15.676 -7.87,3.926 -17.36,5.879 -28.52,5.879 -18.69,0 -33.92,-6.289 -45.74,-18.867 -11.8,-12.578 -19.01,-30.625 -21.63,-54.141 h 134.27 c -1,9.805 -2.97,19.192 -5.91,28.184 z m 45.11,-59.055 h -173.96 c 0.32,-10.769 1.88,-21.394 4.66,-31.843 2.77,-10.458 7.01,-19.688 12.73,-27.684 5.72,-8.02 12.99,-14.465 21.81,-19.359 8.82,-4.903 19.44,-7.352 31.85,-7.352 13.73,0 26.22,2.527 37.49,7.598 11.27,5.058 22.29,14.453 33.07,28.172 l 26.96,-20.575 c -10.14,-14.05 -23.36,-25.808 -39.7,-35.285 -16.34,-9.473 -36.26,-14.207 -59.78,-14.207 -16.01,0 -30.8,2.942 -44.34,8.817 -13.57,5.878 -25.19,14.457 -34.89,25.734 -9.7,11.269 -17.21,24.902 -22.54,40.906 -5.34,16.008 -7.99,34.309 -7.99,54.875 0,20.254 2.85,38.223 8.57,53.906 5.72,15.684 13.48,29.075 23.28,40.176 9.81,11.113 21.39,19.524 34.79,25.235 13.4,5.722 27.6,8.574 42.64,8.574 18.28,0 34.12,-3.418 47.52,-10.281 13.39,-6.868 24.51,-16.172 33.32,-27.93 8.82,-11.77 15.35,-25.324 19.61,-40.676 4.23,-15.352 6.36,-31.355 6.36,-48.019 0,-3.602 -0.49,-7.184 -1.46,-10.782 z"
         style="fill:none;stroke:#272525;stroke-width:5;stroke-linecap:butt;stroke-linejoin:miter;stroke-miterlimit:4;stroke-dasharray:none;stroke-opacity:1"
         id="path28" /><path
         d="m 2080.37,557.227 c -7.52,11.757 -16.49,20.175 -26.94,25.234 -10.46,5.059 -21.41,7.598 -32.83,7.598 -10.13,0 -19.45,-2.039 -27.93,-6.121 -8.51,-4.094 -15.93,-10.129 -22.3,-18.137 -6.38,-8.008 -11.36,-17.801 -14.95,-29.395 -3.59,-11.601 -5.39,-24.922 -5.39,-39.941 0,-11.758 1.23,-23.36 3.68,-34.785 2.45,-11.446 6.52,-21.641 12.25,-30.625 5.71,-8.985 12.99,-16.25 21.8,-21.809 8.82,-5.555 19.6,-8.328 32.35,-8.328 12.4,0 23.51,2.695 33.32,8.086 9.79,5.391 18.78,13.801 26.94,25.234 l 29.89,-17.636 c -11.43,-16.993 -24.42,-29.571 -38.95,-37.735 -14.54,-8.164 -32.1,-12.246 -52.68,-12.246 -16.66,0 -31.77,3.106 -45.32,9.309 -13.56,6.199 -25.11,14.949 -34.64,26.218 -9.54,11.27 -16.8,24.747 -21.8,40.418 -5.01,15.688 -7.5,33 -7.5,51.946 0,21.562 2.98,40.429 8.95,56.593 5.98,16.168 14.06,29.715 24.26,40.672 10.19,10.938 22.16,19.18 35.88,24.746 13.72,5.547 28.25,8.321 43.6,8.321 12.41,0 23.35,-1.629 32.83,-4.895 9.48,-3.269 17.72,-7.273 24.75,-12 7.02,-4.746 13.06,-9.804 18.12,-15.195 5.07,-5.391 9.23,-10.371 12.5,-14.941 l -29.89,-20.586"
         style="fill:#272525;fill-opacity:1;fill-rule:nonzero;stroke:none"
         id="path30" /><path
         d="m 2080.37,557.227 c -7.52,11.757 -16.49,20.175 -26.94,25.234 -10.46,5.059 -21.41,7.598 -32.83,7.598 -10.13,0 -19.45,-2.039 -27.93,-6.121 -8.51,-4.094 -15.93,-10.129 -22.3,-18.137 -6.38,-8.008 -11.36,-17.801 -14.95,-29.395 -3.59,-11.601 -5.39,-24.922 -5.39,-39.941 0,-11.758 1.23,-23.36 3.68,-34.785 2.45,-11.446 6.52,-21.641 12.25,-30.625 5.71,-8.985 12.99,-16.25 21.8,-21.809 8.82,-5.555 19.6,-8.328 32.35,-8.328 12.4,0 23.51,2.695 33.32,8.086 9.79,5.391 18.78,13.801 26.94,25.234 l 29.89,-17.636 c -11.43,-16.993 -24.42,-29.571 -38.95,-37.735 -14.54,-8.164 -32.1,-12.246 -52.68,-12.246 -16.66,0 -31.77,3.106 -45.32,9.309 -13.56,6.199 -25.11,14.949 -34.64,26.218 -9.54,11.27 -16.8,24.747 -21.8,40.418 -5.01,15.688 -7.5,33 -7.5,51.946 0,21.562 2.98,40.429 8.95,56.593 5.98,16.168 14.06,29.715 24.26,40.672 10.19,10.938 22.16,19.18 35.88,24.746 13.72,5.547 28.25,8.321 43.6,8.321 12.41,0 23.35,-1.629 32.83,-4.895 9.48,-3.269 17.72,-7.273 24.75,-12 7.02,-4.746 13.06,-9.804 18.12,-15.195 5.07,-5.391 9.23,-10.371 12.5,-14.941 z"
         style="fill:none;stroke:#272525;stroke-width:5;stroke-linecap:butt;stroke-linejoin:miter;stroke-miterlimit:4;stroke-dasharray:none;stroke-opacity:1"
         id="path32" /><path
         d="m 2330.02,528.32 c -2.13,11.426 -5.91,21.809 -11.31,31.114 -5.41,9.316 -12.7,16.984 -21.88,23.027 -9.18,6.047 -20.66,9.062 -34.42,9.062 -13.45,0 -24.75,-2.851 -33.93,-8.574 -9.18,-5.715 -16.48,-13.066 -21.89,-22.051 -5.4,-8.984 -9.25,-19.277 -11.55,-30.859 -2.3,-11.601 -3.44,-23.281 -3.44,-35.039 0,-29.395 6.07,-52.52 18.19,-69.336 12.13,-16.824 29.51,-25.234 52.13,-25.234 12.13,0 22.62,2.363 31.47,7.109 8.85,4.727 16.22,11.348 22.13,19.844 5.89,8.484 10.31,18.535 13.27,30.137 2.95,11.582 4.42,24.25 4.42,37.968 0,10.45 -1.06,21.387 -3.19,32.832 z m 37,-82.07 c -4.57,-15.859 -11.59,-29.648 -21.06,-41.406 -9.49,-11.758 -21.16,-21.153 -35.04,-28.184 -13.89,-7.012 -30.14,-10.527 -48.75,-10.527 -16.99,0 -32.42,3.105 -46.31,9.305 -13.89,6.203 -25.57,15.031 -35.03,26.457 -9.48,11.433 -16.84,25.078 -22.05,40.918 -5.24,15.839 -7.84,33.242 -7.84,52.187 0,18.613 2.53,35.938 7.6,51.934 5.05,16.004 12.4,29.816 22.04,41.406 9.63,11.601 21.39,20.664 35.28,27.207 13.89,6.523 29.65,9.797 47.28,9.797 17.64,0 33.32,-3.196 47.05,-9.563 13.72,-6.367 25.31,-15.351 34.78,-26.953 9.47,-11.594 16.66,-25.234 21.56,-40.906 4.91,-15.676 7.36,-32.832 7.36,-51.457 0,-17.637 -2.3,-34.375 -6.87,-50.215"
         style="fill:#272525;fill-opacity:1;fill-rule:nonzero;stroke:none"
         id="path34" /><path
         d="m 2330.02,528.32 c -2.13,11.426 -5.91,21.809 -11.31,31.114 -5.41,9.316 -12.7,16.984 -21.88,23.027 -9.18,6.047 -20.66,9.062 -34.42,9.062 -13.45,0 -24.75,-2.851 -33.93,-8.574 -9.18,-5.715 -16.48,-13.066 -21.89,-22.051 -5.4,-8.984 -9.25,-19.277 -11.55,-30.859 -2.3,-11.601 -3.44,-23.281 -3.44,-35.039 0,-29.395 6.07,-52.52 18.19,-69.336 12.13,-16.824 29.51,-25.234 52.13,-25.234 12.13,0 22.62,2.363 31.47,7.109 8.85,4.727 16.22,11.348 22.13,19.844 5.89,8.484 10.31,18.535 13.27,30.137 2.95,11.582 4.42,24.25 4.42,37.968 0,10.45 -1.06,21.387 -3.19,32.832 z m 37,-82.07 c -4.57,-15.859 -11.59,-29.648 -21.06,-41.406 -9.49,-11.758 -21.16,-21.153 -35.04,-28.184 -13.89,-7.012 -30.14,-10.527 -48.75,-10.527 -16.99,0 -32.42,3.105 -46.31,9.305 -13.89,6.203 -25.57,15.031 -35.03,26.457 -9.48,11.433 -16.84,25.078 -22.05,40.918 -5.24,15.839 -7.84,33.242 -7.84,52.187 0,18.613 2.53,35.938 7.6,51.934 5.05,16.004 12.4,29.816 22.04,41.406 9.63,11.601 21.39,20.664 35.28,27.207 13.89,6.523 29.65,9.797 47.28,9.797 17.64,0 33.32,-3.196 47.05,-9.563 13.72,-6.367 25.31,-15.351 34.78,-26.953 9.47,-11.594 16.66,-25.234 21.56,-40.906 4.91,-15.676 7.36,-32.832 7.36,-51.457 0,-17.637 -2.3,-34.375 -6.87,-50.215 z"
         style="fill:none;stroke:#272525;stroke-width:5;stroke-linecap:butt;stroke-linejoin:miter;stroke-miterlimit:4;stroke-dasharray:none;stroke-opacity:1"
         id="path36" /><path
         d="m 2729.62,372.5 v 138.359 c 0,28.02 -3.42,47.903 -10.24,59.641 -6.83,11.727 -19.02,17.605 -36.58,17.605 -20.15,0 -34.63,-8.164 -43.41,-24.453 -8.77,-16.289 -13.16,-38.3 -13.16,-65.996 V 372.5 h -40.67 v 139.824 c 0,25.41 -3.41,44.395 -10.25,56.953 -6.82,12.539 -19.18,18.828 -37.06,18.828 -20.81,0 -35.44,-8.164 -43.89,-24.453 -8.45,-16.289 -12.68,-38.789 -12.68,-67.461 V 372.5 h -40.67 v 246.465 h 40.67 v -35.274 c 3.58,8.164 7.99,14.864 13.21,20.086 5.23,5.227 10.94,9.387 17.14,12.493 6.21,3.105 12.48,5.222 18.85,6.375 6.36,1.144 12.16,1.71 17.38,1.71 15.67,0 29.78,-3.917 42.36,-11.757 12.55,-7.832 21.28,-20.086 26.19,-36.746 7.48,15.347 17.02,27.273 28.58,35.769 11.57,8.496 27.14,12.734 46.69,12.734 28.02,0 48.07,-8.906 60.13,-26.699 12.05,-17.812 18.08,-46.797 18.08,-86.972 V 372.5 h -40.67"
         style="fill:#272525;fill-opacity:1;fill-rule:nonzero;stroke:none"
         id="path38" /><path
         d="m 2729.62,372.5 v 138.359 c 0,28.02 -3.42,47.903 -10.24,59.641 -6.83,11.727 -19.02,17.605 -36.58,17.605 -20.15,0 -34.63,-8.164 -43.41,-24.453 -8.77,-16.289 -13.16,-38.3 -13.16,-65.996 V 372.5 h -40.67 v 139.824 c 0,25.41 -3.41,44.395 -10.25,56.953 -6.82,12.539 -19.18,18.828 -37.06,18.828 -20.81,0 -35.44,-8.164 -43.89,-24.453 -8.45,-16.289 -12.68,-38.789 -12.68,-67.461 V 372.5 h -40.67 v 246.465 h 40.67 v -35.274 c 3.58,8.164 7.99,14.864 13.21,20.086 5.23,5.227 10.94,9.387 17.14,12.493 6.21,3.105 12.48,5.222 18.85,6.375 6.36,1.144 12.16,1.71 17.38,1.71 15.67,0 29.78,-3.917 42.36,-11.757 12.55,-7.832 21.28,-20.086 26.19,-36.746 7.48,15.347 17.02,27.273 28.58,35.769 11.57,8.496 27.14,12.734 46.69,12.734 28.02,0 48.07,-8.906 60.13,-26.699 12.05,-17.812 18.08,-46.797 18.08,-86.972 V 372.5 Z"
         style="fill:none;stroke:#272525;stroke-width:5;stroke-linecap:butt;stroke-linejoin:miter;stroke-miterlimit:4;stroke-dasharray:none;stroke-opacity:1"
         id="path40" /><path
         d="m 397.5,807.5 c 0,-41.426 -33.578,-75 -75,-75 -41.422,0 -75,33.574 -75,75 0,41.426 33.578,75 75,75 41.422,0 75,-33.574 75,-75"
         style="fill:#1e80af;fill-opacity:1;fill-rule:nonzero;stroke:none"
         id="path42" /><path
         d="m 690,789.727 c 0,-41.426 -33.578,-75 -75,-75 -41.422,0 -75,33.574 -75,75 0,41.425 33.578,75 75,75 41.422,0 75,-33.575 75,-75"
         style="fill:#1e80af;fill-opacity:1;fill-rule:nonzero;stroke:none"
         id="path44" /><path
         d="m 875,555 c 0,-41.426 -33.578,-75 -75,-75 -41.422,0 -75,33.574 -75,75 0,41.426 33.578,75 75,75 41.422,0 75,-33.574 75,-75"
         style="fill:#1e80af;fill-opacity:1;fill-rule:nonzero;stroke:none"
         id="path46" /><path
         d="m 840,265.684 c 0,-41.426 -33.578,-75 -75,-75 -41.422,0 -75,33.574 -75,75 0,41.425 33.578,75 75,75 41.422,0 75,-33.575 75,-75"
         style="fill:#1e80af;fill-opacity:1;fill-rule:nonzero;stroke:none"
         id="path48" /><path
         d="M 615,75 C 615,33.5742 581.422,0 540,0 c -41.422,0 -75,33.5742 -75,75 0,41.426 33.578,75 75,75 41.422,0 75,-33.574 75,-75"
         style="fill:#1e80af;fill-opacity:1;fill-rule:nonzero;stroke:none"
         id="path50" /><path
         d="m 150,340.684 c 0,-41.426 -33.578,-75 -75,-75 -41.4219,0 -75,33.574 -75,75 0,41.425 33.5781,75 75,75 41.422,0 75,-33.575 75,-75"
         style="fill:#1e80af;fill-opacity:1;fill-rule:nonzero;stroke:none"
         id="path52" /><path
         d="m 170,630 c 0,-41.426 -33.578,-75 -75,-75 -41.4219,0 -75,33.574 -75,75 0,41.426 33.5781,75 75,75 41.422,0 75,-33.574 75,-75"
         style="fill:#1e80af;fill-opacity:1;fill-rule:nonzero;stroke:none"
         id="path54" /><path
         d="m 297.5,630 c 0,-27.617 -22.387,-50 -50,-50 -27.613,0 -50,22.383 -50,50 0,27.617 22.387,50 50,50 27.613,0 50,-22.383 50,-50"
         style="fill:#1e80af;fill-opacity:1;fill-rule:nonzero;stroke:none"
         id="path56" /><path
         d="m 230,442.5 c 0,-27.617 -22.387,-50 -50,-50 -27.613,0 -50,22.383 -50,50 0,27.617 22.387,50 50,50 27.613,0 50,-22.383 50,-50"
         style="fill:#1e80af;fill-opacity:1;fill-rule:nonzero;stroke:none"
         id="path58" /><path
         d="m 752.5,442.5 c 0,-27.617 -22.387,-50 -50,-50 -27.613,0 -50,22.383 -50,50 0,27.617 22.387,50 50,50 27.613,0 50,-22.383 50,-50"
         style="fill:#1e80af;fill-opacity:1;fill-rule:nonzero;stroke:none"
         id="path60" /><path
         d="m 672.5,257.5 c 0,-27.617 -22.387,-50 -50,-50 -27.613,0 -50,22.383 -50,50 0,27.617 22.387,50 50,50 27.613,0 50,-22.383 50,-50"
         style="fill:#1e80af;fill-opacity:1;fill-rule:nonzero;stroke:none"
         id="path62" /><path
         d="m 672.5,630 c 0,-27.617 -22.387,-50 -50,-50 -27.613,0 -50,22.383 -50,50 0,27.617 22.387,50 50,50 27.613,0 50,-22.383 50,-50"
         style="fill:#1e80af;fill-opacity:1;fill-rule:nonzero;stroke:none"
         id="path64" /><path
         d="m 485,180 c 0,-27.617 -22.387,-50 -50,-50 -27.613,0 -50,22.383 -50,50 0,27.617 22.387,50 50,50 27.613,0 50,-22.383 50,-50"
         style="fill:#1e80af;fill-opacity:1;fill-rule:nonzero;stroke:none"
         id="path66" /><path
         d="m 485,705 c 0,-27.617 -22.387,-50 -50,-50 -27.613,0 -50,22.383 -50,50 0,27.617 22.387,50 50,50 27.613,0 50,-22.383 50,-50"
         style="fill:#1e80af;fill-opacity:1;fill-rule:nonzero;stroke:none"
         id="path68" /><path
         d="m 392.5,257.5 c 0,-19.324 -15.668,-35 -35,-35 -19.332,0 -35,15.676 -35,35 0,19.336 15.668,35 35,35 19.332,0 35,-15.664 35,-35"
         style="fill:#1e80af;fill-opacity:1;fill-rule:nonzero;stroke:none"
         id="path70" /><path
         d="m 335,307.5 c 0,-13.801 -11.191,-25 -25,-25 -13.809,0 -25,11.199 -25,25 0,13.809 11.191,25 25,25 13.809,0 25,-11.191 25,-25"
         style="fill:#1e80af;fill-opacity:1;fill-rule:nonzero;stroke:none"
         id="path72" /><path
         d="m 460,265.684 c 0,-13.797 -11.191,-25 -25,-25 -13.809,0 -25,11.203 -25,25 0,13.808 11.191,25 25,25 13.809,0 25,-11.192 25,-25"
         style="fill:#1e80af;fill-opacity:1;fill-rule:nonzero;stroke:none"
         id="path74" /><path
         d="m 590,315.684 c 0,-13.797 -11.191,-25 -25,-25 -13.809,0 -25,11.203 -25,25 0,13.808 11.191,25 25,25 13.809,0 25,-11.192 25,-25"
         style="fill:#1e80af;fill-opacity:1;fill-rule:nonzero;stroke:none"
         id="path76" /><path
         d="m 640,447.559 c 0,-13.789 -11.191,-25 -25,-25 -13.809,0 -25,11.211 -25,25 0,13.808 11.191,25 25,25 13.809,0 25,-11.192 25,-25"
         style="fill:#1e80af;fill-opacity:1;fill-rule:nonzero;stroke:none"
         id="path78" /><path
         d="m 570,570 c 0,-13.801 -11.191,-25 -25,-25 -13.809,0 -25,11.199 -25,25 0,13.809 11.191,25 25,25 13.809,0 25,-11.191 25,-25"
         style="fill:#1e80af;fill-opacity:1;fill-rule:nonzero;stroke:none"
         id="path80" /><path
         d="m 455,620 c 0,-13.789 -11.191,-25 -25,-25 -13.809,0 -25,11.211 -25,25 0,13.809 11.191,25 25,25 13.809,0 25,-11.191 25,-25"
         style="fill:#1e80af;fill-opacity:1;fill-rule:nonzero;stroke:none"
         id="path82" /><path
         d="m 335,570 c 0,-13.801 -11.191,-25 -25,-25 -13.809,0 -25,11.199 -25,25 0,13.809 11.191,25 25,25 13.809,0 25,-11.191 25,-25"
         style="fill:#1e80af;fill-opacity:1;fill-rule:nonzero;stroke:none"
         id="path84" /><path
         d="m 545,257.5 c 0,-19.324 -15.668,-35 -35,-35 -19.332,0 -35,15.676 -35,35 0,19.336 15.668,35 35,35 19.332,0 35,-15.664 35,-35"
         style="fill:#1e80af;fill-opacity:1;fill-rule:nonzero;stroke:none"
         id="path86" /><path
         d="m 292.5,520 c 0,-19.324 -15.668,-35 -35,-35 -19.332,0 -35,15.676 -35,35 0,19.336 15.668,35 35,35 19.332,0 35,-15.664 35,-35"
         style="fill:#1e80af;fill-opacity:1;fill-rule:nonzero;stroke:none"
         id="path88" /><path
         d="m 392.5,630 c 0,-19.324 -15.668,-35 -35,-35 -19.332,0 -35,15.676 -35,35 0,19.336 15.668,35 35,35 19.332,0 35,-15.664 35,-35"
         style="fill:#1e80af;fill-opacity:1;fill-rule:nonzero;stroke:none"
         id="path90" /><path
         d="m 535,630 c 0,-19.324 -15.668,-35 -35,-35 -19.332,0 -35,15.676 -35,35 0,19.336 15.668,35 35,35 19.332,0 35,-15.664 35,-35"
         style="fill:#1e80af;fill-opacity:1;fill-rule:nonzero;stroke:none"
         id="path92" /><path
         d="m 650,527.703 c 0,-19.324 -15.668,-35 -35,-35 -19.332,0 -35,15.676 -35,35 0,19.34 15.668,35 35,35 19.332,0 35,-15.66 35,-35"
         style="fill:#1e80af;fill-opacity:1;fill-rule:nonzero;stroke:none"
         id="path94" /><path
         d="m 650,375.684 c 0,-19.329 -15.668,-35 -35,-35 -19.332,0 -35,15.671 -35,35 0,19.336 15.668,35 35,35 19.332,0 35,-15.664 35,-35"
         style="fill:#1e80af;fill-opacity:1;fill-rule:nonzero;stroke:none"
         id="path96" /></g></g></svg>
